<?xml version="1.0" encoding="UTF-8"?>
<svg width="1413px" height="750px" viewBox="0 0 1413 750" version="1.1" xmlns="http://www.w3.org/2000/svg" xmlns:xlink="http://www.w3.org/1999/xlink">
    <!-- Generator: Sketch 47.1 (45422) - http://www.bohemiancoding.com/sketch -->
    <title>bg</title>
    <desc>Created with Sketch.</desc>
    <defs>
        <rect id="path-1" x="0" y="0" width="1440" height="750"></rect>
    </defs>
    <g id="Page-1" stroke="none" stroke-width="1" fill="none" fill-rule="evenodd">
        <g id="Main-New">
            <g id="cover">
                <g id="Group-6">
                    <g id="bg">
                        <mask id="mask-2" fill="white">
                            <use xlink:href="#path-1"></use>
                        </mask>
                        <use id="Mask" fill-opacity="0" fill="#FFFFFF" xlink:href="#path-1"></use>
                        <path d="M38.3382023,-96 C38.3382023,-96 -89.3652081,81.0125788 -162.817486,267.610549 C-235.532608,454.525683 -262,671.465646 -262,671.465646 C-262,671.465646 -82.7132575,801.819922 103.927488,875.419519 C290.550683,949.036735 509.924642,977 509.924642,977 C509.924642,977 637.979079,799.05355 711.431357,612.43796 C784.16403,425.522826 811,207.666612 811,207.666612 C811,207.666612 631.327128,78.2462066 444.703934,4.62899041 C258.080739,-68.9706056 38.3382023,-96 38.3382023,-96" fill="#4F5292" mask="url(#mask-2)"></path>
                        <path d="M1200.57201,375 C1200.57201,375 1165.4625,423.666086 1145.26826,474.967486 C1125.27668,526.356083 1118,585.999409 1118,585.999409 C1118,585.999409 1167.29132,621.837723 1218.60448,642.072468 C1269.91282,662.312057 1330.22532,670 1330.22532,670 C1330.22532,670 1365.43134,621.077164 1385.62558,569.770921 C1405.62198,518.382324 1413,458.487093 1413,458.487093 C1413,458.487093 1363.60252,422.905527 1312.29419,402.665939 C1260.98585,382.431194 1200.57201,375 1200.57201,375" fill="#FFFFFF" opacity="0.05" mask="url(#mask-2)"></path>
                        <path d="M1340.63639,147 C1340.63639,147 1336.11381,153.268852 1333.51252,159.877168 C1330.93734,166.496716 1330,174.179585 1330,174.179585 C1330,174.179585 1336.34939,178.796046 1342.95922,181.402555 C1349.56843,184.009689 1357.3375,185 1357.3375,185 C1357.3375,185 1361.87251,178.698075 1364.4738,172.089136 C1367.04961,165.469587 1368,157.75427 1368,157.75427 C1368,157.75427 1361.63693,153.170882 1355.02773,150.563748 C1348.41852,147.957239 1340.63639,147 1340.63639,147" id="bg-copy" fill="#FFFFFF" opacity="0.2" mask="url(#mask-2)"></path>
                        <path d="M857.39241,635 C857.39241,635 847.871187,648.197583 842.394782,662.109827 C836.973338,676.045717 835,692.220179 835,692.220179 C835,692.220179 848.367138,701.939044 862.282571,707.426432 C876.196696,712.915134 892.552629,715 892.552629,715 C892.552629,715 902.100025,701.73279 907.576429,687.819233 C912.999182,673.883342 915,657.640568 915,657.640568 C915,657.640568 901.604073,647.991329 887.689948,642.502627 C873.775824,637.015239 857.39241,635 857.39241,635" id="bg-copy-2" fill="#4F5292" mask="url(#mask-2)"></path>
                    </g>
                </g>
            </g>
        </g>
    </g>
</svg>