<?xml version="1.0" encoding="UTF-8"?>
<svg width="990px" height="3074px" viewBox="0 0 990 3074" version="1.1" xmlns="http://www.w3.org/2000/svg" xmlns:xlink="http://www.w3.org/1999/xlink">
    <!-- Generator: Sketch 47.1 (45422) - http://www.bohemiancoding.com/sketch -->
    <title>Group 2 Copy</title>
    <desc>Created with Sketch.</desc>
    <defs>
        <rect id="path-1" x="0" y="0" width="990" height="3074"></rect>
    </defs>
    <g id="Page-1" stroke="none" stroke-width="1" fill="none" fill-rule="evenodd">
        <g id="Artboard-4" transform="translate(0.000000, -2948.000000)">
            <g id="Group-2-Copy" transform="translate(0.000000, 2948.000000)">
                <mask id="mask-2" fill="white">
                    <use xlink:href="#path-1"></use>
                </mask>
                <use id="Mask" fill="#D8D8D8" opacity="0" xlink:href="#path-1"></use>
                <g mask="url(#mask-2)" fill="#F7F7FC">
                    <g transform="translate(483.000000, 1537.000000) scale(-1, -1) translate(-483.000000, -1537.000000) translate(-349.000000, 0.000000)">
                        <rect id="Rectangle" x="325" y="537" width="990" height="2000"></rect>
                        <path d="M541.5,0 C821.988361,47.8274412 1029.82169,92.4520911 1165,133.87395 C1300.17831,175.295808 1466.51164,245.324753 1664,343.960784 L1664,537 L224,537 C274.823395,437.724496 326.323395,343.962591 378.5,255.714286 C430.676605,167.46598 485.009939,82.2278849 541.5,0 Z" id="Rectangle-29"></path>
                        <path d="M317.5,2537 C597.988361,2584.82744 805.821694,2629.45209 941,2670.87395 C1076.17831,2712.29581 1242.51164,2782.32475 1440,2880.96078 L1440,3074 L0,3074 C50.8233947,2974.7245 102.323395,2880.96259 154.5,2792.71429 C206.676605,2704.46598 261.009939,2619.22788 317.5,2537 Z" id="Rectangle-29" transform="translate(720.000000, 2805.500000) scale(-1, -1) translate(-720.000000, -2805.500000) "></path>
                    </g>
                </g>
            </g>
        </g>
    </g>
</svg>