<?xml version="1.0" encoding="UTF-8"?>
<svg width="1900px" height="2178px" viewBox="0 0 1900 2178" version="1.1" xmlns="http://www.w3.org/2000/svg" xmlns:xlink="http://www.w3.org/1999/xlink">
    <!-- Generator: Sketch 47.1 (45422) - http://www.bohemiancoding.com/sketch -->
    <title>Group 2</title>
    <desc>Created with Sketch.</desc>
    <defs></defs>
    <g id="Page-1" stroke="none" stroke-width="1" fill="none" fill-rule="evenodd">
        <g id="Artboard-4-Copy-2" transform="translate(0.000000, -2978.000000)" fill="#F7F7FC">
            <g id="Group-2" transform="translate(950.000000, 4067.000000) scale(-1, -1) translate(-950.000000, -4067.000000) translate(0.000000, 2978.000000)">
                <rect id="Rectangle" x="0" y="537" width="1900" height="1104"></rect>
                <path d="M418.923611,0 C789.01242,47.8274412 1063.23696,92.4520911 1241.59722,133.87395 C1419.95749,175.295808 1639.42508,245.324753 1900,343.960784 L1900,537 L0,537 C67.0586458,437.724496 135.010035,343.962591 203.854167,255.714286 C272.698299,167.46598 344.388113,82.2278849 418.923611,0 Z" id="Rectangle-29"></path>
                <path d="M418.923611,1641 C789.01242,1688.82744 1063.23696,1733.45209 1241.59722,1774.87395 C1419.95749,1816.29581 1639.42508,1886.32475 1900,1984.96078 L1900,2178 L0,2178 C67.0586458,2078.7245 135.010035,1984.96259 203.854167,1896.71429 C272.698299,1808.46598 344.388113,1723.22788 418.923611,1641 Z" id="Rectangle-29" transform="translate(950.000000, 1909.500000) scale(-1, -1) translate(-950.000000, -1909.500000) "></path>
            </g>
        </g>
    </g>
</svg>