<?xml version="1.0" encoding="UTF-8"?>
<svg width="1440px" height="2178px" viewBox="0 0 1440 2178" version="1.1" xmlns="http://www.w3.org/2000/svg" xmlns:xlink="http://www.w3.org/1999/xlink">
    <!-- Generator: Sketch 47.1 (45422) - http://www.bohemiancoding.com/sketch -->
    <title>Group 2</title>
    <desc>Created with Sketch.</desc>
    <defs></defs>
    <g id="Page-1" stroke="none" stroke-width="1" fill="none" fill-rule="evenodd">
        <g id="Artboard-3" transform="translate(0.000000, -4532.000000)" fill="#F7F7FC">
            <g id="Group-2" transform="translate(720.000000, 5621.000000) scale(-1, -1) translate(-720.000000, -5621.000000) translate(0.000000, 4532.000000)">
                <rect id="Rectangle" x="0" y="537" width="1440" height="1104"></rect>
                <path d="M317.5,0 C597.988361,47.8274412 805.821694,92.4520911 941,133.87395 C1076.17831,175.295808 1242.51164,245.324753 1440,343.960784 L1440,537 L0,537 C50.8233947,437.724496 102.323395,343.962591 154.5,255.714286 C206.676605,167.46598 261.009939,82.2278849 317.5,0 Z" id="Rectangle-29"></path>
                <path d="M317.5,1641 C597.988361,1688.82744 805.821694,1733.45209 941,1774.87395 C1076.17831,1816.29581 1242.51164,1886.32475 1440,1984.96078 L1440,2178 L0,2178 C50.8233947,2078.7245 102.323395,1984.96259 154.5,1896.71429 C206.676605,1808.46598 261.009939,1723.22788 317.5,1641 Z" id="Rectangle-29" transform="translate(720.000000, 1909.500000) scale(-1, -1) translate(-720.000000, -1909.500000) "></path>
            </g>
        </g>
    </g>
</svg>