<?xml version="1.0" encoding="UTF-8"?>
<svg width="1440px" height="1091px" viewBox="0 0 1440 1091" version="1.1" xmlns="http://www.w3.org/2000/svg" xmlns:xlink="http://www.w3.org/1999/xlink" style="background: #F7F7FC;">
    <!-- Generator: Sketch 47.1 (45422) - http://www.bohemiancoding.com/sketch -->
    <title>Artboard 7</title>
    <desc>Created with Sketch.</desc>
    <defs></defs>
    <g id="Page-1" stroke="none" stroke-width="1" fill="none" fill-rule="evenodd" opacity="0.131000906">
        <g id="Artboard-7">
            <g id="mosaic" transform="translate(-30.000000, 46.000000)">
                <g opacity="0.3" transform="translate(250.000000, 750.000000)">
                    <rect id="Rectangle-7-Copy" fill="#575A9E" x="0" y="125" width="125" height="125"></rect>
                    <rect id="Rectangle-7" fill="#6265B0" x="125" y="0" width="125" height="125"></rect>
                    <rect id="Rectangle-7" fill="#494C85" x="250" y="0" width="125" height="125"></rect>
                    <rect id="Rectangle-7-Copy" fill="#575A9E" x="250" y="125" width="125" height="125"></rect>
                    <rect id="Rectangle-7" fill="#575A9E" x="375" y="0" width="125" height="125"></rect>
                    <rect id="Rectangle-7" fill="#494C85" x="500" y="0" width="125" height="125"></rect>
                    <rect id="Rectangle-7" fill="#575A9E" x="625" y="0" width="125" height="125"></rect>
                    <rect id="Rectangle-7" fill="#6265B0" x="1000" y="0" width="125" height="125"></rect>
                </g>
                <g opacity="0.3">
                    <rect id="Rectangle-7-Copy-4" fill="#575A9E" x="0" y="500" width="125" height="125"></rect>
                    <rect id="Rectangle-7" fill="#55589A" x="125" y="0" width="125" height="125"></rect>
                    <rect id="Rectangle-7-Copy-3" fill="#494C85" x="125" y="375" width="125" height="125"></rect>
                    <rect id="Rectangle-7-Copy" fill="#6265B0" x="125" y="125" width="125" height="125"></rect>
                    <rect id="Rectangle-7-Copy-2" fill="#6265B0" x="250" y="250" width="125" height="125"></rect>
                    <rect id="Rectangle-7-Copy-4" fill="#6265B0" x="250" y="500" width="125" height="125"></rect>
                    <rect id="Rectangle-7" fill="#6265B0" x="375" y="0" width="125" height="125"></rect>
                    <rect id="Rectangle-7-Copy-5" fill="#575A9E" x="375" y="625" width="125" height="125"></rect>
                    <rect id="Rectangle-7-Copy-3" fill="#575A9E" x="500" y="375" width="125" height="125"></rect>
                    <rect id="Rectangle-7-Copy-5" fill="#6265B0" x="500" y="625" width="125" height="125"></rect>
                    <rect id="Rectangle-7-Copy" fill="#575A9E" x="500" y="125" width="125" height="125"></rect>
                    <rect id="Rectangle-7-Copy-2" fill="#6265B0" x="500" y="250" width="125" height="125"></rect>
                    <rect id="Rectangle-7-Copy-4" fill="#494C85" x="500" y="500" width="125" height="125"></rect>
                    <rect id="Rectangle-7-Copy" fill="#6265B0" x="625" y="125" width="125" height="125"></rect>
                    <rect id="Rectangle-7-Copy-2" fill="#575A9E" x="625" y="250" width="125" height="125"></rect>
                    <rect id="Rectangle-7-Copy-4" fill="#6265B0" x="625" y="500" width="125" height="125"></rect>
                    <rect id="Rectangle-7-Copy-5" fill="#494C85" x="750" y="625" width="125" height="125"></rect>
                    <rect id="Rectangle-7-Copy-2" fill="#6265B0" x="750" y="250" width="125" height="125"></rect>
                    <rect id="Rectangle-7-Copy-4" fill="#575A9E" x="750" y="500" width="125" height="125"></rect>
                    <rect id="Rectangle-7" fill="#575A9E" x="875" y="0" width="125" height="125"></rect>
                    <rect id="Rectangle-7-Copy-5" fill="#6265B0" x="875" y="625" width="125" height="125"></rect>
                    <rect id="Rectangle-7-Copy-2" fill="#6265B0" x="875" y="250" width="125" height="125"></rect>
                    <rect id="Rectangle-7-Copy-3" fill="#494C85" x="1000" y="375" width="125" height="125"></rect>
                    <rect id="Rectangle-7-Copy-5" fill="#575A9E" x="1000" y="625" width="125" height="125"></rect>
                    <rect id="Rectangle-7-Copy" fill="#575A9E" x="1000" y="125" width="125" height="125"></rect>
                    <rect id="Rectangle-7-Copy-2" fill="#6265B0" x="1000" y="250" width="125" height="125"></rect>
                    <rect id="Rectangle-7-Copy-4" fill="#6265B0" x="1000" y="500" width="125" height="125"></rect>
                    <rect id="Rectangle-7-Copy" fill="#6265B0" x="1125" y="125" width="125" height="125"></rect>
                    <rect id="Rectangle-7" fill="#6265B0" x="1250" y="0" width="125" height="125"></rect>
                    <rect id="Rectangle-7-Copy-3" fill="#494C85" x="1250" y="375" width="125" height="125"></rect>
                    <rect id="Rectangle-7-Copy-5" fill="#575A9E" x="1250" y="625" width="125" height="125"></rect>
                    <rect id="Rectangle-7-Copy-3" fill="#575A9E" x="1375" y="375" width="125" height="125"></rect>
                    <rect id="Rectangle-7-Copy-5" fill="#494C85" x="1375" y="625" width="125" height="125"></rect>
                    <rect id="Rectangle-7-Copy" fill="#6265B0" x="1375" y="125" width="125" height="125"></rect>
                </g>
            </g>
        </g>
    </g>
</svg>