<?xml version="1.0" encoding="UTF-8"?>
<svg width="16px" height="16px" viewBox="0 0 16 16" version="1.1" xmlns="http://www.w3.org/2000/svg" xmlns:xlink="http://www.w3.org/1999/xlink">
    <!-- Generator: Sketch 47.1 (45422) - http://www.bohemiancoding.com/sketch -->
    <title>Artboard 6</title>
    <desc>Created with Sketch.</desc>
    <defs></defs>
    <g id="Page-1" stroke="none" stroke-width="1" fill="none" fill-rule="evenodd">
        <g id="Artboard-6">
            <g id="Group">
                <path d="M3.20493187,0.90057872 C3.20493187,0.90057872 1.83675785,3.70332845 1.26023328,6.50658074 C0.694553224,9.31209453 0.85822971,12.4246695 0.85822971,12.4246695 C0.85822971,12.4246695 3.71865915,13.8107164 6.54251987,14.381619 C9.3663806,14.9522703 12.5400399,14.8007499 12.5400399,14.8007499 C12.5400399,14.8007499 13.9109881,11.9839287 14.4875127,9.18067637 C15.0531927,6.37516259 14.8925426,3.2485161 14.8925426,3.2485161 C14.8925426,3.2485161 12.0290868,1.8765407 9.2052261,1.3058894 C6.38161757,0.734986818 3.20493187,0.90057872 3.20493187,0.90057872" id="Fill-31" fill="#292D78"></path>
                <path d="M4.31561175,0.198257983 C4.31561175,0.198257983 2.48061928,2.7225922 1.42517076,5.3836214 C0.380314547,8.04917359 0,11.1429027 0,11.1429027 C0,11.1429027 2.57620232,13.001854 5.25807559,14.0514403 C7.93969666,15.1012779 11.0919192,15.5000553 11.0919192,15.5000553 C11.0919192,15.5000553 12.9319556,12.9624034 13.9874041,10.3011229 C15.0325125,7.63557075 15.4181232,4.52877519 15.4181232,4.52877519 C15.4181232,4.52877519 12.8363725,2.68314162 10.1547515,1.63330404 C7.4731304,0.583717736 4.31561175,0.198257983 4.31561175,0.198257983" id="Fill-33" fill="#D8232A"></path>
                <path d="M0.742218641,9.97546725 L1.57144558,8.99272077 C2.10761848,9.41964132 2.68742162,9.63322723 3.31110722,9.63322723 C3.50756944,9.63322723 3.65762724,9.60030987 3.7620372,9.53447516 C3.86619496,9.46864044 3.91839994,9.37390881 3.91839994,9.24952642 C3.91839994,9.13544642 3.85686364,9.04247372 3.73404322,8.97035707 C3.61122281,8.89849169 3.37314792,8.82160076 3.02057515,8.73968428 C2.83924481,8.69746966 2.68162107,8.65852164 2.54795614,8.62233767 C2.41403902,8.58665626 2.27230376,8.54117502 2.12224596,8.48639652 C1.97218817,8.43186929 1.84457599,8.37482929 1.73966163,8.31552779 C1.63474728,8.25572373 1.5321027,8.18385835 1.4322323,8.0994291 C1.33210971,8.01499984 1.25216295,7.92403737 1.19213983,7.82578785 C1.13211671,7.72804089 1.0839469,7.61320705 1.04763039,7.48153762 C1.01156608,7.35011946 0.993407825,7.20613743 0.993407825,7.04959152 C0.993407825,6.54628259 1.18129532,6.13544381 1.5573225,5.81782899 C1.93309748,5.4999629 2.43825003,5.34140677 3.07278013,5.34140677 C3.95244667,5.34140677 4.68735157,5.57710511 5.27799923,6.04850178 L4.53275421,7.09431892 C4.03239343,6.74454058 3.53329363,6.56965141 3.03545483,6.56965141 C2.86143823,6.56965141 2.72878209,6.60256876 2.63672983,6.66840348 C2.54492977,6.7342382 2.49902974,6.82017512 2.49902974,6.92696808 C2.49902974,7.05109918 2.56031385,7.1470872 2.68313426,7.2154347 C2.80620687,7.28378219 3.05285649,7.36017056 3.42308312,7.44434854 C3.75068829,7.5164652 4.02961925,7.59511507 4.25911941,7.68054943 C4.48912396,7.76623507 4.6956741,7.87378186 4.87902203,8.00243597 C5.06262216,8.13159262 5.19931346,8.28864109 5.28909594,8.47358136 C5.37913061,8.65852164 5.42402185,8.8748716 5.42402185,9.12288254 C5.42402185,9.66162159 5.22705524,10.0857781 4.833122,10.3961059 C4.43918876,10.7061823 3.91335598,10.8612206 3.25537146,10.8612206 C2.77140355,10.8612206 2.31240324,10.7863399 1.87862272,10.6363272 C1.4448422,10.4860632 1.06578864,10.2656928 0.742218641,9.97546725" id="Fill-35" fill="#FFFFFF"></path>
                <polygon id="Fill-36" fill="#FFFFFF" points="6.16371852 10.7682479 7.64664261 10.7682479 7.64664261 5.4306103 6.16371852 5.4306103"></polygon>
                <path d="M8.45014536,8.09339844 C8.45014536,7.70944635 8.52303057,7.34735541 8.66854881,7.00712561 C8.81431924,6.66639326 9.01431223,6.37315237 9.26827559,6.12690037 C9.52223895,5.8803971 9.8281551,5.68540573 10.1855196,5.54192625 C10.542632,5.39819549 10.9257207,5.32633012 11.3342814,5.32633012 C11.785968,5.32633012 12.185954,5.39291866 12.5334828,5.52584449 C12.8812638,5.65877031 13.203825,5.85476679 13.501923,6.11308011 L12.6323444,7.15412298 C12.4333602,6.98777724 12.231854,6.86364613 12.028078,6.78172965 C11.8240499,6.69981317 11.5953063,6.65910621 11.3415951,6.65910621 C10.95548,6.65910621 10.6306491,6.79957036 10.3665978,7.08100121 C10.1025465,7.36218078 9.97064695,7.70693357 9.97064695,8.11525958 C9.97064695,8.55072357 10.1070861,8.91030174 10.3794599,9.19349153 C10.6523381,9.47668132 11.0003713,9.61815058 11.4238117,9.61815058 C11.7700795,9.61815058 12.0565764,9.54125965 12.2830502,9.38697524 L12.2830502,8.71732058 L11.2182703,8.71732058 L11.2182703,7.64888846 L13.6840099,7.64888846 L13.6840099,10.0596452 C13.0136677,10.6041637 12.2401765,10.8762972 11.3640408,10.8762972 C10.8134926,10.8762972 10.3166626,10.7586994 9.87355073,10.5237549 C9.43018669,10.2888103 9.08190129,9.95863165 8.82945111,9.53321877 C8.57649655,9.10805716 8.45014536,8.62811705 8.45014536,8.09339844" id="Fill-37" fill="#FFFFFF"></path>
            </g>
        </g>
    </g>
</svg>