<?xml version="1.0" encoding="UTF-8"?>
<svg width="100px" height="100px" viewBox="0 0 100 100" version="1.1" xmlns="http://www.w3.org/2000/svg" xmlns:xlink="http://www.w3.org/1999/xlink">
    <!-- Generator: Sketch 47.1 (45422) - http://www.bohemiancoding.com/sketch -->
    <title>icon</title>
    <desc>Created with Sketch.</desc>
    <defs></defs>
    <g id="Page-1" stroke="none" stroke-width="1" fill="none" fill-rule="evenodd">
        <g id="Main-New" transform="translate(-1029.000000, -2591.000000)">
            <g id="about" transform="translate(150.000000, 826.000000)">
                <g id="icon-benefits" transform="translate(60.000000, 1765.000000)">
                    <g id="icon" transform="translate(819.000000, 0.000000)">
                        <rect id="ic-bg" fill="#FFFFFF" x="0" y="0" width="100" height="100"></rect>
                        <circle id="Oval-2" fill="#DDDDF3" opacity="0.665364583" cx="50" cy="49" r="40"></circle>
                        <path d="M21.9752687,56.8987545 C22.6138219,59.0884721 23.4999774,61.1999855 24.6207034,63.1811586 L21.4279374,67.2086749 C20.3854016,68.5251122 20.5026869,70.402013 21.6755397,71.5881101 L27.1749162,77.0884721 C28.3608007,78.2745692 30.2373651,78.3787111 31.5535666,77.3359884 L35.5542978,74.1687183 C37.6133061,75.3549457 39.8026313,76.2802317 42.0831784,76.9319334 L42.6826365,82.0803765 C42.878112,83.7487328 44.2855354,85 45.9535927,85 L53.7335163,85 C55.4015736,85 56.8089969,83.7486025 57.0044724,82.0803765 L57.5778671,77.1144098 C60.0278263,76.4757422 62.3735319,75.5242578 64.5758888,74.2860246 L68.4463031,77.3490224 C69.7625045,78.3917451 71.639069,78.2744388 72.8249535,77.1013758 L78.32433,71.6010138 C79.5102145,70.4149167 79.6144681,68.5380159 78.5719323,67.2215786 L75.5616101,63.4026068 C76.8126531,61.2388269 77.7900304,58.9319334 78.4416153,56.5206372 L83.0808997,55.9862419 C84.7490873,55.7907314 86,54.3830558 86,52.7146995 L86,44.9333816 C86,43.2650253 84.748957,41.8573497 83.0808997,41.6618392 L78.5067738,41.1274439 C77.881122,38.7422158 76.94297,36.46126 75.7441842,34.3236785 L78.5590309,30.7653874 C79.6015667,29.44895 79.4842814,27.5720492 78.3114286,26.3859522 L72.8250838,20.8986242 C71.6391993,19.7125272 69.7626349,19.6082549 68.4464334,20.6509776 L64.9930335,23.3881245 C62.7515815,22.0716872 60.3536187,21.0680666 57.8386314,20.3902969 L57.3173635,15.9196235 C57.121888,14.2512672 55.7144646,13 54.0464073,13 L46.2664837,13 C44.5984264,13 43.1910031,14.2512672 42.9955276,15.9196235 L42.4742597,20.3902969 C39.8939835,21.0811007 37.4309926,22.1238233 35.1374138,23.4923968 L31.5536969,20.6509776 C30.2374955,19.6082549 28.360931,19.7255612 27.1750465,20.8986242 L21.67567,26.3989862 C20.4897855,27.5850833 20.3855319,29.4619841 21.4280677,30.7784214 L24.4253582,34.5713251 C23.226442,36.7349747 22.3142232,39.0419986 21.7147651,41.4402607 L16.9191003,41.9876901 C15.251043,42.1832006 14,43.5908762 14,45.2592324 L14,53.0405503 C14,54.7089066 15.251043,56.1165822 16.9191003,56.3120927 L21.9752687,56.8987545 Z M50,25 C63.2279635,25 74,35.7720365 74,49 C74,62.2279635 63.2279635,73 50,73 C36.7722796,73 26,62.2279635 26,49 C26,35.7720365 36.7720365,25 50,25 Z" id="Shape" fill="#55589A" fill-rule="nonzero"></path>
                        <circle id="Oval-8" fill="#D8232A" cx="50" cy="49" r="4"></circle>
                        <polygon id="Rectangle-15" fill="#D8232A" transform="translate(61.868433, 43.334388) rotate(66.000000) translate(-61.868433, -43.334388) " points="61.3684325 35.8343885 62.3684325 35.8343885 64.3684325 50.8343885 59.3684325 50.8343885"></polygon>
                        <circle id="Oval-2" fill="#55589A" cx="58" cy="95" r="3"></circle>
                        <circle id="Oval-2" fill="#55589A" cx="76.5" cy="11.5" r="1.5"></circle>
                        <circle id="Oval-2" fill="#55589A" cx="4.5" cy="32.5" r="1.5"></circle>
                    </g>
                </g>
            </g>
        </g>
    </g>
</svg>