<?xml version="1.0" encoding="UTF-8"?>
<svg width="100px" height="100px" viewBox="0 0 100 100" version="1.1" xmlns="http://www.w3.org/2000/svg" xmlns:xlink="http://www.w3.org/1999/xlink">
    <!-- Generator: Sketch 47.1 (45422) - http://www.bohemiancoding.com/sketch -->
    <title>icon expenses</title>
    <desc>Created with Sketch.</desc>
    <defs></defs>
    <g id="Page-1" stroke="none" stroke-width="1" fill="none" fill-rule="evenodd">
        <g id="Main-New" transform="translate(-670.000000, -1183.000000)">
            <g id="about" transform="translate(150.000000, 826.000000)">
                <g id="icon-problems" transform="translate(59.000000, 357.000000)">
                    <g id="icon-expenses" transform="translate(461.000000, 0.000000)">
                        <rect id="ic-bg" fill="#FFFFFF" opacity="0.01" x="0" y="0" width="100" height="100"></rect>
                        <circle id="Oval-2" fill="#DDDDF3" opacity="0.665364583" cx="50" cy="50" r="40"></circle>
                        <circle id="Oval-2" fill="#55589A" cx="94" cy="69" r="3"></circle>
                        <circle id="Oval-2" fill="#55589A" cx="22.5" cy="86.5" r="1.5"></circle>
                        <circle id="Oval-2" fill="#55589A" cx="6.5" cy="30.5" r="1.5"></circle>
                        <g id="payment-method" transform="translate(53.500000, 51.900000) rotate(-90.000000) translate(-53.500000, -51.900000) translate(32.000000, 15.400000)">
                            <circle id="Oval-10" fill="#D8232A" cx="13.6" cy="13.6" r="13.6"></circle>
                            <path d="M40.4226026,24.3910387 C39.5368883,23.7044399 30.3479687,13.5542547 27.8679687,12.1171875 C27.2866448,15.2891131 26.7207594,17.5760923 26.1703125,18.978125 C25.6867577,20.209778 24.4816796,22.0140826 22.5550781,24.3910387 L23.626239,35.8396741 C21.919226,34.5942159 20.0028623,30.698167 20.0028623,30.698167 C20.0028623,30.698167 19.0688364,20.3193483 13.7706545,20.3193483 C13.6257195,20.3193483 13.4968883,20.3193483 13.3519532,20.3353157 C13.3519532,20.3353157 9.34208312,20.6706314 12.6594857,32.0553971 L14.1410442,44.6856212 C14.1410442,44.6856212 15.7997455,51.551609 20.3732519,56.2939308 L20.3732519,57.7150305 C20.3732519,58.465499 20.627013,72.5 21.4,72.5 C23.8646015,72.5 26.020591,72.5 27.8679688,72.5 C29.334415,72.5 31.5117587,72.1666667 34.4,71.5 C35.1085714,71.5 37.8194805,70.6865988 37.9,70 C38.4314286,65.1299389 40.5997455,35.0572709 41.8075377,31.9755601 C42.0329922,31.3847658 42.2423429,30.7939715 42.3228623,30.1712424 C42.5161091,28.574501 42.4677974,25.9558452 40.4226026,24.3910387 Z" id="Shape" fill="#55589A" fill-rule="nonzero"></path>
                        </g>
                        <text id="$" transform="translate(29.800000, 59.300000) rotate(-20.000000) translate(-29.800000, -59.300000) " font-family="HelveticaNeue-Bold, Helvetica Neue" font-size="19.2" font-weight="bold" letter-spacing="0.120000005" fill="#FFFFFF">
                            <tspan x="24.4024" y="66.8">$</tspan>
                        </text>
                    </g>
                </g>
            </g>
        </g>
    </g>
</svg>