<?xml version="1.0" encoding="UTF-8"?>
<svg width="20px" height="20px" viewBox="0 0 20 20" version="1.1" xmlns="http://www.w3.org/2000/svg" xmlns:xlink="http://www.w3.org/1999/xlink">
    <!-- Generator: Sketch 47.1 (45422) - http://www.bohemiancoding.com/sketch -->
    <title>Fill 29</title>
    <desc>Created with Sketch.</desc>
    <defs></defs>
    <g id="Page-1" stroke="none" stroke-width="1" fill="none" fill-rule="evenodd">
        <g id="Partnership" transform="translate(-485.000000, -5279.000000)" fill="#C7C7C7">
            <g id="about" transform="translate(0.000000, 813.000000)">
                <g id="keeper" transform="translate(0.000000, 3798.000000)">
                    <g id="table" transform="translate(345.000000, 644.000000)">
                        <path d="M148.368704,40.2499798 C147.67414,40.2499798 147.165012,39.828677 147.651097,37.9745534 L148.448051,34.6865219 C148.586529,34.1595673 148.60979,33.9491333 148.448051,33.9491333 C148.239573,33.9491333 147.337837,34.3128276 146.805448,34.6713046 L146.458057,34.1023936 C148.147835,32.6910944 150.091089,31.8634888 150.92413,31.8634888 C151.618911,31.8634888 151.734345,32.6850075 151.38739,33.9491333 L150.474566,37.4056424 C150.312828,38.0167271 150.382393,38.2271611 150.543697,38.2271611 C150.752609,38.2271611 151.435433,37.9736838 152.1063,37.4467292 L152.499777,37.9736838 C150.856304,39.6169387 149.062832,40.2499798 148.368704,40.2499798 M150.974782,27.3332879 C151.991301,27.3332879 152.2913,27.9232858 152.2913,28.5974137 C152.2913,29.4402367 151.616737,30.2193643 150.466088,30.2193643 C149.503048,30.2193643 149.045006,29.7348009 149.071745,28.9345864 C149.071745,28.2602411 149.636743,27.3332879 150.974782,27.3332879 M149.86609,24.0009088 C144.343934,24.0748216 139.927426,28.6119789 140.000904,34.1345674 C140.074817,39.6547646 144.611541,44.0725745 150.133698,43.9990966 C155.654985,43.924749 160.072362,39.3875917 159.999102,33.865438 C159.925189,28.344806 155.388029,23.9272134 149.86609,24.0009088" id="Fill-29"></path>
                    </g>
                </g>
            </g>
        </g>
    </g>
</svg>