<?xml version="1.0" encoding="UTF-8"?>
<svg width="100px" height="100px" viewBox="0 0 100 100" version="1.1" xmlns="http://www.w3.org/2000/svg" xmlns:xlink="http://www.w3.org/1999/xlink">
    <!-- Generator: Sketch 47.1 (45422) - http://www.bohemiancoding.com/sketch -->
    <title>icon keeper</title>
    <desc>Created with Sketch.</desc>
    <defs></defs>
    <g id="Page-1" stroke="none" stroke-width="1" fill="none" fill-rule="evenodd">
        <g id="Main-New" transform="translate(-1027.000000, -5137.000000)">
            <g id="types" transform="translate(211.000000, 4823.000000)">
                <g id="miner-copy-2" transform="translate(716.000000, 264.000000)">
                    <g id="icon-keeper" transform="translate(100.000000, 50.000000)">
                        <rect id="ic-bg" fill="#FFFFFF" opacity="0.01" x="0" y="0" width="100" height="100"></rect>
                        <circle id="Oval-2" fill="#DDDDF3" opacity="0.665364583" cx="50" cy="50" r="40"></circle>
                        <circle id="Oval-2" fill="#55589A" cx="90" cy="24" r="3"></circle>
                        <circle id="Oval-2" fill="#55589A" cx="12.5" cy="80.5" r="1.5"></circle>
                        <circle id="Oval-2" fill="#55589A" cx="12.5" cy="34.5" r="1.5"></circle>
                        <g id="icon-safe" transform="translate(18.000000, 16.000000)">
                            <rect id="Rectangle-5" fill="#55589A" x="0" y="0" width="64" height="64" rx="3.2"></rect>
                            <rect id="Rectangle-5" fill="#FFFFFF" x="10" y="9" width="44" height="44" rx="3.2"></rect>
                            <g id="Group-2" transform="translate(29.022646, 33.964892) rotate(18.000000) translate(-29.022646, -33.964892) translate(12.022646, 19.464892)" fill="#D8232A">
                                <ellipse id="Oval" cx="16.8" cy="11.3373494" rx="6.4" ry="6.36144578"></ellipse>
                                <rect id="Rectangle-8" transform="translate(11.192305, 8.341149) rotate(30.000000) translate(-11.192305, -8.341149) " x="-0.807695155" y="6.75078739" width="24" height="3.18072289" rx="1.59036145"></rect>
                                <rect id="Rectangle-8-Copy" transform="translate(22.392305, 8.341149) rotate(-30.000000) translate(-22.392305, -8.341149) " x="10.3923048" y="6.75078739" width="24" height="3.18072289" rx="1.59036145"></rect>
                                <rect id="Rectangle-8-Copy-2" transform="translate(16.800000, 16.903614) rotate(90.000000) translate(-16.800000, -16.903614) " x="4.8" y="15.313253" width="24" height="3.18072289" rx="1.59036145"></rect>
                            </g>
                            <rect id="Rectangle-6" fill="#55589A" x="12.8" y="61.2289157" width="12" height="4.77108434"></rect>
                            <rect id="Rectangle-6" fill="#55589A" x="39.2" y="61.2289157" width="12" height="4.77108434"></rect>
                        </g>
                    </g>
                </g>
            </g>
        </g>
    </g>
</svg>