<?xml version="1.0" encoding="UTF-8"?>
<svg width="410px" height="170px" viewBox="0 0 410 170" version="1.1" xmlns="http://www.w3.org/2000/svg" xmlns:xlink="http://www.w3.org/1999/xlink">
    <!-- Generator: Sketch 47.1 (45422) - http://www.bohemiancoding.com/sketch -->
    <title>1 copy 6</title>
    <desc>Created with Sketch.</desc>
    <defs>
        <rect id="path-1" x="0" y="0" width="390" height="150" rx="8"></rect>
        <filter x="-4.0%" y="-9.7%" width="107.9%" height="120.7%" filterUnits="objectBoundingBox" id="filter-3">
            <feOffset dx="0" dy="1" in="SourceAlpha" result="shadowOffsetOuter1"></feOffset>
            <feGaussianBlur stdDeviation="5" in="shadowOffsetOuter1" result="shadowBlurOuter1"></feGaussianBlur>
            <feColorMatrix values="0 0 0 0 0   0 0 0 0 0   0 0 0 0 0  0 0 0 0.36 0" type="matrix" in="shadowBlurOuter1"></feColorMatrix>
        </filter>
    </defs>
    <g id="Page-1" stroke="none" stroke-width="1" fill="none" fill-rule="evenodd">
        <g id="1-copy-6" transform="translate(10.000000, 9.000000)">
            <g id="Group-4">
                <mask id="mask-2" fill="white">
                    <use xlink:href="#path-1"></use>
                </mask>
                <g id="Rectangle-24">
                    <use fill="black" fill-opacity="1" filter="url(#filter-3)" xlink:href="#path-1"></use>
                    <use fill="#FFFFFF" fill-rule="evenodd" xlink:href="#path-1"></use>
                </g>
                <path d="M346.979315,89.4976336 C346.979315,89.4976336 337.339076,102.365277 331.794216,115.929715 C326.305004,129.517208 324.306999,145.287308 324.306999,145.287308 C324.306999,145.287308 337.841227,154.763201 351.930603,160.113405 C366.018654,165.464889 382.579037,167.497634 382.579037,167.497634 C382.579037,167.497634 392.245774,154.562104 397.790634,140.996386 C403.281171,127.408892 405.306999,111.572187 405.306999,111.572187 C405.306999,111.572187 391.743623,102.16418 377.655572,96.8126953 C363.567521,91.4624917 346.979315,89.4976336 346.979315,89.4976336" id="Fill-33" fill="#55589A" mask="url(#mask-2)"></path>
            </g>
            <path d="M161.104,26.576 L170.608,26.576 L170.608,38 L168.096,38 L168.096,28.688 L163.616,28.688 L163.616,38 L161.104,38 L161.104,26.576 Z M176.692,38.208 C176.04133,38.208 175.454669,38.1066677 174.932,37.904 C174.409331,37.7013323 173.961335,37.4106686 173.588,37.032 C173.214665,36.6533314 172.926668,36.197336 172.724,35.664 C172.521332,35.130664 172.42,34.5333366 172.42,33.872 C172.42,33.2106634 172.521332,32.6106694 172.724,32.072 C172.926668,31.5333306 173.214665,31.0746686 173.588,30.696 C173.961335,30.3173314 174.409331,30.024001 174.932,29.816 C175.454669,29.607999 176.04133,29.504 176.692,29.504 C177.34267,29.504 177.931997,29.607999 178.46,29.816 C178.988003,30.024001 179.438665,30.3173314 179.812,30.696 C180.185335,31.0746686 180.473332,31.5333306 180.676,32.072 C180.878668,32.6106694 180.98,33.2106634 180.98,33.872 C180.98,34.5333366 180.878668,35.130664 180.676,35.664 C180.473332,36.197336 180.185335,36.6533314 179.812,37.032 C179.438665,37.4106686 178.988003,37.7013323 178.46,37.904 C177.931997,38.1066677 177.34267,38.208 176.692,38.208 Z M176.692,36.512 C177.076002,36.512 177.398665,36.4373341 177.66,36.288 C177.921335,36.1386659 178.129333,35.9386679 178.284,35.688 C178.438667,35.4373321 178.548,35.1546682 178.612,34.84 C178.676,34.5253318 178.708,34.2026683 178.708,33.872 C178.708,33.5413317 178.676,33.2160016 178.612,32.896 C178.548,32.5759984 178.438667,32.2933346 178.284,32.048 C178.129333,31.8026654 177.921335,31.6026674 177.66,31.448 C177.398665,31.2933326 177.076002,31.216 176.692,31.216 C176.307998,31.216 175.988001,31.2933326 175.732,31.448 C175.475999,31.6026674 175.270667,31.8026654 175.116,32.048 C174.961333,32.2933346 174.852,32.5759984 174.788,32.896 C174.724,33.2160016 174.692,33.5413317 174.692,33.872 C174.692,34.2026683 174.724,34.5253318 174.788,34.84 C174.852,35.1546682 174.961333,35.4373321 175.116,35.688 C175.270667,35.9386679 175.475999,36.1386659 175.732,36.288 C175.988001,36.4373341 176.307998,36.512 176.692,36.512 Z M182.904,38.128 C182.808,38.128 182.658668,38.1120002 182.456,38.08 C182.253332,38.0479998 182.093334,38.0106669 181.976,37.968 L181.976,36.256 C182.04,36.2773334 182.114666,36.2906666 182.2,36.296 C182.285334,36.3013334 182.370666,36.304 182.456,36.304 C182.648001,36.304 182.821333,36.2426673 182.976,36.12 C183.130667,35.9973327 183.258666,35.7600018 183.36,35.408 C183.461334,35.0559982 183.541333,34.5546699 183.6,33.904 C183.658667,33.2533301 183.688,32.4000053 183.688,31.344 L183.688,29.728 L190.408,29.728 L190.408,38 L188.136,38 L188.136,31.44 L185.8,31.44 C185.757333,32.6133392 185.688,33.6213291 185.592,34.464 C185.496,35.3066709 185.344001,35.9999973 185.136,36.544 C184.927999,37.0880027 184.645335,37.4879987 184.288,37.744 C183.930665,38.0000013 183.469336,38.128 182.904,38.128 Z M193.468,40.896 C193.233332,40.896 193.001334,40.8880001 192.772,40.872 C192.542666,40.8559999 192.310668,40.8373334 192.076,40.816 L192.076,38.944 C192.257334,38.9653334 192.446666,38.9839999 192.644,39 C192.841334,39.0160001 193.035999,39.024 193.228,39.024 C193.569335,39.024 193.830666,38.928001 194.012,38.736 C194.193334,38.543999 194.284,38.2986682 194.284,38 C194.284,37.8186658 194.252,37.6480008 194.188,37.488 L191.292,29.728 L193.708,29.728 L195.58,35.392 L195.612,35.392 L197.42,29.728 L199.772,29.728 L196.316,39.024 C196.070665,39.6960034 195.729336,40.1759986 195.292,40.464 C194.854664,40.7520014 194.246671,40.896 193.468,40.896 Z M205.824,34.96 C205.610666,35.0240003 205.296002,35.1013329 204.88,35.192 C204.463998,35.2826671 204.032002,35.328 203.584,35.328 C202.453328,35.328 201.642669,35.0666693 201.152,34.544 C200.661331,34.0213307 200.416,33.3120045 200.416,32.416 L200.416,29.728 L202.672,29.728 L202.672,31.952 C202.672,32.560003 202.789332,32.9813322 203.024,33.216 C203.258668,33.4506678 203.642664,33.568 204.176,33.568 C204.506668,33.568 204.815999,33.5413336 205.104,33.488 C205.392001,33.4346664 205.631999,33.3813336 205.824,33.328 L205.824,29.728 L208.096,29.728 L208.096,38 L205.824,38 L205.824,34.96 Z M213.748,38.208 C213.09733,38.208 212.510669,38.104001 211.988,37.896 C211.465331,37.687999 211.022668,37.3920019 210.66,37.008 C210.297332,36.6239981 210.017334,36.165336 209.82,35.632 C209.622666,35.098664 209.524,34.5120032 209.524,33.872 C209.524,33.2533302 209.625332,32.677336 209.828,32.144 C210.030668,31.610664 210.318665,31.1493353 210.692,30.76 C211.065335,30.3706647 211.510664,30.0640011 212.028,29.84 C212.545336,29.6159989 213.118664,29.504 213.748,29.504 C214.409337,29.504 214.993331,29.6266654 215.5,29.872 C216.006669,30.1173346 216.427998,30.4453313 216.764,30.856 C217.100002,31.2666687 217.353332,31.7439973 217.524,32.288 C217.694668,32.8320027 217.78,33.3973304 217.78,33.984 L217.78,34.2 C217.78,34.2693337 217.774667,34.341333 217.764,34.416 L211.796,34.416 C211.828,35.1520037 212.014665,35.6853317 212.356,36.016 C212.697335,36.3466683 213.187997,36.512 213.828,36.512 C214.286669,36.512 214.681332,36.3973345 215.012,36.168 C215.342668,35.9386655 215.545333,35.6960013 215.62,35.44 L217.62,35.44 C217.299998,36.432005 216.809337,37.1413312 216.148,37.568 C215.486663,37.9946688 214.686671,38.208 213.748,38.208 Z M215.492,32.976 C215.385333,32.3999971 215.196001,31.9626682 214.924,31.664 C214.651999,31.3653318 214.238669,31.216 213.684,31.216 C213.310665,31.216 213.006668,31.2773327 212.772,31.4 C212.537332,31.5226673 212.348001,31.6746658 212.204,31.856 C212.059999,32.0373342 211.958667,32.2293323 211.9,32.432 C211.841333,32.6346677 211.806667,32.8159992 211.796,32.976 L215.492,32.976 Z M219.208,29.728 L221.48,29.728 L221.48,32.736 L224.696,32.736 L224.696,29.728 L226.968,29.728 L226.968,38 L224.696,38 L224.696,34.528 L221.48,34.528 L221.48,38 L219.208,38 L219.208,29.728 Z M228.796,29.728 L230.972,29.728 L230.972,35.328 L234.092,29.728 L236.668,29.728 L236.668,38 L234.492,38 L234.492,32.4 L231.372,38 L228.796,38 L228.796,29.728 Z M242.32,38.208 C241.66933,38.208 241.082669,38.104001 240.56,37.896 C240.037331,37.687999 239.594668,37.3920019 239.232,37.008 C238.869332,36.6239981 238.589334,36.165336 238.392,35.632 C238.194666,35.098664 238.096,34.5120032 238.096,33.872 C238.096,33.2533302 238.197332,32.677336 238.4,32.144 C238.602668,31.610664 238.890665,31.1493353 239.264,30.76 C239.637335,30.3706647 240.082664,30.0640011 240.6,29.84 C241.117336,29.6159989 241.690664,29.504 242.32,29.504 C242.981337,29.504 243.565331,29.6266654 244.072,29.872 C244.578669,30.1173346 244.999998,30.4453313 245.336,30.856 C245.672002,31.2666687 245.925332,31.7439973 246.096,32.288 C246.266668,32.8320027 246.352,33.3973304 246.352,33.984 L246.352,34.2 C246.352,34.2693337 246.346667,34.341333 246.336,34.416 L240.368,34.416 C240.4,35.1520037 240.586665,35.6853317 240.928,36.016 C241.269335,36.3466683 241.759997,36.512 242.4,36.512 C242.858669,36.512 243.253332,36.3973345 243.584,36.168 C243.914668,35.9386655 244.117333,35.6960013 244.192,35.44 L246.192,35.44 C245.871998,36.432005 245.381337,37.1413312 244.72,37.568 C244.058663,37.9946688 243.258671,38.208 242.32,38.208 Z M244.064,32.976 C243.957333,32.3999971 243.768001,31.9626682 243.496,31.664 C243.223999,31.3653318 242.810669,31.216 242.256,31.216 C241.882665,31.216 241.578668,31.2773327 241.344,31.4 C241.109332,31.5226673 240.920001,31.6746658 240.776,31.856 C240.631999,32.0373342 240.530667,32.2293323 240.472,32.432 C240.413333,32.6346677 240.378667,32.8159992 240.368,32.976 L244.064,32.976 Z M252.328,29.728 L259.928,29.728 L259.928,38 L257.656,38 L257.656,31.44 L254.6,31.44 L254.6,38 L252.328,38 L252.328,29.728 Z M261.756,29.728 L263.916,29.728 L263.916,30.784 L263.948,30.784 C264.225335,30.3359978 264.577331,30.0106677 265.004,29.808 C265.430669,29.6053323 265.899997,29.504 266.412,29.504 C267.06267,29.504 267.622664,29.6266654 268.092,29.872 C268.561336,30.1173346 268.950665,30.4426646 269.26,30.848 C269.569335,31.2533354 269.798666,31.7253306 269.948,32.264 C270.097334,32.8026694 270.172,33.3653304 270.172,33.952 C270.172,34.5066694 270.097334,35.0399974 269.948,35.552 C269.798666,36.0640026 269.572002,36.5173314 269.268,36.912 C268.963998,37.3066686 268.585336,37.6213322 268.132,37.856 C267.678664,38.0906678 267.148003,38.208 266.54,38.208 C266.027997,38.208 265.556002,38.104001 265.124,37.896 C264.691998,37.687999 264.337335,37.3813354 264.06,36.976 L264.028,36.976 L264.028,40.896 L261.756,40.896 L261.756,29.728 Z M265.932,36.512 C266.305335,36.512 266.617332,36.4373341 266.868,36.288 C267.118668,36.1386659 267.321333,35.9440012 267.476,35.704 C267.630667,35.4639988 267.74,35.1866682 267.804,34.872 C267.868,34.5573318 267.9,34.229335 267.9,33.888 C267.9,33.5573317 267.865334,33.2320016 267.796,32.912 C267.726666,32.5919984 267.612001,32.3066679 267.452,32.056 C267.291999,31.8053321 267.086668,31.6026674 266.836,31.448 C266.585332,31.2933326 266.278668,31.216 265.916,31.216 C265.542665,31.216 265.230668,31.2933326 264.98,31.448 C264.729332,31.6026674 264.526667,31.8026654 264.372,32.048 C264.217333,32.2933346 264.108,32.578665 264.044,32.904 C263.98,33.229335 263.948,33.5573317 263.948,33.888 C263.948,34.229335 263.982666,34.5573318 264.052,34.872 C264.121334,35.1866682 264.233333,35.4639988 264.388,35.704 C264.542667,35.9440012 264.745332,36.1386659 264.996,36.288 C265.246668,36.4373341 265.558665,36.512 265.932,36.512 Z M271.632,29.728 L273.808,29.728 L273.808,35.328 L276.928,29.728 L279.504,29.728 L279.504,38 L277.328,38 L277.328,32.4 L274.208,38 L271.632,38 L271.632,29.728 Z M285.268,38.208 C284.467996,38.208 283.806669,38.0586682 283.284,37.76 C282.761331,37.4613318 282.348002,37.0720024 282.044,36.592 C281.739998,36.1119976 281.529334,35.5733363 281.412,34.976 C281.294666,34.3786637 281.236,33.776003 281.236,33.168 C281.236,32.442663 281.268,31.74667 281.332,31.08 C281.396,30.41333 281.545332,29.8080027 281.78,29.264 C282.014668,28.7199973 282.353331,28.248002 282.796,27.848 C283.238669,27.447998 283.838663,27.1466677 284.596,26.944 C284.830668,26.8799997 285.105332,26.8373334 285.42,26.816 C285.734668,26.7946666 286.035999,26.7680002 286.324,26.736 C286.612001,26.7039998 286.854666,26.658667 287.052,26.6 C287.249334,26.541333 287.353333,26.4426674 287.364,26.304 L289.364,26.304 C289.321333,26.8160026 289.212001,27.2213318 289.036,27.52 C288.859999,27.8186682 288.606668,28.0559991 288.276,28.232 C287.945332,28.4080009 287.540002,28.5359996 287.06,28.616 C286.579998,28.6960004 286.01467,28.7679997 285.364,28.832 C284.851997,28.8853336 284.420002,29.007999 284.068,29.2 C283.715998,29.392001 283.428001,29.6346652 283.204,29.928 C282.979999,30.2213348 282.812001,30.5519982 282.7,30.92 C282.587999,31.2880018 282.510667,31.6746646 282.468,32.08 L282.516,32.08 C282.612,31.8026653 282.747999,31.5253347 282.924,31.248 C283.100001,30.9706653 283.321332,30.7200011 283.588,30.496 C283.854668,30.2719989 284.169332,30.0880007 284.532,29.944 C284.894668,29.7999993 285.310664,29.728 285.78,29.728 C286.302669,29.728 286.795998,29.8293323 287.26,30.032 C287.724002,30.2346677 288.126665,30.5226648 288.468,30.896 C288.809335,31.2693352 289.078666,31.7146641 289.276,32.232 C289.473334,32.7493359 289.572,33.3279968 289.572,33.968 C289.572,34.6186699 289.473334,35.2053307 289.276,35.728 C289.078666,36.2506693 288.793335,36.6959982 288.42,37.064 C288.046665,37.4320018 287.593336,37.7146657 287.06,37.912 C286.526664,38.1093343 285.929337,38.208 285.268,38.208 Z M285.428,36.512 C286.004003,36.512 286.459998,36.2933355 286.796,35.856 C287.132002,35.4186645 287.3,34.7840042 287.3,33.952 C287.3,33.1413293 287.134668,32.5093356 286.804,32.056 C286.473332,31.6026644 286.004003,31.376 285.396,31.376 C284.819997,31.376 284.366668,31.605331 284.036,32.064 C283.705332,32.522669 283.54,33.1573293 283.54,33.968 C283.54,34.8000042 283.707998,35.4319978 284.044,35.864 C284.380002,36.2960022 284.84133,36.512 285.428,36.512 Z M291.144,29.728 L293.416,29.728 L293.416,32.576 L295.608,32.576 C296.024002,32.576 296.415998,32.6319994 296.784,32.744 C297.152002,32.8560006 297.471999,33.0266655 297.744,33.256 C298.016001,33.4853345 298.231999,33.7679983 298.392,34.104 C298.552001,34.4400017 298.632,34.8319978 298.632,35.28 C298.632,35.738669 298.554667,36.138665 298.4,36.48 C298.245333,36.821335 298.026668,37.1039989 297.744,37.328 C297.461332,37.5520011 297.130669,37.7199994 296.752,37.832 C296.373331,37.9440006 295.960002,38 295.512,38 L291.144,38 L291.144,29.728 Z M294.968,36.432 C295.384002,36.432 295.717332,36.3413342 295.968,36.16 C296.218668,35.9786658 296.344,35.6853354 296.344,35.28 C296.344,34.8746646 296.210668,34.5786676 295.944,34.392 C295.677332,34.2053324 295.346669,34.112 294.952,34.112 L293.416,34.112 L293.416,36.432 L294.968,36.432 Z M299.608,29.728 L301.864,29.728 L301.864,38 L299.608,38 L299.608,29.728 Z M304.044,38.128 C303.948,38.128 303.798668,38.1120002 303.596,38.08 C303.393332,38.0479998 303.233334,38.0106669 303.116,37.968 L303.116,36.256 C303.18,36.2773334 303.254666,36.2906666 303.34,36.296 C303.425334,36.3013334 303.510666,36.304 303.596,36.304 C303.788001,36.304 303.961333,36.2426673 304.116,36.12 C304.270667,35.9973327 304.398666,35.7600018 304.5,35.408 C304.601334,35.0559982 304.681333,34.5546699 304.74,33.904 C304.798667,33.2533301 304.828,32.4000053 304.828,31.344 L304.828,29.728 L311.548,29.728 L311.548,38 L309.276,38 L309.276,31.44 L306.94,31.44 C306.897333,32.6133392 306.828001,33.6213291 306.732,34.464 C306.636,35.3066709 306.484001,35.9999973 306.276,36.544 C306.067999,37.0880027 305.785335,37.4879987 305.428,37.744 C305.070665,38.0000013 304.609336,38.128 304.044,38.128 Z M313.376,29.728 L315.552,29.728 L315.552,35.328 L318.672,29.728 L321.248,29.728 L321.248,38 L319.072,38 L319.072,32.4 L315.952,38 L313.376,38 L313.376,29.728 Z" id="Получение-прибыли" fill="#303030"></path>
            <path d="M367.375,131.92 L367.375,116.68 L367.295,116.68 L356.735,131.92 L367.375,131.92 Z M354.455,131.6 L367.415,113 L369.695,113 L369.695,131.92 L373.895,131.92 L373.895,134.04 L369.695,134.04 L369.695,141 L367.375,141 L367.375,134.04 L354.455,134.04 L354.455,131.6 Z" id="4" fill="#FFFFFF"></path>
            <path d="M161.248,53.576 L165.392,53.576 C165.637335,53.576 165.901332,53.5786666 166.184,53.584 C166.466668,53.5893334 166.746665,53.6053332 167.024,53.632 C167.301335,53.6586668 167.562665,53.6986664 167.808,53.752 C168.053335,53.8053336 168.255999,53.8853328 168.416,53.992 C168.789335,54.2160011 169.106665,54.5253314 169.368,54.92 C169.629335,55.3146686 169.76,55.7999971 169.76,56.376 C169.76,56.984003 169.613335,57.5093311 169.32,57.952 C169.026665,58.3946689 168.608003,58.7226656 168.064,58.936 L168.064,58.968 C168.768004,59.1173341 169.306665,59.4373309 169.68,59.928 C170.053335,60.4186691 170.24,61.0159965 170.24,61.72 C170.24,62.1360021 170.165334,62.5413314 170.016,62.936 C169.866666,63.3306686 169.645335,63.6799985 169.352,63.984 C169.058665,64.2880015 168.696002,64.5333324 168.264,64.72 C167.831998,64.9066676 167.333336,65 166.768,65 L161.248,65 L161.248,53.576 Z M166.576,63.72 C167.248003,63.72 167.773331,63.5386685 168.152,63.176 C168.530669,62.8133315 168.72,62.3120032 168.72,61.672 C168.72,61.2986648 168.650667,60.9893346 168.512,60.744 C168.373333,60.4986654 168.189334,60.3040007 167.96,60.16 C167.730666,60.0159993 167.466668,59.914667 167.168,59.856 C166.869332,59.797333 166.560002,59.768 166.24,59.768 L162.768,59.768 L162.768,63.72 L166.576,63.72 Z M165.808,58.488 C166.672004,58.488 167.293331,58.3360015 167.672,58.032 C168.050669,57.7279985 168.24,57.272003 168.24,56.664 C168.24,56.2693314 168.176001,55.9520012 168.048,55.712 C167.919999,55.4719988 167.744001,55.2880006 167.52,55.16 C167.295999,55.0319994 167.037335,54.9493335 166.744,54.912 C166.450665,54.8746665 166.138668,54.856 165.808,54.856 L162.768,54.856 L162.768,58.488 L165.808,58.488 Z M172.084,56.728 L173.444,56.728 L173.444,59.896 L176.004,59.896 C176.814671,59.896 177.465331,60.1173311 177.956,60.56 C178.446669,61.0026689 178.692,61.623996 178.692,62.424 C178.692,63.2026706 178.457336,63.8266643 177.988,64.296 C177.518664,64.7653357 176.878671,65 176.068,65 L172.084,65 L172.084,56.728 Z M175.572,63.8 C176.713339,63.8 177.284,63.3413379 177.284,62.424 C177.284,61.5173288 176.713339,61.064 175.572,61.064 L173.444,61.064 L173.444,63.8 L175.572,63.8 Z M180.004,56.728 L181.364,56.728 L181.364,65 L180.004,65 L180.004,56.728 Z M191.1,65.176 C190.001328,65.176 189.14267,64.9306691 188.524,64.44 C187.90533,63.9493309 187.569334,63.2506712 187.516,62.344 L188.892,62.344 C188.934667,62.952003 189.158665,63.389332 189.564,63.656 C189.969335,63.922668 190.475997,64.056 191.084,64.056 C191.73467,64.056 192.235998,63.9173347 192.588,63.64 C192.940002,63.3626653 193.116,63.0106688 193.116,62.584 C193.116,62.1679979 192.982668,61.8426678 192.716,61.608 C192.449332,61.3733322 191.996003,61.256 191.356,61.256 L190.252,61.256 L190.252,60.152 L191.132,60.152 C191.612002,60.152 192.022665,60.0533343 192.364,59.856 C192.705335,59.6586657 192.876,59.3146691 192.876,58.824 C192.876,58.5146651 192.729335,58.2426678 192.436,58.008 C192.142665,57.7733322 191.708003,57.656 191.132,57.656 C190.886665,57.656 190.644001,57.6826664 190.404,57.736 C190.163999,57.7893336 189.948001,57.8746661 189.756,57.992 C189.563999,58.1093339 189.404001,58.263999 189.276,58.456 C189.147999,58.648001 189.068,58.8826653 189.036,59.16 L187.66,59.16 C187.692,58.6479974 187.814666,58.2240017 188.028,57.888 C188.241334,57.5519983 188.507998,57.2853343 188.828,57.088 C189.148002,56.8906657 189.510665,56.7493338 189.916,56.664 C190.321335,56.5786662 190.731998,56.536 191.148,56.536 C191.574669,56.536 191.974665,56.5786662 192.348,56.664 C192.721335,56.7493338 193.049332,56.8853324 193.332,57.072 C193.614668,57.2586676 193.838666,57.4906653 194.004,57.768 C194.169334,58.0453347 194.252,58.3759981 194.252,58.76 C194.252,59.2400024 194.116001,59.6293318 193.844,59.928 C193.571999,60.2266682 193.265335,60.413333 192.924,60.488 L192.924,60.52 C193.116001,60.5520002 193.307999,60.6159995 193.5,60.712 C193.692001,60.8080005 193.862666,60.9386658 194.012,61.104 C194.161334,61.2693342 194.284,61.4719988 194.38,61.712 C194.476,61.9520012 194.524,62.2319984 194.524,62.552 C194.524,63.0000022 194.428001,63.3893317 194.236,63.72 C194.043999,64.0506683 193.788002,64.3226656 193.468,64.536 C193.147998,64.7493344 192.782669,64.9093328 192.372,65.016 C191.961331,65.1226672 191.537336,65.176 191.1,65.176 Z M198.544,65.176 C198.170665,65.176 197.818668,65.1360004 197.488,65.056 C197.157332,64.9759996 196.866668,64.8426676 196.616,64.656 C196.365332,64.4693324 196.168001,64.2293348 196.024,63.936 C195.879999,63.6426652 195.808,63.2880021 195.808,62.872 C195.808,62.4026643 195.887999,62.0186682 196.048,61.72 C196.208001,61.4213318 196.418665,61.1786676 196.68,60.992 C196.941335,60.8053324 197.239998,60.6640005 197.576,60.568 C197.912002,60.4719995 198.255998,60.3920003 198.608,60.328 C198.981335,60.253333 199.335998,60.1973335 199.672,60.16 C200.008002,60.1226665 200.303999,60.0693337 200.56,60 C200.816001,59.9306663 201.018666,59.829334 201.168,59.696 C201.317334,59.562666 201.392,59.3680013 201.392,59.112 C201.392,58.8133318 201.336001,58.5733342 201.224,58.392 C201.111999,58.2106658 200.968001,58.0720005 200.792,57.976 C200.615999,57.8799995 200.418668,57.8160002 200.2,57.784 C199.981332,57.7519998 199.765334,57.736 199.552,57.736 C198.975997,57.736 198.496002,57.8453322 198.112,58.064 C197.727998,58.2826678 197.52,58.695997 197.488,59.304 L196.128,59.304 C196.149333,58.7919974 196.255999,58.3600018 196.448,58.008 C196.640001,57.6559982 196.895998,57.3706678 197.216,57.152 C197.536002,56.9333322 197.901331,56.7760005 198.312,56.68 C198.722669,56.5839995 199.162664,56.536 199.632,56.536 C200.005335,56.536 200.375998,56.5626664 200.744,56.616 C201.112002,56.6693336 201.445332,56.7786658 201.744,56.944 C202.042668,57.1093342 202.282666,57.3413318 202.464,57.64 C202.645334,57.9386682 202.736,58.3279976 202.736,58.808 L202.736,63.064 C202.736,63.3840016 202.754666,63.6186659 202.792,63.768 C202.829334,63.9173341 202.954666,63.992 203.168,63.992 C203.264,63.992 203.402666,63.9653336 203.584,63.912 L203.584,64.968 C203.349332,65.1066674 203.024002,65.176 202.608,65.176 C202.255998,65.176 201.976001,65.0773343 201.768,64.88 C201.559999,64.6826657 201.456,64.3600022 201.456,63.912 C201.082665,64.3600022 200.648002,64.6826657 200.152,64.88 C199.655998,65.0773343 199.120003,65.176 198.544,65.176 Z M198.848,63.992 C199.296002,63.992 199.679998,63.9306673 200,63.808 C200.320002,63.6853327 200.581332,63.5306676 200.784,63.344 C200.986668,63.1573324 201.136,62.9546678 201.232,62.736 C201.328,62.5173322 201.376,62.312001 201.376,62.12 L201.376,60.728 C201.205332,60.8666674 200.981335,60.9626664 200.704,61.016 C200.426665,61.0693336 200.136002,61.1173331 199.832,61.16 C199.527998,61.2026669 199.221335,61.2453331 198.912,61.288 C198.602665,61.3306669 198.325335,61.4053328 198.08,61.512 C197.834665,61.6186672 197.634667,61.7706657 197.48,61.968 C197.325333,62.1653343 197.248,62.434665 197.248,62.776 C197.248,63.0000011 197.293333,63.1893326 197.384,63.344 C197.474667,63.4986674 197.591999,63.6239995 197.736,63.72 C197.880001,63.8160005 198.047999,63.8853331 198.24,63.928 C198.432001,63.9706669 198.634666,63.992 198.848,63.992 Z M204.996,56.728 L206.356,56.728 L206.356,57.848 L206.388,57.848 C206.612001,57.389331 206.963998,57.056001 207.444,56.848 C207.924002,56.639999 208.451997,56.536 209.028,56.536 C209.668003,56.536 210.225331,56.6533322 210.7,56.888 C211.174669,57.1226678 211.569332,57.439998 211.884,57.84 C212.198668,58.240002 212.435999,58.7013307 212.596,59.224 C212.756001,59.7466693 212.836,60.3013304 212.836,60.888 C212.836,61.4853363 212.758667,62.0426641 212.604,62.56 C212.449333,63.0773359 212.214668,63.5306647 211.9,63.92 C211.585332,64.3093353 211.190669,64.6159989 210.716,64.84 C210.241331,65.0640011 209.689336,65.176 209.06,65.176 C208.846666,65.176 208.617335,65.1546669 208.372,65.112 C208.126665,65.0693331 207.881335,65.0000005 207.636,64.904 C207.390665,64.8079995 207.158668,64.6773342 206.94,64.512 C206.721332,64.3466658 206.537334,64.1413346 206.388,63.896 L206.356,63.896 L206.356,68.152 L204.996,68.152 L204.996,56.728 Z M208.916,63.992 C209.374669,63.992 209.763998,63.9013342 210.084,63.72 C210.404002,63.5386658 210.659999,63.2986682 210.852,63 C211.044001,62.7013318 211.182666,62.3600019 211.268,61.976 C211.353334,61.5919981 211.396,61.1973354 211.396,60.792 C211.396,60.4079981 211.345334,60.0320018 211.244,59.664 C211.142666,59.2959982 210.988001,58.9680014 210.78,58.68 C210.571999,58.3919986 210.305335,58.1626675 209.98,57.992 C209.654665,57.8213325 209.273336,57.736 208.836,57.736 C208.377331,57.736 207.988002,57.8266658 207.668,58.008 C207.347998,58.1893342 207.086668,58.4266652 206.884,58.72 C206.681332,59.0133348 206.534667,59.3466648 206.444,59.72 C206.353333,60.0933352 206.308,60.4719981 206.308,60.856 C206.308,61.2613354 206.356,61.6533314 206.452,62.032 C206.548,62.4106686 206.699999,62.7439986 206.908,63.032 C207.116001,63.3200014 207.385332,63.5519991 207.716,63.728 C208.046668,63.9040009 208.446664,63.992 208.916,63.992 Z M216.824,65.176 C216.450665,65.176 216.098668,65.1360004 215.768,65.056 C215.437332,64.9759996 215.146668,64.8426676 214.896,64.656 C214.645332,64.4693324 214.448001,64.2293348 214.304,63.936 C214.159999,63.6426652 214.088,63.2880021 214.088,62.872 C214.088,62.4026643 214.167999,62.0186682 214.328,61.72 C214.488001,61.4213318 214.698665,61.1786676 214.96,60.992 C215.221335,60.8053324 215.519998,60.6640005 215.856,60.568 C216.192002,60.4719995 216.535998,60.3920003 216.888,60.328 C217.261335,60.253333 217.615998,60.1973335 217.952,60.16 C218.288002,60.1226665 218.583999,60.0693337 218.84,60 C219.096001,59.9306663 219.298666,59.829334 219.448,59.696 C219.597334,59.562666 219.672,59.3680013 219.672,59.112 C219.672,58.8133318 219.616001,58.5733342 219.504,58.392 C219.391999,58.2106658 219.248001,58.0720005 219.072,57.976 C218.895999,57.8799995 218.698668,57.8160002 218.48,57.784 C218.261332,57.7519998 218.045334,57.736 217.832,57.736 C217.255997,57.736 216.776002,57.8453322 216.392,58.064 C216.007998,58.2826678 215.8,58.695997 215.768,59.304 L214.408,59.304 C214.429333,58.7919974 214.535999,58.3600018 214.728,58.008 C214.920001,57.6559982 215.175998,57.3706678 215.496,57.152 C215.816002,56.9333322 216.181331,56.7760005 216.592,56.68 C217.002669,56.5839995 217.442664,56.536 217.912,56.536 C218.285335,56.536 218.655998,56.5626664 219.024,56.616 C219.392002,56.6693336 219.725332,56.7786658 220.024,56.944 C220.322668,57.1093342 220.562666,57.3413318 220.744,57.64 C220.925334,57.9386682 221.016,58.3279976 221.016,58.808 L221.016,63.064 C221.016,63.3840016 221.034666,63.6186659 221.072,63.768 C221.109334,63.9173341 221.234666,63.992 221.448,63.992 C221.544,63.992 221.682666,63.9653336 221.864,63.912 L221.864,64.968 C221.629332,65.1066674 221.304002,65.176 220.888,65.176 C220.535998,65.176 220.256001,65.0773343 220.048,64.88 C219.839999,64.6826657 219.736,64.3600022 219.736,63.912 C219.362665,64.3600022 218.928002,64.6826657 218.432,64.88 C217.935998,65.0773343 217.400003,65.176 216.824,65.176 Z M217.128,63.992 C217.576002,63.992 217.959998,63.9306673 218.28,63.808 C218.600002,63.6853327 218.861332,63.5306676 219.064,63.344 C219.266668,63.1573324 219.416,62.9546678 219.512,62.736 C219.608,62.5173322 219.656,62.312001 219.656,62.12 L219.656,60.728 C219.485332,60.8666674 219.261335,60.9626664 218.984,61.016 C218.706665,61.0693336 218.416002,61.1173331 218.112,61.16 C217.807998,61.2026669 217.501335,61.2453331 217.192,61.288 C216.882665,61.3306669 216.605335,61.4053328 216.36,61.512 C216.114665,61.6186672 215.914667,61.7706657 215.76,61.968 C215.605333,62.1653343 215.528,62.434665 215.528,62.776 C215.528,63.0000011 215.573333,63.1893326 215.664,63.344 C215.754667,63.4986674 215.871999,63.6239995 216.016,63.72 C216.160001,63.8160005 216.327999,63.8853331 216.52,63.928 C216.712001,63.9706669 216.914666,63.992 217.128,63.992 Z M226.924,65.176 C225.857328,65.176 224.996003,64.9040027 224.34,64.36 C223.683997,63.8159973 223.270668,62.973339 223.1,61.832 C223.036,61.3839978 223.004,60.8826694 223.004,60.328 C223.004,59.9333314 223.017333,59.5226688 223.044,59.096 C223.070667,58.6693312 223.118666,58.2480021 223.188,57.832 C223.257334,57.4159979 223.353333,57.0160019 223.476,56.632 C223.598667,56.2479981 223.761332,55.9013349 223.964,55.592 C224.326668,55.0266638 224.769331,54.6080014 225.292,54.336 C225.814669,54.0639986 226.470663,53.9013336 227.26,53.848 C227.782669,53.8053331 228.219998,53.7573336 228.572,53.704 C228.924002,53.6506664 229.121333,53.5173344 229.164,53.304 L230.524,53.304 C230.502667,53.7200021 230.412001,54.0399989 230.252,54.264 C230.091999,54.4880011 229.868001,54.6559994 229.58,54.768 C229.291999,54.8800006 228.940002,54.9546665 228.524,54.992 C228.107998,55.0293335 227.622669,55.0693331 227.068,55.112 C226.609331,55.1440002 226.209335,55.2506658 225.868,55.432 C225.526665,55.6133342 225.236001,55.8559985 224.996,56.16 C224.755999,56.4640015 224.561334,56.8213313 224.412,57.232 C224.262666,57.6426687 224.156,58.0933309 224.092,58.584 L224.14,58.584 C224.374668,58.0399973 224.739998,57.5920018 225.236,57.24 C225.732002,56.8879982 226.331996,56.712 227.036,56.712 C228.198672,56.712 229.115997,57.074663 229.788,57.8 C230.460003,58.525337 230.796,59.5706598 230.796,60.936 C230.796,61.6293368 230.702668,62.2399974 230.516,62.768 C230.329332,63.2960026 230.065335,63.7386649 229.724,64.096 C229.382665,64.4533351 228.974669,64.7226658 228.5,64.904 C228.025331,65.0853342 227.500003,65.176 226.924,65.176 Z M226.94,64.024 C227.260002,64.024 227.569332,63.957334 227.868,63.824 C228.166668,63.690666 228.427999,63.4960013 228.652,63.24 C228.876001,62.9839987 229.057333,62.6666686 229.196,62.288 C229.334667,61.9093314 229.404,61.4693358 229.404,60.968 C229.404,59.9973285 229.180002,59.2346694 228.732,58.68 C228.283998,58.1253306 227.676004,57.848 226.908,57.848 C226.139996,57.848 225.529336,58.1279972 225.076,58.688 C224.622664,59.2480028 224.396,60.0133285 224.396,60.984 C224.396,61.9226714 224.619998,62.6639973 225.068,63.208 C225.516002,63.7520027 226.139996,64.024 226.94,64.024 Z M234.784,65.176 C234.410665,65.176 234.058668,65.1360004 233.728,65.056 C233.397332,64.9759996 233.106668,64.8426676 232.856,64.656 C232.605332,64.4693324 232.408001,64.2293348 232.264,63.936 C232.119999,63.6426652 232.048,63.2880021 232.048,62.872 C232.048,62.4026643 232.127999,62.0186682 232.288,61.72 C232.448001,61.4213318 232.658665,61.1786676 232.92,60.992 C233.181335,60.8053324 233.479998,60.6640005 233.816,60.568 C234.152002,60.4719995 234.495998,60.3920003 234.848,60.328 C235.221335,60.253333 235.575998,60.1973335 235.912,60.16 C236.248002,60.1226665 236.543999,60.0693337 236.8,60 C237.056001,59.9306663 237.258666,59.829334 237.408,59.696 C237.557334,59.562666 237.632,59.3680013 237.632,59.112 C237.632,58.8133318 237.576001,58.5733342 237.464,58.392 C237.351999,58.2106658 237.208001,58.0720005 237.032,57.976 C236.855999,57.8799995 236.658668,57.8160002 236.44,57.784 C236.221332,57.7519998 236.005334,57.736 235.792,57.736 C235.215997,57.736 234.736002,57.8453322 234.352,58.064 C233.967998,58.2826678 233.76,58.695997 233.728,59.304 L232.368,59.304 C232.389333,58.7919974 232.495999,58.3600018 232.688,58.008 C232.880001,57.6559982 233.135998,57.3706678 233.456,57.152 C233.776002,56.9333322 234.141331,56.7760005 234.552,56.68 C234.962669,56.5839995 235.402664,56.536 235.872,56.536 C236.245335,56.536 236.615998,56.5626664 236.984,56.616 C237.352002,56.6693336 237.685332,56.7786658 237.984,56.944 C238.282668,57.1093342 238.522666,57.3413318 238.704,57.64 C238.885334,57.9386682 238.976,58.3279976 238.976,58.808 L238.976,63.064 C238.976,63.3840016 238.994666,63.6186659 239.032,63.768 C239.069334,63.9173341 239.194666,63.992 239.408,63.992 C239.504,63.992 239.642666,63.9653336 239.824,63.912 L239.824,64.968 C239.589332,65.1066674 239.264002,65.176 238.848,65.176 C238.495998,65.176 238.216001,65.0773343 238.008,64.88 C237.799999,64.6826657 237.696,64.3600022 237.696,63.912 C237.322665,64.3600022 236.888002,64.6826657 236.392,64.88 C235.895998,65.0773343 235.360003,65.176 234.784,65.176 Z M235.088,63.992 C235.536002,63.992 235.919998,63.9306673 236.24,63.808 C236.560002,63.6853327 236.821332,63.5306676 237.024,63.344 C237.226668,63.1573324 237.376,62.9546678 237.472,62.736 C237.568,62.5173322 237.616,62.312001 237.616,62.12 L237.616,60.728 C237.445332,60.8666674 237.221335,60.9626664 236.944,61.016 C236.666665,61.0693336 236.376002,61.1173331 236.072,61.16 C235.767998,61.2026669 235.461335,61.2453331 235.152,61.288 C234.842665,61.3306669 234.565335,61.4053328 234.32,61.512 C234.074665,61.6186672 233.874667,61.7706657 233.72,61.968 C233.565333,62.1653343 233.488,62.434665 233.488,62.776 C233.488,63.0000011 233.533333,63.1893326 233.624,63.344 C233.714667,63.4986674 233.831999,63.6239995 233.976,63.72 C234.120001,63.8160005 234.287999,63.8853331 234.48,63.928 C234.672001,63.9706669 234.874666,63.992 235.088,63.992 Z M243.188,57.928 L240.228,57.928 L240.228,56.728 L247.508,56.728 L247.508,57.928 L244.548,57.928 L244.548,65 L243.188,65 L243.188,57.928 Z M248.696,56.728 L250.056,56.728 L250.056,59.896 L252.616,59.896 C253.426671,59.896 254.077331,60.1173311 254.568,60.56 C255.058669,61.0026689 255.304,61.623996 255.304,62.424 C255.304,63.2026706 255.069336,63.8266643 254.6,64.296 C254.130664,64.7653357 253.490671,65 252.68,65 L248.696,65 L248.696,56.728 Z M252.184,63.8 C253.325339,63.8 253.896,63.3413379 253.896,62.424 C253.896,61.5173288 253.325339,61.064 252.184,61.064 L250.056,61.064 L250.056,63.8 L252.184,63.8 Z M256.616,56.728 L257.976,56.728 L257.976,65 L256.616,65 L256.616,56.728 Z M260.124,56.728 L263.948,56.728 C264.310668,56.728 264.659998,56.7546664 264.996,56.808 C265.332002,56.8613336 265.633332,56.9599993 265.9,57.104 C266.166668,57.2480007 266.379999,57.453332 266.54,57.72 C266.700001,57.986668 266.78,58.3279979 266.78,58.744 C266.78,59.1920022 266.673334,59.5546653 266.46,59.832 C266.246666,60.1093347 265.948002,60.3386658 265.564,60.52 L265.564,60.536 C266.044002,60.6320005 266.425332,60.8559982 266.708,61.208 C266.990668,61.5600018 267.132,62.0133306 267.132,62.568 C267.132,62.9200018 267.070667,63.2453318 266.948,63.544 C266.825333,63.8426682 266.652001,64.0986656 266.428,64.312 C266.203999,64.5253344 265.937335,64.6933327 265.628,64.816 C265.318665,64.9386673 264.982668,65 264.62,65 L260.124,65 L260.124,56.728 Z M264.364,63.848 C264.812002,63.848 265.150666,63.7173346 265.38,63.456 C265.609334,63.1946654 265.724,62.8666686 265.724,62.472 C265.724,62.0986648 265.601335,61.8000011 265.356,61.576 C265.110665,61.3519989 264.700003,61.24 264.124,61.24 L261.468,61.24 L261.468,63.848 L264.364,63.848 Z M263.804,60.12 C264.39067,60.12 264.798666,60.0133344 265.028,59.8 C265.257334,59.5866656 265.372,59.3040018 265.372,58.952 C265.372,58.610665 265.260001,58.3466676 265.036,58.16 C264.811999,57.9733324 264.401336,57.88 263.804,57.88 L261.468,57.88 L261.468,60.12 L263.804,60.12 Z M271.152,65.176 C270.778665,65.176 270.426668,65.1360004 270.096,65.056 C269.765332,64.9759996 269.474668,64.8426676 269.224,64.656 C268.973332,64.4693324 268.776001,64.2293348 268.632,63.936 C268.487999,63.6426652 268.416,63.2880021 268.416,62.872 C268.416,62.4026643 268.495999,62.0186682 268.656,61.72 C268.816001,61.4213318 269.026665,61.1786676 269.288,60.992 C269.549335,60.8053324 269.847998,60.6640005 270.184,60.568 C270.520002,60.4719995 270.863998,60.3920003 271.216,60.328 C271.589335,60.253333 271.943998,60.1973335 272.28,60.16 C272.616002,60.1226665 272.911999,60.0693337 273.168,60 C273.424001,59.9306663 273.626666,59.829334 273.776,59.696 C273.925334,59.562666 274,59.3680013 274,59.112 C274,58.8133318 273.944001,58.5733342 273.832,58.392 C273.719999,58.2106658 273.576001,58.0720005 273.4,57.976 C273.223999,57.8799995 273.026668,57.8160002 272.808,57.784 C272.589332,57.7519998 272.373334,57.736 272.16,57.736 C271.583997,57.736 271.104002,57.8453322 270.72,58.064 C270.335998,58.2826678 270.128,58.695997 270.096,59.304 L268.736,59.304 C268.757333,58.7919974 268.863999,58.3600018 269.056,58.008 C269.248001,57.6559982 269.503998,57.3706678 269.824,57.152 C270.144002,56.9333322 270.509331,56.7760005 270.92,56.68 C271.330669,56.5839995 271.770664,56.536 272.24,56.536 C272.613335,56.536 272.983998,56.5626664 273.352,56.616 C273.720002,56.6693336 274.053332,56.7786658 274.352,56.944 C274.650668,57.1093342 274.890666,57.3413318 275.072,57.64 C275.253334,57.9386682 275.344,58.3279976 275.344,58.808 L275.344,63.064 C275.344,63.3840016 275.362666,63.6186659 275.4,63.768 C275.437334,63.9173341 275.562666,63.992 275.776,63.992 C275.872,63.992 276.010666,63.9653336 276.192,63.912 L276.192,64.968 C275.957332,65.1066674 275.632002,65.176 275.216,65.176 C274.863998,65.176 274.584001,65.0773343 274.376,64.88 C274.167999,64.6826657 274.064,64.3600022 274.064,63.912 C273.690665,64.3600022 273.256002,64.6826657 272.76,64.88 C272.263998,65.0773343 271.728003,65.176 271.152,65.176 Z M271.456,63.992 C271.904002,63.992 272.287998,63.9306673 272.608,63.808 C272.928002,63.6853327 273.189332,63.5306676 273.392,63.344 C273.594668,63.1573324 273.744,62.9546678 273.84,62.736 C273.936,62.5173322 273.984,62.312001 273.984,62.12 L273.984,60.728 C273.813332,60.8666674 273.589335,60.9626664 273.312,61.016 C273.034665,61.0693336 272.744002,61.1173331 272.44,61.16 C272.135998,61.2026669 271.829335,61.2453331 271.52,61.288 C271.210665,61.3306669 270.933335,61.4053328 270.688,61.512 C270.442665,61.6186672 270.242667,61.7706657 270.088,61.968 C269.933333,62.1653343 269.856,62.434665 269.856,62.776 C269.856,63.0000011 269.901333,63.1893326 269.992,63.344 C270.082667,63.4986674 270.199999,63.6239995 270.344,63.72 C270.488001,63.8160005 270.655999,63.8853331 270.848,63.928 C271.040001,63.9706669 271.242666,63.992 271.456,63.992 Z M281.076,65.176 C280.414663,65.176 279.836002,65.0693344 279.34,64.856 C278.843998,64.6426656 278.430668,64.3440019 278.1,63.96 C277.769332,63.5759981 277.521334,63.117336 277.356,62.584 C277.190666,62.050664 277.108,61.4693365 277.108,60.84 C277.108,60.2213302 277.203999,59.6480026 277.396,59.12 C277.588001,58.5919974 277.857332,58.1360019 278.204,57.752 C278.550668,57.3679981 278.961331,57.0693344 279.436,56.856 C279.910669,56.6426656 280.430664,56.536 280.996,56.536 C281.732004,56.536 282.342664,56.6879985 282.828,56.992 C283.313336,57.2960015 283.702665,57.6826643 283.996,58.152 C284.289335,58.6213357 284.491999,59.1333306 284.604,59.688 C284.716001,60.2426694 284.761333,60.7706642 284.74,61.272 L278.548,61.272 C278.537333,61.6346685 278.58,61.978665 278.676,62.304 C278.772,62.629335 278.926666,62.9173321 279.14,63.168 C279.353334,63.4186679 279.625332,63.6186659 279.956,63.768 C280.286668,63.9173341 280.675998,63.992 281.124,63.992 C281.700003,63.992 282.171998,63.858668 282.54,63.592 C282.908002,63.325332 283.150666,62.9200027 283.268,62.376 L284.612,62.376 C284.430666,63.3146714 284.03067,64.0159977 283.412,64.48 C282.79333,64.9440023 282.014671,65.176 281.076,65.176 Z M283.3,60.072 C283.278667,59.7519984 283.206667,59.4480014 283.084,59.16 C282.961333,58.8719986 282.796001,58.624001 282.588,58.416 C282.379999,58.207999 282.134668,58.0426673 281.852,57.92 C281.569332,57.7973327 281.257335,57.736 280.916,57.736 C280.563998,57.736 280.246668,57.7973327 279.964,57.92 C279.681332,58.0426673 279.438668,58.2106656 279.236,58.424 C279.033332,58.6373344 278.873334,58.8853319 278.756,59.168 C278.638666,59.4506681 278.569333,59.7519984 278.548,60.072 L283.3,60.072 Z M288.248,57.928 L285.288,57.928 L285.288,56.728 L292.568,56.728 L292.568,57.928 L289.608,57.928 L289.608,65 L288.248,65 L288.248,57.928 Z M297.276,65.176 C296.614663,65.176 296.036003,65.0693344 295.54,64.856 C295.043998,64.6426656 294.630668,64.3440019 294.3,63.96 C293.969332,63.5759981 293.721334,63.117336 293.556,62.584 C293.390666,62.050664 293.308,61.4693365 293.308,60.84 C293.308,60.2213302 293.403999,59.6480026 293.596,59.12 C293.788001,58.5919974 294.057332,58.1360019 294.404,57.752 C294.750668,57.3679981 295.161331,57.0693344 295.636,56.856 C296.110669,56.6426656 296.630664,56.536 297.196,56.536 C297.932004,56.536 298.542664,56.6879985 299.028,56.992 C299.513336,57.2960015 299.902665,57.6826643 300.196,58.152 C300.489335,58.6213357 300.691999,59.1333306 300.804,59.688 C300.916001,60.2426694 300.961333,60.7706642 300.94,61.272 L294.748,61.272 C294.737333,61.6346685 294.78,61.978665 294.876,62.304 C294.972001,62.629335 295.126666,62.9173321 295.34,63.168 C295.553334,63.4186679 295.825332,63.6186659 296.156,63.768 C296.486668,63.9173341 296.875998,63.992 297.324,63.992 C297.900003,63.992 298.371998,63.858668 298.74,63.592 C299.108002,63.325332 299.350666,62.9200027 299.468,62.376 L300.812,62.376 C300.630666,63.3146714 300.23067,64.0159977 299.612,64.48 C298.99333,64.9440023 298.214671,65.176 297.276,65.176 Z M299.5,60.072 C299.478667,59.7519984 299.406667,59.4480014 299.284,59.16 C299.161333,58.8719986 298.996001,58.624001 298.788,58.416 C298.579999,58.207999 298.334668,58.0426673 298.052,57.92 C297.769332,57.7973327 297.457335,57.736 297.116,57.736 C296.763998,57.736 296.446668,57.7973327 296.164,57.92 C295.881332,58.0426673 295.638668,58.2106656 295.436,58.424 C295.233332,58.6373344 295.073334,58.8853319 294.956,59.168 C294.838666,59.4506681 294.769333,59.7519984 294.748,60.072 L299.5,60.072 Z M167.856,76.92 L169.296,76.92 C169.274667,76.2906635 169.154668,75.7493356 168.936,75.296 C168.717332,74.8426644 168.418669,74.4666682 168.04,74.168 C167.661331,73.8693318 167.221336,73.6506674 166.72,73.512 C166.218664,73.3733326 165.67467,73.304 165.088,73.304 C164.565331,73.304 164.056002,73.370666 163.56,73.504 C163.063998,73.637334 162.621335,73.8399986 162.232,74.112 C161.842665,74.3840014 161.530668,74.7306646 161.296,75.152 C161.061332,75.5733354 160.944,76.0719971 160.944,76.648 C160.944,77.1706693 161.047999,77.6053316 161.256,77.952 C161.464001,78.2986684 161.741332,78.5813322 162.088,78.8 C162.434668,79.0186678 162.826664,79.194666 163.264,79.328 C163.701336,79.461334 164.146664,79.5786662 164.6,79.68 C165.053336,79.7813338 165.498664,79.8799995 165.936,79.976 C166.373336,80.0720005 166.765332,80.1973326 167.112,80.352 C167.458668,80.5066674 167.735999,80.7066654 167.944,80.952 C168.152001,81.1973346 168.256,81.5173314 168.256,81.912 C168.256,82.3280021 168.170668,82.669332 168,82.936 C167.829332,83.202668 167.605335,83.4133326 167.328,83.568 C167.050665,83.7226674 166.738668,83.8319997 166.392,83.896 C166.045332,83.9600003 165.701335,83.992 165.36,83.992 C164.933331,83.992 164.517335,83.9386672 164.112,83.832 C163.706665,83.7253328 163.352002,83.5600011 163.048,83.336 C162.743998,83.1119989 162.498668,82.8266684 162.312,82.48 C162.125332,82.1333316 162.032,81.7200024 162.032,81.24 L160.592,81.24 C160.592,81.9333368 160.717332,82.5333308 160.968,83.04 C161.218668,83.5466692 161.559998,83.962665 161.992,84.288 C162.424002,84.613335 162.92533,84.8559992 163.496,85.016 C164.06667,85.1760008 164.671997,85.256 165.312,85.256 C165.834669,85.256 166.359997,85.1946673 166.888,85.072 C167.416003,84.9493327 167.893331,84.7520014 168.32,84.48 C168.746669,84.2079986 169.095999,83.8560022 169.368,83.424 C169.640001,82.9919978 169.776,82.472003 169.776,81.864 C169.776,81.2986638 169.672001,80.8293352 169.464,80.456 C169.255999,80.0826648 168.978668,79.7733346 168.632,79.528 C168.285332,79.2826654 167.893336,79.0880007 167.456,78.944 C167.018664,78.7999993 166.573336,78.6746672 166.12,78.568 C165.666664,78.4613328 165.221336,78.3626671 164.784,78.272 C164.346664,78.1813329 163.954668,78.0666674 163.608,77.928 C163.261332,77.7893326 162.984001,77.6106678 162.776,77.392 C162.567999,77.1733322 162.464,76.8880018 162.464,76.536 C162.464,76.1626648 162.535999,75.8506679 162.68,75.6 C162.824001,75.3493321 163.015999,75.1493341 163.256,75 C163.496001,74.8506659 163.770665,74.7440003 164.08,74.68 C164.389335,74.6159997 164.703998,74.584 165.024,74.584 C165.813337,74.584 166.461331,74.7679982 166.968,75.136 C167.474669,75.5040018 167.770666,76.0986626 167.856,76.92 Z M171.78,73.576 L171.78,85 L173.3,85 L173.3,73.576 L171.78,73.576 Z M184.504,83.576 L184.904,85 L185.864,85 L185.864,78.984 L180.856,78.984 L180.856,80.264 L184.504,80.264 C184.525333,80.7866693 184.456001,81.2746644 184.296,81.728 C184.135999,82.1813356 183.898668,82.5759983 183.584,82.912 C183.269332,83.2480017 182.882669,83.511999 182.424,83.704 C181.965331,83.896001 181.437336,83.992 180.84,83.992 C180.199997,83.992 179.637336,83.8666679 179.152,83.616 C178.666664,83.3653321 178.258668,83.0293354 177.928,82.608 C177.597332,82.1866646 177.346668,81.7013361 177.176,81.152 C177.005332,80.6026639 176.92,80.0293363 176.92,79.432 C176.92,78.823997 176.994666,78.2293362 177.144,77.648 C177.293334,77.0666638 177.525332,76.5493356 177.84,76.096 C178.154668,75.6426644 178.559998,75.2773347 179.056,75 C179.552002,74.7226653 180.146663,74.584 180.84,74.584 C181.266669,74.584 181.669331,74.6346662 182.048,74.736 C182.426669,74.8373338 182.765332,74.9893323 183.064,75.192 C183.362668,75.3946677 183.613332,75.6533318 183.816,75.968 C184.018668,76.2826682 184.157333,76.6586645 184.232,77.096 L185.752,77.096 C185.645333,76.4239966 185.445335,75.850669 185.152,75.376 C184.858665,74.901331 184.496002,74.5093349 184.064,74.2 C183.631998,73.8906651 183.141336,73.6640007 182.592,73.52 C182.042664,73.3759993 181.45867,73.304 180.84,73.304 C179.933329,73.304 179.141337,73.4719983 178.464,73.808 C177.786663,74.1440017 177.221336,74.5946638 176.768,75.16 C176.314664,75.7253362 175.973334,76.3839962 175.744,77.136 C175.514666,77.8880038 175.4,78.6799958 175.4,79.512 C175.4,80.2586704 175.522665,80.9786632 175.768,81.672 C176.013335,82.3653368 176.370664,82.978664 176.84,83.512 C177.309336,84.045336 177.879997,84.4693318 178.552,84.784 C179.224003,85.0986682 179.986662,85.256 180.84,85.256 C181.512003,85.256 182.178663,85.1253346 182.84,84.864 C183.501337,84.6026654 184.055998,84.1733363 184.504,83.576 Z M192.528,76.728 L194.48,76.728 L196.992,83.432 L197.024,83.432 L199.536,76.728 L201.488,76.728 L201.488,85 L200.128,85 L200.128,78.44 L197.632,85 L196.384,85 L193.888,78.44 L193.888,85 L192.528,85 L192.528,76.728 Z M207.204,85.176 C206.542663,85.176 205.964002,85.0666678 205.468,84.848 C204.971998,84.6293322 204.553335,84.3253353 204.212,83.936 C203.870665,83.5466647 203.614668,83.0906693 203.444,82.568 C203.273332,82.0453307 203.188,81.480003 203.188,80.872 C203.188,80.263997 203.273332,79.6960026 203.444,79.168 C203.614668,78.6399974 203.870665,78.1813353 204.212,77.792 C204.553335,77.4026647 204.971998,77.0960011 205.468,76.872 C205.964002,76.6479989 206.542663,76.536 207.204,76.536 C207.85467,76.536 208.430664,76.6479989 208.932,76.872 C209.433336,77.0960011 209.854665,77.4026647 210.196,77.792 C210.537335,78.1813353 210.793332,78.6399974 210.964,79.168 C211.134668,79.6960026 211.22,80.263997 211.22,80.872 C211.22,81.480003 211.134668,82.0453307 210.964,82.568 C210.793332,83.0906693 210.537335,83.5466647 210.196,83.936 C209.854665,84.3253353 209.433336,84.6293322 208.932,84.848 C208.430664,85.0666678 207.85467,85.176 207.204,85.176 Z M207.204,83.992 C207.556002,83.992 207.889332,83.9226674 208.204,83.784 C208.518668,83.6453326 208.793332,83.4453346 209.028,83.184 C209.262668,82.9226654 209.446666,82.5973353 209.58,82.208 C209.713334,81.8186647 209.78,81.3733358 209.78,80.872 C209.78,80.3706642 209.713334,79.9253353 209.58,79.536 C209.446666,79.1466647 209.262668,78.818668 209.028,78.552 C208.793332,78.285332 208.518668,78.0826674 208.204,77.944 C207.889332,77.8053326 207.556002,77.736 207.204,77.736 C206.851998,77.736 206.518668,77.8053326 206.204,77.944 C205.889332,78.0826674 205.614668,78.285332 205.38,78.552 C205.145332,78.818668 204.961334,79.1466647 204.828,79.536 C204.694666,79.9253353 204.628,80.3706642 204.628,80.872 C204.628,81.3733358 204.694666,81.8186647 204.828,82.208 C204.961334,82.5973353 205.145332,82.9226654 205.38,83.184 C205.614668,83.4453346 205.889332,83.6453326 206.204,83.784 C206.518668,83.9226674 206.851998,83.992 207.204,83.992 Z M212.92,76.728 L214.28,76.728 L214.28,80.024 L218.472,80.024 L218.472,76.728 L219.832,76.728 L219.832,85 L218.472,85 L218.472,81.192 L214.28,81.192 L214.28,85 L212.92,85 L212.92,76.728 Z M225.5,85.176 C224.838663,85.176 224.260002,85.0693344 223.764,84.856 C223.267998,84.6426656 222.854668,84.3440019 222.524,83.96 C222.193332,83.5759981 221.945334,83.117336 221.78,82.584 C221.614666,82.050664 221.532,81.4693365 221.532,80.84 C221.532,80.2213302 221.627999,79.6480026 221.82,79.12 C222.012001,78.5919974 222.281332,78.1360019 222.628,77.752 C222.974668,77.3679981 223.385331,77.0693344 223.86,76.856 C224.334669,76.6426656 224.854664,76.536 225.42,76.536 C226.156004,76.536 226.766664,76.6879985 227.252,76.992 C227.737336,77.2960015 228.126665,77.6826643 228.42,78.152 C228.713335,78.6213357 228.915999,79.1333306 229.028,79.688 C229.140001,80.2426694 229.185333,80.7706642 229.164,81.272 L222.972,81.272 C222.961333,81.6346685 223.004,81.978665 223.1,82.304 C223.196,82.629335 223.350666,82.9173321 223.564,83.168 C223.777334,83.4186679 224.049332,83.6186659 224.38,83.768 C224.710668,83.9173341 225.099998,83.992 225.548,83.992 C226.124003,83.992 226.595998,83.858668 226.964,83.592 C227.332002,83.325332 227.574666,82.9200027 227.692,82.376 L229.036,82.376 C228.854666,83.3146714 228.45467,84.0159977 227.836,84.48 C227.21733,84.9440023 226.438671,85.176 225.5,85.176 Z M227.724,80.072 C227.702667,79.7519984 227.630667,79.4480014 227.508,79.16 C227.385333,78.8719986 227.220001,78.624001 227.012,78.416 C226.803999,78.207999 226.558668,78.0426673 226.276,77.92 C225.993332,77.7973327 225.681335,77.736 225.34,77.736 C224.987998,77.736 224.670668,77.7973327 224.388,77.92 C224.105332,78.0426673 223.862668,78.2106656 223.66,78.424 C223.457332,78.6373344 223.297334,78.8853319 223.18,79.168 C223.062666,79.4506681 222.993333,79.7519984 222.972,80.072 L227.724,80.072 Z M232.672,77.928 L229.712,77.928 L229.712,76.728 L236.992,76.728 L236.992,77.928 L234.032,77.928 L234.032,85 L232.672,85 L232.672,77.928 Z M238.18,76.728 L239.54,76.728 L239.54,79.896 L242.1,79.896 C242.910671,79.896 243.561331,80.1173311 244.052,80.56 C244.542669,81.0026689 244.788,81.623996 244.788,82.424 C244.788,83.2026706 244.553336,83.8266643 244.084,84.296 C243.614664,84.7653357 242.974671,85 242.164,85 L238.18,85 L238.18,76.728 Z M241.668,83.8 C242.809339,83.8 243.38,83.3413379 243.38,82.424 C243.38,81.5173288 242.809339,81.064 241.668,81.064 L239.54,81.064 L239.54,83.8 L241.668,83.8 Z M246.1,76.728 L247.46,76.728 L247.46,85 L246.1,85 L246.1,76.728 Z M249.912,83.224 L249.912,85 L251.688,85 L251.688,83.224 L249.912,83.224 Z M258.928,73.576 L260.448,73.576 L260.448,78.488 L266.464,78.488 L266.464,73.576 L267.984,73.576 L267.984,85 L266.464,85 L266.464,79.768 L260.448,79.768 L260.448,85 L258.928,85 L258.928,73.576 Z M272.644,85.176 C272.270665,85.176 271.918668,85.1360004 271.588,85.056 C271.257332,84.9759996 270.966668,84.8426676 270.716,84.656 C270.465332,84.4693324 270.268001,84.2293348 270.124,83.936 C269.979999,83.6426652 269.908,83.2880021 269.908,82.872 C269.908,82.4026643 269.987999,82.0186682 270.148,81.72 C270.308001,81.4213318 270.518665,81.1786676 270.78,80.992 C271.041335,80.8053324 271.339998,80.6640005 271.676,80.568 C272.012002,80.4719995 272.355998,80.3920003 272.708,80.328 C273.081335,80.253333 273.435998,80.1973335 273.772,80.16 C274.108002,80.1226665 274.403999,80.0693337 274.66,80 C274.916001,79.9306663 275.118666,79.829334 275.268,79.696 C275.417334,79.562666 275.492,79.3680013 275.492,79.112 C275.492,78.8133318 275.436001,78.5733342 275.324,78.392 C275.211999,78.2106658 275.068001,78.0720005 274.892,77.976 C274.715999,77.8799995 274.518668,77.8160002 274.3,77.784 C274.081332,77.7519998 273.865334,77.736 273.652,77.736 C273.075997,77.736 272.596002,77.8453322 272.212,78.064 C271.827998,78.2826678 271.62,78.695997 271.588,79.304 L270.228,79.304 C270.249333,78.7919974 270.355999,78.3600018 270.548,78.008 C270.740001,77.6559982 270.995998,77.3706678 271.316,77.152 C271.636002,76.9333322 272.001331,76.7760005 272.412,76.68 C272.822669,76.5839995 273.262664,76.536 273.732,76.536 C274.105335,76.536 274.475998,76.5626664 274.844,76.616 C275.212002,76.6693336 275.545332,76.7786658 275.844,76.944 C276.142668,77.1093342 276.382666,77.3413318 276.564,77.64 C276.745334,77.9386682 276.836,78.3279976 276.836,78.808 L276.836,83.064 C276.836,83.3840016 276.854666,83.6186659 276.892,83.768 C276.929334,83.9173341 277.054666,83.992 277.268,83.992 C277.364,83.992 277.502666,83.9653336 277.684,83.912 L277.684,84.968 C277.449332,85.1066674 277.124002,85.176 276.708,85.176 C276.355998,85.176 276.076001,85.0773343 275.868,84.88 C275.659999,84.6826657 275.556,84.3600022 275.556,83.912 C275.182665,84.3600022 274.748002,84.6826657 274.252,84.88 C273.755998,85.0773343 273.220003,85.176 272.644,85.176 Z M272.948,83.992 C273.396002,83.992 273.779998,83.9306673 274.1,83.808 C274.420002,83.6853327 274.681332,83.5306676 274.884,83.344 C275.086668,83.1573324 275.236,82.9546678 275.332,82.736 C275.428,82.5173322 275.476,82.312001 275.476,82.12 L275.476,80.728 C275.305332,80.8666674 275.081335,80.9626664 274.804,81.016 C274.526665,81.0693336 274.236002,81.1173331 273.932,81.16 C273.627998,81.2026669 273.321335,81.2453331 273.012,81.288 C272.702665,81.3306669 272.425335,81.4053328 272.18,81.512 C271.934665,81.6186672 271.734667,81.7706657 271.58,81.968 C271.425333,82.1653343 271.348,82.434665 271.348,82.776 C271.348,83.0000011 271.393333,83.1893326 271.484,83.344 C271.574667,83.4986674 271.691999,83.6239995 271.836,83.72 C271.980001,83.8160005 272.147999,83.8853331 272.34,83.928 C272.532001,83.9706669 272.734666,83.992 272.948,83.992 Z M283.596,76.728 L287.42,76.728 C287.782669,76.728 288.131998,76.7546664 288.468,76.808 C288.804002,76.8613336 289.105332,76.9599993 289.372,77.104 C289.638668,77.2480007 289.851999,77.453332 290.012,77.72 C290.172001,77.986668 290.252,78.3279979 290.252,78.744 C290.252,79.1920022 290.145334,79.5546653 289.932,79.832 C289.718666,80.1093347 289.420002,80.3386658 289.036,80.52 L289.036,80.536 C289.516002,80.6320005 289.897332,80.8559982 290.18,81.208 C290.462668,81.5600018 290.604,82.0133306 290.604,82.568 C290.604,82.9200018 290.542667,83.2453318 290.42,83.544 C290.297333,83.8426682 290.124001,84.0986656 289.9,84.312 C289.675999,84.5253344 289.409335,84.6933327 289.1,84.816 C288.790665,84.9386673 288.454669,85 288.092,85 L283.596,85 L283.596,76.728 Z M287.836,83.848 C288.284002,83.848 288.622666,83.7173346 288.852,83.456 C289.081335,83.1946654 289.196,82.8666686 289.196,82.472 C289.196,82.0986648 289.073335,81.8000011 288.828,81.576 C288.582665,81.3519989 288.172003,81.24 287.596,81.24 L284.94,81.24 L284.94,83.848 L287.836,83.848 Z M287.276,80.12 C287.86267,80.12 288.270666,80.0133344 288.5,79.8 C288.729335,79.5866656 288.844,79.3040018 288.844,78.952 C288.844,78.610665 288.732001,78.3466676 288.508,78.16 C288.283999,77.9733324 287.873336,77.88 287.276,77.88 L284.94,77.88 L284.94,80.12 L287.276,80.12 Z M294.624,85.176 C294.250665,85.176 293.898668,85.1360004 293.568,85.056 C293.237332,84.9759996 292.946668,84.8426676 292.696,84.656 C292.445332,84.4693324 292.248001,84.2293348 292.104,83.936 C291.959999,83.6426652 291.888,83.2880021 291.888,82.872 C291.888,82.4026643 291.967999,82.0186682 292.128,81.72 C292.288001,81.4213318 292.498665,81.1786676 292.76,80.992 C293.021335,80.8053324 293.319998,80.6640005 293.656,80.568 C293.992002,80.4719995 294.335998,80.3920003 294.688,80.328 C295.061335,80.253333 295.415998,80.1973335 295.752,80.16 C296.088002,80.1226665 296.383999,80.0693337 296.64,80 C296.896001,79.9306663 297.098666,79.829334 297.248,79.696 C297.397334,79.562666 297.472,79.3680013 297.472,79.112 C297.472,78.8133318 297.416001,78.5733342 297.304,78.392 C297.191999,78.2106658 297.048001,78.0720005 296.872,77.976 C296.695999,77.8799995 296.498668,77.8160002 296.28,77.784 C296.061332,77.7519998 295.845334,77.736 295.632,77.736 C295.055997,77.736 294.576002,77.8453322 294.192,78.064 C293.807998,78.2826678 293.6,78.695997 293.568,79.304 L292.208,79.304 C292.229333,78.7919974 292.335999,78.3600018 292.528,78.008 C292.720001,77.6559982 292.975998,77.3706678 293.296,77.152 C293.616002,76.9333322 293.981331,76.7760005 294.392,76.68 C294.802669,76.5839995 295.242664,76.536 295.712,76.536 C296.085335,76.536 296.455998,76.5626664 296.824,76.616 C297.192002,76.6693336 297.525332,76.7786658 297.824,76.944 C298.122668,77.1093342 298.362666,77.3413318 298.544,77.64 C298.725334,77.9386682 298.816,78.3279976 298.816,78.808 L298.816,83.064 C298.816,83.3840016 298.834667,83.6186659 298.872,83.768 C298.909334,83.9173341 299.034666,83.992 299.248,83.992 C299.344001,83.992 299.482666,83.9653336 299.664,83.912 L299.664,84.968 C299.429332,85.1066674 299.104002,85.176 298.688,85.176 C298.335998,85.176 298.056001,85.0773343 297.848,84.88 C297.639999,84.6826657 297.536,84.3600022 297.536,83.912 C297.162665,84.3600022 296.728003,84.6826657 296.232,84.88 C295.735998,85.0773343 295.200003,85.176 294.624,85.176 Z M294.928,83.992 C295.376002,83.992 295.759998,83.9306673 296.08,83.808 C296.400002,83.6853327 296.661332,83.5306676 296.864,83.344 C297.066668,83.1573324 297.216,82.9546678 297.312,82.736 C297.408001,82.5173322 297.456,82.312001 297.456,82.12 L297.456,80.728 C297.285333,80.8666674 297.061335,80.9626664 296.784,81.016 C296.506665,81.0693336 296.216002,81.1173331 295.912,81.16 C295.607999,81.2026669 295.301335,81.2453331 294.992,81.288 C294.682665,81.3306669 294.405335,81.4053328 294.16,81.512 C293.914665,81.6186672 293.714667,81.7706657 293.56,81.968 C293.405333,82.1653343 293.328,82.434665 293.328,82.776 C293.328,83.0000011 293.373333,83.1893326 293.464,83.344 C293.554667,83.4986674 293.671999,83.6239995 293.816,83.72 C293.960001,83.8160005 294.127999,83.8853331 294.32,83.928 C294.512001,83.9706669 294.714666,83.992 294.928,83.992 Z M301.028,76.728 L302.388,76.728 L302.388,83.8 L305.476,83.8 L305.476,76.728 L306.836,76.728 L306.836,83.8 L309.924,83.8 L309.924,76.728 L311.284,76.728 L311.284,85 L301.028,85 L301.028,76.728 Z M164.448,105.176 C163.818664,105.176 163.261336,105.074668 162.776,104.872 C162.290664,104.669332 161.885335,104.381335 161.56,104.008 C161.234665,103.634665 160.989334,103.192003 160.824,102.68 C160.658666,102.167997 160.576,101.597336 160.576,100.968 C160.576,100.34933 160.655999,99.7706694 160.816,99.232 C160.976001,98.6933306 161.218665,98.224002 161.544,97.824 C161.869335,97.423998 162.274664,97.1093345 162.76,96.88 C163.245336,96.6506655 163.818663,96.536 164.48,96.536 C164.949336,96.536 165.389331,96.5919994 165.8,96.704 C166.210669,96.8160006 166.573332,96.9893322 166.888,97.224 C167.202668,97.4586678 167.461332,97.7546649 167.664,98.112 C167.866668,98.4693351 167.994666,98.8933309 168.048,99.384 L166.64,99.384 C166.533333,98.8613307 166.309335,98.4560014 165.968,98.168 C165.626665,97.8799986 165.168003,97.736 164.592,97.736 C164.101331,97.736 163.690668,97.8266658 163.36,98.008 C163.029332,98.1893342 162.765334,98.4293318 162.568,98.728 C162.370666,99.0266682 162.229334,99.3706647 162.144,99.76 C162.058666,100.149335 162.016,100.551998 162.016,100.968 C162.016,101.352002 162.061333,101.725332 162.152,102.088 C162.242667,102.450668 162.383999,102.773332 162.576,103.056 C162.768001,103.338668 163.015998,103.565332 163.32,103.736 C163.624002,103.906668 163.994664,103.992 164.432,103.992 C165.104003,103.992 165.629331,103.816002 166.008,103.464 C166.386669,103.111998 166.618666,102.616003 166.704,101.976 L168.096,101.976 C167.946666,103.010672 167.568003,103.802664 166.96,104.352 C166.351997,104.901336 165.514672,105.176 164.448,105.176 Z M174.676,101.64 C174.430665,101.746667 174.089336,101.848 173.652,101.944 C173.214664,102.04 172.756002,102.088 172.276,102.088 C171.251995,102.088 170.521336,101.866669 170.084,101.424 C169.646664,100.981331 169.428,100.360004 169.428,99.56 L169.428,96.728 L170.788,96.728 L170.788,99.336 C170.788,99.8800027 170.913332,100.282665 171.164,100.544 C171.414668,100.805335 171.870663,100.936 172.532,100.936 C172.937335,100.936 173.337331,100.893334 173.732,100.808 C174.126669,100.722666 174.441332,100.626667 174.676,100.52 L174.676,96.728 L176.036,96.728 L176.036,105 L174.676,105 L174.676,101.64 Z M181.704,105.176 C181.042663,105.176 180.464002,105.069334 179.968,104.856 C179.471998,104.642666 179.058668,104.344002 178.728,103.96 C178.397332,103.575998 178.149334,103.117336 177.984,102.584 C177.818666,102.050664 177.736,101.469336 177.736,100.84 C177.736,100.22133 177.831999,99.6480026 178.024,99.12 C178.216001,98.5919974 178.485332,98.1360019 178.832,97.752 C179.178668,97.3679981 179.589331,97.0693344 180.064,96.856 C180.538669,96.6426656 181.058664,96.536 181.624,96.536 C182.360004,96.536 182.970664,96.6879985 183.456,96.992 C183.941336,97.2960015 184.330665,97.6826643 184.624,98.152 C184.917335,98.6213357 185.119999,99.1333306 185.232,99.688 C185.344001,100.242669 185.389333,100.770664 185.368,101.272 L179.176,101.272 C179.165333,101.634668 179.208,101.978665 179.304,102.304 C179.4,102.629335 179.554666,102.917332 179.768,103.168 C179.981334,103.418668 180.253332,103.618666 180.584,103.768 C180.914668,103.917334 181.303998,103.992 181.752,103.992 C182.328003,103.992 182.799998,103.858668 183.168,103.592 C183.536002,103.325332 183.778666,102.920003 183.896,102.376 L185.24,102.376 C185.058666,103.314671 184.65867,104.015998 184.04,104.48 C183.42133,104.944002 182.642671,105.176 181.704,105.176 Z M183.928,100.072 C183.906667,99.7519984 183.834667,99.4480014 183.712,99.16 C183.589333,98.8719986 183.424001,98.624001 183.216,98.416 C183.007999,98.207999 182.762668,98.0426673 182.48,97.92 C182.197332,97.7973327 181.885335,97.736 181.544,97.736 C181.191998,97.736 180.874668,97.7973327 180.592,97.92 C180.309332,98.0426673 180.066668,98.2106656 179.864,98.424 C179.661332,98.6373344 179.501334,98.8853319 179.384,99.168 C179.266666,99.4506681 179.197333,99.7519984 179.176,100.072 L183.928,100.072 Z M188.876,97.928 L185.916,97.928 L185.916,96.728 L193.196,96.728 L193.196,97.928 L190.236,97.928 L190.236,105 L188.876,105 L188.876,97.928 Z M201.972,105.176 C200.873328,105.176 200.01467,104.930669 199.396,104.44 C198.77733,103.949331 198.441334,103.250671 198.388,102.344 L199.764,102.344 C199.806667,102.952003 200.030665,103.389332 200.436,103.656 C200.841335,103.922668 201.347997,104.056 201.956,104.056 C202.60667,104.056 203.107998,103.917335 203.46,103.64 C203.812002,103.362665 203.988,103.010669 203.988,102.584 C203.988,102.167998 203.854668,101.842668 203.588,101.608 C203.321332,101.373332 202.868003,101.256 202.228,101.256 L201.124,101.256 L201.124,100.152 L202.004,100.152 C202.484002,100.152 202.894665,100.053334 203.236,99.856 C203.577335,99.6586657 203.748,99.3146691 203.748,98.824 C203.748,98.5146651 203.601335,98.2426678 203.308,98.008 C203.014665,97.7733322 202.580003,97.656 202.004,97.656 C201.758665,97.656 201.516001,97.6826664 201.276,97.736 C201.035999,97.7893336 200.820001,97.8746661 200.628,97.992 C200.435999,98.1093339 200.276001,98.263999 200.148,98.456 C200.019999,98.648001 199.94,98.8826653 199.908,99.16 L198.532,99.16 C198.564,98.6479974 198.686666,98.2240017 198.9,97.888 C199.113334,97.5519983 199.379998,97.2853343 199.7,97.088 C200.020002,96.8906657 200.382665,96.7493338 200.788,96.664 C201.193335,96.5786662 201.603998,96.536 202.02,96.536 C202.446669,96.536 202.846665,96.5786662 203.22,96.664 C203.593335,96.7493338 203.921332,96.8853324 204.204,97.072 C204.486668,97.2586676 204.710666,97.4906653 204.876,97.768 C205.041334,98.0453347 205.124,98.3759981 205.124,98.76 C205.124,99.2400024 204.988001,99.6293318 204.716,99.928 C204.443999,100.226668 204.137335,100.413333 203.796,100.488 L203.796,100.52 C203.988001,100.552 204.179999,100.616 204.372,100.712 C204.564001,100.808 204.734666,100.938666 204.884,101.104 C205.033334,101.269334 205.156,101.471999 205.252,101.712 C205.348,101.952001 205.396,102.231998 205.396,102.552 C205.396,103.000002 205.300001,103.389332 205.108,103.72 C204.915999,104.050668 204.660002,104.322666 204.34,104.536 C204.019998,104.749334 203.654669,104.909333 203.244,105.016 C202.833331,105.122667 202.409336,105.176 201.972,105.176 Z M209.416,105.176 C209.042665,105.176 208.690668,105.136 208.36,105.056 C208.029332,104.976 207.738668,104.842668 207.488,104.656 C207.237332,104.469332 207.040001,104.229335 206.896,103.936 C206.751999,103.642665 206.68,103.288002 206.68,102.872 C206.68,102.402664 206.759999,102.018668 206.92,101.72 C207.080001,101.421332 207.290665,101.178668 207.552,100.992 C207.813335,100.805332 208.111998,100.664 208.448,100.568 C208.784002,100.472 209.127998,100.392 209.48,100.328 C209.853335,100.253333 210.207998,100.197334 210.544,100.16 C210.880002,100.122666 211.175999,100.069334 211.432,100 C211.688001,99.9306663 211.890666,99.829334 212.04,99.696 C212.189334,99.562666 212.264,99.3680013 212.264,99.112 C212.264,98.8133318 212.208001,98.5733342 212.096,98.392 C211.983999,98.2106658 211.840001,98.0720005 211.664,97.976 C211.487999,97.8799995 211.290668,97.8160002 211.072,97.784 C210.853332,97.7519998 210.637334,97.736 210.424,97.736 C209.847997,97.736 209.368002,97.8453322 208.984,98.064 C208.599998,98.2826678 208.392,98.695997 208.36,99.304 L207,99.304 C207.021333,98.7919974 207.127999,98.3600018 207.32,98.008 C207.512001,97.6559982 207.767998,97.3706678 208.088,97.152 C208.408002,96.9333322 208.773331,96.7760005 209.184,96.68 C209.594669,96.5839995 210.034664,96.536 210.504,96.536 C210.877335,96.536 211.247998,96.5626664 211.616,96.616 C211.984002,96.6693336 212.317332,96.7786658 212.616,96.944 C212.914668,97.1093342 213.154666,97.3413318 213.336,97.64 C213.517334,97.9386682 213.608,98.3279976 213.608,98.808 L213.608,103.064 C213.608,103.384002 213.626666,103.618666 213.664,103.768 C213.701334,103.917334 213.826666,103.992 214.04,103.992 C214.136,103.992 214.274666,103.965334 214.456,103.912 L214.456,104.968 C214.221332,105.106667 213.896002,105.176 213.48,105.176 C213.127998,105.176 212.848001,105.077334 212.64,104.88 C212.431999,104.682666 212.328,104.360002 212.328,103.912 C211.954665,104.360002 211.520002,104.682666 211.024,104.88 C210.527998,105.077334 209.992003,105.176 209.416,105.176 Z M209.72,103.992 C210.168002,103.992 210.551998,103.930667 210.872,103.808 C211.192002,103.685333 211.453332,103.530668 211.656,103.344 C211.858668,103.157332 212.008,102.954668 212.104,102.736 C212.2,102.517332 212.248,102.312001 212.248,102.12 L212.248,100.728 C212.077332,100.866667 211.853335,100.962666 211.576,101.016 C211.298665,101.069334 211.008002,101.117333 210.704,101.16 C210.399998,101.202667 210.093335,101.245333 209.784,101.288 C209.474665,101.330667 209.197335,101.405333 208.952,101.512 C208.706665,101.618667 208.506667,101.770666 208.352,101.968 C208.197333,102.165334 208.12,102.434665 208.12,102.776 C208.12,103.000001 208.165333,103.189333 208.256,103.344 C208.346667,103.498667 208.463999,103.624 208.608,103.72 C208.752001,103.816 208.919999,103.885333 209.112,103.928 C209.304001,103.970667 209.506666,103.992 209.72,103.992 Z M220.78,101.64 C220.534665,101.746667 220.193336,101.848 219.756,101.944 C219.318664,102.04 218.860002,102.088 218.38,102.088 C217.355995,102.088 216.625336,101.866669 216.188,101.424 C215.750664,100.981331 215.532,100.360004 215.532,99.56 L215.532,96.728 L216.892,96.728 L216.892,99.336 C216.892,99.8800027 217.017332,100.282665 217.268,100.544 C217.518668,100.805335 217.974663,100.936 218.636,100.936 C219.041335,100.936 219.441331,100.893334 219.836,100.808 C220.230669,100.722666 220.545332,100.626667 220.78,100.52 L220.78,96.728 L222.14,96.728 L222.14,105 L220.78,105 L220.78,101.64 Z M224.288,96.728 L225.648,96.728 L225.648,103.48 L229.552,96.728 L231.296,96.728 L231.296,105 L229.936,105 L229.936,98.248 L226.032,105 L224.288,105 L224.288,96.728 Z M236.868,105.176 C236.238664,105.176 235.681336,105.074668 235.196,104.872 C234.710664,104.669332 234.305335,104.381335 233.98,104.008 C233.654665,103.634665 233.409334,103.192003 233.244,102.68 C233.078666,102.167997 232.996,101.597336 232.996,100.968 C232.996,100.34933 233.075999,99.7706694 233.236,99.232 C233.396001,98.6933306 233.638665,98.224002 233.964,97.824 C234.289335,97.423998 234.694664,97.1093345 235.18,96.88 C235.665336,96.6506655 236.238663,96.536 236.9,96.536 C237.369336,96.536 237.809331,96.5919994 238.22,96.704 C238.630669,96.8160006 238.993332,96.9893322 239.308,97.224 C239.622668,97.4586678 239.881332,97.7546649 240.084,98.112 C240.286668,98.4693351 240.414666,98.8933309 240.468,99.384 L239.06,99.384 C238.953333,98.8613307 238.729335,98.4560014 238.388,98.168 C238.046665,97.8799986 237.588003,97.736 237.012,97.736 C236.521331,97.736 236.110668,97.8266658 235.78,98.008 C235.449332,98.1893342 235.185334,98.4293318 234.988,98.728 C234.790666,99.0266682 234.649334,99.3706647 234.564,99.76 C234.478666,100.149335 234.436,100.551998 234.436,100.968 C234.436,101.352002 234.481333,101.725332 234.572,102.088 C234.662667,102.450668 234.803999,102.773332 234.996,103.056 C235.188001,103.338668 235.435998,103.565332 235.74,103.736 C236.044002,103.906668 236.414664,103.992 236.852,103.992 C237.524003,103.992 238.049331,103.816002 238.428,103.464 C238.806669,103.111998 239.038666,102.616003 239.124,101.976 L240.516,101.976 C240.366666,103.010672 239.988003,103.802664 239.38,104.352 C238.771997,104.901336 237.934672,105.176 236.868,105.176 Z M242.072,105.096 C241.933333,105.096 241.789334,105.082667 241.64,105.056 C241.490666,105.029333 241.368,105.005333 241.272,104.984 L241.272,103.784 C241.378667,103.816 241.477333,103.837333 241.568,103.848 C241.658667,103.858667 241.746666,103.864 241.832,103.864 C242.184002,103.864 242.453332,103.725335 242.64,103.448 C242.826668,103.170665 242.965333,102.744003 243.056,102.168 C243.146667,101.591997 243.202667,100.853338 243.224,99.952 C243.245333,99.0506622 243.266667,97.9760062 243.288,96.728 L249.096,96.728 L249.096,105 L247.736,105 L247.736,97.928 L244.6,97.928 C244.568,98.8986715 244.533334,99.8186623 244.496,100.688 C244.458666,101.557338 244.365334,102.31733 244.216,102.968 C244.066666,103.61867 243.826668,104.135998 243.496,104.52 C243.165332,104.904002 242.69067,105.096 242.072,105.096 Z M252.988,101.768 C252.40133,101.682666 251.921335,101.416002 251.548,100.968 C251.174665,100.519998 250.988,99.9546701 250.988,99.272 C250.988,98.4933294 251.219998,97.874669 251.684,97.416 C252.148002,96.957331 252.779996,96.728 253.58,96.728 L257.772,96.728 L257.772,105 L256.412,105 L256.412,101.816 L254.604,101.816 L252.076,105 L250.268,105 L252.988,101.768 Z M256.412,100.648 L256.412,97.928 L254.012,97.928 C253.435997,97.928 253.020001,98.0506654 252.764,98.296 C252.507999,98.5413346 252.38,98.8719979 252.38,99.288 C252.38,99.7146688 252.507999,100.047999 252.764,100.288 C253.020001,100.528001 253.435997,100.648 254.012,100.648 L256.412,100.648 Z M266.848,105.176 C266.26133,105.176 265.738669,105.077334 265.28,104.88 C264.821331,104.682666 264.426668,104.410668 264.096,104.064 C263.765332,103.717332 263.506668,103.306669 263.32,102.832 C263.133332,102.357331 263.024,101.837336 262.992,101.272 L261.28,101.272 L261.28,105 L259.92,105 L259.92,96.728 L261.28,96.728 L261.28,100.104 L263.04,100.104 C263.104,99.5919974 263.234666,99.1173355 263.432,98.68 C263.629334,98.2426645 263.887998,97.8666682 264.208,97.552 C264.528002,97.2373318 264.909331,96.9893342 265.352,96.808 C265.794669,96.6266658 266.293331,96.536 266.848,96.536 C267.46667,96.536 268.013331,96.6479989 268.488,96.872 C268.962669,97.0960011 269.365332,97.4026647 269.696,97.792 C270.026668,98.1813353 270.277332,98.6399974 270.448,99.168 C270.618668,99.6960026 270.704,100.263997 270.704,100.872 C270.704,101.480003 270.618668,102.045331 270.448,102.568 C270.277332,103.090669 270.026668,103.546665 269.696,103.936 C269.365332,104.325335 268.962669,104.629332 268.488,104.848 C268.013331,105.066668 267.46667,105.176 266.848,105.176 Z M266.848,103.992 C267.178668,103.992 267.493332,103.922667 267.792,103.784 C268.090668,103.645333 268.346666,103.445335 268.56,103.184 C268.773334,102.922665 268.943999,102.597335 269.072,102.208 C269.200001,101.818665 269.264,101.373336 269.264,100.872 C269.264,100.370664 269.200001,99.9253353 269.072,99.536 C268.943999,99.1466647 268.773334,98.818668 268.56,98.552 C268.346666,98.285332 268.090668,98.0826674 267.792,97.944 C267.493332,97.8053326 267.178668,97.736 266.848,97.736 C266.506665,97.736 266.189335,97.8053326 265.896,97.944 C265.602665,98.0826674 265.349334,98.285332 265.136,98.552 C264.922666,98.818668 264.752001,99.1466647 264.624,99.536 C264.495999,99.9253353 264.432,100.370664 264.432,100.872 C264.432,101.874672 264.655998,102.645331 265.104,103.184 C265.552002,103.722669 266.13333,103.992 266.848,103.992 Z M274.404,97.928 L271.444,97.928 L271.444,96.728 L278.724,96.728 L278.724,97.928 L275.764,97.928 L275.764,105 L274.404,105 L274.404,97.928 Z M283.336,105.176 C282.706664,105.176 282.149336,105.074668 281.664,104.872 C281.178664,104.669332 280.773335,104.381335 280.448,104.008 C280.122665,103.634665 279.877334,103.192003 279.712,102.68 C279.546666,102.167997 279.464,101.597336 279.464,100.968 C279.464,100.34933 279.543999,99.7706694 279.704,99.232 C279.864001,98.6933306 280.106665,98.224002 280.432,97.824 C280.757335,97.423998 281.162664,97.1093345 281.648,96.88 C282.133336,96.6506655 282.706663,96.536 283.368,96.536 C283.837336,96.536 284.277331,96.5919994 284.688,96.704 C285.098669,96.8160006 285.461332,96.9893322 285.776,97.224 C286.090668,97.4586678 286.349332,97.7546649 286.552,98.112 C286.754668,98.4693351 286.882666,98.8933309 286.936,99.384 L285.528,99.384 C285.421333,98.8613307 285.197335,98.4560014 284.856,98.168 C284.514665,97.8799986 284.056003,97.736 283.48,97.736 C282.989331,97.736 282.578668,97.8266658 282.248,98.008 C281.917332,98.1893342 281.653334,98.4293318 281.456,98.728 C281.258666,99.0266682 281.117334,99.3706647 281.032,99.76 C280.946666,100.149335 280.904,100.551998 280.904,100.968 C280.904,101.352002 280.949333,101.725332 281.04,102.088 C281.130667,102.450668 281.271999,102.773332 281.464,103.056 C281.656001,103.338668 281.903999,103.565332 282.208,103.736 C282.512002,103.906668 282.882665,103.992 283.32,103.992 C283.992003,103.992 284.517331,103.816002 284.896,103.464 C285.274669,103.111998 285.506666,102.616003 285.592,101.976 L286.984,101.976 C286.834666,103.010672 286.456003,103.802664 285.848,104.352 C285.239997,104.901336 284.402672,105.176 283.336,105.176 Z M290.348,101.768 C289.76133,101.682666 289.281335,101.416002 288.908,100.968 C288.534665,100.519998 288.348,99.9546701 288.348,99.272 C288.348,98.4933294 288.579998,97.874669 289.044,97.416 C289.508002,96.957331 290.139996,96.728 290.94,96.728 L295.132,96.728 L295.132,105 L293.772,105 L293.772,101.816 L291.964,101.816 L289.436,105 L287.628,105 L290.348,101.768 Z M293.772,100.648 L293.772,97.928 L291.372,97.928 C290.795997,97.928 290.380001,98.0506654 290.124,98.296 C289.867999,98.5413346 289.74,98.8719979 289.74,99.288 C289.74,99.7146688 289.867999,100.047999 290.124,100.288 C290.380001,100.528001 290.795997,100.648 291.372,100.648 L293.772,100.648 Z M161.024,116.728 L162.384,116.728 L162.384,120.68 L166.176,116.728 L167.984,116.728 L164.32,120.312 L168.416,125 L166.672,125 L163.216,121.064 L162.384,121.88 L162.384,125 L161.024,125 L161.024,116.728 Z M173.108,125.176 C172.446663,125.176 171.868002,125.066668 171.372,124.848 C170.875998,124.629332 170.457335,124.325335 170.116,123.936 C169.774665,123.546665 169.518668,123.090669 169.348,122.568 C169.177332,122.045331 169.092,121.480003 169.092,120.872 C169.092,120.263997 169.177332,119.696003 169.348,119.168 C169.518668,118.639997 169.774665,118.181335 170.116,117.792 C170.457335,117.402665 170.875998,117.096001 171.372,116.872 C171.868002,116.647999 172.446663,116.536 173.108,116.536 C173.75867,116.536 174.334664,116.647999 174.836,116.872 C175.337336,117.096001 175.758665,117.402665 176.1,117.792 C176.441335,118.181335 176.697332,118.639997 176.868,119.168 C177.038668,119.696003 177.124,120.263997 177.124,120.872 C177.124,121.480003 177.038668,122.045331 176.868,122.568 C176.697332,123.090669 176.441335,123.546665 176.1,123.936 C175.758665,124.325335 175.337336,124.629332 174.836,124.848 C174.334664,125.066668 173.75867,125.176 173.108,125.176 Z M173.108,123.992 C173.460002,123.992 173.793332,123.922667 174.108,123.784 C174.422668,123.645333 174.697332,123.445335 174.932,123.184 C175.166668,122.922665 175.350666,122.597335 175.484,122.208 C175.617334,121.818665 175.684,121.373336 175.684,120.872 C175.684,120.370664 175.617334,119.925335 175.484,119.536 C175.350666,119.146665 175.166668,118.818668 174.932,118.552 C174.697332,118.285332 174.422668,118.082667 174.108,117.944 C173.793332,117.805333 173.460002,117.736 173.108,117.736 C172.755998,117.736 172.422668,117.805333 172.108,117.944 C171.793332,118.082667 171.518668,118.285332 171.284,118.552 C171.049332,118.818668 170.865334,119.146665 170.732,119.536 C170.598666,119.925335 170.532,120.370664 170.532,120.872 C170.532,121.373336 170.598666,121.818665 170.732,122.208 C170.865334,122.597335 171.049332,122.922665 171.284,123.184 C171.518668,123.445335 171.793332,123.645333 172.108,123.784 C172.422668,123.922667 172.755998,123.992 173.108,123.992 Z M178.824,116.728 L180.184,116.728 L180.184,123.48 L184.088,116.728 L185.832,116.728 L185.832,125 L184.472,125 L184.472,118.248 L180.568,125 L178.824,125 L178.824,116.728 Z M187.98,116.728 L189.34,116.728 L189.34,120.024 L193.532,120.024 L193.532,116.728 L194.892,116.728 L194.892,125 L193.532,125 L193.532,121.192 L189.34,121.192 L189.34,125 L187.98,125 L187.98,116.728 Z M197.04,116.728 L198.4,116.728 L198.4,119.896 L200.96,119.896 C201.770671,119.896 202.421331,120.117331 202.912,120.56 C203.402669,121.002669 203.648,121.623996 203.648,122.424 C203.648,123.202671 203.413336,123.826664 202.944,124.296 C202.474664,124.765336 201.834671,125 201.024,125 L197.04,125 L197.04,116.728 Z M200.528,123.8 C201.669339,123.8 202.24,123.341338 202.24,122.424 C202.24,121.517329 201.669339,121.064 200.528,121.064 L198.4,121.064 L198.4,123.8 L200.528,123.8 Z M204.96,116.728 L206.32,116.728 L206.32,125 L204.96,125 L204.96,116.728 Z M208.772,123.224 L208.772,125 L210.548,125 L210.548,123.224 L208.772,123.224 Z" id="Вы-зарабатываете-SIG" fill="#303030"></path>
            <g id="feminine-fashion-handbag-for-money" transform="translate(48.000000, 35.000000)">
                <circle id="Oval-2" fill="#DDDDF3" opacity="0.665364583" cx="40" cy="40" r="40"></circle>
                <circle id="Oval-2" fill="#55589A" cx="80" cy="14" r="3"></circle>
                <circle id="Oval-2" fill="#55589A" cx="84.5" cy="35.5" r="1.5"></circle>
                <circle id="Oval-2" fill="#55589A" cx="5.5" cy="7.5" r="1.5"></circle>
                <circle id="Oval-5" fill="#D8232A" transform="translate(35.000000, 37.000000) rotate(12.000000) translate(-35.000000, -37.000000) " cx="35" cy="37" r="9"></circle>
                <text id="$" transform="translate(35.000000, 36.500000) rotate(12.000000) translate(-35.000000, -36.500000) " font-family="HelveticaNeue-Medium, Helvetica Neue" font-size="12" font-weight="400" fill="#FFFFFF">
                    <tspan x="31.664" y="41">$</tspan>
                </text>
                <circle id="Oval-5" fill="#D8232A" transform="translate(46.000000, 18.000000) rotate(-8.000000) translate(-46.000000, -18.000000) " cx="46" cy="18" r="9"></circle>
                <text id="$" transform="translate(46.000000, 17.500000) rotate(-8.000000) translate(-46.000000, -17.500000) " font-family="HelveticaNeue-Medium, Helvetica Neue" font-size="12" font-weight="400" fill="#FFFFFF">
                    <tspan x="42.664" y="22">$</tspan>
                </text>
                <path d="M25.0925768,72 L40.4977053,72 L55.9028793,72 C58.1654004,72 60,70.2142857 60,68.0120525 L60,61.3256381 C60,59.8146048 59.4264031,58.4365916 58.4840653,57.3820011 C57.9878585,56.8014888 55.2974159,53.4870613 54.6646383,48.9186459 C54.5099037,47.8197448 53.549311,47 52.4112219,47 L40.5023032,47 L28.5887865,47 C27.4506974,47 26.4855979,47.8197448 26.3353701,48.9186459 C25.7025926,53.4870613 23.01215,56.8014888 22.5159431,57.3820011 C21.5736054,58.4365916 21.0000085,59.8190801 21.0000085,61.3256381 L21.0000085,68.0120525 C20.9954561,70.2142857 22.8300557,72 25.0925768,72 Z" id="Shape" fill="#55589A" fill-rule="nonzero"></path>
                <path d="M22.4304005,47.9718066 C22.0314562,50.1118228 21.1601985,53.0900121 19.2892872,55.1453193 C18.867415,55.6045311 18.9132707,56.3089531 19.3855841,56.7191229 C19.6056913,56.9063743 19.8762397,57 20.1467882,57 C20.4631923,57 20.7795964,56.8751657 21.0042892,56.6255417 C23.2282891,54.1867704 24.2371138,50.7939976 24.6864994,48.3730597 C24.9432911,46.9909659 26.1768086,45.9878333 27.6212622,45.9878333 L39.3465567,45.9878333 L52.378692,45.9878333 C53.81856,45.9878333 55.0521233,46.9909659 55.3134548,48.3730597 C55.7674259,50.793953 56.7717109,54.1867704 58.9957108,56.6255417 C59.2203577,56.8752103 59.5368077,57 59.853166,57 C60.1237144,57 60.3943087,56.9063743 60.6144159,56.7191229 C61.0867293,56.3089531 61.132585,55.6045311 60.7107128,55.1453193 C58.8398015,53.0944704 57.9685438,50.1118228 57.5695995,47.9718066 C57.1110428,45.5286215 54.928313,43.7541914 52.3787378,43.7541914 L41.8915463,43.7541914 L42.5793814,42.9739771 C42.6527504,42.9828938 42.7215339,42.9873522 42.7948572,42.9873522 C43.9550514,42.9873522 44.8904612,42.0510951 44.8446056,40.9142115 C44.8033813,39.8798703 43.9366633,39.037239 42.8774432,39.001572 C41.7081237,38.9569884 40.7451546,39.8664952 40.7451546,40.9944621 C40.7451546,41.284256 40.8093067,41.5606747 40.9239459,41.8103433 L40.245282,42.5816408 C40.1168861,42.7287669 39.8876536,42.7287669 39.7592577,42.5816408 L39.0897191,41.8237184 C39.2227006,41.5250078 39.2823129,41.1861719 39.2456284,40.8295025 C39.1447459,39.875412 38.3422717,39.1130312 37.3563748,39.0461557 C36.1549563,38.9614467 35.1553027,39.8843287 35.1553027,41.0345874 C35.1553027,42.1358041 36.0724161,43.0274775 37.2050511,43.0274775 C37.292131,43.0274775 37.3747171,43.0230191 37.4572573,43.009644 L38.1084078,43.749733 L27.6212163,43.749733 C25.071687,43.7541914 22.8889572,45.5286215 22.4304005,47.9718066 Z" id="Shape" fill="#55589A" fill-rule="nonzero"></path>
            </g>
        </g>
    </g>
</svg>