<?xml version="1.0" encoding="UTF-8"?>
<svg width="410px" height="170px" viewBox="0 0 410 170" version="1.1" xmlns="http://www.w3.org/2000/svg" xmlns:xlink="http://www.w3.org/1999/xlink">
    <!-- Generator: Sketch 47.1 (45422) - http://www.bohemiancoding.com/sketch -->
    <title>1</title>
    <desc>Created with Sketch.</desc>
    <defs>
        <rect id="path-1" x="0" y="0" width="390" height="150" rx="8"></rect>
        <filter x="-4.0%" y="-9.7%" width="107.9%" height="120.7%" filterUnits="objectBoundingBox" id="filter-3">
            <feOffset dx="0" dy="1" in="SourceAlpha" result="shadowOffsetOuter1"></feOffset>
            <feGaussianBlur stdDeviation="5" in="shadowOffsetOuter1" result="shadowBlurOuter1"></feGaussianBlur>
            <feColorMatrix values="0 0 0 0 0   0 0 0 0 0   0 0 0 0 0  0 0 0 0.36 0" type="matrix" in="shadowBlurOuter1"></feColorMatrix>
        </filter>
    </defs>
    <g id="Page-1" stroke="none" stroke-width="1" fill="none" fill-rule="evenodd">
        <g id="Artboard-3" transform="translate(-320.000000, -3307.000000)">
            <g id="1" transform="translate(330.000000, 3316.000000)">
                <g id="Group-4">
                    <mask id="mask-2" fill="white">
                        <use xlink:href="#path-1"></use>
                    </mask>
                    <g id="Rectangle-24">
                        <use fill="black" fill-opacity="1" filter="url(#filter-3)" xlink:href="#path-1"></use>
                        <use fill="#FFFFFF" fill-rule="evenodd" xlink:href="#path-1"></use>
                    </g>
                    <path d="M346.979315,89.4976336 C346.979315,89.4976336 337.339076,102.365277 331.794216,115.929715 C326.305004,129.517208 324.306999,145.287308 324.306999,145.287308 C324.306999,145.287308 337.841227,154.763201 351.930603,160.113405 C366.018654,165.464889 382.579037,167.497634 382.579037,167.497634 C382.579037,167.497634 392.245774,154.562104 397.790634,140.996386 C403.281171,127.408892 405.306999,111.572187 405.306999,111.572187 C405.306999,111.572187 391.743623,102.16418 377.655572,96.8126953 C363.567521,91.4624917 346.979315,89.4976336 346.979315,89.4976336" id="Fill-33" fill="#55589A" mask="url(#mask-2)"></path>
                </g>
                <path d="M161.104,26.576 L166.256,26.576 C166.97067,26.576 167.578664,26.679999 168.08,26.888 C168.581336,27.096001 168.989332,27.370665 169.304,27.712 C169.618668,28.053335 169.847999,28.4453311 169.992,28.888 C170.136001,29.3306689 170.208,29.781331 170.208,30.24 C170.208,30.7093357 170.136001,31.1626645 169.992,31.6 C169.847999,32.0373355 169.618668,32.426665 169.304,32.768 C168.989332,33.109335 168.581336,33.383999 168.08,33.592 C167.578664,33.800001 166.97067,33.904 166.256,33.904 L163.616,33.904 L163.616,38 L161.104,38 L161.104,26.576 Z M165.568,31.952 C165.856001,31.952 166.133332,31.9306669 166.4,31.888 C166.666668,31.8453331 166.901332,31.7626673 167.104,31.64 C167.306668,31.5173327 167.469333,31.3440011 167.592,31.12 C167.714667,30.8959989 167.776,30.6026685 167.776,30.24 C167.776,29.8773315 167.714667,29.5840011 167.592,29.36 C167.469333,29.1359989 167.306668,28.9626673 167.104,28.84 C166.901332,28.7173327 166.666668,28.6346669 166.4,28.592 C166.133332,28.5493331 165.856001,28.528 165.568,28.528 L163.616,28.528 L163.616,31.952 L165.568,31.952 Z M174.1,38.208 C173.705331,38.208 173.337335,38.1600005 172.996,38.064 C172.654665,37.9679995 172.356001,37.8186677 172.1,37.616 C171.843999,37.4133323 171.644001,37.1573349 171.5,36.848 C171.355999,36.5386651 171.284,36.1706688 171.284,35.744 C171.284,35.2746643 171.366666,34.8880015 171.532,34.584 C171.697334,34.2799985 171.910665,34.0373342 172.172,33.856 C172.433335,33.6746658 172.731998,33.5386671 173.068,33.448 C173.404002,33.3573329 173.742665,33.2853336 174.084,33.232 C174.425335,33.1786664 174.761332,33.1360002 175.092,33.104 C175.422668,33.0719998 175.715999,33.0240003 175.972,32.96 C176.228001,32.8959997 176.430666,32.8026673 176.58,32.68 C176.729334,32.5573327 176.798667,32.3786678 176.788,32.144 C176.788,31.9093322 176.748,31.7173341 176.668,31.568 C176.588,31.4186659 176.481334,31.3040004 176.348,31.224 C176.214666,31.1439996 176.060001,31.0906668 175.884,31.064 C175.707999,31.0373332 175.518668,31.024 175.316,31.024 C174.867998,31.024 174.516001,31.119999 174.26,31.312 C174.003999,31.504001 173.854667,31.8239978 173.812,32.272 L171.54,32.272 C171.572,31.7493307 171.705332,31.3093351 171.94,30.952 C172.174668,30.5946649 172.473332,30.3093344 172.836,30.096 C173.198668,29.8826656 173.603998,29.7306671 174.052,29.64 C174.500002,29.5493329 174.958664,29.504 175.428,29.504 C175.844002,29.504 176.265331,29.533333 176.692,29.592 C177.118669,29.650667 177.507998,29.7653325 177.86,29.936 C178.212002,30.1066675 178.499999,30.3466651 178.724,30.656 C178.948001,30.9653349 179.06,31.3653309 179.06,31.856 L179.06,36.16 C179.06,36.5333352 179.081333,36.890665 179.124,37.232 C179.166667,37.573335 179.241333,37.8293325 179.348,38 L177.044,38 C177.001333,37.8719994 176.966667,37.741334 176.94,37.608 C176.913333,37.474666 176.894667,37.3386674 176.884,37.2 C176.521332,37.5733352 176.094669,37.8346659 175.604,37.984 C175.113331,38.1333341 174.612003,38.208 174.1,38.208 Z M174.948,36.704 C175.396002,36.704 175.742665,36.6293341 175.988,36.48 C176.233335,36.3306659 176.414666,36.152001 176.532,35.944 C176.649334,35.735999 176.721333,35.5253344 176.748,35.312 C176.774667,35.0986656 176.788,34.9280006 176.788,34.8 L176.788,33.952 C176.692,34.0373338 176.574667,34.1039998 176.436,34.152 C176.297333,34.2000002 176.142668,34.2399998 175.972,34.272 C175.801332,34.3040002 175.625334,34.3306666 175.444,34.352 C175.262666,34.3733334 175.081334,34.3999998 174.9,34.432 C174.718666,34.4640002 174.548001,34.5066664 174.388,34.56 C174.227999,34.6133336 174.086667,34.6853329 173.964,34.776 C173.841333,34.8666671 173.742667,34.9813326 173.668,35.12 C173.593333,35.2586674 173.556,35.4346656 173.556,35.648 C173.556,35.8613344 173.593333,36.034666 173.668,36.168 C173.742667,36.301334 173.843999,36.4079996 173.972,36.488 C174.100001,36.5680004 174.249332,36.6239998 174.42,36.656 C174.590668,36.6880002 174.766666,36.704 174.948,36.704 Z M184.28,38.208 C183.757331,38.208 183.264002,38.1573338 182.8,38.056 C182.335998,37.9546662 181.928002,37.7866678 181.576,37.552 C181.223998,37.3173322 180.944001,37.0186685 180.736,36.656 C180.527999,36.2933315 180.418667,35.845336 180.408,35.312 L182.568,35.312 C182.610667,35.7600022 182.783998,36.1013322 183.088,36.336 C183.392002,36.5706678 183.805331,36.688 184.328,36.688 C184.840003,36.688 185.213332,36.5813344 185.448,36.368 C185.682668,36.1546656 185.8,35.8933349 185.8,35.584 C185.8,35.242665 185.690668,34.9653344 185.472,34.752 C185.253332,34.5386656 184.888003,34.432 184.376,34.432 L183.496,34.432 L183.496,33.008 L184.088,33.008 C184.568002,33.008 184.949332,32.9333341 185.232,32.784 C185.514668,32.6346659 185.656,32.3520021 185.656,31.936 C185.656,31.6906654 185.552001,31.4746676 185.344,31.288 C185.135999,31.1013324 184.808002,31.008 184.36,31.008 C183.901331,31.008 183.541335,31.0853326 183.28,31.24 C183.018665,31.3946674 182.856,31.6959978 182.792,32.144 L180.68,32.144 C180.722667,31.6639976 180.853332,31.2560017 181.072,30.92 C181.290668,30.5839983 181.567998,30.312001 181.904,30.104 C182.240002,29.895999 182.623998,29.7440005 183.056,29.648 C183.488002,29.5519995 183.938664,29.504 184.408,29.504 C185.506672,29.504 186.35733,29.6826649 186.96,30.04 C187.56267,30.3973351 187.864,30.9599962 187.864,31.728 C187.864,31.9733346 187.818667,32.199999 187.728,32.408 C187.637333,32.616001 187.522667,32.7999992 187.384,32.96 C187.245333,33.1200008 187.085334,33.2506662 186.904,33.352 C186.722666,33.4533338 186.546668,33.5199998 186.376,33.552 L186.376,33.584 C186.568001,33.6053334 186.767999,33.6506663 186.976,33.72 C187.184001,33.7893337 187.373332,33.9013326 187.544,34.056 C187.714668,34.2106674 187.855999,34.4079988 187.968,34.648 C188.080001,34.8880012 188.136,35.1893315 188.136,35.552 C188.136,36.0000022 188.042668,36.3893317 187.856,36.72 C187.669332,37.0506683 187.408002,37.3279989 187.072,37.552 C186.735998,37.7760011 186.330669,37.9413328 185.856,38.048 C185.381331,38.1546672 184.856003,38.208 184.28,38.208 Z M188.94,36.288 L189.932,36.288 C190.049334,36.0533322 190.169333,35.7600018 190.292,35.408 C190.414667,35.0559982 190.526666,34.6613355 190.628,34.224 C190.729334,33.7866645 190.812,33.3120026 190.876,32.8 C190.94,32.2879974 190.972,31.7493362 190.972,31.184 L190.972,29.728 L197.58,29.728 L197.58,36.288 L198.652,36.288 L198.652,40.272 L196.524,40.272 L196.524,38 L191.068,38 L191.068,40.272 L188.94,40.272 L188.94,36.288 Z M195.308,36.288 L195.308,31.424 L193.084,31.424 L193.084,31.632 C193.084,32.1440026 193.054667,32.6346643 192.996,33.104 C192.937333,33.5733357 192.86,34.007998 192.764,34.408 C192.668,34.808002 192.566667,35.1679984 192.46,35.488 C192.353333,35.8080016 192.252,36.0746656 192.156,36.288 L195.308,36.288 Z M202.24,38.208 C201.845331,38.208 201.477335,38.1600005 201.136,38.064 C200.794665,37.9679995 200.496001,37.8186677 200.24,37.616 C199.983999,37.4133323 199.784001,37.1573349 199.64,36.848 C199.495999,36.5386651 199.424,36.1706688 199.424,35.744 C199.424,35.2746643 199.506666,34.8880015 199.672,34.584 C199.837334,34.2799985 200.050665,34.0373342 200.312,33.856 C200.573335,33.6746658 200.871998,33.5386671 201.208,33.448 C201.544002,33.3573329 201.882665,33.2853336 202.224,33.232 C202.565335,33.1786664 202.901332,33.1360002 203.232,33.104 C203.562668,33.0719998 203.855999,33.0240003 204.112,32.96 C204.368001,32.8959997 204.570666,32.8026673 204.72,32.68 C204.869334,32.5573327 204.938667,32.3786678 204.928,32.144 C204.928,31.9093322 204.888,31.7173341 204.808,31.568 C204.728,31.4186659 204.621334,31.3040004 204.488,31.224 C204.354666,31.1439996 204.200001,31.0906668 204.024,31.064 C203.847999,31.0373332 203.658668,31.024 203.456,31.024 C203.007998,31.024 202.656001,31.119999 202.4,31.312 C202.143999,31.504001 201.994667,31.8239978 201.952,32.272 L199.68,32.272 C199.712,31.7493307 199.845332,31.3093351 200.08,30.952 C200.314668,30.5946649 200.613332,30.3093344 200.976,30.096 C201.338668,29.8826656 201.743998,29.7306671 202.192,29.64 C202.640002,29.5493329 203.098664,29.504 203.568,29.504 C203.984002,29.504 204.405331,29.533333 204.832,29.592 C205.258669,29.650667 205.647998,29.7653325 206,29.936 C206.352002,30.1066675 206.639999,30.3466651 206.864,30.656 C207.088001,30.9653349 207.2,31.3653309 207.2,31.856 L207.2,36.16 C207.2,36.5333352 207.221333,36.890665 207.264,37.232 C207.306667,37.573335 207.381333,37.8293325 207.488,38 L205.184,38 C205.141333,37.8719994 205.106667,37.741334 205.08,37.608 C205.053333,37.474666 205.034667,37.3386674 205.024,37.2 C204.661332,37.5733352 204.234669,37.8346659 203.744,37.984 C203.253331,38.1333341 202.752003,38.208 202.24,38.208 Z M203.088,36.704 C203.536002,36.704 203.882665,36.6293341 204.128,36.48 C204.373335,36.3306659 204.554666,36.152001 204.672,35.944 C204.789334,35.735999 204.861333,35.5253344 204.888,35.312 C204.914667,35.0986656 204.928,34.9280006 204.928,34.8 L204.928,33.952 C204.832,34.0373338 204.714667,34.1039998 204.576,34.152 C204.437333,34.2000002 204.282668,34.2399998 204.112,34.272 C203.941332,34.3040002 203.765334,34.3306666 203.584,34.352 C203.402666,34.3733334 203.221334,34.3999998 203.04,34.432 C202.858666,34.4640002 202.688001,34.5066664 202.528,34.56 C202.367999,34.6133336 202.226667,34.6853329 202.104,34.776 C201.981333,34.8666671 201.882667,34.9813326 201.808,35.12 C201.733333,35.2586674 201.696,35.4346656 201.696,35.648 C201.696,35.8613344 201.733333,36.034666 201.808,36.168 C201.882667,36.301334 201.983999,36.4079996 202.112,36.488 C202.240001,36.5680004 202.389332,36.6239998 202.56,36.656 C202.730668,36.6880002 202.906666,36.704 203.088,36.704 Z M214.244,34.96 C214.030666,35.0240003 213.716002,35.1013329 213.3,35.192 C212.883998,35.2826671 212.452002,35.328 212.004,35.328 C210.873328,35.328 210.062669,35.0666693 209.572,34.544 C209.081331,34.0213307 208.836,33.3120045 208.836,32.416 L208.836,29.728 L211.092,29.728 L211.092,31.952 C211.092,32.560003 211.209332,32.9813322 211.444,33.216 C211.678668,33.4506678 212.062664,33.568 212.596,33.568 C212.926668,33.568 213.235999,33.5413336 213.524,33.488 C213.812001,33.4346664 214.051999,33.3813336 214.244,33.328 L214.244,29.728 L216.516,29.728 L216.516,38 L214.244,38 L214.244,34.96 Z M220.808,38.208 C220.413331,38.208 220.045335,38.1600005 219.704,38.064 C219.362665,37.9679995 219.064001,37.8186677 218.808,37.616 C218.551999,37.4133323 218.352001,37.1573349 218.208,36.848 C218.063999,36.5386651 217.992,36.1706688 217.992,35.744 C217.992,35.2746643 218.074666,34.8880015 218.24,34.584 C218.405334,34.2799985 218.618665,34.0373342 218.88,33.856 C219.141335,33.6746658 219.439998,33.5386671 219.776,33.448 C220.112002,33.3573329 220.450665,33.2853336 220.792,33.232 C221.133335,33.1786664 221.469332,33.1360002 221.8,33.104 C222.130668,33.0719998 222.423999,33.0240003 222.68,32.96 C222.936001,32.8959997 223.138666,32.8026673 223.288,32.68 C223.437334,32.5573327 223.506667,32.3786678 223.496,32.144 C223.496,31.9093322 223.456,31.7173341 223.376,31.568 C223.296,31.4186659 223.189334,31.3040004 223.056,31.224 C222.922666,31.1439996 222.768001,31.0906668 222.592,31.064 C222.415999,31.0373332 222.226668,31.024 222.024,31.024 C221.575998,31.024 221.224001,31.119999 220.968,31.312 C220.711999,31.504001 220.562667,31.8239978 220.52,32.272 L218.248,32.272 C218.28,31.7493307 218.413332,31.3093351 218.648,30.952 C218.882668,30.5946649 219.181332,30.3093344 219.544,30.096 C219.906668,29.8826656 220.311998,29.7306671 220.76,29.64 C221.208002,29.5493329 221.666664,29.504 222.136,29.504 C222.552002,29.504 222.973331,29.533333 223.4,29.592 C223.826669,29.650667 224.215998,29.7653325 224.568,29.936 C224.920002,30.1066675 225.207999,30.3466651 225.432,30.656 C225.656001,30.9653349 225.768,31.3653309 225.768,31.856 L225.768,36.16 C225.768,36.5333352 225.789333,36.890665 225.832,37.232 C225.874667,37.573335 225.949333,37.8293325 226.056,38 L223.752,38 C223.709333,37.8719994 223.674667,37.741334 223.648,37.608 C223.621333,37.474666 223.602667,37.3386674 223.592,37.2 C223.229332,37.5733352 222.802669,37.8346659 222.312,37.984 C221.821331,38.1333341 221.320003,38.208 220.808,38.208 Z M221.656,36.704 C222.104002,36.704 222.450665,36.6293341 222.696,36.48 C222.941335,36.3306659 223.122666,36.152001 223.24,35.944 C223.357334,35.735999 223.429333,35.5253344 223.456,35.312 C223.482667,35.0986656 223.496,34.9280006 223.496,34.8 L223.496,33.952 C223.4,34.0373338 223.282667,34.1039998 223.144,34.152 C223.005333,34.2000002 222.850668,34.2399998 222.68,34.272 C222.509332,34.3040002 222.333334,34.3306666 222.152,34.352 C221.970666,34.3733334 221.789334,34.3999998 221.608,34.432 C221.426666,34.4640002 221.256001,34.5066664 221.096,34.56 C220.935999,34.6133336 220.794667,34.6853329 220.672,34.776 C220.549333,34.8666671 220.450667,34.9813326 220.376,35.12 C220.301333,35.2586674 220.264,35.4346656 220.264,35.648 C220.264,35.8613344 220.301333,36.034666 220.376,36.168 C220.450667,36.301334 220.551999,36.4079996 220.68,36.488 C220.808001,36.5680004 220.957332,36.6239998 221.128,36.656 C221.298668,36.6880002 221.474666,36.704 221.656,36.704 Z M232.176,29.728 L234.336,29.728 L234.336,30.784 L234.368,30.784 C234.645335,30.3359978 234.997331,30.0106677 235.424,29.808 C235.850669,29.6053323 236.319997,29.504 236.832,29.504 C237.48267,29.504 238.042664,29.6266654 238.512,29.872 C238.981336,30.1173346 239.370665,30.4426646 239.68,30.848 C239.989335,31.2533354 240.218666,31.7253306 240.368,32.264 C240.517334,32.8026694 240.592,33.3653304 240.592,33.952 C240.592,34.5066694 240.517334,35.0399974 240.368,35.552 C240.218666,36.0640026 239.992002,36.5173314 239.688,36.912 C239.383998,37.3066686 239.005336,37.6213322 238.552,37.856 C238.098664,38.0906678 237.568003,38.208 236.96,38.208 C236.447997,38.208 235.976002,38.104001 235.544,37.896 C235.111998,37.687999 234.757335,37.3813354 234.48,36.976 L234.448,36.976 L234.448,40.896 L232.176,40.896 L232.176,29.728 Z M236.352,36.512 C236.725335,36.512 237.037332,36.4373341 237.288,36.288 C237.538668,36.1386659 237.741333,35.9440012 237.896,35.704 C238.050667,35.4639988 238.16,35.1866682 238.224,34.872 C238.288,34.5573318 238.32,34.229335 238.32,33.888 C238.32,33.5573317 238.285334,33.2320016 238.216,32.912 C238.146666,32.5919984 238.032001,32.3066679 237.872,32.056 C237.711999,31.8053321 237.506668,31.6026674 237.256,31.448 C237.005332,31.2933326 236.698668,31.216 236.336,31.216 C235.962665,31.216 235.650668,31.2933326 235.4,31.448 C235.149332,31.6026674 234.946667,31.8026654 234.792,32.048 C234.637333,32.2933346 234.528,32.578665 234.464,32.904 C234.4,33.229335 234.368,33.5573317 234.368,33.888 C234.368,34.229335 234.402666,34.5573318 234.472,34.872 C234.541334,35.1866682 234.653333,35.4639988 234.808,35.704 C234.962667,35.9440012 235.165332,36.1386659 235.416,36.288 C235.666668,36.4373341 235.978665,36.512 236.352,36.512 Z M245.876,38.208 C245.22533,38.208 244.638669,38.104001 244.116,37.896 C243.593331,37.687999 243.150668,37.3920019 242.788,37.008 C242.425332,36.6239981 242.145334,36.165336 241.948,35.632 C241.750666,35.098664 241.652,34.5120032 241.652,33.872 C241.652,33.2533302 241.753332,32.677336 241.956,32.144 C242.158668,31.610664 242.446665,31.1493353 242.82,30.76 C243.193335,30.3706647 243.638664,30.0640011 244.156,29.84 C244.673336,29.6159989 245.246664,29.504 245.876,29.504 C246.537337,29.504 247.121331,29.6266654 247.628,29.872 C248.134669,30.1173346 248.555998,30.4453313 248.892,30.856 C249.228002,31.2666687 249.481332,31.7439973 249.652,32.288 C249.822668,32.8320027 249.908,33.3973304 249.908,33.984 L249.908,34.2 C249.908,34.2693337 249.902667,34.341333 249.892,34.416 L243.924,34.416 C243.956,35.1520037 244.142665,35.6853317 244.484,36.016 C244.825335,36.3466683 245.315997,36.512 245.956,36.512 C246.414669,36.512 246.809332,36.3973345 247.14,36.168 C247.470668,35.9386655 247.673333,35.6960013 247.748,35.44 L249.748,35.44 C249.427998,36.432005 248.937337,37.1413312 248.276,37.568 C247.614663,37.9946688 246.814671,38.208 245.876,38.208 Z M247.62,32.976 C247.513333,32.3999971 247.324001,31.9626682 247.052,31.664 C246.779999,31.3653318 246.366669,31.216 245.812,31.216 C245.438665,31.216 245.134668,31.2773327 244.9,31.4 C244.665332,31.5226673 244.476001,31.6746658 244.332,31.856 C244.187999,32.0373342 244.086667,32.2293323 244.028,32.432 C243.969333,32.6346677 243.934667,32.8159992 243.924,32.976 L247.62,32.976 Z M255.256,38.208 C254.626664,38.208 254.056003,38.104001 253.544,37.896 C253.031997,37.687999 252.594668,37.3973352 252.232,37.024 C251.869332,36.6506648 251.586668,36.2053359 251.384,35.688 C251.181332,35.1706641 251.08,34.6026698 251.08,33.984 C251.08,33.3439968 251.173332,32.7493361 251.36,32.2 C251.546668,31.6506639 251.821332,31.176002 252.184,30.776 C252.546668,30.375998 252.989331,30.0640011 253.512,29.84 C254.034669,29.6159989 254.631997,29.504 255.304,29.504 C255.794669,29.504 256.266664,29.5679994 256.72,29.696 C257.173336,29.8240006 257.578665,30.0186654 257.936,30.28 C258.293335,30.5413346 258.583999,30.8693314 258.808,31.264 C259.032001,31.6586686 259.16,32.1173307 259.192,32.64 L256.968,32.64 C256.818666,31.6906619 256.258672,31.216 255.288,31.216 C254.925332,31.216 254.621335,31.2986658 254.376,31.464 C254.130665,31.6293342 253.930667,31.8426654 253.776,32.104 C253.621333,32.3653346 253.512,32.6559984 253.448,32.976 C253.384,33.2960016 253.352,33.6053318 253.352,33.904 C253.352,34.2026682 253.384,34.5066651 253.448,34.816 C253.512,35.1253349 253.615999,35.4053321 253.76,35.656 C253.904001,35.9066679 254.098665,36.1119992 254.344,36.272 C254.589335,36.4320008 254.887998,36.512 255.24,36.512 C255.784003,36.512 256.202665,36.3600015 256.496,36.056 C256.789335,35.7519985 256.973333,35.3440026 257.048,34.832 L259.24,34.832 C259.090666,35.9306722 258.664004,36.7679971 257.96,37.344 C257.255996,37.9200029 256.354672,38.208 255.256,38.208 Z M261.852,40.896 C261.617332,40.896 261.385334,40.8880001 261.156,40.872 C260.926666,40.8559999 260.694668,40.8373334 260.46,40.816 L260.46,38.944 C260.641334,38.9653334 260.830666,38.9839999 261.028,39 C261.225334,39.0160001 261.419999,39.024 261.612,39.024 C261.953335,39.024 262.214666,38.928001 262.396,38.736 C262.577334,38.543999 262.668,38.2986682 262.668,38 C262.668,37.8186658 262.636,37.6480008 262.572,37.488 L259.676,29.728 L262.092,29.728 L263.964,35.392 L263.996,35.392 L265.804,29.728 L268.156,29.728 L264.7,39.024 C264.454665,39.6960034 264.113336,40.1759986 263.676,40.464 C263.238664,40.7520014 262.630671,40.896 261.852,40.896 Z M269.024,29.728 L271.184,29.728 L271.184,30.784 L271.216,30.784 C271.493335,30.3359978 271.845331,30.0106677 272.272,29.808 C272.698669,29.6053323 273.167997,29.504 273.68,29.504 C274.33067,29.504 274.890664,29.6266654 275.36,29.872 C275.829336,30.1173346 276.218665,30.4426646 276.528,30.848 C276.837335,31.2533354 277.066666,31.7253306 277.216,32.264 C277.365334,32.8026694 277.44,33.3653304 277.44,33.952 C277.44,34.5066694 277.365334,35.0399974 277.216,35.552 C277.066666,36.0640026 276.840002,36.5173314 276.536,36.912 C276.231998,37.3066686 275.853336,37.6213322 275.4,37.856 C274.946664,38.0906678 274.416003,38.208 273.808,38.208 C273.295997,38.208 272.824002,38.104001 272.392,37.896 C271.959998,37.687999 271.605335,37.3813354 271.328,36.976 L271.296,36.976 L271.296,40.896 L269.024,40.896 L269.024,29.728 Z M273.2,36.512 C273.573335,36.512 273.885332,36.4373341 274.136,36.288 C274.386668,36.1386659 274.589333,35.9440012 274.744,35.704 C274.898667,35.4639988 275.008,35.1866682 275.072,34.872 C275.136,34.5573318 275.168,34.229335 275.168,33.888 C275.168,33.5573317 275.133334,33.2320016 275.064,32.912 C274.994666,32.5919984 274.880001,32.3066679 274.72,32.056 C274.559999,31.8053321 274.354668,31.6026674 274.104,31.448 C273.853332,31.2933326 273.546668,31.216 273.184,31.216 C272.810665,31.216 272.498668,31.2933326 272.248,31.448 C271.997332,31.6026674 271.794667,31.8026654 271.64,32.048 C271.485333,32.2933346 271.376,32.578665 271.312,32.904 C271.248,33.229335 271.216,33.5573317 271.216,33.888 C271.216,34.229335 271.250666,34.5573318 271.32,34.872 C271.389334,35.1866682 271.501333,35.4639988 271.656,35.704 C271.810667,35.9440012 272.013332,36.1386659 272.264,36.288 C272.514668,36.4373341 272.826665,36.512 273.2,36.512 Z M282.82,38.208 C282.190664,38.208 281.620003,38.104001 281.108,37.896 C280.595997,37.687999 280.158668,37.3973352 279.796,37.024 C279.433332,36.6506648 279.150668,36.2053359 278.948,35.688 C278.745332,35.1706641 278.644,34.6026698 278.644,33.984 C278.644,33.3439968 278.737332,32.7493361 278.924,32.2 C279.110668,31.6506639 279.385332,31.176002 279.748,30.776 C280.110668,30.375998 280.553331,30.0640011 281.076,29.84 C281.598669,29.6159989 282.195997,29.504 282.868,29.504 C283.358669,29.504 283.830664,29.5679994 284.284,29.696 C284.737336,29.8240006 285.142665,30.0186654 285.5,30.28 C285.857335,30.5413346 286.147999,30.8693314 286.372,31.264 C286.596001,31.6586686 286.724,32.1173307 286.756,32.64 L284.532,32.64 C284.382666,31.6906619 283.822672,31.216 282.852,31.216 C282.489332,31.216 282.185335,31.2986658 281.94,31.464 C281.694665,31.6293342 281.494667,31.8426654 281.34,32.104 C281.185333,32.3653346 281.076,32.6559984 281.012,32.976 C280.948,33.2960016 280.916,33.6053318 280.916,33.904 C280.916,34.2026682 280.948,34.5066651 281.012,34.816 C281.076,35.1253349 281.179999,35.4053321 281.324,35.656 C281.468001,35.9066679 281.662665,36.1119992 281.908,36.272 C282.153335,36.4320008 282.451998,36.512 282.804,36.512 C283.348003,36.512 283.766665,36.3600015 284.06,36.056 C284.353335,35.7519985 284.537333,35.3440026 284.612,34.832 L286.804,34.832 C286.654666,35.9306722 286.228004,36.7679971 285.524,37.344 C284.819996,37.9200029 283.918672,38.208 282.82,38.208 Z M292.2,38.208 C291.54933,38.208 290.962669,38.1066677 290.44,37.904 C289.917331,37.7013323 289.469335,37.4106686 289.096,37.032 C288.722665,36.6533314 288.434668,36.197336 288.232,35.664 C288.029332,35.130664 287.928,34.5333366 287.928,33.872 C287.928,33.2106634 288.029332,32.6106694 288.232,32.072 C288.434668,31.5333306 288.722665,31.0746686 289.096,30.696 C289.469335,30.3173314 289.917331,30.024001 290.44,29.816 C290.962669,29.607999 291.54933,29.504 292.2,29.504 C292.85067,29.504 293.439997,29.607999 293.968,29.816 C294.496003,30.024001 294.946665,30.3173314 295.32,30.696 C295.693335,31.0746686 295.981332,31.5333306 296.184,32.072 C296.386668,32.6106694 296.488,33.2106634 296.488,33.872 C296.488,34.5333366 296.386668,35.130664 296.184,35.664 C295.981332,36.197336 295.693335,36.6533314 295.32,37.032 C294.946665,37.4106686 294.496003,37.7013323 293.968,37.904 C293.439997,38.1066677 292.85067,38.208 292.2,38.208 Z M292.2,36.512 C292.584002,36.512 292.906665,36.4373341 293.168,36.288 C293.429335,36.1386659 293.637333,35.9386679 293.792,35.688 C293.946667,35.4373321 294.056,35.1546682 294.12,34.84 C294.184,34.5253318 294.216,34.2026683 294.216,33.872 C294.216,33.5413317 294.184,33.2160016 294.12,32.896 C294.056,32.5759984 293.946667,32.2933346 293.792,32.048 C293.637333,31.8026654 293.429335,31.6026674 293.168,31.448 C292.906665,31.2933326 292.584002,31.216 292.2,31.216 C291.815998,31.216 291.496001,31.2933326 291.24,31.448 C290.983999,31.6026674 290.778667,31.8026654 290.624,32.048 C290.469333,32.2933346 290.36,32.5759984 290.296,32.896 C290.232,33.2160016 290.2,33.5413317 290.2,33.872 C290.2,34.2026683 290.232,34.5253318 290.296,34.84 C290.36,35.1546682 290.469333,35.4373321 290.624,35.688 C290.778667,35.9386679 290.983999,36.1386659 291.24,36.288 C291.496001,36.4373341 291.815998,36.512 292.2,36.512 Z M298.124,29.728 L302.876,29.728 C303.238669,29.728 303.579998,29.7679996 303.9,29.848 C304.220002,29.9280004 304.499999,30.0506658 304.74,30.216 C304.980001,30.3813342 305.169333,30.597332 305.308,30.864 C305.446667,31.130668 305.516,31.4453315 305.516,31.808 C305.516,32.2133354 305.414668,32.5626652 305.212,32.856 C305.009332,33.1493348 304.737335,33.3706659 304.396,33.52 C304.822669,33.6373339 305.179999,33.858665 305.468,34.184 C305.756001,34.509335 305.9,34.9599971 305.9,35.536 C305.9,35.9413354 305.828001,36.2959985 305.684,36.6 C305.539999,36.9040015 305.340001,37.159999 305.084,37.368 C304.827999,37.576001 304.529335,37.7333328 304.188,37.84 C303.846665,37.9466672 303.484002,38 303.1,38 L298.124,38 L298.124,29.728 Z M302.044,36.528 C302.236001,36.528 302.422666,36.5146668 302.604,36.488 C302.785334,36.4613332 302.945333,36.410667 303.084,36.336 C303.222667,36.261333 303.334666,36.1520007 303.42,36.008 C303.505334,35.8639993 303.548,35.6746678 303.548,35.44 C303.548,35.2053322 303.502667,35.0133341 303.412,34.864 C303.321333,34.7146659 303.201334,34.602667 303.052,34.528 C302.902666,34.453333 302.732001,34.4026668 302.54,34.376 C302.347999,34.3493332 302.150668,34.336 301.948,34.336 L300.364,34.336 L300.364,36.528 L302.044,36.528 Z M301.868,33.056 C302.038668,33.056 302.203999,33.0453334 302.364,33.024 C302.524001,33.0026666 302.667999,32.9573337 302.796,32.888 C302.924001,32.8186663 303.025333,32.7226673 303.1,32.6 C303.174667,32.4773327 303.212,32.3093344 303.212,32.096 C303.212,31.8933323 303.174667,31.7306673 303.1,31.608 C303.025333,31.4853327 302.926667,31.3920003 302.804,31.328 C302.681333,31.2639997 302.537334,31.2213334 302.372,31.2 C302.206666,31.1786666 302.038668,31.168 301.868,31.168 L300.364,31.168 L300.364,33.056 L301.868,33.056 Z" id="Раздача-ресурсов" fill="#303030"></path>
                <path d="M373.135,141 L373.135,138.68 L357.575,138.68 C357.735001,137.746662 358.134997,136.886671 358.775,136.1 C359.415003,135.313329 360.154996,134.58667 360.995,133.92 C361.835004,133.25333 362.708329,132.646669 363.615,132.1 C364.521671,131.553331 365.30833,131.053336 365.975,130.6 C366.908338,130.01333 367.794996,129.380003 368.635,128.7 C369.475004,128.019997 370.221663,127.280004 370.875,126.48 C371.528337,125.679996 372.048331,124.800005 372.435,123.84 C372.821669,122.879995 373.015,121.813339 373.015,120.64 C373.015,119.333327 372.795002,118.186672 372.355,117.2 C371.914998,116.213328 371.301671,115.393337 370.515,114.74 C369.728329,114.086663 368.808339,113.593335 367.755,113.26 C366.701661,112.926665 365.561673,112.76 364.335,112.76 C362.814992,112.76 361.488339,113.006664 360.355,113.5 C359.221661,113.993336 358.28167,114.679996 357.535,115.56 C356.78833,116.440004 356.235002,117.486661 355.875,118.7 C355.514998,119.913339 355.348333,121.239993 355.375,122.68 L357.895,122.68 C357.868333,121.639995 357.968332,120.653338 358.195,119.72 C358.421668,118.786662 358.788331,117.960004 359.295,117.24 C359.801669,116.519996 360.461663,115.946669 361.275,115.52 C362.088337,115.093331 363.068328,114.88 364.215,114.88 C365.068338,114.88 365.874996,115.006665 366.635,115.26 C367.395004,115.513335 368.061664,115.886664 368.635,116.38 C369.208336,116.873336 369.661665,117.47333 369.995,118.18 C370.328335,118.88667 370.495,119.693329 370.495,120.6 C370.495,121.720006 370.301669,122.686663 369.915,123.5 C369.528331,124.313337 368.948337,125.106663 368.175,125.88 C367.401663,126.653337 366.528338,127.379997 365.555,128.06 C364.581662,128.740003 363.601672,129.406663 362.615,130.06 C361.628328,130.713337 360.668338,131.39333 359.735,132.1 C358.801662,132.80667 357.96167,133.586662 357.215,134.44 C356.46833,135.293338 355.868336,136.253328 355.415,137.32 C354.961664,138.386672 354.721667,139.613326 354.695,141 L373.135,141 Z" id="2" fill="#FFFFFF"></path>
                <path d="M167.856,56.92 L169.296,56.92 C169.274667,56.2906635 169.154668,55.7493356 168.936,55.296 C168.717332,54.8426644 168.418669,54.4666682 168.04,54.168 C167.661331,53.8693318 167.221336,53.6506674 166.72,53.512 C166.218664,53.3733326 165.67467,53.304 165.088,53.304 C164.565331,53.304 164.056002,53.370666 163.56,53.504 C163.063998,53.637334 162.621335,53.8399986 162.232,54.112 C161.842665,54.3840014 161.530668,54.7306646 161.296,55.152 C161.061332,55.5733354 160.944,56.0719971 160.944,56.648 C160.944,57.1706693 161.047999,57.6053316 161.256,57.952 C161.464001,58.2986684 161.741332,58.5813322 162.088,58.8 C162.434668,59.0186678 162.826664,59.194666 163.264,59.328 C163.701336,59.461334 164.146664,59.5786662 164.6,59.68 C165.053336,59.7813338 165.498664,59.8799995 165.936,59.976 C166.373336,60.0720005 166.765332,60.1973326 167.112,60.352 C167.458668,60.5066674 167.735999,60.7066654 167.944,60.952 C168.152001,61.1973346 168.256,61.5173314 168.256,61.912 C168.256,62.3280021 168.170668,62.669332 168,62.936 C167.829332,63.202668 167.605335,63.4133326 167.328,63.568 C167.050665,63.7226674 166.738668,63.8319997 166.392,63.896 C166.045332,63.9600003 165.701335,63.992 165.36,63.992 C164.933331,63.992 164.517335,63.9386672 164.112,63.832 C163.706665,63.7253328 163.352002,63.5600011 163.048,63.336 C162.743998,63.1119989 162.498668,62.8266684 162.312,62.48 C162.125332,62.1333316 162.032,61.7200024 162.032,61.24 L160.592,61.24 C160.592,61.9333368 160.717332,62.5333308 160.968,63.04 C161.218668,63.5466692 161.559998,63.962665 161.992,64.288 C162.424002,64.613335 162.92533,64.8559992 163.496,65.016 C164.06667,65.1760008 164.671997,65.256 165.312,65.256 C165.834669,65.256 166.359997,65.1946673 166.888,65.072 C167.416003,64.9493327 167.893331,64.7520014 168.32,64.48 C168.746669,64.2079986 169.095999,63.8560022 169.368,63.424 C169.640001,62.9919978 169.776,62.472003 169.776,61.864 C169.776,61.2986638 169.672001,60.8293352 169.464,60.456 C169.255999,60.0826648 168.978668,59.7733346 168.632,59.528 C168.285332,59.2826654 167.893336,59.0880007 167.456,58.944 C167.018664,58.7999993 166.573336,58.6746672 166.12,58.568 C165.666664,58.4613328 165.221336,58.3626671 164.784,58.272 C164.346664,58.1813329 163.954668,58.0666674 163.608,57.928 C163.261332,57.7893326 162.984001,57.6106678 162.776,57.392 C162.567999,57.1733322 162.464,56.8880018 162.464,56.536 C162.464,56.1626648 162.535999,55.8506679 162.68,55.6 C162.824001,55.3493321 163.015999,55.1493341 163.256,55 C163.496001,54.8506659 163.770665,54.7440003 164.08,54.68 C164.389335,54.6159997 164.703998,54.584 165.024,54.584 C165.813337,54.584 166.461331,54.7679982 166.968,55.136 C167.474669,55.5040018 167.770666,56.0986626 167.856,56.92 Z M172.932,55.24 L172.932,53.576 L171.572,53.576 L171.572,55.24 L172.932,55.24 Z M171.572,56.728 L171.572,65 L172.932,65 L172.932,56.728 L171.572,56.728 Z M182.28,64.296 C182.28,65.6506734 181.97067,66.6639966 181.352,67.336 C180.73333,68.0080034 179.762673,68.344 178.44,68.344 C178.055998,68.344 177.664002,68.3013338 177.264,68.216 C176.863998,68.1306662 176.501335,67.992001 176.176,67.8 C175.850665,67.607999 175.581334,67.3573349 175.368,67.048 C175.154666,66.7386651 175.037333,66.3600022 175.016,65.912 L176.376,65.912 C176.386667,66.1573346 176.463999,66.3653325 176.608,66.536 C176.752001,66.7066675 176.927999,66.8453328 177.136,66.952 C177.344001,67.0586672 177.570665,67.1359998 177.816,67.184 C178.061335,67.2320002 178.295999,67.256 178.52,67.256 C178.968002,67.256 179.346665,67.1786674 179.656,67.024 C179.965335,66.8693326 180.221332,66.6560014 180.424,66.384 C180.626668,66.1119986 180.773333,65.7840019 180.864,65.4 C180.954667,65.0159981 181,64.594669 181,64.136 L181,63.592 L180.968,63.592 C180.733332,64.1040026 180.378669,64.4799988 179.904,64.72 C179.429331,64.9600012 178.925336,65.08 178.392,65.08 C177.77333,65.08 177.234669,64.9680011 176.776,64.744 C176.317331,64.5199989 175.933335,64.2186686 175.624,63.84 C175.314665,63.4613314 175.082667,63.0186692 174.928,62.512 C174.773333,62.0053308 174.696,61.4693362 174.696,60.904 C174.696,60.4133309 174.759999,59.9093359 174.888,59.392 C175.016001,58.8746641 175.229332,58.4053354 175.528,57.984 C175.826668,57.5626646 176.221331,57.2160014 176.712,56.944 C177.202669,56.6719986 177.80533,56.536 178.52,56.536 C179.042669,56.536 179.522664,56.6506655 179.96,56.88 C180.397336,57.1093345 180.738665,57.453331 180.984,57.912 L181,57.912 L181,56.728 L182.28,56.728 L182.28,64.296 Z M178.472,63.896 C178.920002,63.896 179.301332,63.8026676 179.616,63.616 C179.930668,63.4293324 180.183999,63.1840015 180.376,62.88 C180.568001,62.5759985 180.709333,62.2320019 180.8,61.848 C180.890667,61.4639981 180.936,61.0800019 180.936,60.696 C180.936,60.3333315 180.893334,59.9760018 180.808,59.624 C180.722666,59.2719982 180.586668,58.9546681 180.4,58.672 C180.213332,58.3893319 179.970668,58.1626675 179.672,57.992 C179.373332,57.8213325 179.010669,57.736 178.584,57.736 C178.146664,57.736 177.773335,57.8186658 177.464,57.984 C177.154665,58.1493342 176.901334,58.3706653 176.704,58.648 C176.506666,58.9253347 176.362667,59.2453315 176.272,59.608 C176.181333,59.9706685 176.136,60.3493314 176.136,60.744 C176.136,61.1173352 176.173333,61.4906648 176.248,61.864 C176.322667,62.2373352 176.450666,62.5759985 176.632,62.88 C176.813334,63.1840015 177.053332,63.4293324 177.352,63.616 C177.650668,63.8026676 178.023998,63.896 178.472,63.896 Z M184.988,57.928 L184.988,65 L186.348,65 L186.348,57.928 L187.948,57.928 L187.948,56.728 L186.348,56.728 L186.348,55.576 C186.348,55.2133315 186.438666,54.9680006 186.62,54.84 C186.801334,54.7119994 187.057332,54.648 187.388,54.648 C187.505334,54.648 187.633333,54.6559999 187.772,54.672 C187.910667,54.6880001 188.038666,54.7173331 188.156,54.76 L188.156,53.576 C188.027999,53.5333331 187.881334,53.5013334 187.716,53.48 C187.550666,53.4586666 187.404001,53.448 187.276,53.448 C186.52933,53.448 185.961335,53.6213316 185.572,53.968 C185.182665,54.3146684 184.988,54.8239966 184.988,55.496 L184.988,56.728 L183.596,56.728 L183.596,57.928 L184.988,57.928 Z M189.216,56.728 L189.216,65 L190.576,65 L190.576,61.32 C190.576,60.786664 190.629333,60.3146687 190.736,59.904 C190.842667,59.4933313 191.013332,59.1440014 191.248,58.856 C191.482668,58.5679986 191.791998,58.3493341 192.176,58.2 C192.560002,58.0506659 193.023997,57.976 193.568,57.976 L193.568,56.536 C192.831996,56.5146666 192.224002,56.6639984 191.744,56.984 C191.263998,57.3040016 190.858668,57.7999966 190.528,58.472 L190.496,58.472 L190.496,56.728 L189.216,56.728 Z M200.148,60.072 C200.126667,59.7519984 200.054667,59.4480014 199.932,59.16 C199.809333,58.8719986 199.644001,58.624001 199.436,58.416 C199.227999,58.207999 198.982668,58.0426673 198.7,57.92 C198.417332,57.7973327 198.105335,57.736 197.764,57.736 C197.411998,57.736 197.094668,57.7973327 196.812,57.92 C196.529332,58.0426673 196.286668,58.2106656 196.084,58.424 C195.881332,58.6373344 195.721334,58.8853319 195.604,59.168 C195.486666,59.4506681 195.417333,59.7519984 195.396,60.072 L200.148,60.072 Z M201.46,62.376 C201.278666,63.3040046 200.87867,64.0026643 200.26,64.472 C199.64133,64.9413357 198.862671,65.176 197.924,65.176 C197.262663,65.176 196.689336,65.0693344 196.204,64.856 C195.718664,64.6426656 195.310668,64.3440019 194.98,63.96 C194.649332,63.5759981 194.401334,63.117336 194.236,62.584 C194.070666,62.050664 193.977333,61.4693365 193.956,60.84 C193.956,60.2106635 194.051999,59.6346693 194.244,59.112 C194.436001,58.5893307 194.705332,58.1360019 195.052,57.752 C195.398668,57.3679981 195.809331,57.0693344 196.284,56.856 C196.758669,56.6426656 197.278664,56.536 197.844,56.536 C198.580004,56.536 199.190664,56.6879985 199.676,56.992 C200.161336,57.2960015 200.550665,57.6826643 200.844,58.152 C201.137335,58.6213357 201.339999,59.1333306 201.452,59.688 C201.564001,60.2426694 201.609333,60.7706642 201.588,61.272 L195.396,61.272 C195.385333,61.6346685 195.428,61.978665 195.524,62.304 C195.62,62.629335 195.774666,62.9173321 195.988,63.168 C196.201334,63.4186679 196.473332,63.6186659 196.804,63.768 C197.134668,63.9173341 197.523998,63.992 197.972,63.992 C198.548003,63.992 199.019998,63.858668 199.388,63.592 C199.756002,63.325332 199.998666,62.9200027 200.116,62.376 L201.46,62.376 Z M204.088,60.936 C204.088,61.3200019 204.138666,61.6959982 204.24,62.064 C204.341334,62.4320018 204.495999,62.7599986 204.704,63.048 C204.912001,63.3360014 205.178665,63.5653325 205.504,63.736 C205.829335,63.9066675 206.210664,63.992 206.648,63.992 C207.106669,63.992 207.495998,63.9013342 207.816,63.72 C208.136002,63.5386658 208.397332,63.3013348 208.6,63.008 C208.802668,62.7146652 208.949333,62.3813352 209.04,62.008 C209.130667,61.6346648 209.176,61.2560019 209.176,60.872 C209.176,60.4666646 209.128,60.0746686 209.032,59.696 C208.936,59.3173314 208.784001,58.9840014 208.576,58.696 C208.367999,58.4079986 208.098668,58.1760009 207.768,58 C207.437332,57.8239991 207.037336,57.736 206.568,57.736 C206.109331,57.736 205.720002,57.8266658 205.4,58.008 C205.079998,58.1893342 204.824001,58.4293318 204.632,58.728 C204.439999,59.0266682 204.301334,59.3679981 204.216,59.752 C204.130666,60.1360019 204.088,60.5306646 204.088,60.936 Z M210.488,65 L209.128,65 L209.128,63.88 L209.096,63.88 C208.871999,64.338669 208.520002,64.6693323 208.04,64.872 C207.559998,65.0746677 207.032003,65.176 206.456,65.176 C205.815997,65.176 205.258669,65.0586678 204.784,64.824 C204.309331,64.5893322 203.914668,64.2746686 203.6,63.88 C203.285332,63.4853314 203.048001,63.0266693 202.888,62.504 C202.727999,61.9813307 202.648,61.4266696 202.648,60.84 C202.648,60.2533304 202.725333,59.6986693 202.88,59.176 C203.034667,58.6533307 203.269332,58.1973353 203.584,57.808 C203.898668,57.4186647 204.293331,57.1093345 204.768,56.88 C205.242669,56.6506655 205.794664,56.536 206.424,56.536 C206.637334,56.536 206.866665,56.5573331 207.112,56.6 C207.357335,56.6426669 207.602665,56.7146662 207.848,56.816 C208.093335,56.9173338 208.325332,57.0506658 208.544,57.216 C208.762668,57.3813342 208.946666,57.5866654 209.096,57.832 L209.128,57.832 L209.128,53.576 L210.488,53.576 L210.488,65 Z M217.232,56.728 L218.592,56.728 L218.592,63.48 L222.496,56.728 L224.24,56.728 L224.24,65 L222.88,65 L222.88,58.248 L218.976,65 L217.232,65 L217.232,56.728 Z M229.812,65.176 C229.182664,65.176 228.625336,65.0746677 228.14,64.872 C227.654664,64.6693323 227.249335,64.3813352 226.924,64.008 C226.598665,63.6346648 226.353334,63.1920026 226.188,62.68 C226.022666,62.1679974 225.94,61.5973365 225.94,60.968 C225.94,60.3493302 226.019999,59.7706694 226.18,59.232 C226.340001,58.6933306 226.582665,58.224002 226.908,57.824 C227.233335,57.423998 227.638664,57.1093345 228.124,56.88 C228.609336,56.6506655 229.182663,56.536 229.844,56.536 C230.313336,56.536 230.753331,56.5919994 231.164,56.704 C231.574669,56.8160006 231.937332,56.9893322 232.252,57.224 C232.566668,57.4586678 232.825332,57.7546649 233.028,58.112 C233.230668,58.4693351 233.358666,58.8933309 233.412,59.384 L232.004,59.384 C231.897333,58.8613307 231.673335,58.4560014 231.332,58.168 C230.990665,57.8799986 230.532003,57.736 229.956,57.736 C229.465331,57.736 229.054668,57.8266658 228.724,58.008 C228.393332,58.1893342 228.129334,58.4293318 227.932,58.728 C227.734666,59.0266682 227.593334,59.3706647 227.508,59.76 C227.422666,60.1493353 227.38,60.5519979 227.38,60.968 C227.38,61.3520019 227.425333,61.7253315 227.516,62.088 C227.606667,62.4506685 227.747999,62.7733319 227.94,63.056 C228.132001,63.3386681 228.379998,63.5653325 228.684,63.736 C228.988002,63.9066675 229.358664,63.992 229.796,63.992 C230.468003,63.992 230.993331,63.8160018 231.372,63.464 C231.750669,63.1119982 231.982666,62.6160032 232.068,61.976 L233.46,61.976 C233.310666,63.0106718 232.932003,63.8026639 232.324,64.352 C231.715997,64.9013361 230.878672,65.176 229.812,65.176 Z M235.08,56.728 L241.832,56.728 L241.832,65 L240.472,65 L240.472,57.928 L236.44,57.928 L236.44,65 L235.08,65 L235.08,56.728 Z M247.548,65.176 C246.886663,65.176 246.308002,65.0666678 245.812,64.848 C245.315998,64.6293322 244.897335,64.3253353 244.556,63.936 C244.214665,63.5466647 243.958668,63.0906693 243.788,62.568 C243.617332,62.0453307 243.532,61.480003 243.532,60.872 C243.532,60.263997 243.617332,59.6960026 243.788,59.168 C243.958668,58.6399974 244.214665,58.1813353 244.556,57.792 C244.897335,57.4026647 245.315998,57.0960011 245.812,56.872 C246.308002,56.6479989 246.886663,56.536 247.548,56.536 C248.19867,56.536 248.774664,56.6479989 249.276,56.872 C249.777336,57.0960011 250.198665,57.4026647 250.54,57.792 C250.881335,58.1813353 251.137332,58.6399974 251.308,59.168 C251.478668,59.6960026 251.564,60.263997 251.564,60.872 C251.564,61.480003 251.478668,62.0453307 251.308,62.568 C251.137332,63.0906693 250.881335,63.5466647 250.54,63.936 C250.198665,64.3253353 249.777336,64.6293322 249.276,64.848 C248.774664,65.0666678 248.19867,65.176 247.548,65.176 Z M247.548,63.992 C247.900002,63.992 248.233332,63.9226674 248.548,63.784 C248.862668,63.6453326 249.137332,63.4453346 249.372,63.184 C249.606668,62.9226654 249.790666,62.5973353 249.924,62.208 C250.057334,61.8186647 250.124,61.3733358 250.124,60.872 C250.124,60.3706642 250.057334,59.9253353 249.924,59.536 C249.790666,59.1466647 249.606668,58.818668 249.372,58.552 C249.137332,58.285332 248.862668,58.0826674 248.548,57.944 C248.233332,57.8053326 247.900002,57.736 247.548,57.736 C247.195998,57.736 246.862668,57.8053326 246.548,57.944 C246.233332,58.0826674 245.958668,58.285332 245.724,58.552 C245.489332,58.818668 245.305334,59.1466647 245.172,59.536 C245.038666,59.9253353 244.972,60.3706642 244.972,60.872 C244.972,61.3733358 245.038666,61.8186647 245.172,62.208 C245.305334,62.5973353 245.489332,62.9226654 245.724,63.184 C245.958668,63.4453346 246.233332,63.6453326 246.548,63.784 C246.862668,63.9226674 247.195998,63.992 247.548,63.992 Z M253.2,65.096 C253.061333,65.096 252.917334,65.0826668 252.768,65.056 C252.618666,65.0293332 252.496,65.0053334 252.4,64.984 L252.4,63.784 C252.506667,63.8160002 252.605333,63.8373333 252.696,63.848 C252.786667,63.8586667 252.874666,63.864 252.96,63.864 C253.312002,63.864 253.581332,63.7253347 253.768,63.448 C253.954668,63.1706653 254.093333,62.7440029 254.184,62.168 C254.274667,61.5919971 254.330667,60.8533378 254.352,59.952 C254.373333,59.0506622 254.394667,57.9760062 254.416,56.728 L260.224,56.728 L260.224,65 L258.864,65 L258.864,57.928 L255.728,57.928 C255.696,58.8986715 255.661334,59.8186623 255.624,60.688 C255.586666,61.5573377 255.493334,62.3173301 255.344,62.968 C255.194666,63.6186699 254.954668,64.1359981 254.624,64.52 C254.293332,64.9040019 253.81867,65.096 253.2,65.096 Z M262.452,56.728 L263.812,56.728 L263.812,59.896 L266.756,59.896 C267.566671,59.896 268.217331,60.1173311 268.708,60.56 C269.198669,61.0026689 269.444,61.623996 269.444,62.424 C269.444,63.2026706 269.209336,63.8266643 268.74,64.296 C268.270664,64.7653357 267.630671,65 266.82,65 L262.452,65 L262.452,56.728 Z M266.324,63.8 C267.465339,63.8 268.036,63.3413379 268.036,62.424 C268.036,61.5173288 267.465339,61.064 266.324,61.064 L263.812,61.064 L263.812,63.8 L266.324,63.8 Z M274.056,65.176 C272.957328,65.176 272.09867,64.9306691 271.48,64.44 C270.86133,63.9493309 270.525334,63.2506712 270.472,62.344 L271.848,62.344 C271.890667,62.952003 272.114665,63.389332 272.52,63.656 C272.925335,63.922668 273.431997,64.056 274.04,64.056 C274.69067,64.056 275.191998,63.9173347 275.544,63.64 C275.896002,63.3626653 276.072,63.0106688 276.072,62.584 C276.072,62.1679979 275.938668,61.8426678 275.672,61.608 C275.405332,61.3733322 274.952003,61.256 274.312,61.256 L273.208,61.256 L273.208,60.152 L274.088,60.152 C274.568002,60.152 274.978665,60.0533343 275.32,59.856 C275.661335,59.6586657 275.832,59.3146691 275.832,58.824 C275.832,58.5146651 275.685335,58.2426678 275.392,58.008 C275.098665,57.7733322 274.664003,57.656 274.088,57.656 C273.842665,57.656 273.600001,57.6826664 273.36,57.736 C273.119999,57.7893336 272.904001,57.8746661 272.712,57.992 C272.519999,58.1093339 272.360001,58.263999 272.232,58.456 C272.103999,58.648001 272.024,58.8826653 271.992,59.16 L270.616,59.16 C270.648,58.6479974 270.770666,58.2240017 270.984,57.888 C271.197334,57.5519983 271.463998,57.2853343 271.784,57.088 C272.104002,56.8906657 272.466665,56.7493338 272.872,56.664 C273.277335,56.5786662 273.687998,56.536 274.104,56.536 C274.530669,56.536 274.930665,56.5786662 275.304,56.664 C275.677335,56.7493338 276.005332,56.8853324 276.288,57.072 C276.570668,57.2586676 276.794666,57.4906653 276.96,57.768 C277.125334,58.0453347 277.208,58.3759981 277.208,58.76 C277.208,59.2400024 277.072001,59.6293318 276.8,59.928 C276.527999,60.2266682 276.221335,60.413333 275.88,60.488 L275.88,60.52 C276.072001,60.5520002 276.263999,60.6159995 276.456,60.712 C276.648001,60.8080005 276.818666,60.9386658 276.968,61.104 C277.117334,61.2693342 277.24,61.4719988 277.336,61.712 C277.432001,61.9520012 277.48,62.2319984 277.48,62.552 C277.48,63.0000022 277.384001,63.3893317 277.192,63.72 C276.999999,64.0506683 276.744002,64.3226656 276.424,64.536 C276.103998,64.7493344 275.738669,64.9093328 275.328,65.016 C274.917331,65.1226672 274.493336,65.176 274.056,65.176 Z M280.06,68.296 C279.899999,68.296 279.740001,68.2853334 279.58,68.264 C279.419999,68.2426666 279.265334,68.2053336 279.116,68.152 L279.116,66.904 C279.244001,66.9466669 279.374666,66.9893331 279.508,67.032 C279.641334,67.0746669 279.777333,67.096 279.916,67.096 C280.193335,67.096 280.417333,67.0320006 280.588,66.904 C280.758668,66.7759994 280.907999,66.5893346 281.036,66.344 L281.596,64.952 L278.316,56.728 L279.852,56.728 L282.268,63.496 L282.3,63.496 L284.62,56.728 L286.06,56.728 L282.46,66.088 C282.299999,66.4933354 282.142667,66.8346653 281.988,67.112 C281.833333,67.3893347 281.662668,67.6159991 281.476,67.792 C281.289332,67.9680009 281.081335,68.0959996 280.852,68.176 C280.622666,68.2560004 280.358668,68.296 280.06,68.296 Z M290.832,65.176 C290.170663,65.176 289.592003,65.0693344 289.096,64.856 C288.599998,64.6426656 288.186668,64.3440019 287.856,63.96 C287.525332,63.5759981 287.277334,63.117336 287.112,62.584 C286.946666,62.050664 286.864,61.4693365 286.864,60.84 C286.864,60.2213302 286.959999,59.6480026 287.152,59.12 C287.344001,58.5919974 287.613332,58.1360019 287.96,57.752 C288.306668,57.3679981 288.717331,57.0693344 289.192,56.856 C289.666669,56.6426656 290.186664,56.536 290.752,56.536 C291.488004,56.536 292.098664,56.6879985 292.584,56.992 C293.069336,57.2960015 293.458665,57.6826643 293.752,58.152 C294.045335,58.6213357 294.247999,59.1333306 294.36,59.688 C294.472001,60.2426694 294.517333,60.7706642 294.496,61.272 L288.304,61.272 C288.293333,61.6346685 288.336,61.978665 288.432,62.304 C288.528001,62.629335 288.682666,62.9173321 288.896,63.168 C289.109334,63.4186679 289.381332,63.6186659 289.712,63.768 C290.042668,63.9173341 290.431998,63.992 290.88,63.992 C291.456003,63.992 291.927998,63.858668 292.296,63.592 C292.664002,63.325332 292.906666,62.9200027 293.024,62.376 L294.368,62.376 C294.186666,63.3146714 293.78667,64.0159977 293.168,64.48 C292.54933,64.9440023 291.770671,65.176 290.832,65.176 Z M293.056,60.072 C293.034667,59.7519984 292.962667,59.4480014 292.84,59.16 C292.717333,58.8719986 292.552001,58.624001 292.344,58.416 C292.135999,58.207999 291.890668,58.0426673 291.608,57.92 C291.325332,57.7973327 291.013335,57.736 290.672,57.736 C290.319998,57.736 290.002668,57.7973327 289.72,57.92 C289.437332,58.0426673 289.194668,58.2106656 288.992,58.424 C288.789332,58.6373344 288.629334,58.8853319 288.512,59.168 C288.394666,59.4506681 288.325333,59.7519984 288.304,60.072 L293.056,60.072 Z M298.004,57.928 L295.044,57.928 L295.044,56.728 L302.324,56.728 L302.324,57.928 L299.364,57.928 L299.364,65 L298.004,65 L298.004,57.928 Z M161.072,76.728 L162.432,76.728 L162.432,77.848 L162.464,77.848 C162.688001,77.389331 163.039998,77.056001 163.52,76.848 C164.000002,76.639999 164.527997,76.536 165.104,76.536 C165.744003,76.536 166.301331,76.6533322 166.776,76.888 C167.250669,77.1226678 167.645332,77.439998 167.96,77.84 C168.274668,78.240002 168.511999,78.7013307 168.672,79.224 C168.832001,79.7466693 168.912,80.3013304 168.912,80.888 C168.912,81.4853363 168.834667,82.0426641 168.68,82.56 C168.525333,83.0773359 168.290668,83.5306647 167.976,83.92 C167.661332,84.3093353 167.266669,84.6159989 166.792,84.84 C166.317331,85.0640011 165.765336,85.176 165.136,85.176 C164.922666,85.176 164.693335,85.1546669 164.448,85.112 C164.202665,85.0693331 163.957335,85.0000005 163.712,84.904 C163.466665,84.8079995 163.234668,84.6773342 163.016,84.512 C162.797332,84.3466658 162.613334,84.1413346 162.464,83.896 L162.432,83.896 L162.432,88.152 L161.072,88.152 L161.072,76.728 Z M164.992,83.992 C165.450669,83.992 165.839998,83.9013342 166.16,83.72 C166.480002,83.5386658 166.735999,83.2986682 166.928,83 C167.120001,82.7013318 167.258666,82.3600019 167.344,81.976 C167.429334,81.5919981 167.472,81.1973354 167.472,80.792 C167.472,80.4079981 167.421334,80.0320018 167.32,79.664 C167.218666,79.2959982 167.064001,78.9680014 166.856,78.68 C166.647999,78.3919986 166.381335,78.1626675 166.056,77.992 C165.730665,77.8213325 165.349336,77.736 164.912,77.736 C164.453331,77.736 164.064002,77.8266658 163.744,78.008 C163.423998,78.1893342 163.162668,78.4266652 162.96,78.72 C162.757332,79.0133348 162.610667,79.3466648 162.52,79.72 C162.429333,80.0933352 162.384,80.4719981 162.384,80.856 C162.384,81.2613354 162.432,81.6533314 162.528,82.032 C162.624,82.4106686 162.775999,82.7439986 162.984,83.032 C163.192001,83.3200014 163.461332,83.5519991 163.792,83.728 C164.122668,83.9040009 164.522664,83.992 164.992,83.992 Z M174.132,85.176 C173.470663,85.176 172.892002,85.0693344 172.396,84.856 C171.899998,84.6426656 171.486668,84.3440019 171.156,83.96 C170.825332,83.5759981 170.577334,83.117336 170.412,82.584 C170.246666,82.050664 170.164,81.4693365 170.164,80.84 C170.164,80.2213302 170.259999,79.6480026 170.452,79.12 C170.644001,78.5919974 170.913332,78.1360019 171.26,77.752 C171.606668,77.3679981 172.017331,77.0693344 172.492,76.856 C172.966669,76.6426656 173.486664,76.536 174.052,76.536 C174.788004,76.536 175.398664,76.6879985 175.884,76.992 C176.369336,77.2960015 176.758665,77.6826643 177.052,78.152 C177.345335,78.6213357 177.547999,79.1333306 177.66,79.688 C177.772001,80.2426694 177.817333,80.7706642 177.796,81.272 L171.604,81.272 C171.593333,81.6346685 171.636,81.978665 171.732,82.304 C171.828,82.629335 171.982666,82.9173321 172.196,83.168 C172.409334,83.4186679 172.681332,83.6186659 173.012,83.768 C173.342668,83.9173341 173.731998,83.992 174.18,83.992 C174.756003,83.992 175.227998,83.858668 175.596,83.592 C175.964002,83.325332 176.206666,82.9200027 176.324,82.376 L177.668,82.376 C177.486666,83.3146714 177.08667,84.0159977 176.468,84.48 C175.84933,84.9440023 175.070671,85.176 174.132,85.176 Z M176.356,80.072 C176.334667,79.7519984 176.262667,79.4480014 176.14,79.16 C176.017333,78.8719986 175.852001,78.624001 175.644,78.416 C175.435999,78.207999 175.190668,78.0426673 174.908,77.92 C174.625332,77.7973327 174.313335,77.736 173.972,77.736 C173.619998,77.736 173.302668,77.7973327 173.02,77.92 C172.737332,78.0426673 172.494668,78.2106656 172.292,78.424 C172.089332,78.6373344 171.929334,78.8853319 171.812,79.168 C171.694666,79.4506681 171.625333,79.7519984 171.604,80.072 L176.356,80.072 Z M182.728,85.176 C182.098664,85.176 181.541336,85.0746677 181.056,84.872 C180.570664,84.6693323 180.165335,84.3813352 179.84,84.008 C179.514665,83.6346648 179.269334,83.1920026 179.104,82.68 C178.938666,82.1679974 178.856,81.5973365 178.856,80.968 C178.856,80.3493302 178.935999,79.7706694 179.096,79.232 C179.256001,78.6933306 179.498665,78.224002 179.824,77.824 C180.149335,77.423998 180.554664,77.1093345 181.04,76.88 C181.525336,76.6506655 182.098663,76.536 182.76,76.536 C183.229336,76.536 183.669331,76.5919994 184.08,76.704 C184.490669,76.8160006 184.853332,76.9893322 185.168,77.224 C185.482668,77.4586678 185.741332,77.7546649 185.944,78.112 C186.146668,78.4693351 186.274666,78.8933309 186.328,79.384 L184.92,79.384 C184.813333,78.8613307 184.589335,78.4560014 184.248,78.168 C183.906665,77.8799986 183.448003,77.736 182.872,77.736 C182.381331,77.736 181.970668,77.8266658 181.64,78.008 C181.309332,78.1893342 181.045334,78.4293318 180.848,78.728 C180.650666,79.0266682 180.509334,79.3706647 180.424,79.76 C180.338666,80.1493353 180.296,80.5519979 180.296,80.968 C180.296,81.3520019 180.341333,81.7253315 180.432,82.088 C180.522667,82.4506685 180.663999,82.7733319 180.856,83.056 C181.048001,83.3386681 181.295998,83.5653325 181.6,83.736 C181.904002,83.9066675 182.274664,83.992 182.712,83.992 C183.384003,83.992 183.909331,83.8160018 184.288,83.464 C184.666669,83.1119982 184.898666,82.6160032 184.984,81.976 L186.376,81.976 C186.226666,83.0106718 185.848003,83.8026639 185.24,84.352 C184.631997,84.9013361 183.794672,85.176 182.728,85.176 Z M188.844,88.296 C188.683999,88.296 188.524001,88.2853334 188.364,88.264 C188.203999,88.2426666 188.049334,88.2053336 187.9,88.152 L187.9,86.904 C188.028001,86.9466669 188.158666,86.9893331 188.292,87.032 C188.425334,87.0746669 188.561333,87.096 188.7,87.096 C188.977335,87.096 189.201332,87.0320006 189.372,86.904 C189.542668,86.7759994 189.691999,86.5893346 189.82,86.344 L190.38,84.952 L187.1,76.728 L188.636,76.728 L191.052,83.496 L191.084,83.496 L193.404,76.728 L194.844,76.728 L191.244,86.088 C191.083999,86.4933354 190.926667,86.8346653 190.772,87.112 C190.617333,87.3893347 190.446668,87.6159991 190.26,87.792 C190.073332,87.9680009 189.865334,88.0959996 189.636,88.176 C189.406666,88.2560004 189.142668,88.296 188.844,88.296 Z M196.144,76.728 L197.504,76.728 L197.504,77.848 L197.536,77.848 C197.760001,77.389331 198.111998,77.056001 198.592,76.848 C199.072002,76.639999 199.599997,76.536 200.176,76.536 C200.816003,76.536 201.373331,76.6533322 201.848,76.888 C202.322669,77.1226678 202.717332,77.439998 203.032,77.84 C203.346668,78.240002 203.583999,78.7013307 203.744,79.224 C203.904001,79.7466693 203.984,80.3013304 203.984,80.888 C203.984,81.4853363 203.906667,82.0426641 203.752,82.56 C203.597333,83.0773359 203.362668,83.5306647 203.048,83.92 C202.733332,84.3093353 202.338669,84.6159989 201.864,84.84 C201.389331,85.0640011 200.837336,85.176 200.208,85.176 C199.994666,85.176 199.765335,85.1546669 199.52,85.112 C199.274665,85.0693331 199.029335,85.0000005 198.784,84.904 C198.538665,84.8079995 198.306668,84.6773342 198.088,84.512 C197.869332,84.3466658 197.685334,84.1413346 197.536,83.896 L197.504,83.896 L197.504,88.152 L196.144,88.152 L196.144,76.728 Z M200.064,83.992 C200.522669,83.992 200.911998,83.9013342 201.232,83.72 C201.552002,83.5386658 201.807999,83.2986682 202,83 C202.192001,82.7013318 202.330666,82.3600019 202.416,81.976 C202.501334,81.5919981 202.544,81.1973354 202.544,80.792 C202.544,80.4079981 202.493334,80.0320018 202.392,79.664 C202.290666,79.2959982 202.136001,78.9680014 201.928,78.68 C201.719999,78.3919986 201.453335,78.1626675 201.128,77.992 C200.802665,77.8213325 200.421336,77.736 199.984,77.736 C199.525331,77.736 199.136002,77.8266658 198.816,78.008 C198.495998,78.1893342 198.234668,78.4266652 198.032,78.72 C197.829332,79.0133348 197.682667,79.3466648 197.592,79.72 C197.501333,80.0933352 197.456,80.4719981 197.456,80.856 C197.456,81.2613354 197.504,81.6533314 197.6,82.032 C197.696,82.4106686 197.847999,82.7439986 198.056,83.032 C198.264001,83.3200014 198.533332,83.5519991 198.864,83.728 C199.194668,83.9040009 199.594664,83.992 200.064,83.992 Z M209.108,85.176 C208.478664,85.176 207.921336,85.0746677 207.436,84.872 C206.950664,84.6693323 206.545335,84.3813352 206.22,84.008 C205.894665,83.6346648 205.649334,83.1920026 205.484,82.68 C205.318666,82.1679974 205.236,81.5973365 205.236,80.968 C205.236,80.3493302 205.315999,79.7706694 205.476,79.232 C205.636001,78.6933306 205.878665,78.224002 206.204,77.824 C206.529335,77.423998 206.934664,77.1093345 207.42,76.88 C207.905336,76.6506655 208.478663,76.536 209.14,76.536 C209.609336,76.536 210.049331,76.5919994 210.46,76.704 C210.870669,76.8160006 211.233332,76.9893322 211.548,77.224 C211.862668,77.4586678 212.121332,77.7546649 212.324,78.112 C212.526668,78.4693351 212.654666,78.8933309 212.708,79.384 L211.3,79.384 C211.193333,78.8613307 210.969335,78.4560014 210.628,78.168 C210.286665,77.8799986 209.828003,77.736 209.252,77.736 C208.761331,77.736 208.350668,77.8266658 208.02,78.008 C207.689332,78.1893342 207.425334,78.4293318 207.228,78.728 C207.030666,79.0266682 206.889334,79.3706647 206.804,79.76 C206.718666,80.1493353 206.676,80.5519979 206.676,80.968 C206.676,81.3520019 206.721333,81.7253315 206.812,82.088 C206.902667,82.4506685 207.043999,82.7733319 207.236,83.056 C207.428001,83.3386681 207.675998,83.5653325 207.98,83.736 C208.284002,83.9066675 208.654664,83.992 209.092,83.992 C209.764003,83.992 210.289331,83.8160018 210.668,83.464 C211.046669,83.1119982 211.278666,82.6160032 211.364,81.976 L212.756,81.976 C212.606666,83.0106718 212.228003,83.8026639 211.62,84.352 C211.011997,84.9013361 210.174672,85.176 209.108,85.176 Z M214.376,76.728 L215.736,76.728 L215.736,79.896 L218.296,79.896 C219.106671,79.896 219.757331,80.1173311 220.248,80.56 C220.738669,81.0026689 220.984,81.623996 220.984,82.424 C220.984,83.2026706 220.749336,83.8266643 220.28,84.296 C219.810664,84.7653357 219.170671,85 218.36,85 L214.376,85 L214.376,76.728 Z M217.864,83.8 C219.005339,83.8 219.576,83.3413379 219.576,82.424 C219.576,81.5173288 219.005339,81.064 217.864,81.064 L215.736,81.064 L215.736,83.8 L217.864,83.8 Z M222.296,76.728 L223.656,76.728 L223.656,85 L222.296,85 L222.296,76.728 Z M230.352,76.728 L231.712,76.728 L231.712,80.68 L235.504,76.728 L237.312,76.728 L233.648,80.312 L237.744,85 L236,85 L232.544,81.064 L231.712,81.88 L231.712,85 L230.352,85 L230.352,76.728 Z M242.436,85.176 C241.774663,85.176 241.196002,85.0666678 240.7,84.848 C240.203998,84.6293322 239.785335,84.3253353 239.444,83.936 C239.102665,83.5466647 238.846668,83.0906693 238.676,82.568 C238.505332,82.0453307 238.42,81.480003 238.42,80.872 C238.42,80.263997 238.505332,79.6960026 238.676,79.168 C238.846668,78.6399974 239.102665,78.1813353 239.444,77.792 C239.785335,77.4026647 240.203998,77.0960011 240.7,76.872 C241.196002,76.6479989 241.774663,76.536 242.436,76.536 C243.08667,76.536 243.662664,76.6479989 244.164,76.872 C244.665336,77.0960011 245.086665,77.4026647 245.428,77.792 C245.769335,78.1813353 246.025332,78.6399974 246.196,79.168 C246.366668,79.6960026 246.452,80.263997 246.452,80.872 C246.452,81.480003 246.366668,82.0453307 246.196,82.568 C246.025332,83.0906693 245.769335,83.5466647 245.428,83.936 C245.086665,84.3253353 244.665336,84.6293322 244.164,84.848 C243.662664,85.0666678 243.08667,85.176 242.436,85.176 Z M242.436,83.992 C242.788002,83.992 243.121332,83.9226674 243.436,83.784 C243.750668,83.6453326 244.025332,83.4453346 244.26,83.184 C244.494668,82.9226654 244.678666,82.5973353 244.812,82.208 C244.945334,81.8186647 245.012,81.3733358 245.012,80.872 C245.012,80.3706642 244.945334,79.9253353 244.812,79.536 C244.678666,79.1466647 244.494668,78.818668 244.26,78.552 C244.025332,78.285332 243.750668,78.0826674 243.436,77.944 C243.121332,77.8053326 242.788002,77.736 242.436,77.736 C242.083998,77.736 241.750668,77.8053326 241.436,77.944 C241.121332,78.0826674 240.846668,78.285332 240.612,78.552 C240.377332,78.818668 240.193334,79.1466647 240.06,79.536 C239.926666,79.9253353 239.86,80.3706642 239.86,80.872 C239.86,81.3733358 239.926666,81.8186647 240.06,82.208 C240.193334,82.5973353 240.377332,82.9226654 240.612,83.184 C240.846668,83.4453346 241.121332,83.6453326 241.436,83.784 C241.750668,83.9226674 242.083998,83.992 242.436,83.992 Z M248.152,76.728 L250.104,76.728 L252.616,83.432 L252.648,83.432 L255.16,76.728 L257.112,76.728 L257.112,85 L255.752,85 L255.752,78.44 L253.256,85 L252.008,85 L249.512,78.44 L249.512,85 L248.152,85 L248.152,76.728 Z M259.26,76.728 L266.012,76.728 L266.012,85 L264.652,85 L264.652,77.928 L260.62,77.928 L260.62,85 L259.26,85 L259.26,76.728 Z M268.24,76.728 L269.6,76.728 L269.6,79.896 L272.544,79.896 C273.354671,79.896 274.005331,80.1173311 274.496,80.56 C274.986669,81.0026689 275.232,81.623996 275.232,82.424 C275.232,83.2026706 274.997336,83.8266643 274.528,84.296 C274.058664,84.7653357 273.418671,85 272.608,85 L268.24,85 L268.24,76.728 Z M272.112,83.8 C273.253339,83.8 273.824,83.3413379 273.824,82.424 C273.824,81.5173288 273.253339,81.064 272.112,81.064 L269.6,81.064 L269.6,83.8 L272.112,83.8 Z M283.732,85.176 C283.14533,85.176 282.622669,85.0773343 282.164,84.88 C281.705331,84.6826657 281.310668,84.4106684 280.98,84.064 C280.649332,83.7173316 280.390668,83.306669 280.204,82.832 C280.017332,82.357331 279.908,81.8373362 279.876,81.272 L278.164,81.272 L278.164,85 L276.804,85 L276.804,76.728 L278.164,76.728 L278.164,80.104 L279.924,80.104 C279.988,79.5919974 280.118666,79.1173355 280.316,78.68 C280.513334,78.2426645 280.771998,77.8666682 281.092,77.552 C281.412002,77.2373318 281.793331,76.9893342 282.236,76.808 C282.678669,76.6266658 283.177331,76.536 283.732,76.536 C284.35067,76.536 284.897331,76.6479989 285.372,76.872 C285.846669,77.0960011 286.249332,77.4026647 286.58,77.792 C286.910668,78.1813353 287.161332,78.6399974 287.332,79.168 C287.502668,79.6960026 287.588,80.263997 287.588,80.872 C287.588,81.480003 287.502668,82.0453307 287.332,82.568 C287.161332,83.0906693 286.910668,83.5466647 286.58,83.936 C286.249332,84.3253353 285.846669,84.6293322 285.372,84.848 C284.897331,85.0666678 284.35067,85.176 283.732,85.176 Z M283.732,83.992 C284.062668,83.992 284.377332,83.9226674 284.676,83.784 C284.974668,83.6453326 285.230666,83.4453346 285.444,83.184 C285.657334,82.9226654 285.827999,82.5973353 285.956,82.208 C286.084001,81.8186647 286.148,81.3733358 286.148,80.872 C286.148,80.3706642 286.084001,79.9253353 285.956,79.536 C285.827999,79.1466647 285.657334,78.818668 285.444,78.552 C285.230666,78.285332 284.974668,78.0826674 284.676,77.944 C284.377332,77.8053326 284.062668,77.736 283.732,77.736 C283.390665,77.736 283.073335,77.8053326 282.78,77.944 C282.486665,78.0826674 282.233334,78.285332 282.02,78.552 C281.806666,78.818668 281.636001,79.1466647 281.508,79.536 C281.379999,79.9253353 281.316,80.3706642 281.316,80.872 C281.316,81.8746717 281.539998,82.6453306 281.988,83.184 C282.436002,83.7226694 283.01733,83.992 283.732,83.992 Z M291.288,77.928 L288.328,77.928 L288.328,76.728 L295.608,76.728 L295.608,77.928 L292.648,77.928 L292.648,85 L291.288,85 L291.288,77.928 Z M300.316,85.176 C299.654663,85.176 299.076003,85.0693344 298.58,84.856 C298.083998,84.6426656 297.670668,84.3440019 297.34,83.96 C297.009332,83.5759981 296.761334,83.117336 296.596,82.584 C296.430666,82.050664 296.348,81.4693365 296.348,80.84 C296.348,80.2213302 296.443999,79.6480026 296.636,79.12 C296.828001,78.5919974 297.097332,78.1360019 297.444,77.752 C297.790668,77.3679981 298.201331,77.0693344 298.676,76.856 C299.150669,76.6426656 299.670664,76.536 300.236,76.536 C300.972004,76.536 301.582664,76.6879985 302.068,76.992 C302.553336,77.2960015 302.942665,77.6826643 303.236,78.152 C303.529335,78.6213357 303.731999,79.1333306 303.844,79.688 C303.956001,80.2426694 304.001333,80.7706642 303.98,81.272 L297.788,81.272 C297.777333,81.6346685 297.82,81.978665 297.916,82.304 C298.012001,82.629335 298.166666,82.9173321 298.38,83.168 C298.593334,83.4186679 298.865332,83.6186659 299.196,83.768 C299.526668,83.9173341 299.915998,83.992 300.364,83.992 C300.940003,83.992 301.411998,83.858668 301.78,83.592 C302.148002,83.325332 302.390666,82.9200027 302.508,82.376 L303.852,82.376 C303.670666,83.3146714 303.27067,84.0159977 302.652,84.48 C302.03333,84.9440023 301.254671,85.176 300.316,85.176 Z M302.54,80.072 C302.518667,79.7519984 302.446667,79.4480014 302.324,79.16 C302.201333,78.8719986 302.036001,78.624001 301.828,78.416 C301.619999,78.207999 301.374668,78.0426673 301.092,77.92 C300.809332,77.7973327 300.497335,77.736 300.156,77.736 C299.803998,77.736 299.486668,77.7973327 299.204,77.92 C298.921332,78.0426673 298.678668,78.2106656 298.476,78.424 C298.273332,78.6373344 298.113334,78.8853319 297.996,79.168 C297.878666,79.4506681 297.809333,79.7519984 297.788,80.072 L302.54,80.072 Z M305.536,76.728 L306.896,76.728 L306.896,77.848 L306.928,77.848 C307.152001,77.389331 307.503998,77.056001 307.984,76.848 C308.464002,76.639999 308.991997,76.536 309.568,76.536 C310.208003,76.536 310.765331,76.6533322 311.24,76.888 C311.714669,77.1226678 312.109332,77.439998 312.424,77.84 C312.738668,78.240002 312.975999,78.7013307 313.136,79.224 C313.296001,79.7466693 313.376,80.3013304 313.376,80.888 C313.376,81.4853363 313.298667,82.0426641 313.144,82.56 C312.989333,83.0773359 312.754668,83.5306647 312.44,83.92 C312.125332,84.3093353 311.730669,84.6159989 311.256,84.84 C310.781331,85.0640011 310.229337,85.176 309.6,85.176 C309.386666,85.176 309.157335,85.1546669 308.912,85.112 C308.666665,85.0693331 308.421335,85.0000005 308.176,84.904 C307.930665,84.8079995 307.698668,84.6773342 307.48,84.512 C307.261332,84.3466658 307.077334,84.1413346 306.928,83.896 L306.896,83.896 L306.896,88.152 L305.536,88.152 L305.536,76.728 Z M309.456,83.992 C309.914669,83.992 310.303998,83.9013342 310.624,83.72 C310.944002,83.5386658 311.199999,83.2986682 311.392,83 C311.584001,82.7013318 311.722666,82.3600019 311.808,81.976 C311.893334,81.5919981 311.936,81.1973354 311.936,80.792 C311.936,80.4079981 311.885334,80.0320018 311.784,79.664 C311.682666,79.2959982 311.528001,78.9680014 311.32,78.68 C311.111999,78.3919986 310.845335,78.1626675 310.52,77.992 C310.194665,77.8213325 309.813336,77.736 309.376,77.736 C308.917331,77.736 308.528002,77.8266658 308.208,78.008 C307.887998,78.1893342 307.626668,78.4266652 307.424,78.72 C307.221332,79.0133348 307.074667,79.3466648 306.984,79.72 C306.893333,80.0933352 306.848,80.4719981 306.848,80.856 C306.848,81.2613354 306.896,81.6533314 306.992,82.032 C307.088001,82.4106686 307.239999,82.7439986 307.448,83.032 C307.656001,83.3200014 307.925332,83.5519991 308.256,83.728 C308.586668,83.9040009 308.986664,83.992 309.456,83.992 Z M317.364,85.176 C316.990665,85.176 316.638668,85.1360004 316.308,85.056 C315.977332,84.9759996 315.686668,84.8426676 315.436,84.656 C315.185332,84.4693324 314.988001,84.2293348 314.844,83.936 C314.699999,83.6426652 314.628,83.2880021 314.628,82.872 C314.628,82.4026643 314.707999,82.0186682 314.868,81.72 C315.028001,81.4213318 315.238665,81.1786676 315.5,80.992 C315.761335,80.8053324 316.059998,80.6640005 316.396,80.568 C316.732002,80.4719995 317.075998,80.3920003 317.428,80.328 C317.801335,80.253333 318.155998,80.1973335 318.492,80.16 C318.828002,80.1226665 319.123999,80.0693337 319.38,80 C319.636001,79.9306663 319.838666,79.829334 319.988,79.696 C320.137334,79.562666 320.212,79.3680013 320.212,79.112 C320.212,78.8133318 320.156001,78.5733342 320.044,78.392 C319.931999,78.2106658 319.788001,78.0720005 319.612,77.976 C319.435999,77.8799995 319.238668,77.8160002 319.02,77.784 C318.801332,77.7519998 318.585334,77.736 318.372,77.736 C317.795997,77.736 317.316002,77.8453322 316.932,78.064 C316.547998,78.2826678 316.34,78.695997 316.308,79.304 L314.948,79.304 C314.969333,78.7919974 315.075999,78.3600018 315.268,78.008 C315.460001,77.6559982 315.715998,77.3706678 316.036,77.152 C316.356002,76.9333322 316.721331,76.7760005 317.132,76.68 C317.542669,76.5839995 317.982664,76.536 318.452,76.536 C318.825335,76.536 319.195998,76.5626664 319.564,76.616 C319.932002,76.6693336 320.265332,76.7786658 320.564,76.944 C320.862668,77.1093342 321.102666,77.3413318 321.284,77.64 C321.465334,77.9386682 321.556,78.3279976 321.556,78.808 L321.556,83.064 C321.556,83.3840016 321.574667,83.6186659 321.612,83.768 C321.649334,83.9173341 321.774666,83.992 321.988,83.992 C322.084001,83.992 322.222666,83.9653336 322.404,83.912 L322.404,84.968 C322.169332,85.1066674 321.844002,85.176 321.428,85.176 C321.075998,85.176 320.796001,85.0773343 320.588,84.88 C320.379999,84.6826657 320.276,84.3600022 320.276,83.912 C319.902665,84.3600022 319.468003,84.6826657 318.972,84.88 C318.475998,85.0773343 317.940003,85.176 317.364,85.176 Z M317.668,83.992 C318.116002,83.992 318.499998,83.9306673 318.82,83.808 C319.140002,83.6853327 319.401332,83.5306676 319.604,83.344 C319.806668,83.1573324 319.956,82.9546678 320.052,82.736 C320.148001,82.5173322 320.196,82.312001 320.196,82.12 L320.196,80.728 C320.025333,80.8666674 319.801335,80.9626664 319.524,81.016 C319.246665,81.0693336 318.956002,81.1173331 318.652,81.16 C318.347999,81.2026669 318.041335,81.2453331 317.732,81.288 C317.422665,81.3306669 317.145335,81.4053328 316.9,81.512 C316.654665,81.6186672 316.454667,81.7706657 316.3,81.968 C316.145333,82.1653343 316.068,82.434665 316.068,82.776 C316.068,83.0000011 316.113333,83.1893326 316.204,83.344 C316.294667,83.4986674 316.411999,83.6239995 316.556,83.72 C316.700001,83.8160005 316.867999,83.8853331 317.06,83.928 C317.252001,83.9706669 317.454666,83.992 317.668,83.992 Z M161.024,96.728 L164.848,96.728 C165.210668,96.728 165.559998,96.7546664 165.896,96.808 C166.232002,96.8613336 166.533332,96.9599993 166.8,97.104 C167.066668,97.2480007 167.279999,97.453332 167.44,97.72 C167.600001,97.986668 167.68,98.3279979 167.68,98.744 C167.68,99.1920022 167.573334,99.5546653 167.36,99.832 C167.146666,100.109335 166.848002,100.338666 166.464,100.52 L166.464,100.536 C166.944002,100.632 167.325332,100.855998 167.608,101.208 C167.890668,101.560002 168.032,102.013331 168.032,102.568 C168.032,102.920002 167.970667,103.245332 167.848,103.544 C167.725333,103.842668 167.552001,104.098666 167.328,104.312 C167.103999,104.525334 166.837335,104.693333 166.528,104.816 C166.218665,104.938667 165.882668,105 165.52,105 L161.024,105 L161.024,96.728 Z M165.264,103.848 C165.712002,103.848 166.050666,103.717335 166.28,103.456 C166.509334,103.194665 166.624,102.866669 166.624,102.472 C166.624,102.098665 166.501335,101.800001 166.256,101.576 C166.010665,101.351999 165.600003,101.24 165.024,101.24 L162.368,101.24 L162.368,103.848 L165.264,103.848 Z M164.704,100.12 C165.29067,100.12 165.698666,100.013334 165.928,99.8 C166.157334,99.5866656 166.272,99.3040018 166.272,98.952 C166.272,98.610665 166.160001,98.3466676 165.936,98.16 C165.711999,97.9733324 165.301336,97.88 164.704,97.88 L162.368,97.88 L162.368,100.12 L164.704,100.12 Z M177.736,105.176 C177.106664,105.176 176.549336,105.074668 176.064,104.872 C175.578664,104.669332 175.173335,104.381335 174.848,104.008 C174.522665,103.634665 174.277334,103.192003 174.112,102.68 C173.946666,102.167997 173.864,101.597336 173.864,100.968 C173.864,100.34933 173.943999,99.7706694 174.104,99.232 C174.264001,98.6933306 174.506665,98.224002 174.832,97.824 C175.157335,97.423998 175.562664,97.1093345 176.048,96.88 C176.533336,96.6506655 177.106663,96.536 177.768,96.536 C178.237336,96.536 178.677331,96.5919994 179.088,96.704 C179.498669,96.8160006 179.861332,96.9893322 180.176,97.224 C180.490668,97.4586678 180.749332,97.7546649 180.952,98.112 C181.154668,98.4693351 181.282666,98.8933309 181.336,99.384 L179.928,99.384 C179.821333,98.8613307 179.597335,98.4560014 179.256,98.168 C178.914665,97.8799986 178.456003,97.736 177.88,97.736 C177.389331,97.736 176.978668,97.8266658 176.648,98.008 C176.317332,98.1893342 176.053334,98.4293318 175.856,98.728 C175.658666,99.0266682 175.517334,99.3706647 175.432,99.76 C175.346666,100.149335 175.304,100.551998 175.304,100.968 C175.304,101.352002 175.349333,101.725332 175.44,102.088 C175.530667,102.450668 175.671999,102.773332 175.864,103.056 C176.056001,103.338668 176.303998,103.565332 176.608,103.736 C176.912002,103.906668 177.282664,103.992 177.72,103.992 C178.392003,103.992 178.917331,103.816002 179.296,103.464 C179.674669,103.111998 179.906666,102.616003 179.992,101.976 L181.384,101.976 C181.234666,103.010672 180.856003,103.802664 180.248,104.352 C179.639997,104.901336 178.802672,105.176 177.736,105.176 Z M186.524,105.176 C185.862663,105.176 185.284002,105.069334 184.788,104.856 C184.291998,104.642666 183.878668,104.344002 183.548,103.96 C183.217332,103.575998 182.969334,103.117336 182.804,102.584 C182.638666,102.050664 182.556,101.469336 182.556,100.84 C182.556,100.22133 182.651999,99.6480026 182.844,99.12 C183.036001,98.5919974 183.305332,98.1360019 183.652,97.752 C183.998668,97.3679981 184.409331,97.0693344 184.884,96.856 C185.358669,96.6426656 185.878664,96.536 186.444,96.536 C187.180004,96.536 187.790664,96.6879985 188.276,96.992 C188.761336,97.2960015 189.150665,97.6826643 189.444,98.152 C189.737335,98.6213357 189.939999,99.1333306 190.052,99.688 C190.164001,100.242669 190.209333,100.770664 190.188,101.272 L183.996,101.272 C183.985333,101.634668 184.028,101.978665 184.124,102.304 C184.22,102.629335 184.374666,102.917332 184.588,103.168 C184.801334,103.418668 185.073332,103.618666 185.404,103.768 C185.734668,103.917334 186.123998,103.992 186.572,103.992 C187.148003,103.992 187.619998,103.858668 187.988,103.592 C188.356002,103.325332 188.598666,102.920003 188.716,102.376 L190.06,102.376 C189.878666,103.314671 189.47867,104.015998 188.86,104.48 C188.24133,104.944002 187.462671,105.176 186.524,105.176 Z M188.748,100.072 C188.726667,99.7519984 188.654667,99.4480014 188.532,99.16 C188.409333,98.8719986 188.244001,98.624001 188.036,98.416 C187.827999,98.207999 187.582668,98.0426673 187.3,97.92 C187.017332,97.7973327 186.705335,97.736 186.364,97.736 C186.011998,97.736 185.694668,97.7973327 185.412,97.92 C185.129332,98.0426673 184.886668,98.2106656 184.684,98.424 C184.481332,98.6373344 184.321334,98.8853319 184.204,99.168 C184.086666,99.4506681 184.017333,99.7519984 183.996,100.072 L188.748,100.072 Z M193.696,97.928 L190.736,97.928 L190.736,96.728 L198.016,96.728 L198.016,97.928 L195.056,97.928 L195.056,105 L193.696,105 L193.696,97.928 Z M199.204,96.728 L200.564,96.728 L200.564,103.48 L204.468,96.728 L206.212,96.728 L206.212,105 L204.852,105 L204.852,98.248 L200.948,105 L199.204,105 L199.204,96.728 Z M208.664,103.224 L208.664,105 L210.44,105 L210.44,103.224 L208.664,103.224 Z M217.664,93.576 L217.664,105 L219.104,105 L219.104,95.832 L219.136,95.832 L225.104,105 L226.768,105 L226.768,93.576 L225.328,93.576 L225.328,102.84 L225.296,102.84 L219.28,93.576 L217.664,93.576 Z M229.332,93.576 L229.332,105 L237.268,105 L237.268,103.72 L230.852,103.72 L230.852,99.768 L236.788,99.768 L236.788,98.488 L230.852,98.488 L230.852,94.856 L237.22,94.856 L237.22,93.576 L229.332,93.576 Z M241.8,94.856 L237.992,94.856 L237.992,93.576 L247.128,93.576 L247.128,94.856 L243.32,94.856 L243.32,105 L241.8,105 L241.8,94.856 Z M246.796,103.224 L248.572,103.224 L248.572,104.84 C248.572,105.448003 248.433335,105.970664 248.156,106.408 C247.878665,106.845336 247.43067,107.154666 246.812,107.336 L246.812,106.536 C246.993334,106.472 247.145333,106.378667 247.268,106.256 C247.390667,106.133333 247.489333,106.000001 247.564,105.856 C247.638667,105.711999 247.689333,105.565334 247.716,105.416 C247.742667,105.266666 247.750667,105.128001 247.74,105 L246.796,105 L246.796,103.224 Z M263.844,97.016 L265.364,97.016 C265.278666,96.407997 265.097335,95.8720023 264.82,95.408 C264.542665,94.9439977 264.196002,94.5573349 263.78,94.248 C263.363998,93.9386651 262.889336,93.7040008 262.356,93.544 C261.822664,93.3839992 261.257336,93.304 260.66,93.304 C259.785329,93.304 259.009337,93.4613318 258.332,93.776 C257.654663,94.0906682 257.089336,94.5199973 256.636,95.064 C256.182664,95.6080027 255.838668,96.2453297 255.604,96.976 C255.369332,97.7066703 255.252,98.4879958 255.252,99.32 C255.252,100.152004 255.361332,100.930663 255.58,101.656 C255.798668,102.381337 256.126664,103.010664 256.564,103.544 C257.001336,104.077336 257.550663,104.495998 258.212,104.8 C258.873337,105.104002 259.646662,105.256 260.532,105.256 C261.993341,105.256 263.145329,104.856004 263.988,104.056 C264.830671,103.255996 265.326666,102.136007 265.476,100.696 L263.956,100.696 C263.924,101.165336 263.828001,101.602665 263.668,102.008 C263.507999,102.413335 263.286668,102.762665 263.004,103.056 C262.721332,103.349335 262.385335,103.578666 261.996,103.744 C261.606665,103.909334 261.161336,103.992 260.66,103.992 C259.97733,103.992 259.390669,103.864001 258.9,103.608 C258.409331,103.351999 258.006668,103.008002 257.692,102.576 C257.377332,102.143998 257.145334,101.637336 256.996,101.056 C256.846666,100.474664 256.772,99.8586699 256.772,99.208 C256.772,98.6106637 256.846666,98.0346694 256.996,97.48 C257.145334,96.9253306 257.377332,96.4320022 257.692,96 C258.006668,95.5679978 258.406664,95.2240013 258.892,94.968 C259.377336,94.7119987 259.96133,94.584 260.644,94.584 C261.444004,94.584 262.134664,94.7866646 262.716,95.192 C263.297336,95.5973354 263.673332,96.2053293 263.844,97.016 Z M268.984,99.048 L271.96,99.048 C272.824004,99.0586667 273.455998,98.8826685 273.856,98.52 C274.256002,98.1573315 274.456,97.6346701 274.456,96.952 C274.456,96.2693299 274.256002,95.7493351 273.856,95.392 C273.455998,95.0346649 272.824004,94.856 271.96,94.856 L268.984,94.856 L268.984,99.048 Z M267.464,93.576 L272.472,93.576 C273.624006,93.576 274.495997,93.871997 275.088,94.464 C275.680003,95.056003 275.976,95.885328 275.976,96.952 C275.976,98.018672 275.680003,98.8506637 275.088,99.448 C274.495997,100.045336 273.624006,100.338667 272.472,100.328 L268.984,100.328 L268.984,105 L267.464,105 L267.464,93.576 Z M287.052,100.872 L287.052,93.576 L285.532,93.576 L285.532,100.872 C285.532,101.896005 285.278669,102.671997 284.772,103.2 C284.265331,103.728003 283.526672,103.992 282.556,103.992 C281.531995,103.992 280.748003,103.728003 280.204,103.2 C279.659997,102.671997 279.388,101.896005 279.388,100.872 L279.388,93.576 L277.868,93.576 L277.868,100.872 C277.868,102.397341 278.281329,103.50933 279.108,104.208 C279.934671,104.90667 281.083993,105.256 282.556,105.256 C283.996007,105.256 285.105329,104.89067 285.884,104.16 C286.662671,103.42933 287.052,102.333341 287.052,100.872 Z M289.664,103.224 L289.664,105 L290.608,105 C290.618667,105.128001 290.610667,105.266666 290.584,105.416 C290.557333,105.565334 290.506667,105.711999 290.432,105.856 C290.357333,106.000001 290.258667,106.133333 290.136,106.256 C290.013333,106.378667 289.861334,106.472 289.68,106.536 L289.68,107.336 C290.29867,107.154666 290.746665,106.845336 291.024,106.408 C291.301335,105.970664 291.44,105.448003 291.44,104.84 L291.44,103.224 L289.664,103.224 Z M161.248,113.576 L166.624,113.576 C167.712005,113.576 168.562664,113.842664 169.176,114.376 C169.789336,114.909336 170.096,115.639995 170.096,116.568 C170.096,117.261337 169.938668,117.869331 169.624,118.392 C169.309332,118.914669 168.805337,119.271999 168.112,119.464 L168.112,119.496 C168.442668,119.56 168.711999,119.666666 168.92,119.816 C169.128001,119.965334 169.293333,120.143999 169.416,120.352 C169.538667,120.560001 169.629333,120.791999 169.688,121.048 C169.746667,121.304001 169.792,121.570665 169.824,121.848 C169.845333,122.125335 169.861333,122.407999 169.872,122.696 C169.882667,122.984001 169.909333,123.266665 169.952,123.544 C169.994667,123.821335 170.056,124.085332 170.136,124.336 C170.216,124.586668 170.335999,124.807999 170.496,125 L168.8,125 C168.693333,124.882666 168.621334,124.722668 168.584,124.52 C168.546666,124.317332 168.522667,124.090668 168.512,123.84 C168.501333,123.589332 168.490667,123.320001 168.48,123.032 C168.469333,122.743999 168.437334,122.461335 168.384,122.184 C168.341333,121.906665 168.288,121.642668 168.224,121.392 C168.16,121.141332 168.058667,120.922668 167.92,120.736 C167.781333,120.549332 167.600001,120.400001 167.376,120.288 C167.151999,120.175999 166.853335,120.12 166.48,120.12 L162.768,120.12 L162.768,125 L161.248,125 L161.248,113.576 Z M165.936,118.84 C166.288002,118.84 166.623998,118.813334 166.944,118.76 C167.264002,118.706666 167.543999,118.602667 167.784,118.448 C168.024001,118.293333 168.215999,118.085335 168.36,117.824 C168.504001,117.562665 168.576,117.224002 168.576,116.808 C168.576,116.231997 168.416002,115.762668 168.096,115.4 C167.775998,115.037332 167.25867,114.856 166.544,114.856 L162.768,114.856 L162.768,118.84 L165.936,118.84 Z M174.276,120.28 L178.148,120.28 L176.244,114.952 L176.212,114.952 L174.276,120.28 Z M175.412,113.576 L177.092,113.576 L181.556,125 L179.876,125 L178.628,121.56 L173.796,121.56 L172.516,125 L170.964,125 L175.412,113.576 Z M182.808,113.576 L182.808,125 L184.248,125 L184.248,115.496 L184.28,115.496 L187.848,125 L189.144,125 L192.712,115.496 L192.744,115.496 L192.744,125 L194.184,125 L194.184,113.576 L192.104,113.576 L188.488,123.176 L184.888,113.576 L182.808,113.576 Z M196.892,123.224 L196.892,125 L198.668,125 L198.668,123.224 L196.892,123.224 Z" id="Sigfred-использует-р" fill="#303030"></path>
                <g id="settings-gears" transform="translate(43.000000, 32.000000)">
                    <circle id="Oval-2" fill="#DDDDF3" opacity="0.665364583" cx="45" cy="43" r="40"></circle>
                    <circle id="Oval-2" fill="#55589A" cx="31" cy="86" r="3"></circle>
                    <circle id="Oval-2" fill="#55589A" cx="83.5" cy="18.5" r="1.5"></circle>
                    <circle id="Oval-2" fill="#55589A" cx="35.5" cy="1.5" r="1.5"></circle>
                    <path d="M5.98144443,41.2387583 C6.46035875,42.8967437 7.12497455,44.4955153 7.96551805,45.9955973 L5.57094644,49.0451062 C4.7890455,50.0418712 4.87700935,51.4630015 5.75664791,52.361077 L9.88117535,56.5257784 C10.7705877,57.4238538 12.1780093,57.5027068 13.1651593,56.7131899 L16.1657041,54.3150325 C17.7099585,55.2132066 19.3519504,55.9138041 21.0623587,56.4072522 L21.5119518,60.3054916 C21.6585582,61.5687186 22.7141245,62.5161388 23.965166,62.5161388 L29.8001017,62.5161388 C31.0511432,62.5161388 32.1067095,61.5686199 32.2533159,60.3054916 L32.6833614,56.5454176 C34.5208286,56.0618385 36.2801057,55.3414044 37.9318714,54.4038531 L40.8346787,56.7230589 C41.8218286,57.5125758 43.2292503,57.4237551 44.1186626,56.5355486 L48.24319,52.3708472 C49.1326024,51.4727718 49.2107925,50.0516415 48.4288915,49.0548764 L46.1711526,46.163271 C47.1094337,44.5249248 47.8424658,42.7782175 48.3311539,40.9524597 L51.8106131,40.5478323 C53.0617523,40.3997979 53.9999357,39.3339502 53.9999357,38.0707232 L53.9999357,32.1789537 C53.9999357,30.9157267 53.0616546,29.849879 51.8106131,29.7018445 L48.3800227,29.2972172 C47.9107844,27.4911974 47.2071713,25.7641292 46.308083,24.1456197 L48.4192155,21.4513934 C49.2011164,20.4546284 49.1131526,19.033498 48.233514,18.1354226 L44.1187603,13.9805902 C43.229348,13.0825148 41.8219263,13.0035631 40.8347764,13.7930799 L38.2447296,15.8655617 C36.5636425,14.8687966 34.7651727,14.1088867 32.8789344,13.5957007 L32.4879839,10.2106472 C32.3413775,8.94742023 31.2858112,8 30.0347697,8 L24.199834,8 C22.9487925,8 21.8932262,8.94742023 21.7466198,10.2106472 L21.3556693,13.5957007 C19.4204645,14.1187556 17.5732235,14.9082725 15.8530415,15.9445134 L13.165257,13.7930799 C12.1781071,13.0035631 10.7706854,13.0923837 9.88127309,13.9805902 L5.75674565,18.1452916 C4.86733333,19.043367 4.78914324,20.4644973 5.57104417,21.4612624 L7.81900937,24.3331299 C6.91982329,25.9713774 6.23565997,27.7181834 5.78606693,29.5340722 L2.18932262,29.9485686 C0.938281124,30.096603 0,31.1624507 0,32.4256777 L0,38.3174472 C0,39.5806742 0.938281124,40.6465219 2.18932262,40.7945564 L5.98144443,41.2387583 Z M27.162746,18 C36.4421695,18 43.9987588,25.6301925 43.9987588,35 C43.9987588,44.3698075 36.4421695,52 27.162746,52 C17.883493,52 10.3267331,44.3698075 10.3267331,35 C10.3267331,25.6301925 17.8833225,18 27.162746,18 Z" id="Shape" fill="#D8232A" fill-rule="nonzero"></path>
                    <path d="M51.4600206,59.6403796 C51.8147724,60.8685183 52.307081,62.052795 52.9297065,63.1639682 L51.1559477,65.4228664 C50.5767611,66.1612117 50.6419196,67.2139021 51.2935045,67.8791439 L54.3487136,70.9641116 C55.0075383,71.6293535 56.0500742,71.6877632 56.7812972,71.1029352 L59.0039257,69.3265201 C60.1478191,69.9918351 61.3641109,70.5107968 62.6310815,70.8763143 L62.9641138,73.7639026 C63.0727113,74.6996274 63.8546132,75.4014209 64.7813117,75.4014209 L69.1034915,75.4014209 C70.03019,75.4014209 70.8120918,74.6995542 70.9206893,73.7639026 L71.2392419,70.9786592 C72.6003304,70.6204521 73.9035001,70.0867965 75.1270318,69.3923133 L77.2772619,71.1102455 C78.0084849,71.6950735 79.0510208,71.6292804 79.7098455,70.9713489 L82.7650546,67.8863812 C83.4238794,67.2211394 83.481798,66.168449 82.9026115,65.4301036 L81.2302102,63.2881711 C81.9252341,62.0745799 82.4682215,60.780721 82.8302131,59.4283063 L85.4075934,59.128582 C86.3343643,59.0189267 87.0293158,58.2294089 87.0293158,57.2936841 L87.0293158,52.9294052 C87.0293158,51.9936804 86.3342919,51.2041626 85.4075934,51.0945074 L82.8664123,50.794783 C82.518828,49.456989 81.9976324,48.1776777 81.3316403,46.9787803 L82.895444,44.9830548 C83.4746306,44.2447094 83.4094721,43.1920191 82.7578872,42.5267772 L79.7099179,39.4491199 C79.0510932,38.783878 78.0085573,38.7253952 77.2773343,39.3102232 L75.3587788,40.8453967 C74.1135277,40.1070514 72.7813262,39.5441544 71.384111,39.1640162 L71.0945177,36.6565662 C70.9859202,35.7208414 70.2040183,35.0190478 69.2773198,35.0190478 L64.9551401,35.0190478 C64.0284415,35.0190478 63.2465397,35.7208414 63.1379422,36.6565662 L62.8483489,39.1640162 C61.4148622,39.5514648 60.0465339,40.1362928 58.7723234,40.9038795 L56.7813696,39.3102232 C56.0501466,38.7253952 55.0076107,38.7911884 54.348786,39.4491199 L51.2935769,42.5340876 C50.6347521,43.1993294 50.5768335,44.2520198 51.1560201,44.9903651 L52.8211814,47.117677 C52.1551169,48.3311951 51.6483286,49.625127 51.3152964,50.9702314 L48.6510381,51.2772661 C47.7243396,51.3869214 47.0293158,52.1764391 47.0293158,53.1121639 L47.0293158,57.4764429 C47.0293158,58.4121677 47.7243396,59.2016855 48.6510381,59.3113407 L51.4600206,59.6403796 Z M67.1474936,43.0239395 C73.6963399,43.0239395 79.0293158,48.4088599 79.0293158,55.0214936 C79.0293158,61.6341273 73.6963399,67.0190478 67.1474936,67.0190478 C60.5987678,67.0190478 55.2656715,61.6341273 55.2656715,55.0214936 C55.2656715,48.4088599 60.5986474,43.0239395 67.1474936,43.0239395 Z" id="Shape-Copy" fill="#55589A" fill-rule="nonzero" transform="translate(67.029316, 55.210234) rotate(-12.000000) translate(-67.029316, -55.210234) "></path>
                </g>
            </g>
        </g>
    </g>
</svg>