<?xml version="1.0" encoding="UTF-8"?>
<svg width="475px" height="454px" viewBox="0 0 475 454" version="1.1" xmlns="http://www.w3.org/2000/svg" xmlns:xlink="http://www.w3.org/1999/xlink">
    <!-- Generator: Sketch 47.1 (45422) - http://www.bohemiancoding.com/sketch -->
    <title>img</title>
    <desc>Created with Sketch.</desc>
    <defs></defs>
    <g id="Page-1" stroke="none" stroke-width="1" fill="none" fill-rule="evenodd">
        <g id="Main-New" transform="translate(-755.000000, -1778.000000)">
            <g id="about" transform="translate(150.000000, 826.000000)">
                <g id="img" transform="translate(605.000000, 952.000000)">
                    <path d="M120.848984,167.598896 C120.848984,170.581228 123.268014,172.998299 126.255323,172.998299 C129.240072,172.998299 131.659102,170.581228 131.659102,167.598896 C131.659102,164.614006 129.240072,162.196935 126.255323,162.196935 C123.268014,162.196935 120.848984,164.614006 120.848984,167.598896" id="Fill-15" fill="#E05A56"></path>
                    <polyline id="Fill-16" fill="#E05A56" points="110.171977 205.801397 120.982095 209.635459 129.672682 170.069679 123.470239 168.662918 110.171977 205.801397"></polyline>
                    <polyline id="Fill-40" fill="#55589A" points="117.633211 97.7673014 77.2098228 79.5177803 77.2098228 30.9404197 117.633211 49.1899408 117.633211 97.7673014"></polyline>
                    <polyline id="Fill-41" fill="#3F4281" points="117.633211 97.7673014 158.055959 79.5177803 158.055959 30.9404197 117.633211 49.1899408 117.633211 97.7673014"></polyline>
                    <polyline id="Fill-42" fill="#696DBD" points="77.2098228 30.9404197 117.633211 49.1899408 158.055959 30.9404197 117.633211 14.371338 77.2098228 30.9404197"></polyline>
                    <polyline id="Fill-43" fill="#55589A" points="440.434758 70.6551887 406.468515 55.3208592 406.468515 14.5024225 440.434758 29.8373915 440.434758 70.6551887"></polyline>
                    <polyline id="Fill-44" fill="#3F4281" points="440.434758 70.6551887 474.401002 55.3208592 474.401002 14.5024225 440.434758 29.8373915 440.434758 70.6551887"></polyline>
                    <polyline id="Fill-45" fill="#696DBD" points="406.468515 14.5024225 440.434758 29.8373915 474.401002 14.5024225 440.434758 0.579969014 406.468515 14.5024225"></polyline>
                    <rect id="Rectangle-11" stroke="#EC484F" stroke-width="4" transform="translate(145.670452, 70.682090) rotate(20.000000) translate(-145.670452, -70.682090) " x="135.670452" y="65.6820901" width="20" height="10" rx="5"></rect>
                    <rect id="Rectangle-11-Copy-8" stroke="#EC484F" stroke-width="4" transform="translate(166.670452, 79.682090) rotate(20.000000) translate(-166.670452, -79.682090) " x="156.670452" y="74.6820901" width="20" height="10" rx="5"></rect>
                    <rect id="Rectangle-11-Copy-9" stroke="#EC484F" stroke-width="4" transform="translate(186.670452, 88.682090) rotate(20.000000) translate(-186.670452, -88.682090) " x="176.670452" y="83.6820901" width="20" height="10" rx="5"></rect>
                    <rect id="Rectangle-11-Copy-10" stroke="#EC484F" stroke-width="4" transform="translate(207.670452, 97.682090) rotate(20.000000) translate(-207.670452, -97.682090) " x="197.670452" y="92.6820901" width="20" height="10" rx="5"></rect>
                    <rect id="Rectangle-11" stroke="#EC484F" stroke-width="4" transform="translate(409.670452, 46.682090) rotate(-20.000000) translate(-409.670452, -46.682090) " x="399.670452" y="41.6820901" width="20" height="10" rx="5"></rect>
                    <rect id="Rectangle-11-Copy-4" stroke="#EC484F" stroke-width="4" transform="translate(388.670452, 55.682090) rotate(-20.000000) translate(-388.670452, -55.682090) " x="378.670452" y="50.6820901" width="20" height="10" rx="5"></rect>
                    <rect id="Rectangle-11-Copy-5" stroke="#EC484F" stroke-width="4" transform="translate(367.670452, 64.682090) rotate(-20.000000) translate(-367.670452, -64.682090) " x="357.670452" y="59.6820901" width="20" height="10" rx="5"></rect>
                    <rect id="Rectangle-11-Copy-6" stroke="#EC484F" stroke-width="4" transform="translate(347.670452, 72.682090) rotate(-20.000000) translate(-347.670452, -72.682090) " x="337.670452" y="67.6820901" width="20" height="10" rx="5"></rect>
                    <rect id="Rectangle-11-Copy-7" stroke="#EC484F" stroke-width="4" transform="translate(326.670452, 81.682090) rotate(-20.000000) translate(-326.670452, -81.682090) " x="316.670452" y="76.6820901" width="20" height="10" rx="5"></rect>
                    <polyline id="Fill-52" fill="#55589A" points="267.381367 174.912132 198.515825 143.821445 198.515825 61.0636394 267.381367 92.1543268 267.381367 174.912132"></polyline>
                    <polyline id="Fill-53" fill="#3F4281" points="267.381367 174.912132 336.247549 143.821445 336.247549 61.0636394 267.381367 92.1543268 267.381367 174.912132"></polyline>
                    <polygon id="Fill-54" fill="#696DBD" points="267.381367 92.1543268 336.247549 61.0636394 267.381367 32.8357099 198.515825 61.0636394"></polygon>
                    <rect id="Rectangle-11" stroke="#EC484F" stroke-width="4" transform="translate(226.892305, 126.743662) rotate(-40.000000) translate(-226.892305, -126.743662) " x="216.892305" y="121.743662" width="20" height="10" rx="5"></rect>
                    <rect id="Rectangle-11" stroke="#EC484F" stroke-width="4" transform="translate(314.892305, 121.062178) rotate(30.000000) translate(-314.892305, -121.062178) " x="304.892305" y="116.062178" width="20" height="10" rx="5"></rect>
                    <rect id="Rectangle-11-Copy-3" stroke="#EC484F" stroke-width="4" transform="translate(331.892305, 132.062178) rotate(30.000000) translate(-331.892305, -132.062178) " x="321.892305" y="127.062178" width="20" height="10" rx="5"></rect>
                    <rect id="Rectangle-11-Copy-3" stroke="#EC484F" stroke-width="4" transform="translate(349.892305, 143.062178) rotate(30.000000) translate(-349.892305, -143.062178) " x="339.892305" y="138.062178" width="20" height="10" rx="5"></rect>
                    <rect id="Rectangle-11-Copy-3" stroke="#EC484F" stroke-width="4" transform="translate(367.892305, 154.062178) rotate(30.000000) translate(-367.892305, -154.062178) " x="357.892305" y="149.062178" width="20" height="10" rx="5"></rect>
                    <rect id="Rectangle-11-Copy" stroke="#EC484F" stroke-width="4" transform="translate(209.692047, 141.075762) rotate(-40.000000) translate(-209.692047, -141.075762) " x="199.692047" y="136.075762" width="20" height="10" rx="5"></rect>
                    <rect id="Rectangle-11-Copy-2" stroke="#EC484F" stroke-width="4" transform="translate(193.692047, 156.075762) rotate(-40.000000) translate(-193.692047, -156.075762) " x="183.692047" y="151.075762" width="20" height="10" rx="5"></rect>
                    <polyline id="Fill-57" fill="#55589A" points="153.574356 242.709039 106.478158 221.446493 106.478158 164.849958 153.574356 186.112504 153.574356 242.709039"></polyline>
                    <polyline id="Fill-58" fill="#3F4281" points="153.574356 242.709039 200.671193 221.446493 200.671193 164.849958 153.574356 186.112504 153.574356 242.709039"></polyline>
                    <polyline id="Fill-59" fill="#696DBD" points="106.478158 164.849958 153.574356 186.112504 200.671193 164.849958 153.574356 145.544727 106.478158 164.849958"></polyline>
                    <polyline id="Fill-60" fill="#55589A" points="407.632593 204.59542 360.537035 183.333513 360.537035 126.736338 407.632593 147.998885 407.632593 204.59542"></polyline>
                    <polyline id="Fill-61" fill="#3F4281" points="407.632593 204.59542 454.72943 183.333513 454.72943 126.736338 407.632593 147.998885 407.632593 204.59542"></polyline>
                    <polyline id="Fill-62" fill="#696DBD" points="360.537035 126.736338 407.632593 147.998885 454.72943 126.736338 407.632593 107.431107 360.537035 126.736338"></polyline>
                    <ellipse id="Oval-11" fill="#CDCBCB" opacity="0.5" cx="417.724041" cy="445.687324" rx="39.3572235" ry="8.31267606"></ellipse>
                    <ellipse id="Oval-11-Copy" fill="#CDCBCB" opacity="0.5" cx="267.974605" cy="445.687324" rx="45.1168172" ry="8.31267606"></ellipse>
                    <ellipse id="Oval-11-Copy-2" fill="#CDCBCB" opacity="0.5" cx="53.2697517" cy="444.088732" rx="53.1162528" ry="9.91126761"></ellipse>
                    <g id="left" transform="translate(11.672686, 158.580282)">
                        <path d="M101.214673,3.56915934 C97.5343392,2.99297384 96.0920506,4.58342627 95.2393128,5.15154266 C94.1772387,5.85784952 92.8665164,6.01592474 91.4812024,10.6069193 C90.8039377,12.050242 92.4512408,14.2780517 92.7129112,13.5410358 C93.2516445,12.0516496 95.0269319,12.7172323 95.519488,11.596354 C95.9966517,10.4754758 100.629758,10.4601213 102.52302,9.18569801 C104.493244,7.88056578 107.661269,8.14559616 106.860865,5.9652576 C106.060461,3.78491904 104.895007,4.14534484 101.214673,3.56915934 Z" id="Fill-40" fill="#F1C1B4" transform="translate(99.153469, 8.566008) rotate(-29.000000) translate(-99.153469, -8.566008) "></path>
                        <polygon id="Fill-3" fill="#E75353" points="92.7934537 10.2309859 86.5935711 55.2345352 69.8933093 98.5602028 85.1651919 103.256225 96.9122032 58.0659606 99.1930023 10.2309859"></polygon>
                        <polyline id="Fill-4" fill="#2F4C9B" points="84.8452144 286.748958 58.3997201 286.748958 61.1540858 221.503403 58.5097923 194.77751 79.436316 148.275121 84.8452144 164.974648 77.5318104 221.815448 67.7507404 282.521003 85.3725372 284.869014 85.2291874 284.733454"></polyline>
                        <polygon id="Fill-6" fill="#2F4C9B" points="48.3165914 158.9 39.3546637 209.489668 0 261.723966 4.69982844 286.372969 16.4468397 286.372969 9.39965688 281.091223 8.22469977 265.245983 45.8156479 222.989454 85.7539503 158.9"></polygon>
                        <path d="M60.7872211,61.3857051 C62.6056239,61.5151941 64.113185,61.800175 65.3099042,62.2406479 C66.5066234,62.6811207 73.9617298,66.2908788 87.6752235,73.0699222 L86.8272204,81.6193493 C87.4796541,89.1434102 87.4796541,93.0381492 86.8272204,93.3035664 C85.5711874,93.8145342 78.7338495,91.0367139 76.2227907,92.4214377 C75.6979689,92.7108508 75.4114667,90.6809693 75.363284,86.3317933 C74.6417328,86.4230818 73.7403929,86.5621525 72.6592642,86.7490056 C71.0375712,87.0292851 68.7019165,87.6039483 66.7232427,86.4640247 C64.7445688,85.3241011 64.6534335,82.3977126 63.613898,81.0493875 C63.1071455,80.3921063 62.9463395,78.9906513 62.4832273,78.4845594 C60.5946606,76.4207222 58.8085473,79.3395021 58.2432119,75.9197312 C58.087227,74.9761628 61.0698888,74.0038572 61.0698888,73.0699222 C61.0698888,70.6000877 60.9756662,66.7053487 60.7872211,61.3857051 Z" id="face" fill="#F1C1B4" transform="translate(72.956262, 77.376435) scale(-1, 1) rotate(17.000000) translate(-72.956262, -77.376435) "></path>
                        <path d="M56.2570448,63.6681052 C54.4307869,61.9281221 53.6010617,60.7431639 53.7678691,60.1132304 C55.5174305,53.5061679 60.1340282,52.4155956 65.4651006,51.3085691 C70.796173,50.2015426 73.8690351,50.4558808 76.2806257,51.6618524 C78.6922163,52.8678239 81.5487249,55.1832515 83.0295618,60.0554131 C84.5103986,64.9275747 83.997905,63.2471172 83.9897555,69.1860444 C83.98699,71.2014253 83.4914555,74.9314723 82.503152,80.3761852 L73.4722334,77.4987204 C73.2840893,73.3589444 72.4374407,71.1008848 70.9322876,70.7245415 C70.0317739,70.4993802 68.1761197,70.48599 65.3653252,70.684371 C64.8823593,68.7396813 64.1039955,67.2476984 63.0302338,66.2084223 C61.956472,65.1691461 59.6987423,64.3223737 56.2570448,63.6681052 Z" id="hair" fill="#524D4D" transform="translate(68.914455, 65.489586) scale(-1, 1) rotate(17.000000) translate(-68.914455, -65.489586) "></path>
                        <path d="M154.908991,68.0051623 C153.954663,68.1418173 152.932609,68.5671368 152.079872,69.1352532 C151.017798,69.8415601 146.125303,72.4611181 144.739989,77.0521127 C144.062724,78.4954354 146.71816,81.3060299 146.979831,80.5690141 C147.518564,79.0796279 149.293851,79.7452106 149.786407,78.6243323 C150.263571,77.503454 154.896677,77.4880995 156.789939,76.2136763 C158.760164,74.9085441 158.529278,71.5612637 157.728875,69.3809252 C157.671923,69.2258448 157.581108,69.1168278 157.504146,68.9893855 C157.861249,68.762139 156.322011,67.2097993 154.908991,68.0051623 Z" id="Fill-40" fill="#F1C1B4"></path>
                        <path d="M151.349323,78.6507042 L149.109481,70.6577465 L119.031603,88.2422535 L76.0829526,89.9099042 C70.7560186,89.8643513 66.5135446,90.9070593 63.3555305,93.0380282 C60.1975164,95.1689971 58.1351552,98.3806741 57.168447,102.673059 L47.0366817,160.81831 L85.1139955,164.335211 L88.5185553,101.509285 L124.151242,96.8746479 L151.349323,78.6507042 Z" id="Fill-13" fill="#E75353"></path>
                        <polyline id="Fill-20" points="84.3742077 287.787403 58.6685011 287.787403 58.783693 284.733454 85.2291874 284.733454 84.3742077 287.787403"></polyline>
                        <polyline id="Fill-22" fill="#255999" points="16.4468397 286.372969 4.69982844 286.372969 4.38753047 284.733454 14.260754 284.733454 16.4468397 286.372969"></polyline>
                    </g>
                    <g id="right-girl" transform="translate(379.006772, 186.715493)">
                        <polygon id="Fill-52" fill="#2A609D" points="53.1162528 243.131707 47.0366817 243.131707 37.1992957 175.604642 34.6394763 175.604642 28.6213409 243.277499 22.2909074 243.131707 18.5586907 162.73662 52.1563205 160.498592"></polygon>
                        <path d="M29.7579007,246.502817 C29.7579007,247.941791 29.3790474,249.402172 28.6213409,250.883958 L28.6213409,258.332394 C27.7968168,258.73748 27.3223969,258.73748 27.1980813,258.332394 C27.0737656,257.927309 26.647129,255.049844 25.9181716,249.7 L18.5586907,257.373239 L12.1591422,257.692958 C9.38600451,256.414085 8.95936795,254.922066 10.8792325,253.216901 C12.1629691,252.076726 11.6951515,254.402751 15.9988713,252.257746 C17.4206149,251.549139 19.6604569,248.555723 22.7183973,243.277499 L28.6213409,243.277499 C29.3790474,243.988736 29.7579007,245.063843 29.7579007,246.502817 Z" id="Fill-54" fill="#303030"></path>
                        <path d="M66.2353273,246.502817 C66.2353273,247.941791 65.856474,249.402172 65.0987675,250.883958 L65.0987675,258.332394 C64.2742434,258.73748 63.7998236,258.73748 63.6755079,258.332394 C63.5511922,257.927309 63.1245557,255.049844 62.3955982,249.7 L55.0361174,257.373239 L48.6365688,257.692958 C45.8634312,256.414085 45.4367946,254.922066 47.3566591,253.216901 C48.6403958,252.076726 48.1725781,254.402751 52.476298,252.257746 C53.8980416,251.549139 56.1378836,248.555723 59.1958239,243.277499 L65.0987675,243.277499 C65.856474,243.988736 66.2353273,245.063843 66.2353273,246.502817 Z" id="Fill-54" fill="#303030" transform="translate(56.206944, 250.956853) scale(-1, 1) translate(-56.206944, -250.956853) "></path>
                        <path d="M53.4362302,119.25493 L56.3160271,84.7253521 L66.1431738,29.0534423 L58.7785734,28.0022085 L48.9898239,69.5553577 C42.7299471,74.9081921 38.0258523,77.7106296 34.8775395,77.9626704 C31.7292267,78.2147112 27.462861,75.4122737 22.0784424,69.5553577 L10.5643747,30.2811606 L3.19977427,31.3323944 C7.03858935,51.574168 10.3450228,68.1995201 13.1190745,81.2084507 C15.8931262,94.2173813 17.8129908,106.899541 18.8786682,119.25493 L0.140790068,195.347887 L75.1946953,192.470423 L53.4362302,119.25493 Z" id="Fill-115" fill="#ED5EB0"></path>
                        <path d="M19.518623,64.9028169 C18.7015825,69.256289 18.5949233,71.60089 19.1986456,71.9366197 L30.788228,69.6985915 L44.6176524,46.4742535 L22.0374853,46.4742535 C21.1752843,54.4064903 20.3356636,60.5493448 19.518623,64.9028169 Z" id="Fill-116" fill="#2E2E76"></path>
                        <path d="M38.9139997,70.1806106 C38.5825062,70.2636102 40.6918997,74.8897646 39.9971783,75.7732394 C36.4774266,80.2492958 31.6875571,77.0521127 30.717833,77.0521127 C29.6159044,77.0521127 32.8895388,70.539802 31.8513993,70.32508 C24.6779213,68.8413644 19.2882393,62.4925378 19.2882393,54.8866817 C19.2882393,46.1801127 26.350781,39.1207324 35.0669661,39.1207324 C43.7805914,39.1207324 50.845693,46.1801127 50.845693,54.8866817 C50.845693,62.2673741 45.7685601,68.4643616 38.9139997,70.1806106 Z" id="Fill-117" fill="#F1C1B4"></path>
                        <path d="M40.8572777,53.8380056 C41.1670158,53.9863549 41.5228307,54.127031 41.8428081,54.0017014 C42.1627856,53.8789296 42.326614,53.5387493 42.5339594,53.2650704 C43.3556614,52.1984901 45.147535,52.2010479 46.1023476,53.1474141 C47.0571603,54.0937803 47.1518736,55.7102761 46.4888804,56.8817239 C45.828447,58.0506141 44.5357381,58.7795718 43.2046321,58.9816338 C42.3291738,62.0995268 41.9707991,65.365769 42.142307,68.5987606 C44.3079142,68.7598986 46.4760813,68.9184789 48.6416885,69.0796169 C49.0640587,69.1103099 49.527386,69.1282141 49.8627223,68.8698817 C50.1750203,68.6268958 50.2850926,68.2099831 50.3670068,67.8237634 C51.1759097,64.1099155 51.582921,60.3091042 51.5752415,56.508293 C51.5675621,52.8072338 51.1247133,48.9680563 49.2125282,45.7964507 C46.9214898,41.9981972 37.5269526,35.7521803 32.9448758,39.2537352 C27.896912,43.1108169 37.365684,52.1601239 40.8572777,53.8380056" id="Fill-119" fill="#2E2E76"></path>
                        <path d="M27.7893995,48.4155831 C25.1195079,51.0244845 21.6535124,53.0195268 17.9212957,53.1806648 C17.7523476,49.0140958 19.5826185,44.8117183 22.7491151,42.0953915 C24.5307494,40.5709746 30.5156072,37.1947493 32.9653544,38.8163606 C35.5021354,40.4942423 29.5940722,46.6456225 27.7893995,48.4155831" id="Fill-120" fill="#2E2E76"></path>
                        <polygon id="Fill-122" fill="#F1C1B4" points="65.9153499 30.0535211 68.7951467 0.31971831 64.6354402 1.27887324 58.6377833 28.2119437"></polygon>
                        <polygon id="Fill-123" fill="#F1C1B4" points="3.51975169 31.022907 0.319977427 5.75492958 4.7996614 7.03380282 10.2392777 30.3732394"></polygon>
                    </g>
                    <g id="guy" transform="translate(219.018059, 154.743662)">
                        <path d="M93.2887182,2.94681752 C92.3343908,3.08347254 90.6832743,4.77544163 89.8305365,5.34355802 C88.7684624,6.04986487 84.7870608,8.86859112 81.6709799,12.5833955 C80.9937153,14.0267182 83.6491515,16.8373127 83.9108219,16.1002969 C84.4495551,14.6109107 86.2248425,15.2764934 86.7173986,14.1556151 C87.1945624,13.0347368 91.8276682,13.0193823 93.7209307,11.7449591 C95.6911551,10.4398269 95.4602694,7.09254654 94.6598658,4.91220798 C94.602914,4.75712756 94.5120989,4.64811063 94.4351371,4.52066831 C94.7922402,4.29342176 94.7017386,2.15145458 93.2887182,2.94681752 Z" id="Fill-40" fill="#F1C1B4" transform="translate(88.403794, 9.495976) scale(-1, 1) rotate(-64.000000) translate(-88.403794, -9.495976) "></path>
                        <path d="M12.9361301,3.26553776 C11.9818027,3.40219278 10.9597487,3.82751235 10.107011,4.39562873 C9.0449369,5.10193559 4.15244196,7.72149361 2.76712793,12.3124882 C2.08986329,13.7558109 4.74529949,16.5664054 5.00696991,15.8293896 C5.54570315,14.3400034 7.32099055,15.0055861 7.81354665,13.8847078 C8.29071037,12.7638295 12.2678323,11.5145627 14.1610948,10.2401394 C14.9721386,9.70288114 15.3221066,9.52551626 15.5009818,8.52000448 C15.7566383,7.08288146 15.8378144,5.61267453 15.3668972,4.32987338 C15.3099455,4.17479296 15.1651901,3.15708975 15.0882282,3.02964742 C15.4453314,2.80240087 14.3491504,2.47017482 12.9361301,3.26553776 Z" id="Fill-40" fill="#F1C1B4" transform="translate(9.181852, 9.356855) rotate(-64.000000) translate(-9.181852, -9.356855) "></path>
                        <polygon id="Fill-52" fill="#53585E" points="63.6755079 284.869014 56.9559819 285.255234 47.996614 178.083099 45.4367946 178.083099 38.1387494 285.401025 31.808316 285.255234 22.0963612 166.143538 20.6679819 151.467189 72.3942528 152.142434 72.5708804 163.997589"></polygon>
                        <path d="M14.5781716,88.8816901 L4.91229345,6.25369014 L12.4304831,5.18199437 L29.6145508,83.515538 C33.0539143,88.8574123 37.154745,91.718678 41.9170429,92.0993352 C46.6793408,92.4799924 51.5276388,90.3340431 56.4619368,85.6614873 L84.3870068,6.25369014 L91.9026366,7.32538592 L71.498316,92.0993352 L73.4819413,162.756338 L20.9819413,162.756338 L14.5781716,88.8816901 Z" id="Fill-48" fill="#37BDD1"></path>
                        <path d="M32,114.978492 L33.6066272,113.074421 C34.6454622,113.901579 35.7688308,114.315402 36.9772216,114.315402 C37.3578672,114.315402 37.6486042,114.251625 37.8508985,114.12407 C38.0527041,113.996515 38.1538513,113.812973 38.1538513,113.571982 C38.1538513,113.350952 38.0346247,113.170817 37.7966601,113.031091 C37.5586956,112.891852 37.0974255,112.742876 36.4143157,112.584163 C36.0629882,112.502372 35.7575922,112.42691 35.4986164,112.356804 C35.239152,112.287671 34.9645399,112.199551 34.6738029,112.093418 C34.383066,111.987771 34.1358174,111.877256 33.9325458,111.762359 C33.7292742,111.646489 33.5304004,111.50725 33.3369015,111.343668 C33.1429139,111.180087 32.9880171,111.003847 32.8717223,110.813488 C32.7554275,110.624104 32.6620985,110.401613 32.5917353,110.146504 C32.5218607,109.891881 32.486679,109.612916 32.486679,109.309608 C32.486679,108.334447 32.8507111,107.538447 33.5792637,106.923068 C34.3073278,106.307203 35.2860608,106 36.5154629,106 C38.2198168,106 39.643695,106.456666 40.7880749,107.369997 L39.3441627,109.396267 C38.3747136,108.718572 37.4077078,108.379724 36.4431451,108.379724 C36.1059879,108.379724 35.8489667,108.443501 35.6706154,108.571056 C35.4927528,108.698611 35.4038215,108.865114 35.4038215,109.072025 C35.4038215,109.312529 35.5225595,109.498506 35.760524,109.630929 C35.9989772,109.763352 36.4768608,109.911355 37.1941749,110.07445 C37.8289099,110.214176 38.3693387,110.36656 38.8139952,110.532089 C39.2596291,110.698105 39.65982,110.906477 40.0150566,111.155744 C40.3707818,111.405985 40.6356212,111.710266 40.8095748,112.068588 C40.9840169,112.42691 41.0709937,112.846088 41.0709937,113.326609 C41.0709937,114.370416 40.6893709,115.192219 39.9261253,115.793479 C39.1628796,116.394253 38.1440786,116.694639 36.8692336,116.694639 C35.9315458,116.694639 35.0422327,116.549558 34.2017829,116.258908 C33.3613331,115.967772 32.6269169,115.540804 32,114.978492" id="Fill-35" fill="#FFFFFF"></path>
                        <polygon id="Fill-36" fill="#FFFFFF" points="43 116.341673 45.8731654 116.341673 45.8731654 106 43 106"></polygon>
                        <path d="M47,111.361195 C47,110.617288 47.1412151,109.915737 47.4231567,109.256541 C47.7055869,108.596372 48.0930733,108.028218 48.5851273,107.551105 C49.0771813,107.073505 49.6698939,106.695709 50.3622876,106.417718 C51.0541928,106.139239 51.7964272,106 52.5880136,106 C53.4631563,106 54.2381292,106.129015 54.9114662,106.386559 C55.5852919,106.644103 56.2102543,107.023846 56.7878192,107.524328 L55.1030106,109.541349 C54.7174787,109.219054 54.3270605,108.97855 53.9322446,108.819837 C53.53694,108.661123 53.0937493,108.582254 52.602184,108.582254 C51.854086,108.582254 51.2247259,108.854403 50.7131266,109.399675 C50.2015272,109.944461 49.9459718,110.612419 49.9459718,111.403551 C49.9459718,112.247262 50.2103226,112.943945 50.7380469,113.492625 C51.2667484,114.041305 51.9410627,114.315402 52.7614785,114.315402 C53.4323724,114.315402 53.9874602,114.166426 54.4262531,113.8675 L54.4262531,112.570044 L52.3632421,112.570044 L52.3632421,110.499957 L57.1406126,110.499957 L57.1406126,115.170798 C55.8418246,116.225803 54.3431854,116.753061 52.6456723,116.753061 C51.5789853,116.753061 50.6163771,116.525215 49.7578479,116.07001 C48.8988301,115.614805 48.2240271,114.975084 47.7349049,114.150847 C47.2448054,113.327096 47,112.397212 47,111.361195" id="Fill-37" fill="#FFFFFF"></path>
                        <path d="M40.1726826,87.2696869 C41.6717154,87.6815096 39.2854394,90.6642195 40.9571106,91.7591549 C41.5786724,92.1662744 43.4463236,92.1951406 45.4367946,91.7591549 C47.7425334,91.2541141 50.2004843,90.2146238 50.8764108,89.8408451 C51.290597,89.6118054 49.847105,84.6381182 50.236456,84.4056338 C55.2114349,81.4350359 58.86572,76.9123977 60.2482403,71.8422638 C62.4807346,63.6653341 57.6835463,55.2229014 49.5333935,52.9830723 C41.3832407,50.7432432 32.9684543,55.5561925 30.73596,63.7331221 C28.5034656,71.9128763 32.0253451,85.0326823 40.1726826,87.2696869 Z" id="Fill-49" fill="#F1C1B4"></path>
                        <path d="M41.5561796,58.951811 C39.8802194,58.4977111 37.5400928,57.3596583 36.6498273,55.7955364 L36.4774266,55.3666643 C40.1147973,52.7654007 44.826139,51.7002281 49.4894347,52.9672229 C57.6713989,55.1900699 62.4873116,63.5684933 60.2461034,71.6834266 C58.6492779,77.4774049 53.22855,83.9132899 47.2793152,86.3239437 C47.3895385,84.6897447 47.7880383,83.0695611 48.2119743,81.4774083 C49.9077182,75.061145 51.7956464,68.6953372 53.8672802,62.3911973 C49.6844453,61.5642869 45.5637876,60.4122187 41.5561796,58.951811" id="Fill-50" fill="#484848"></path>
                        <path d="M51.0679071,71.2108715 C52.14247,70.4177053 53.6145116,70.0584314 54.8398423,70.5890513 C55.1221892,70.7106517 55.39083,70.8792341 55.6073873,71.1003257 C56.1994934,71.6972731 56.372191,72.6065125 56.300919,73.4494243 C56.1035503,75.7708865 54.2066177,77.7192566 51.999926,78.4074043 C51.3721838,78.6036231 50.7088057,78.7114053 50.0591337,78.6146777 C49.4094617,78.5151865 48.7789783,78.1890763 48.4006883,77.6474018 C47.0136249,75.6520498 49.519111,72.3467298 51.0679071,71.2108715" id="Fill-51" fill="#F1C1B4"></path>
                        <polygon id="Fill-54" fill="#303030" points="38.1387494 290.982028 13.3571377 290.982028 16.3188488 288.705634 28.1580135 286.787324 31.808316 285.255234 38.1387494 285.401025"></polygon>
                        <polygon id="Fill-54" fill="#303030" transform="translate(69.346788, 288.052130) scale(-1, 1) translate(-69.346788, -288.052130) " points="81.7375937 290.915527 56.9559819 290.915527 59.917693 288.639132 71.7568578 286.720823 75.4071603 285.188732 81.7375937 285.334524"></polygon>
                        <path d="M45.1984821,74.8770107 C40.2909199,75.4234693 36.3882527,70.3630348 31.4890414,69.7283459 C31.1856244,69.6884999 30.8599381,69.668577 30.5787902,69.8023455 C30.2169167,69.97596 30.0081435,70.3658809 29.8272067,70.7301867 C29.2036707,71.968257 28.585702,73.2063273 27.9649497,74.4415515 C27.3274955,75.705237 26.6900413,76.9888456 26.4088933,78.3777612 C26.0776399,80.0455985 26.2836294,81.7703585 26.5592101,83.4467342 C26.7791178,84.7758809 27.0463475,86.1135661 27.6281289,87.323175 C28.6692113,89.4805481 30.6706504,91.060155 32.8808628,91.8855352 C35.0910752,92.7137616 37.5044935,92.8389917 39.8483207,92.6283774 C41.4516989,92.4832243 43.0606444,92.1729952 44.4942205,91.4329992 C47.6731405,89.7964695 49.6049886,85.9513362 49.0593946,82.3538169 C48.9257798,81.4658217 48.6529828,80.5806725 48.7504103,79.686985 C48.8394868,78.8160666 49.2709515,78.02484 49.6940652,77.2592287 C50.1728517,76.3911565 53.4130119,72.050795 50.8771134,72.0251798 C50.108828,72.0166414 48.9925872,73.3657111 48.316162,73.7641705 C47.3558052,74.3362444 46.3119392,74.7546267 45.1984821,74.8770107" id="Fill-55" fill="#484848"></path>
                        <path d="M85.5722032,33.626693 L85.5722032,33.626693 L91.9026366,7.32538592 L85.5722032,33.626693 M74.759526,33.626693 L74.759526,33.626693 L84.3870068,6.25369014 L74.759526,33.626693" id="Fill-56" fill="#8EACCF"></path>
                        <polyline id="Fill-58" fill="#8EACCF" points="8.11462754 33.626693 8.11462754 33.626693 4.91229345 6.25369014 8.11462754 33.626693"></polyline>
                    </g>
                    <path d="M236.66765,63.9809876 L260.320295,75.876804 L262.083049,75.0606927 L246.158175,67.1573472 L265.668516,73.4007112 L267.551185,72.5290822 L243.345912,61.0040933 L241.717878,61.7298039 L257.86605,69.5222011 L238.39536,63.2108458 L236.66765,63.9809876 Z M260.759273,64.4460476 C261.793692,64.9186268 262.840008,65.3595297 263.898633,65.7685132 C264.957768,66.1771551 265.96844,66.5185082 266.930967,66.79239 C267.894386,67.0656731 268.758157,67.2424485 269.522287,67.322735 C270.287281,67.4024408 270.879338,67.3457448 271.297825,67.1530808 C271.716312,66.9604168 271.833738,66.6907214 271.649455,66.3444223 C271.464307,65.9987038 271.066253,65.6092128 270.455261,65.1759511 C269.843377,64.7432881 269.082863,64.2897902 268.173984,63.8152511 C267.264595,63.3410537 266.285045,62.8728133 265.235685,62.4102597 C264.139686,61.9271481 263.03858,61.4776401 261.932728,61.0614567 C260.827403,60.6449196 259.785999,60.2982622 258.808768,60.0212838 C257.832443,59.743698 256.967245,59.5613983 256.213118,59.4743996 C255.459857,59.3868201 254.885291,59.4317792 254.488755,59.6097137 C254.092219,59.7876481 253.992285,60.0456065 254.188301,60.384032 C254.383452,60.7230382 254.791655,61.1122 255.412894,61.5515493 C256.033227,61.9915061 256.809315,62.4604802 257.741463,62.9582952 C258.673084,63.4564639 259.678879,63.9524648 260.759273,64.4460476 Z M258.947941,65.2698071 C257.119721,64.4224542 255.51417,63.5947506 254.129833,62.7876154 C252.743621,61.9817388 251.634588,61.2342125 250.802144,60.5453879 C249.967083,59.8583202 249.458185,59.254644 249.275775,58.7341138 C249.091197,58.2150379 249.300216,57.8215114 249.904463,57.5524317 C250.516079,57.2800706 251.39838,57.1870328 252.553007,57.2722333 C253.709784,57.3559905 255.051255,57.5843583 256.57781,57.9571079 C258.106983,58.3281004 259.764704,58.822204 261.550467,59.4398075 C263.338106,60.0561523 265.17074,60.7713947 267.047016,61.5865001 C268.876386,62.381228 270.489272,63.1651205 271.884335,63.9391314 C273.27755,64.7143826 274.381277,65.4395426 275.195011,66.1149951 C276.006178,66.7921702 276.484379,67.3974157 276.629969,67.9305217 C276.773445,68.4650459 276.512058,68.8868148 275.847388,69.1947772 C275.190725,69.4990293 274.271477,69.6237564 273.091214,69.5678905 C271.91308,69.5105954 270.571798,69.3011303 269.067655,68.9392689 C267.566078,68.5756849 265.949357,68.0799954 264.216902,67.4525474 C262.486296,66.823859 260.730455,66.0959761 258.947941,65.2698071 Z M280.194656,62.5240642 L281.84975,61.7627322 C282.117718,61.6394684 282.245816,61.4658031 282.233744,61.2419333 C282.221271,61.0183331 282.006525,60.73668 281.589254,60.3971296 C281.171256,60.0580673 280.52678,59.6617418 279.655826,59.2081284 C278.784171,58.7549858 277.636795,58.2410632 276.214191,57.6659921 C274.912147,57.1396559 273.6966,56.6826798 272.567905,56.294788 C271.439731,55.9065466 270.411572,55.6020219 269.483645,55.3810401 C268.556566,55.1594886 267.746402,55.0345723 267.053052,55.0063402 C266.360444,54.9776091 265.797033,55.0606987 265.362244,55.2559856 L264.102861,55.8216415 L280.194656,62.5240642 Z M257.643817,54.6306761 L261.054935,53.1101397 C261.564391,52.8830454 262.303259,52.7792964 263.272683,52.7981379 C264.243601,52.8159771 265.422141,52.96637 266.808857,53.2489735 C268.197756,53.5301116 269.783806,53.9483276 271.566799,54.5038047 C273.351637,55.0580437 275.323677,55.7644168 277.481596,56.6238735 C279.372806,57.3771052 281.040803,58.1078985 282.484507,58.8170331 C283.926705,59.5271783 285.068764,60.1883144 285.910184,60.8008197 C286.749387,61.4148132 287.259468,61.9672617 287.440682,62.4580208 C287.619997,62.9500536 287.381177,63.3482911 286.725637,63.6517898 L283.032246,65.3617373 L257.643817,54.6306761 Z M267.927011,50.0468512 L294.166379,60.2069118 L300.665786,57.1978484 L295.722979,55.381139 L291.171472,57.4748019 L284.704989,55.0082553 L288.717714,53.1788297 L284.15547,51.4956517 L280.196926,53.2887199 L274.543372,51.1322535 L278.782545,49.2282155 L273.841094,47.4105965 L267.927011,50.0468512 Z" id="NODE" fill="#FFFFFF" transform="translate(268.666718, 61.643700) rotate(3.000000) translate(-268.666718, -61.643700) "></path>
                    <path d="M412.828,158.491934 L412.828,166.206647 L414.413407,165.518054 L414.413407,160.085758 L416.322367,164.688932 L417.627361,164.122131 L419.514751,157.754018 L419.536321,163.293009 L421.121728,162.604416 L421.121728,154.747817 L418.738225,155.823824 L417.034182,161.947797 L415.211503,157.415926 L412.828,158.491934 Z M423.508826,153.670186 L423.508826,161.567623 L425.202084,160.832187 L425.202084,152.905783 L423.508826,153.670186 Z M427.589182,151.828152 L427.589182,159.795394 L429.174589,159.106801 L429.174589,153.754832 L429.196159,153.745216 L432.399329,157.706194 L434.092587,156.970758 L434.092587,148.892258 L432.50718,149.607973 L432.50718,155.009388 L432.485609,155.018878 L429.271655,151.068617 L427.589182,151.828152 Z M436.479685,147.814627 L436.479685,155.933965 L442.325199,153.395071 L442.325199,151.875529 L438.172943,153.692119 L438.172943,151.694986 L441.904581,150.046767 L441.904581,148.643571 L438.172943,150.302698 L438.172943,148.556633 L442.238918,146.73395 L442.238918,145.214681 L436.479685,147.814627 Z M446.060432,147.236679 L447.915467,146.4136 C448.303731,146.241326 448.594926,146.018829 448.789058,145.745989 C448.983191,145.473001 449.080255,145.126331 449.080255,144.706082 C449.080255,144.301397 448.983191,144.051061 448.789058,143.955173 C448.594926,143.859431 448.303731,143.898686 447.915467,144.072829 L446.060432,144.904842 L446.060432,147.236679 Z M444.367175,144.253902 L448.519431,142.379409 C448.864556,142.223606 449.175522,142.143548 449.452341,142.139335 C449.729159,142.135259 449.966429,142.193967 450.164156,142.315487 C450.361884,142.437177 450.512873,142.6132 450.61713,142.843523 C450.721386,143.073965 450.773513,143.349319 450.773513,143.669506 C450.773513,144.161501 450.678246,144.629488 450.487709,145.073272 C450.297171,145.516775 449.986204,145.927535 449.554799,146.305527 C449.763312,146.299001 449.935871,146.318186 450.072483,146.386467 C450.209095,146.454819 450.320539,146.557754 450.40682,146.695265 C450.493102,146.832839 450.556014,146.998321 450.595559,147.191695 C450.635105,147.385103 450.662067,147.584063 450.676448,147.788566 C450.683638,147.91815 450.690828,148.071161 450.698018,148.247602 C450.705208,148.424049 450.71779,148.602048 450.735765,148.781611 C450.753741,148.961187 450.782501,149.126316 450.822046,149.277012 C450.861592,149.427734 450.920909,149.544503 451,149.627328 L449.306742,150.362764 C449.213271,150.138688 449.155751,149.848471 449.134181,149.492052 C449.112611,149.135666 449.080256,148.799603 449.037115,148.483874 C448.979594,148.073369 448.857365,147.80814 448.670422,147.688218 C448.48348,147.568452 448.177906,147.60217 447.75369,147.789256 L446.060432,148.536011 L446.060432,151.77274 L444.367175,152.508176 L444.367175,144.253902 Z" id="MINER" fill="#E1E1E4"></path>
                </g>
            </g>
        </g>
    </g>
</svg>