<?xml version="1.0" encoding="UTF-8"?>
<svg width="1221px" height="97px" viewBox="0 0 1221 97" version="1.1" xmlns="http://www.w3.org/2000/svg" xmlns:xlink="http://www.w3.org/1999/xlink">
    <!-- Generator: Sketch 47.1 (45422) - http://www.bohemiancoding.com/sketch -->
    <title>Page 1</title>
    <desc>Created with Sketch.</desc>
    <defs>
        <polygon id="path-1" points="1205 0.58432 1205 88.8 0.17667152 88.8 0.17667152 0.58432 1205 0.58432"></polygon>
    </defs>
    <g id="Page-1" stroke="none" stroke-width="1" fill="none" fill-rule="evenodd">
        <g id="Main-New" transform="translate(-219.000000, -5619.000000)">
            <g id="smartcontracts" transform="translate(219.000000, 5618.000000)">
                <g id="Page-1">
                    <g id="Group-49" transform="translate(23.204140, 9.400000)">
                        <g id="Group-27">
                            <mask id="mask-2" fill="white">
                                <use xlink:href="#path-1"></use>
                            </mask>
                            <g id="Clip-26"></g>
                            <polyline id="Stroke-25" stroke="#55589A" stroke-width="3.2" mask="url(#mask-2)" points="0 12 73.3442855 12 100.238684 35.0158153 366.721428 35.0158153 391.17059 14.0925958 781.688263 14.0925958 857.0041 78.544 978.52338 78.544 1014.69943 47.5850853 1197.79586 47.5850853"></polyline>
                        </g>
                    </g>
                    <path d="M8.06270617,7.8 C8.06270617,7.8 4.63445406,12.419154 2.66259657,17.2884393 C0.710528337,22.1660011 0,27.8270625 0,27.8270625 C0,27.8270625 4.81302849,31.2286653 9.82347832,33.1492512 C14.833457,35.0702969 20.7226438,35.8 20.7226438,35.8 C20.7226438,35.8 24.1603193,31.1564766 26.1321768,26.2867315 C28.0847162,21.4091697 28.8051392,15.7241986 28.8051392,15.7241986 C28.8051392,15.7241986 23.9817449,12.3469653 18.9717662,10.4259196 C13.9617876,8.50533368 8.06270617,7.8 8.06270617,7.8" id="Fill-33" fill="#55589A"></path>
                    <path d="M200.671248,21.4 C200.671248,21.4 194.957495,29.1865738 191.671066,37.3947977 C188.417619,45.6169732 187.233405,55.1599054 187.233405,55.1599054 C187.233405,55.1599054 195.255119,60.8940357 203.605869,64.1315949 C211.955833,67.3699291 221.771144,68.6 221.771144,68.6 C221.771144,68.6 227.500604,60.7723463 230.787033,52.5633473 C234.041265,44.3411718 235.24197,34.7579348 235.24197,34.7579348 C235.24197,34.7579348 227.20298,29.0648844 218.853015,25.8265502 C210.503051,22.5889911 200.671248,21.4 200.671248,21.4" id="Fill-33" stroke="#55589A" stroke-width="3" fill="#F7F7FC" transform="translate(211.237687, 45.000000) rotate(-36.000000) translate(-211.237687, -45.000000) "></path>
                    <path d="M753.160243,3 C753.160243,3 748.414922,9.46681555 745.685515,16.283815 C742.9835,23.1124015 742,31.0378875 742,31.0378875 C742,31.0378875 748.662102,35.8001314 755.59747,38.4889517 C762.532186,41.1784157 770.683885,42.2 770.683885,42.2 C770.683885,42.2 775.44225,35.6990673 778.171657,28.8814241 C780.874325,22.0528376 781.87152,14.0938781 781.87152,14.0938781 C781.87152,14.0938781 775.195071,9.36575145 768.260354,6.67628744 C761.325638,3.98746716 753.160243,3 753.160243,3" id="Fill-33" stroke="#55589A" stroke-width="3" fill="#F7F7FC"></path>
                    <path d="M957.062706,70 C957.062706,70 953.634454,74.619154 951.662597,79.4884393 C949.710528,84.3660011 949,90.0270625 949,90.0270625 C949,90.0270625 953.813028,93.4286653 958.823478,95.3492512 C963.833457,97.2702969 969.722644,98 969.722644,98 C969.722644,98 973.160319,93.3564766 975.132177,88.4867315 C977.084716,83.6091697 977.805139,77.9241986 977.805139,77.9241986 C977.805139,77.9241986 972.981745,74.5469653 967.971766,72.6259196 C962.961788,70.7053337 957.062706,70 957.062706,70" id="Fill-33" fill="#55589A"></path>
                    <path d="M444.684149,6.2 C444.684149,6.2 440.684522,11.6110089 438.384021,17.3150289 C436.106609,23.0287441 435.277659,29.6602733 435.277659,29.6602733 C435.277659,29.6602733 440.892859,33.6450079 446.738384,35.8948371 C452.583359,38.1452049 459.454077,39 459.454077,39 C459.454077,39 463.464698,33.560444 465.765198,27.8558854 C468.043161,22.1421703 468.883655,15.4826327 468.883655,15.4826327 C468.883655,15.4826327 463.256361,11.5264451 457.411386,9.27607725 C451.566411,7.02624803 444.684149,6.2 444.684149,6.2" id="Fill-33" fill="#55589A" transform="translate(452.080657, 22.600000) rotate(-64.000000) translate(-452.080657, -22.600000) "></path>
                </g>
            </g>
        </g>
    </g>
</svg>