<?xml version="1.0" encoding="UTF-8"?>
<svg width="410px" height="170px" viewBox="0 0 410 170" version="1.1" xmlns="http://www.w3.org/2000/svg" xmlns:xlink="http://www.w3.org/1999/xlink">
    <!-- Generator: Sketch 47.1 (45422) - http://www.bohemiancoding.com/sketch -->
    <title>1 copy 5</title>
    <desc>Created with Sketch.</desc>
    <defs>
        <rect id="path-1" x="0" y="0" width="390" height="150" rx="8"></rect>
        <filter x="-4.0%" y="-9.7%" width="107.9%" height="120.7%" filterUnits="objectBoundingBox" id="filter-3">
            <feOffset dx="0" dy="1" in="SourceAlpha" result="shadowOffsetOuter1"></feOffset>
            <feGaussianBlur stdDeviation="5" in="shadowOffsetOuter1" result="shadowBlurOuter1"></feGaussianBlur>
            <feColorMatrix values="0 0 0 0 0   0 0 0 0 0   0 0 0 0 0  0 0 0 0.36 0" type="matrix" in="shadowBlurOuter1"></feColorMatrix>
        </filter>
    </defs>
    <g id="Page-1" stroke="none" stroke-width="1" fill="none" fill-rule="evenodd">
        <g id="1-copy-5" transform="translate(10.000000, 9.000000)">
            <g id="Group-4">
                <mask id="mask-2" fill="white">
                    <use xlink:href="#path-1"></use>
                </mask>
                <g id="Rectangle-24">
                    <use fill="black" fill-opacity="1" filter="url(#filter-3)" xlink:href="#path-1"></use>
                    <use fill="#FFFFFF" fill-rule="evenodd" xlink:href="#path-1"></use>
                </g>
                <path d="M346.979315,89.4976336 C346.979315,89.4976336 337.339076,102.365277 331.794216,115.929715 C326.305004,129.517208 324.306999,145.287308 324.306999,145.287308 C324.306999,145.287308 337.841227,154.763201 351.930603,160.113405 C366.018654,165.464889 382.579037,167.497634 382.579037,167.497634 C382.579037,167.497634 392.245774,154.562104 397.790634,140.996386 C403.281171,127.408892 405.306999,111.572187 405.306999,111.572187 C405.306999,111.572187 391.743623,102.16418 377.655572,96.8126953 C363.567521,91.4624917 346.979315,89.4976336 346.979315,89.4976336" id="Fill-33" fill="#55589A" mask="url(#mask-2)"></path>
            </g>
            <path d="M166.224,38.256 C165.338662,38.256 164.549337,38.1040015 163.856,37.8 C163.162663,37.4959985 162.576002,37.077336 162.096,36.544 C161.615998,36.010664 161.248001,35.3840036 160.992,34.664 C160.735999,33.9439964 160.608,33.1680042 160.608,32.336 C160.608,31.4933291 160.735999,30.7040037 160.992,29.968 C161.248001,29.2319963 161.615998,28.5920027 162.096,28.048 C162.576002,27.5039973 163.162663,27.0773349 163.856,26.768 C164.549337,26.4586651 165.338662,26.304 166.224,26.304 C166.84267,26.304 167.434664,26.3946658 168,26.576 C168.565336,26.7573342 169.069331,27.0213316 169.512,27.368 C169.954669,27.7146684 170.319999,28.1439974 170.608,28.656 C170.896001,29.1680026 171.077333,29.7546634 171.152,30.416 L168.72,30.416 C168.677333,30.1279986 168.581334,29.8640012 168.432,29.624 C168.282666,29.3839988 168.096001,29.1733342 167.872,28.992 C167.647999,28.8106658 167.394668,28.6693338 167.112,28.568 C166.829332,28.4666662 166.533335,28.416 166.224,28.416 C165.658664,28.416 165.178669,28.5253322 164.784,28.744 C164.389331,28.9626678 164.069335,29.2559982 163.824,29.624 C163.578665,29.9920018 163.400001,30.4106643 163.288,30.88 C163.175999,31.3493357 163.12,31.8346642 163.12,32.336 C163.12,32.8160024 163.175999,33.2826644 163.288,33.736 C163.400001,34.1893356 163.578665,34.5973315 163.824,34.96 C164.069335,35.3226685 164.389331,35.6133322 164.784,35.832 C165.178669,36.0506678 165.658664,36.16 166.224,36.16 C166.992004,36.16 167.591998,35.9253357 168.024,35.456 C168.456002,34.9866643 168.72,34.3680038 168.816,33.6 L171.248,33.6 C171.184,34.325337 171.018668,34.9733305 170.752,35.544 C170.485332,36.1146695 170.133336,36.6026646 169.696,37.008 C169.258664,37.4133354 168.74667,37.7226656 168.16,37.936 C167.57333,38.1493344 166.928004,38.256 166.224,38.256 Z M176.836,38.208 C176.18533,38.208 175.598669,38.1066677 175.076,37.904 C174.553331,37.7013323 174.105335,37.4106686 173.732,37.032 C173.358665,36.6533314 173.070668,36.197336 172.868,35.664 C172.665332,35.130664 172.564,34.5333366 172.564,33.872 C172.564,33.2106634 172.665332,32.6106694 172.868,32.072 C173.070668,31.5333306 173.358665,31.0746686 173.732,30.696 C174.105335,30.3173314 174.553331,30.024001 175.076,29.816 C175.598669,29.607999 176.18533,29.504 176.836,29.504 C177.48667,29.504 178.075997,29.607999 178.604,29.816 C179.132003,30.024001 179.582665,30.3173314 179.956,30.696 C180.329335,31.0746686 180.617332,31.5333306 180.82,32.072 C181.022668,32.6106694 181.124,33.2106634 181.124,33.872 C181.124,34.5333366 181.022668,35.130664 180.82,35.664 C180.617332,36.197336 180.329335,36.6533314 179.956,37.032 C179.582665,37.4106686 179.132003,37.7013323 178.604,37.904 C178.075997,38.1066677 177.48667,38.208 176.836,38.208 Z M176.836,36.512 C177.220002,36.512 177.542665,36.4373341 177.804,36.288 C178.065335,36.1386659 178.273333,35.9386679 178.428,35.688 C178.582667,35.4373321 178.692,35.1546682 178.756,34.84 C178.82,34.5253318 178.852,34.2026683 178.852,33.872 C178.852,33.5413317 178.82,33.2160016 178.756,32.896 C178.692,32.5759984 178.582667,32.2933346 178.428,32.048 C178.273333,31.8026654 178.065335,31.6026674 177.804,31.448 C177.542665,31.2933326 177.220002,31.216 176.836,31.216 C176.451998,31.216 176.132001,31.2933326 175.876,31.448 C175.619999,31.6026674 175.414667,31.8026654 175.26,32.048 C175.105333,32.2933346 174.996,32.5759984 174.932,32.896 C174.868,33.2160016 174.836,33.5413317 174.836,33.872 C174.836,34.2026683 174.868,34.5253318 174.932,34.84 C174.996,35.1546682 175.105333,35.4373321 175.26,35.688 C175.414667,35.9386679 175.619999,36.1386659 175.876,36.288 C176.132001,36.4373341 176.451998,36.512 176.836,36.512 Z M186.056,38.208 C185.533331,38.208 185.040002,38.1573338 184.576,38.056 C184.111998,37.9546662 183.704002,37.7866678 183.352,37.552 C182.999998,37.3173322 182.720001,37.0186685 182.512,36.656 C182.303999,36.2933315 182.194667,35.845336 182.184,35.312 L184.344,35.312 C184.386667,35.7600022 184.559998,36.1013322 184.864,36.336 C185.168002,36.5706678 185.581331,36.688 186.104,36.688 C186.616003,36.688 186.989332,36.5813344 187.224,36.368 C187.458668,36.1546656 187.576,35.8933349 187.576,35.584 C187.576,35.242665 187.466668,34.9653344 187.248,34.752 C187.029332,34.5386656 186.664003,34.432 186.152,34.432 L185.272,34.432 L185.272,33.008 L185.864,33.008 C186.344002,33.008 186.725332,32.9333341 187.008,32.784 C187.290668,32.6346659 187.432,32.3520021 187.432,31.936 C187.432,31.6906654 187.328001,31.4746676 187.12,31.288 C186.911999,31.1013324 186.584002,31.008 186.136,31.008 C185.677331,31.008 185.317335,31.0853326 185.056,31.24 C184.794665,31.3946674 184.632,31.6959978 184.568,32.144 L182.456,32.144 C182.498667,31.6639976 182.629332,31.2560017 182.848,30.92 C183.066668,30.5839983 183.343998,30.312001 183.68,30.104 C184.016002,29.895999 184.399998,29.7440005 184.832,29.648 C185.264002,29.5519995 185.714664,29.504 186.184,29.504 C187.282672,29.504 188.13333,29.6826649 188.736,30.04 C189.33867,30.3973351 189.64,30.9599962 189.64,31.728 C189.64,31.9733346 189.594667,32.199999 189.504,32.408 C189.413333,32.616001 189.298667,32.7999992 189.16,32.96 C189.021333,33.1200008 188.861334,33.2506662 188.68,33.352 C188.498666,33.4533338 188.322668,33.5199998 188.152,33.552 L188.152,33.584 C188.344001,33.6053334 188.543999,33.6506663 188.752,33.72 C188.960001,33.7893337 189.149332,33.9013326 189.32,34.056 C189.490668,34.2106674 189.631999,34.4079988 189.744,34.648 C189.856001,34.8880012 189.912,35.1893315 189.912,35.552 C189.912,36.0000022 189.818668,36.3893317 189.632,36.72 C189.445332,37.0506683 189.184002,37.3279989 188.848,37.552 C188.511998,37.7760011 188.106669,37.9413328 187.632,38.048 C187.157331,38.1546672 186.632003,38.208 186.056,38.208 Z M190.716,36.288 L191.708,36.288 C191.825334,36.0533322 191.945333,35.7600018 192.068,35.408 C192.190667,35.0559982 192.302666,34.6613355 192.404,34.224 C192.505334,33.7866645 192.588,33.3120026 192.652,32.8 C192.716,32.2879974 192.748,31.7493362 192.748,31.184 L192.748,29.728 L199.356,29.728 L199.356,36.288 L200.428,36.288 L200.428,40.272 L198.3,40.272 L198.3,38 L192.844,38 L192.844,40.272 L190.716,40.272 L190.716,36.288 Z M197.084,36.288 L197.084,31.424 L194.86,31.424 L194.86,31.632 C194.86,32.1440026 194.830667,32.6346643 194.772,33.104 C194.713333,33.5733357 194.636,34.007998 194.54,34.408 C194.444,34.808002 194.342667,35.1679984 194.236,35.488 C194.129333,35.8080016 194.028,36.0746656 193.932,36.288 L197.084,36.288 Z M204.016,38.208 C203.621331,38.208 203.253335,38.1600005 202.912,38.064 C202.570665,37.9679995 202.272001,37.8186677 202.016,37.616 C201.759999,37.4133323 201.560001,37.1573349 201.416,36.848 C201.271999,36.5386651 201.2,36.1706688 201.2,35.744 C201.2,35.2746643 201.282666,34.8880015 201.448,34.584 C201.613334,34.2799985 201.826665,34.0373342 202.088,33.856 C202.349335,33.6746658 202.647998,33.5386671 202.984,33.448 C203.320002,33.3573329 203.658665,33.2853336 204,33.232 C204.341335,33.1786664 204.677332,33.1360002 205.008,33.104 C205.338668,33.0719998 205.631999,33.0240003 205.888,32.96 C206.144001,32.8959997 206.346666,32.8026673 206.496,32.68 C206.645334,32.5573327 206.714667,32.3786678 206.704,32.144 C206.704,31.9093322 206.664,31.7173341 206.584,31.568 C206.504,31.4186659 206.397334,31.3040004 206.264,31.224 C206.130666,31.1439996 205.976001,31.0906668 205.8,31.064 C205.623999,31.0373332 205.434668,31.024 205.232,31.024 C204.783998,31.024 204.432001,31.119999 204.176,31.312 C203.919999,31.504001 203.770667,31.8239978 203.728,32.272 L201.456,32.272 C201.488,31.7493307 201.621332,31.3093351 201.856,30.952 C202.090668,30.5946649 202.389332,30.3093344 202.752,30.096 C203.114668,29.8826656 203.519998,29.7306671 203.968,29.64 C204.416002,29.5493329 204.874664,29.504 205.344,29.504 C205.760002,29.504 206.181331,29.533333 206.608,29.592 C207.034669,29.650667 207.423998,29.7653325 207.776,29.936 C208.128002,30.1066675 208.415999,30.3466651 208.64,30.656 C208.864001,30.9653349 208.976,31.3653309 208.976,31.856 L208.976,36.16 C208.976,36.5333352 208.997333,36.890665 209.04,37.232 C209.082667,37.573335 209.157333,37.8293325 209.264,38 L206.96,38 C206.917333,37.8719994 206.882667,37.741334 206.856,37.608 C206.829333,37.474666 206.810667,37.3386674 206.8,37.2 C206.437332,37.5733352 206.010669,37.8346659 205.52,37.984 C205.029331,38.1333341 204.528003,38.208 204.016,38.208 Z M204.864,36.704 C205.312002,36.704 205.658665,36.6293341 205.904,36.48 C206.149335,36.3306659 206.330666,36.152001 206.448,35.944 C206.565334,35.735999 206.637333,35.5253344 206.664,35.312 C206.690667,35.0986656 206.704,34.9280006 206.704,34.8 L206.704,33.952 C206.608,34.0373338 206.490667,34.1039998 206.352,34.152 C206.213333,34.2000002 206.058668,34.2399998 205.888,34.272 C205.717332,34.3040002 205.541334,34.3306666 205.36,34.352 C205.178666,34.3733334 204.997334,34.3999998 204.816,34.432 C204.634666,34.4640002 204.464001,34.5066664 204.304,34.56 C204.143999,34.6133336 204.002667,34.6853329 203.88,34.776 C203.757333,34.8666671 203.658667,34.9813326 203.584,35.12 C203.509333,35.2586674 203.472,35.4346656 203.472,35.648 C203.472,35.8613344 203.509333,36.034666 203.584,36.168 C203.658667,36.301334 203.759999,36.4079996 203.888,36.488 C204.016001,36.5680004 204.165332,36.6239998 204.336,36.656 C204.506668,36.6880002 204.682666,36.704 204.864,36.704 Z M210.836,29.728 L213.108,29.728 L213.108,32.736 L216.324,32.736 L216.324,29.728 L218.596,29.728 L218.596,38 L216.324,38 L216.324,34.528 L213.108,34.528 L213.108,38 L210.836,38 L210.836,29.728 Z M220.424,29.728 L222.6,29.728 L222.6,35.328 L225.72,29.728 L228.296,29.728 L228.296,38 L226.12,38 L226.12,32.4 L223,38 L220.424,38 L220.424,29.728 Z M233.948,38.208 C233.29733,38.208 232.710669,38.104001 232.188,37.896 C231.665331,37.687999 231.222668,37.3920019 230.86,37.008 C230.497332,36.6239981 230.217334,36.165336 230.02,35.632 C229.822666,35.098664 229.724,34.5120032 229.724,33.872 C229.724,33.2533302 229.825332,32.677336 230.028,32.144 C230.230668,31.610664 230.518665,31.1493353 230.892,30.76 C231.265335,30.3706647 231.710664,30.0640011 232.228,29.84 C232.745336,29.6159989 233.318664,29.504 233.948,29.504 C234.609337,29.504 235.193331,29.6266654 235.7,29.872 C236.206669,30.1173346 236.627998,30.4453313 236.964,30.856 C237.300002,31.2666687 237.553332,31.7439973 237.724,32.288 C237.894668,32.8320027 237.98,33.3973304 237.98,33.984 L237.98,34.2 C237.98,34.2693337 237.974667,34.341333 237.964,34.416 L231.996,34.416 C232.028,35.1520037 232.214665,35.6853317 232.556,36.016 C232.897335,36.3466683 233.387997,36.512 234.028,36.512 C234.486669,36.512 234.881332,36.3973345 235.212,36.168 C235.542668,35.9386655 235.745333,35.6960013 235.82,35.44 L237.82,35.44 C237.499998,36.432005 237.009337,37.1413312 236.348,37.568 C235.686663,37.9946688 234.886671,38.208 233.948,38.208 Z M235.692,32.976 C235.585333,32.3999971 235.396001,31.9626682 235.124,31.664 C234.851999,31.3653318 234.438669,31.216 233.884,31.216 C233.510665,31.216 233.206668,31.2773327 232.972,31.4 C232.737332,31.5226673 232.548001,31.6746658 232.404,31.856 C232.259999,32.0373342 232.158667,32.2293323 232.1,32.432 C232.041333,32.6346677 232.006667,32.8159992 231.996,32.976 L235.692,32.976 Z M243.956,29.728 L246.132,29.728 L246.132,35.328 L249.252,29.728 L251.828,29.728 L251.828,38 L249.652,38 L249.652,32.4 L246.532,38 L243.956,38 L243.956,29.728 Z M253.656,29.728 L255.928,29.728 L255.928,32.736 L259.144,32.736 L259.144,29.728 L261.416,29.728 L261.416,38 L259.144,38 L259.144,34.528 L255.928,34.528 L255.928,38 L253.656,38 L253.656,29.728 Z M265.26,31.44 L262.54,31.44 L262.54,29.728 L270.252,29.728 L270.252,31.44 L267.532,31.44 L267.532,38 L265.26,38 L265.26,31.44 Z M275.2,38.208 C274.54933,38.208 273.962669,38.104001 273.44,37.896 C272.917331,37.687999 272.474668,37.3920019 272.112,37.008 C271.749332,36.6239981 271.469334,36.165336 271.272,35.632 C271.074666,35.098664 270.976,34.5120032 270.976,33.872 C270.976,33.2533302 271.077332,32.677336 271.28,32.144 C271.482668,31.610664 271.770665,31.1493353 272.144,30.76 C272.517335,30.3706647 272.962664,30.0640011 273.48,29.84 C273.997336,29.6159989 274.570664,29.504 275.2,29.504 C275.861337,29.504 276.445331,29.6266654 276.952,29.872 C277.458669,30.1173346 277.879998,30.4453313 278.216,30.856 C278.552002,31.2666687 278.805332,31.7439973 278.976,32.288 C279.146668,32.8320027 279.232,33.3973304 279.232,33.984 L279.232,34.2 C279.232,34.2693337 279.226667,34.341333 279.216,34.416 L273.248,34.416 C273.28,35.1520037 273.466665,35.6853317 273.808,36.016 C274.149335,36.3466683 274.639997,36.512 275.28,36.512 C275.738669,36.512 276.133332,36.3973345 276.464,36.168 C276.794668,35.9386655 276.997333,35.6960013 277.072,35.44 L279.072,35.44 C278.751998,36.432005 278.261337,37.1413312 277.6,37.568 C276.938663,37.9946688 276.138671,38.208 275.2,38.208 Z M276.944,32.976 C276.837333,32.3999971 276.648001,31.9626682 276.376,31.664 C276.103999,31.3653318 275.690669,31.216 275.136,31.216 C274.762665,31.216 274.458668,31.2773327 274.224,31.4 C273.989332,31.5226673 273.800001,31.6746658 273.656,31.856 C273.511999,32.0373342 273.410667,32.2293323 273.352,32.432 C273.293333,32.6346677 273.258667,32.8159992 273.248,32.976 L276.944,32.976 Z M280.66,29.728 L282.82,29.728 L282.82,30.784 L282.852,30.784 C283.129335,30.3359978 283.481331,30.0106677 283.908,29.808 C284.334669,29.6053323 284.803997,29.504 285.316,29.504 C285.96667,29.504 286.526664,29.6266654 286.996,29.872 C287.465336,30.1173346 287.854665,30.4426646 288.164,30.848 C288.473335,31.2533354 288.702666,31.7253306 288.852,32.264 C289.001334,32.8026694 289.076,33.3653304 289.076,33.952 C289.076,34.5066694 289.001334,35.0399974 288.852,35.552 C288.702666,36.0640026 288.476002,36.5173314 288.172,36.912 C287.867998,37.3066686 287.489336,37.6213322 287.036,37.856 C286.582664,38.0906678 286.052003,38.208 285.444,38.208 C284.931997,38.208 284.460002,38.104001 284.028,37.896 C283.595998,37.687999 283.241335,37.3813354 282.964,36.976 L282.932,36.976 L282.932,40.896 L280.66,40.896 L280.66,29.728 Z M284.836,36.512 C285.209335,36.512 285.521332,36.4373341 285.772,36.288 C286.022668,36.1386659 286.225333,35.9440012 286.38,35.704 C286.534667,35.4639988 286.644,35.1866682 286.708,34.872 C286.772,34.5573318 286.804,34.229335 286.804,33.888 C286.804,33.5573317 286.769334,33.2320016 286.7,32.912 C286.630666,32.5919984 286.516001,32.3066679 286.356,32.056 C286.195999,31.8053321 285.990668,31.6026674 285.74,31.448 C285.489332,31.2933326 285.182668,31.216 284.82,31.216 C284.446665,31.216 284.134668,31.2933326 283.884,31.448 C283.633332,31.6026674 283.430667,31.8026654 283.276,32.048 C283.121333,32.2933346 283.012,32.578665 282.948,32.904 C282.884,33.229335 282.852,33.5573317 282.852,33.888 C282.852,34.229335 282.886666,34.5573318 282.956,34.872 C283.025334,35.1866682 283.137333,35.4639988 283.292,35.704 C283.446667,35.9440012 283.649332,36.1386659 283.9,36.288 C284.150668,36.4373341 284.462665,36.512 284.836,36.512 Z M290.536,29.728 L292.808,29.728 L292.808,32.736 L296.024,32.736 L296.024,29.728 L298.296,29.728 L298.296,38 L296.024,38 L296.024,34.528 L292.808,34.528 L292.808,38 L290.536,38 L290.536,29.728 Z M303.948,38.208 C303.29733,38.208 302.710669,38.104001 302.188,37.896 C301.665331,37.687999 301.222669,37.3920019 300.86,37.008 C300.497332,36.6239981 300.217334,36.165336 300.02,35.632 C299.822666,35.098664 299.724,34.5120032 299.724,33.872 C299.724,33.2533302 299.825332,32.677336 300.028,32.144 C300.230668,31.610664 300.518665,31.1493353 300.892,30.76 C301.265335,30.3706647 301.710664,30.0640011 302.228,29.84 C302.745336,29.6159989 303.318664,29.504 303.948,29.504 C304.609337,29.504 305.193331,29.6266654 305.7,29.872 C306.206669,30.1173346 306.627998,30.4453313 306.964,30.856 C307.300002,31.2666687 307.553333,31.7439973 307.724,32.288 C307.894668,32.8320027 307.98,33.3973304 307.98,33.984 L307.98,34.2 C307.98,34.2693337 307.974667,34.341333 307.964,34.416 L301.996,34.416 C302.028,35.1520037 302.214665,35.6853317 302.556,36.016 C302.897335,36.3466683 303.387997,36.512 304.028,36.512 C304.486669,36.512 304.881332,36.3973345 305.212,36.168 C305.542668,35.9386655 305.745333,35.6960013 305.82,35.44 L307.82,35.44 C307.499998,36.432005 307.009337,37.1413312 306.348,37.568 C305.686663,37.9946688 304.886671,38.208 303.948,38.208 Z M305.692,32.976 C305.585333,32.3999971 305.396001,31.9626682 305.124,31.664 C304.851999,31.3653318 304.438669,31.216 303.884,31.216 C303.510665,31.216 303.206668,31.2773327 302.972,31.4 C302.737332,31.5226673 302.548001,31.6746658 302.404,31.856 C302.259999,32.0373342 302.158667,32.2293323 302.1,32.432 C302.041333,32.6346677 302.006667,32.8159992 301.996,32.976 L305.692,32.976 Z M311.424,31.44 L308.704,31.44 L308.704,29.728 L316.416,29.728 L316.416,31.44 L313.696,31.44 L313.696,38 L311.424,38 L311.424,31.44 Z M320.004,38.208 C319.609331,38.208 319.241335,38.1600005 318.9,38.064 C318.558665,37.9679995 318.260001,37.8186677 318.004,37.616 C317.747999,37.4133323 317.548001,37.1573349 317.404,36.848 C317.259999,36.5386651 317.188,36.1706688 317.188,35.744 C317.188,35.2746643 317.270666,34.8880015 317.436,34.584 C317.601334,34.2799985 317.814665,34.0373342 318.076,33.856 C318.337335,33.6746658 318.635998,33.5386671 318.972,33.448 C319.308002,33.3573329 319.646665,33.2853336 319.988,33.232 C320.329335,33.1786664 320.665332,33.1360002 320.996,33.104 C321.326668,33.0719998 321.619999,33.0240003 321.876,32.96 C322.132001,32.8959997 322.334666,32.8026673 322.484,32.68 C322.633334,32.5573327 322.702667,32.3786678 322.692,32.144 C322.692,31.9093322 322.652,31.7173341 322.572,31.568 C322.492,31.4186659 322.385334,31.3040004 322.252,31.224 C322.118666,31.1439996 321.964001,31.0906668 321.788,31.064 C321.611999,31.0373332 321.422668,31.024 321.22,31.024 C320.771998,31.024 320.420001,31.119999 320.164,31.312 C319.907999,31.504001 319.758667,31.8239978 319.716,32.272 L317.444,32.272 C317.476,31.7493307 317.609332,31.3093351 317.844,30.952 C318.078668,30.5946649 318.377332,30.3093344 318.74,30.096 C319.102669,29.8826656 319.507998,29.7306671 319.956,29.64 C320.404002,29.5493329 320.862664,29.504 321.332,29.504 C321.748002,29.504 322.169331,29.533333 322.596,29.592 C323.022669,29.650667 323.411998,29.7653325 323.764,29.936 C324.116002,30.1066675 324.403999,30.3466651 324.628,30.656 C324.852001,30.9653349 324.964,31.3653309 324.964,31.856 L324.964,36.16 C324.964,36.5333352 324.985333,36.890665 325.028,37.232 C325.070667,37.573335 325.145333,37.8293325 325.252,38 L322.948,38 C322.905333,37.8719994 322.870667,37.741334 322.844,37.608 C322.817333,37.474666 322.798667,37.3386674 322.788,37.2 C322.425332,37.5733352 321.998669,37.8346659 321.508,37.984 C321.017331,38.1333341 320.516003,38.208 320.004,38.208 Z M320.852,36.704 C321.300002,36.704 321.646665,36.6293341 321.892,36.48 C322.137335,36.3306659 322.318666,36.152001 322.436,35.944 C322.553334,35.735999 322.625333,35.5253344 322.652,35.312 C322.678667,35.0986656 322.692,34.9280006 322.692,34.8 L322.692,33.952 C322.596,34.0373338 322.478667,34.1039998 322.34,34.152 C322.201333,34.2000002 322.046668,34.2399998 321.876,34.272 C321.705333,34.3040002 321.529334,34.3306666 321.348,34.352 C321.166666,34.3733334 320.985334,34.3999998 320.804,34.432 C320.622666,34.4640002 320.452001,34.5066664 320.292,34.56 C320.131999,34.6133336 319.990667,34.6853329 319.868,34.776 C319.745333,34.8666671 319.646667,34.9813326 319.572,35.12 C319.497333,35.2586674 319.46,35.4346656 319.46,35.648 C319.46,35.8613344 319.497333,36.034666 319.572,36.168 C319.646667,36.301334 319.747999,36.4079996 319.876,36.488 C320.004001,36.5680004 320.153333,36.6239998 320.324,36.656 C320.494668,36.6880002 320.670666,36.704 320.852,36.704 Z" id="Создание-интернета" fill="#303030"></path>
            <path d="M357.095,132.08 L354.575,132.08 C354.468333,133.600008 354.634998,134.946661 355.075,136.12 C355.515002,137.293339 356.168329,138.279996 357.035,139.08 C357.901671,139.880004 358.941661,140.493331 360.155,140.92 C361.368339,141.346669 362.694993,141.56 364.135,141.56 C365.415006,141.56 366.641661,141.380002 367.815,141.02 C368.988339,140.659998 370.014996,140.120004 370.895,139.4 C371.775004,138.679996 372.474997,137.793339 372.995,136.74 C373.515003,135.686661 373.775,134.466674 373.775,133.08 C373.775,131.239991 373.275005,129.700006 372.275,128.46 C371.274995,127.219994 369.855009,126.453335 368.015,126.16 L368.015,126.08 C369.535008,125.706665 370.701663,124.960006 371.515,123.84 C372.328337,122.719994 372.735,121.400008 372.735,119.88 C372.735,118.62666 372.488336,117.553338 371.995,116.66 C371.501664,115.766662 370.848337,115.033336 370.035,114.46 C369.221663,113.886664 368.295005,113.460001 367.255,113.18 C366.214995,112.899999 365.148339,112.76 364.055,112.76 C362.694993,112.76 361.468339,112.993331 360.375,113.46 C359.281661,113.926669 358.355004,114.566663 357.595,115.38 C356.834996,116.193337 356.248335,117.159994 355.835,118.28 C355.421665,119.400006 355.215,120.62666 355.215,121.96 L357.735,121.96 C357.708333,120.919995 357.828332,119.966671 358.095,119.1 C358.361668,118.233329 358.768331,117.48667 359.315,116.86 C359.861669,116.23333 360.534996,115.746668 361.335,115.4 C362.135004,115.053332 363.054995,114.88 364.095,114.88 C364.948338,114.88 365.741663,114.979999 366.475,115.18 C367.208337,115.380001 367.854997,115.699998 368.415,116.14 C368.975003,116.580002 369.414998,117.126663 369.735,117.78 C370.055002,118.433337 370.215,119.226662 370.215,120.16 C370.215,121.040004 370.041668,121.799997 369.695,122.44 C369.348332,123.080003 368.901669,123.606665 368.355,124.02 C367.808331,124.433335 367.195003,124.739999 366.515,124.94 C365.834997,125.140001 365.175003,125.24 364.535,125.24 L362.415,125.24 L362.415,127.36 L364.535,127.36 C365.468338,127.36 366.341663,127.479999 367.155,127.72 C367.968337,127.960001 368.681664,128.326664 369.295,128.82 C369.908336,129.313336 370.388332,129.926663 370.735,130.66 C371.081668,131.393337 371.255,132.266662 371.255,133.28 C371.255,134.266672 371.055002,135.146663 370.655,135.92 C370.254998,136.693337 369.72167,137.346664 369.055,137.88 C368.38833,138.413336 367.628338,138.813332 366.775,139.08 C365.921662,139.346668 365.028338,139.48 364.095,139.48 C362.974994,139.48 361.968338,139.300002 361.075,138.94 C360.181662,138.579998 359.435003,138.080003 358.835,137.44 C358.234997,136.799997 357.781668,136.026671 357.475,135.12 C357.168332,134.213329 357.041666,133.200006 357.095,132.08 Z" id="3" fill="#FFFFFF"></path>
            <path d="M161.248,53.576 L165.392,53.576 C165.637335,53.576 165.901332,53.5786666 166.184,53.584 C166.466668,53.5893334 166.746665,53.6053332 167.024,53.632 C167.301335,53.6586668 167.562665,53.6986664 167.808,53.752 C168.053335,53.8053336 168.255999,53.8853328 168.416,53.992 C168.789335,54.2160011 169.106665,54.5253314 169.368,54.92 C169.629335,55.3146686 169.76,55.7999971 169.76,56.376 C169.76,56.984003 169.613335,57.5093311 169.32,57.952 C169.026665,58.3946689 168.608003,58.7226656 168.064,58.936 L168.064,58.968 C168.768004,59.1173341 169.306665,59.4373309 169.68,59.928 C170.053335,60.4186691 170.24,61.0159965 170.24,61.72 C170.24,62.1360021 170.165334,62.5413314 170.016,62.936 C169.866666,63.3306686 169.645335,63.6799985 169.352,63.984 C169.058665,64.2880015 168.696002,64.5333324 168.264,64.72 C167.831998,64.9066676 167.333336,65 166.768,65 L161.248,65 L161.248,53.576 Z M166.576,63.72 C167.248003,63.72 167.773331,63.5386685 168.152,63.176 C168.530669,62.8133315 168.72,62.3120032 168.72,61.672 C168.72,61.2986648 168.650667,60.9893346 168.512,60.744 C168.373333,60.4986654 168.189334,60.3040007 167.96,60.16 C167.730666,60.0159993 167.466668,59.914667 167.168,59.856 C166.869332,59.797333 166.560002,59.768 166.24,59.768 L162.768,59.768 L162.768,63.72 L166.576,63.72 Z M165.808,58.488 C166.672004,58.488 167.293331,58.3360015 167.672,58.032 C168.050669,57.7279985 168.24,57.272003 168.24,56.664 C168.24,56.2693314 168.176001,55.9520012 168.048,55.712 C167.919999,55.4719988 167.744001,55.2880006 167.52,55.16 C167.295999,55.0319994 167.037335,54.9493335 166.744,54.912 C166.450665,54.8746665 166.138668,54.856 165.808,54.856 L162.768,54.856 L162.768,58.488 L165.808,58.488 Z M174.372,65.176 C173.998665,65.176 173.646668,65.1360004 173.316,65.056 C172.985332,64.9759996 172.694668,64.8426676 172.444,64.656 C172.193332,64.4693324 171.996001,64.2293348 171.852,63.936 C171.707999,63.6426652 171.636,63.2880021 171.636,62.872 C171.636,62.4026643 171.715999,62.0186682 171.876,61.72 C172.036001,61.4213318 172.246665,61.1786676 172.508,60.992 C172.769335,60.8053324 173.067998,60.6640005 173.404,60.568 C173.740002,60.4719995 174.083998,60.3920003 174.436,60.328 C174.809335,60.253333 175.163998,60.1973335 175.5,60.16 C175.836002,60.1226665 176.131999,60.0693337 176.388,60 C176.644001,59.9306663 176.846666,59.829334 176.996,59.696 C177.145334,59.562666 177.22,59.3680013 177.22,59.112 C177.22,58.8133318 177.164001,58.5733342 177.052,58.392 C176.939999,58.2106658 176.796001,58.0720005 176.62,57.976 C176.443999,57.8799995 176.246668,57.8160002 176.028,57.784 C175.809332,57.7519998 175.593334,57.736 175.38,57.736 C174.803997,57.736 174.324002,57.8453322 173.94,58.064 C173.555998,58.2826678 173.348,58.695997 173.316,59.304 L171.956,59.304 C171.977333,58.7919974 172.083999,58.3600018 172.276,58.008 C172.468001,57.6559982 172.723998,57.3706678 173.044,57.152 C173.364002,56.9333322 173.729331,56.7760005 174.14,56.68 C174.550669,56.5839995 174.990664,56.536 175.46,56.536 C175.833335,56.536 176.203998,56.5626664 176.572,56.616 C176.940002,56.6693336 177.273332,56.7786658 177.572,56.944 C177.870668,57.1093342 178.110666,57.3413318 178.292,57.64 C178.473334,57.9386682 178.564,58.3279976 178.564,58.808 L178.564,63.064 C178.564,63.3840016 178.582666,63.6186659 178.62,63.768 C178.657334,63.9173341 178.782666,63.992 178.996,63.992 C179.092,63.992 179.230666,63.9653336 179.412,63.912 L179.412,64.968 C179.177332,65.1066674 178.852002,65.176 178.436,65.176 C178.083998,65.176 177.804001,65.0773343 177.596,64.88 C177.387999,64.6826657 177.284,64.3600022 177.284,63.912 C176.910665,64.3600022 176.476002,64.6826657 175.98,64.88 C175.483998,65.0773343 174.948003,65.176 174.372,65.176 Z M174.676,63.992 C175.124002,63.992 175.507998,63.9306673 175.828,63.808 C176.148002,63.6853327 176.409332,63.5306676 176.612,63.344 C176.814668,63.1573324 176.964,62.9546678 177.06,62.736 C177.156,62.5173322 177.204,62.312001 177.204,62.12 L177.204,60.728 C177.033332,60.8666674 176.809335,60.9626664 176.532,61.016 C176.254665,61.0693336 175.964002,61.1173331 175.66,61.16 C175.355998,61.2026669 175.049335,61.2453331 174.74,61.288 C174.430665,61.3306669 174.153335,61.4053328 173.908,61.512 C173.662665,61.6186672 173.462667,61.7706657 173.308,61.968 C173.153333,62.1653343 173.076,62.434665 173.076,62.776 C173.076,63.0000011 173.121333,63.1893326 173.212,63.344 C173.302667,63.4986674 173.419999,63.6239995 173.564,63.72 C173.708001,63.8160005 173.875999,63.8853331 174.068,63.928 C174.260001,63.9706669 174.462666,63.992 174.676,63.992 Z M180.776,56.728 L182.136,56.728 L182.136,63.8 L185.224,63.8 L185.224,56.728 L186.584,56.728 L186.584,63.8 L189.672,63.8 L189.672,56.728 L191.032,56.728 L191.032,65 L180.776,65 L180.776,56.728 Z M197.728,56.728 L199.088,56.728 L199.088,60.68 L202.88,56.728 L204.688,56.728 L201.024,60.312 L205.12,65 L203.376,65 L199.92,61.064 L199.088,61.88 L199.088,65 L197.728,65 L197.728,56.728 Z M209.812,65.176 C209.150663,65.176 208.572002,65.0666678 208.076,64.848 C207.579998,64.6293322 207.161335,64.3253353 206.82,63.936 C206.478665,63.5466647 206.222668,63.0906693 206.052,62.568 C205.881332,62.0453307 205.796,61.480003 205.796,60.872 C205.796,60.263997 205.881332,59.6960026 206.052,59.168 C206.222668,58.6399974 206.478665,58.1813353 206.82,57.792 C207.161335,57.4026647 207.579998,57.0960011 208.076,56.872 C208.572002,56.6479989 209.150663,56.536 209.812,56.536 C210.46267,56.536 211.038664,56.6479989 211.54,56.872 C212.041336,57.0960011 212.462665,57.4026647 212.804,57.792 C213.145335,58.1813353 213.401332,58.6399974 213.572,59.168 C213.742668,59.6960026 213.828,60.263997 213.828,60.872 C213.828,61.480003 213.742668,62.0453307 213.572,62.568 C213.401332,63.0906693 213.145335,63.5466647 212.804,63.936 C212.462665,64.3253353 212.041336,64.6293322 211.54,64.848 C211.038664,65.0666678 210.46267,65.176 209.812,65.176 Z M209.812,63.992 C210.164002,63.992 210.497332,63.9226674 210.812,63.784 C211.126668,63.6453326 211.401332,63.4453346 211.636,63.184 C211.870668,62.9226654 212.054666,62.5973353 212.188,62.208 C212.321334,61.8186647 212.388,61.3733358 212.388,60.872 C212.388,60.3706642 212.321334,59.9253353 212.188,59.536 C212.054666,59.1466647 211.870668,58.818668 211.636,58.552 C211.401332,58.285332 211.126668,58.0826674 210.812,57.944 C210.497332,57.8053326 210.164002,57.736 209.812,57.736 C209.459998,57.736 209.126668,57.8053326 208.812,57.944 C208.497332,58.0826674 208.222668,58.285332 207.988,58.552 C207.753332,58.818668 207.569334,59.1466647 207.436,59.536 C207.302666,59.9253353 207.236,60.3706642 207.236,60.872 C207.236,61.3733358 207.302666,61.8186647 207.436,62.208 C207.569334,62.5973353 207.753332,62.9226654 207.988,63.184 C208.222668,63.4453346 208.497332,63.6453326 208.812,63.784 C209.126668,63.9226674 209.459998,63.992 209.812,63.992 Z M215.528,56.728 L217.48,56.728 L219.992,63.432 L220.024,63.432 L222.536,56.728 L224.488,56.728 L224.488,65 L223.128,65 L223.128,58.44 L220.632,65 L219.384,65 L216.888,58.44 L216.888,65 L215.528,65 L215.528,56.728 Z M226.636,56.728 L233.388,56.728 L233.388,65 L232.028,65 L232.028,57.928 L227.996,57.928 L227.996,65 L226.636,65 L226.636,56.728 Z M235.616,56.728 L236.976,56.728 L236.976,59.896 L239.92,59.896 C240.730671,59.896 241.381331,60.1173311 241.872,60.56 C242.362669,61.0026689 242.608,61.623996 242.608,62.424 C242.608,63.2026706 242.373336,63.8266643 241.904,64.296 C241.434664,64.7653357 240.794671,65 239.984,65 L235.616,65 L235.616,56.728 Z M239.488,63.8 C240.629339,63.8 241.2,63.3413379 241.2,62.424 C241.2,61.5173288 240.629339,61.064 239.488,61.064 L236.976,61.064 L236.976,63.8 L239.488,63.8 Z M251.108,65.176 C250.52133,65.176 249.998669,65.0773343 249.54,64.88 C249.081331,64.6826657 248.686668,64.4106684 248.356,64.064 C248.025332,63.7173316 247.766668,63.306669 247.58,62.832 C247.393332,62.357331 247.284,61.8373362 247.252,61.272 L245.54,61.272 L245.54,65 L244.18,65 L244.18,56.728 L245.54,56.728 L245.54,60.104 L247.3,60.104 C247.364,59.5919974 247.494666,59.1173355 247.692,58.68 C247.889334,58.2426645 248.147998,57.8666682 248.468,57.552 C248.788002,57.2373318 249.169331,56.9893342 249.612,56.808 C250.054669,56.6266658 250.553331,56.536 251.108,56.536 C251.72667,56.536 252.273331,56.6479989 252.748,56.872 C253.222669,57.0960011 253.625332,57.4026647 253.956,57.792 C254.286668,58.1813353 254.537332,58.6399974 254.708,59.168 C254.878668,59.6960026 254.964,60.263997 254.964,60.872 C254.964,61.480003 254.878668,62.0453307 254.708,62.568 C254.537332,63.0906693 254.286668,63.5466647 253.956,63.936 C253.625332,64.3253353 253.222669,64.6293322 252.748,64.848 C252.273331,65.0666678 251.72667,65.176 251.108,65.176 Z M251.108,63.992 C251.438668,63.992 251.753332,63.9226674 252.052,63.784 C252.350668,63.6453326 252.606666,63.4453346 252.82,63.184 C253.033334,62.9226654 253.203999,62.5973353 253.332,62.208 C253.460001,61.8186647 253.524,61.3733358 253.524,60.872 C253.524,60.3706642 253.460001,59.9253353 253.332,59.536 C253.203999,59.1466647 253.033334,58.818668 252.82,58.552 C252.606666,58.285332 252.350668,58.0826674 252.052,57.944 C251.753332,57.8053326 251.438668,57.736 251.108,57.736 C250.766665,57.736 250.449335,57.8053326 250.156,57.944 C249.862665,58.0826674 249.609334,58.285332 249.396,58.552 C249.182666,58.818668 249.012001,59.1466647 248.884,59.536 C248.755999,59.9253353 248.692,60.3706642 248.692,60.872 C248.692,61.8746717 248.915998,62.6453306 249.364,63.184 C249.812002,63.7226694 250.39333,63.992 251.108,63.992 Z M258.664,57.928 L255.704,57.928 L255.704,56.728 L262.984,56.728 L262.984,57.928 L260.024,57.928 L260.024,65 L258.664,65 L258.664,57.928 Z M267.692,65.176 C267.030663,65.176 266.452002,65.0693344 265.956,64.856 C265.459998,64.6426656 265.046668,64.3440019 264.716,63.96 C264.385332,63.5759981 264.137334,63.117336 263.972,62.584 C263.806666,62.050664 263.724,61.4693365 263.724,60.84 C263.724,60.2213302 263.819999,59.6480026 264.012,59.12 C264.204001,58.5919974 264.473332,58.1360019 264.82,57.752 C265.166668,57.3679981 265.577331,57.0693344 266.052,56.856 C266.526669,56.6426656 267.046664,56.536 267.612,56.536 C268.348004,56.536 268.958664,56.6879985 269.444,56.992 C269.929336,57.2960015 270.318665,57.6826643 270.612,58.152 C270.905335,58.6213357 271.107999,59.1333306 271.22,59.688 C271.332001,60.2426694 271.377333,60.7706642 271.356,61.272 L265.164,61.272 C265.153333,61.6346685 265.196,61.978665 265.292,62.304 C265.388,62.629335 265.542666,62.9173321 265.756,63.168 C265.969334,63.4186679 266.241332,63.6186659 266.572,63.768 C266.902668,63.9173341 267.291998,63.992 267.74,63.992 C268.316003,63.992 268.787998,63.858668 269.156,63.592 C269.524002,63.325332 269.766666,62.9200027 269.884,62.376 L271.228,62.376 C271.046666,63.3146714 270.64667,64.0159977 270.028,64.48 C269.40933,64.9440023 268.630671,65.176 267.692,65.176 Z M269.916,60.072 C269.894667,59.7519984 269.822667,59.4480014 269.7,59.16 C269.577333,58.8719986 269.412001,58.624001 269.204,58.416 C268.995999,58.207999 268.750668,58.0426673 268.468,57.92 C268.185332,57.7973327 267.873335,57.736 267.532,57.736 C267.179998,57.736 266.862668,57.7973327 266.58,57.92 C266.297332,58.0426673 266.054668,58.2106656 265.852,58.424 C265.649332,58.6373344 265.489334,58.8853319 265.372,59.168 C265.254666,59.4506681 265.185333,59.7519984 265.164,60.072 L269.916,60.072 Z M272.912,56.728 L274.272,56.728 L274.272,57.848 L274.304,57.848 C274.528001,57.389331 274.879998,57.056001 275.36,56.848 C275.840002,56.639999 276.367997,56.536 276.944,56.536 C277.584003,56.536 278.141331,56.6533322 278.616,56.888 C279.090669,57.1226678 279.485332,57.439998 279.8,57.84 C280.114668,58.240002 280.351999,58.7013307 280.512,59.224 C280.672001,59.7466693 280.752,60.3013304 280.752,60.888 C280.752,61.4853363 280.674667,62.0426641 280.52,62.56 C280.365333,63.0773359 280.130668,63.5306647 279.816,63.92 C279.501332,64.3093353 279.106669,64.6159989 278.632,64.84 C278.157331,65.0640011 277.605336,65.176 276.976,65.176 C276.762666,65.176 276.533335,65.1546669 276.288,65.112 C276.042665,65.0693331 275.797335,65.0000005 275.552,64.904 C275.306665,64.8079995 275.074668,64.6773342 274.856,64.512 C274.637332,64.3466658 274.453334,64.1413346 274.304,63.896 L274.272,63.896 L274.272,68.152 L272.912,68.152 L272.912,56.728 Z M276.832,63.992 C277.290669,63.992 277.679998,63.9013342 278,63.72 C278.320002,63.5386658 278.575999,63.2986682 278.768,63 C278.960001,62.7013318 279.098666,62.3600019 279.184,61.976 C279.269334,61.5919981 279.312,61.1973354 279.312,60.792 C279.312,60.4079981 279.261334,60.0320018 279.16,59.664 C279.058666,59.2959982 278.904001,58.9680014 278.696,58.68 C278.487999,58.3919986 278.221335,58.1626675 277.896,57.992 C277.570665,57.8213325 277.189336,57.736 276.752,57.736 C276.293331,57.736 275.904002,57.8266658 275.584,58.008 C275.263998,58.1893342 275.002668,58.4266652 274.8,58.72 C274.597332,59.0133348 274.450667,59.3466648 274.36,59.72 C274.269333,60.0933352 274.224,60.4719981 274.224,60.856 C274.224,61.2613354 274.272,61.6533314 274.368,62.032 C274.464,62.4106686 274.615999,62.7439986 274.824,63.032 C275.032001,63.3200014 275.301332,63.5519991 275.632,63.728 C275.962668,63.9040009 276.362664,63.992 276.832,63.992 Z M287,56.728 L288.952,56.728 L291.464,63.432 L291.496,63.432 L294.008,56.728 L295.96,56.728 L295.96,65 L294.6,65 L294.6,58.44 L292.104,65 L290.856,65 L288.36,58.44 L288.36,65 L287,65 L287,56.728 Z M300.396,65.176 C300.022665,65.176 299.670668,65.1360004 299.34,65.056 C299.009332,64.9759996 298.718668,64.8426676 298.468,64.656 C298.217332,64.4693324 298.020001,64.2293348 297.876,63.936 C297.731999,63.6426652 297.66,63.2880021 297.66,62.872 C297.66,62.4026643 297.739999,62.0186682 297.9,61.72 C298.060001,61.4213318 298.270665,61.1786676 298.532,60.992 C298.793335,60.8053324 299.091998,60.6640005 299.428,60.568 C299.764002,60.4719995 300.107998,60.3920003 300.46,60.328 C300.833335,60.253333 301.187998,60.1973335 301.524,60.16 C301.860002,60.1226665 302.155999,60.0693337 302.412,60 C302.668001,59.9306663 302.870666,59.829334 303.02,59.696 C303.169334,59.562666 303.244,59.3680013 303.244,59.112 C303.244,58.8133318 303.188001,58.5733342 303.076,58.392 C302.963999,58.2106658 302.820001,58.0720005 302.644,57.976 C302.467999,57.8799995 302.270668,57.8160002 302.052,57.784 C301.833332,57.7519998 301.617334,57.736 301.404,57.736 C300.827997,57.736 300.348002,57.8453322 299.964,58.064 C299.579998,58.2826678 299.372,58.695997 299.34,59.304 L297.98,59.304 C298.001333,58.7919974 298.107999,58.3600018 298.3,58.008 C298.492001,57.6559982 298.747998,57.3706678 299.068,57.152 C299.388002,56.9333322 299.753331,56.7760005 300.164,56.68 C300.574669,56.5839995 301.014664,56.536 301.484,56.536 C301.857335,56.536 302.227998,56.5626664 302.596,56.616 C302.964002,56.6693336 303.297332,56.7786658 303.596,56.944 C303.894668,57.1093342 304.134666,57.3413318 304.316,57.64 C304.497334,57.9386682 304.588,58.3279976 304.588,58.808 L304.588,63.064 C304.588,63.3840016 304.606667,63.6186659 304.644,63.768 C304.681334,63.9173341 304.806666,63.992 305.02,63.992 C305.116001,63.992 305.254666,63.9653336 305.436,63.912 L305.436,64.968 C305.201332,65.1066674 304.876002,65.176 304.46,65.176 C304.107998,65.176 303.828001,65.0773343 303.62,64.88 C303.411999,64.6826657 303.308,64.3600022 303.308,63.912 C302.934665,64.3600022 302.500003,64.6826657 302.004,64.88 C301.507998,65.0773343 300.972003,65.176 300.396,65.176 Z M300.7,63.992 C301.148002,63.992 301.531998,63.9306673 301.852,63.808 C302.172002,63.6853327 302.433332,63.5306676 302.636,63.344 C302.838668,63.1573324 302.988,62.9546678 303.084,62.736 C303.180001,62.5173322 303.228,62.312001 303.228,62.12 L303.228,60.728 C303.057333,60.8666674 302.833335,60.9626664 302.556,61.016 C302.278665,61.0693336 301.988002,61.1173331 301.684,61.16 C301.379999,61.2026669 301.073335,61.2453331 300.764,61.288 C300.454665,61.3306669 300.177335,61.4053328 299.932,61.512 C299.686665,61.6186672 299.486667,61.7706657 299.332,61.968 C299.177333,62.1653343 299.1,62.434665 299.1,62.776 C299.1,63.0000011 299.145333,63.1893326 299.236,63.344 C299.326667,63.4986674 299.443999,63.6239995 299.588,63.72 C299.732001,63.8160005 299.899999,63.8853331 300.092,63.928 C300.284001,63.9706669 300.486666,63.992 300.7,63.992 Z M306.8,56.728 L308.16,56.728 L308.16,63.48 L312.064,56.728 L313.808,56.728 L313.808,65 L312.448,65 L312.448,58.248 L308.544,65 L306.8,65 L306.8,56.728 Z M310.304,55.512 C309.983998,55.512 309.685335,55.4640005 309.408,55.368 C309.130665,55.2719995 308.888001,55.1333342 308.68,54.952 C308.471999,54.7706658 308.306667,54.5493346 308.184,54.288 C308.061333,54.0266654 308,53.725335 308,53.384 L309.136,53.384 C309.157333,54.1733373 309.54133,54.568 310.288,54.568 C310.661335,54.568 310.946666,54.464001 311.144,54.256 C311.341334,54.047999 311.44,53.7573352 311.44,53.384 L312.576,53.384 C312.576,53.7040016 312.517334,53.997332 312.4,54.264 C312.282666,54.530668 312.122668,54.7546658 311.92,54.936 C311.717332,55.1173342 311.477335,55.2586662 311.2,55.36 C310.922665,55.4613338 310.624002,55.512 310.304,55.512 Z M315.956,56.728 L317.316,56.728 L317.316,60.024 L321.508,60.024 L321.508,56.728 L322.868,56.728 L322.868,65 L321.508,65 L321.508,61.192 L317.316,61.192 L317.316,65 L315.956,65 L315.956,56.728 Z M325.016,56.728 L326.376,56.728 L326.376,63.48 L330.28,56.728 L332.024,56.728 L332.024,65 L330.664,65 L330.664,58.248 L326.76,65 L325.016,65 L325.016,56.728 Z M336.172,57.928 L333.212,57.928 L333.212,56.728 L340.492,56.728 L340.492,57.928 L337.532,57.928 L337.532,65 L336.172,65 L336.172,57.928 Z M167.856,76.92 L169.296,76.92 C169.274667,76.2906635 169.154668,75.7493356 168.936,75.296 C168.717332,74.8426644 168.418669,74.4666682 168.04,74.168 C167.661331,73.8693318 167.221336,73.6506674 166.72,73.512 C166.218664,73.3733326 165.67467,73.304 165.088,73.304 C164.565331,73.304 164.056002,73.370666 163.56,73.504 C163.063998,73.637334 162.621335,73.8399986 162.232,74.112 C161.842665,74.3840014 161.530668,74.7306646 161.296,75.152 C161.061332,75.5733354 160.944,76.0719971 160.944,76.648 C160.944,77.1706693 161.047999,77.6053316 161.256,77.952 C161.464001,78.2986684 161.741332,78.5813322 162.088,78.8 C162.434668,79.0186678 162.826664,79.194666 163.264,79.328 C163.701336,79.461334 164.146664,79.5786662 164.6,79.68 C165.053336,79.7813338 165.498664,79.8799995 165.936,79.976 C166.373336,80.0720005 166.765332,80.1973326 167.112,80.352 C167.458668,80.5066674 167.735999,80.7066654 167.944,80.952 C168.152001,81.1973346 168.256,81.5173314 168.256,81.912 C168.256,82.3280021 168.170668,82.669332 168,82.936 C167.829332,83.202668 167.605335,83.4133326 167.328,83.568 C167.050665,83.7226674 166.738668,83.8319997 166.392,83.896 C166.045332,83.9600003 165.701335,83.992 165.36,83.992 C164.933331,83.992 164.517335,83.9386672 164.112,83.832 C163.706665,83.7253328 163.352002,83.5600011 163.048,83.336 C162.743998,83.1119989 162.498668,82.8266684 162.312,82.48 C162.125332,82.1333316 162.032,81.7200024 162.032,81.24 L160.592,81.24 C160.592,81.9333368 160.717332,82.5333308 160.968,83.04 C161.218668,83.5466692 161.559998,83.962665 161.992,84.288 C162.424002,84.613335 162.92533,84.8559992 163.496,85.016 C164.06667,85.1760008 164.671997,85.256 165.312,85.256 C165.834669,85.256 166.359997,85.1946673 166.888,85.072 C167.416003,84.9493327 167.893331,84.7520014 168.32,84.48 C168.746669,84.2079986 169.095999,83.8560022 169.368,83.424 C169.640001,82.9919978 169.776,82.472003 169.776,81.864 C169.776,81.2986638 169.672001,80.8293352 169.464,80.456 C169.255999,80.0826648 168.978668,79.7733346 168.632,79.528 C168.285332,79.2826654 167.893336,79.0880007 167.456,78.944 C167.018664,78.7999993 166.573336,78.6746672 166.12,78.568 C165.666664,78.4613328 165.221336,78.3626671 164.784,78.272 C164.346664,78.1813329 163.954668,78.0666674 163.608,77.928 C163.261332,77.7893326 162.984001,77.6106678 162.776,77.392 C162.567999,77.1733322 162.464,76.8880018 162.464,76.536 C162.464,76.1626648 162.535999,75.8506679 162.68,75.6 C162.824001,75.3493321 163.015999,75.1493341 163.256,75 C163.496001,74.8506659 163.770665,74.7440003 164.08,74.68 C164.389335,74.6159997 164.703998,74.584 165.024,74.584 C165.813337,74.584 166.461331,74.7679982 166.968,75.136 C167.474669,75.5040018 167.770666,76.0986626 167.856,76.92 Z M171.78,73.576 L171.78,85 L173.3,85 L173.3,73.576 L171.78,73.576 Z M184.504,83.576 L184.904,85 L185.864,85 L185.864,78.984 L180.856,78.984 L180.856,80.264 L184.504,80.264 C184.525333,80.7866693 184.456001,81.2746644 184.296,81.728 C184.135999,82.1813356 183.898668,82.5759983 183.584,82.912 C183.269332,83.2480017 182.882669,83.511999 182.424,83.704 C181.965331,83.896001 181.437336,83.992 180.84,83.992 C180.199997,83.992 179.637336,83.8666679 179.152,83.616 C178.666664,83.3653321 178.258668,83.0293354 177.928,82.608 C177.597332,82.1866646 177.346668,81.7013361 177.176,81.152 C177.005332,80.6026639 176.92,80.0293363 176.92,79.432 C176.92,78.823997 176.994666,78.2293362 177.144,77.648 C177.293334,77.0666638 177.525332,76.5493356 177.84,76.096 C178.154668,75.6426644 178.559998,75.2773347 179.056,75 C179.552002,74.7226653 180.146663,74.584 180.84,74.584 C181.266669,74.584 181.669331,74.6346662 182.048,74.736 C182.426669,74.8373338 182.765332,74.9893323 183.064,75.192 C183.362668,75.3946677 183.613332,75.6533318 183.816,75.968 C184.018668,76.2826682 184.157333,76.6586645 184.232,77.096 L185.752,77.096 C185.645333,76.4239966 185.445335,75.850669 185.152,75.376 C184.858665,74.901331 184.496002,74.5093349 184.064,74.2 C183.631998,73.8906651 183.141336,73.6640007 182.592,73.52 C182.042664,73.3759993 181.45867,73.304 180.84,73.304 C179.933329,73.304 179.141337,73.4719983 178.464,73.808 C177.786663,74.1440017 177.221336,74.5946638 176.768,75.16 C176.314664,75.7253362 175.973334,76.3839962 175.744,77.136 C175.514666,77.8880038 175.4,78.6799958 175.4,79.512 C175.4,80.2586704 175.522665,80.9786632 175.768,81.672 C176.013335,82.3653368 176.370664,82.978664 176.84,83.512 C177.309336,84.045336 177.879997,84.4693318 178.552,84.784 C179.224003,85.0986682 179.986662,85.256 180.84,85.256 C181.512003,85.256 182.178663,85.1253346 182.84,84.864 C183.501337,84.6026654 184.055998,84.1733363 184.504,83.576 Z M192.528,76.728 L196.352,76.728 C196.714668,76.728 197.063998,76.7546664 197.4,76.808 C197.736002,76.8613336 198.037332,76.9599993 198.304,77.104 C198.570668,77.2480007 198.783999,77.453332 198.944,77.72 C199.104001,77.986668 199.184,78.3279979 199.184,78.744 C199.184,79.1920022 199.077334,79.5546653 198.864,79.832 C198.650666,80.1093347 198.352002,80.3386658 197.968,80.52 L197.968,80.536 C198.448002,80.6320005 198.829332,80.8559982 199.112,81.208 C199.394668,81.5600018 199.536,82.0133306 199.536,82.568 C199.536,82.9200018 199.474667,83.2453318 199.352,83.544 C199.229333,83.8426682 199.056001,84.0986656 198.832,84.312 C198.607999,84.5253344 198.341335,84.6933327 198.032,84.816 C197.722665,84.9386673 197.386668,85 197.024,85 L192.528,85 L192.528,76.728 Z M196.768,83.848 C197.216002,83.848 197.554666,83.7173346 197.784,83.456 C198.013334,83.1946654 198.128,82.8666686 198.128,82.472 C198.128,82.0986648 198.005335,81.8000011 197.76,81.576 C197.514665,81.3519989 197.104003,81.24 196.528,81.24 L193.872,81.24 L193.872,83.848 L196.768,83.848 Z M196.208,80.12 C196.79467,80.12 197.202666,80.0133344 197.432,79.8 C197.661334,79.5866656 197.776,79.3040018 197.776,78.952 C197.776,78.610665 197.664001,78.3466676 197.44,78.16 C197.215999,77.9733324 196.805336,77.88 196.208,77.88 L193.872,77.88 L193.872,80.12 L196.208,80.12 Z M203.556,85.176 C203.182665,85.176 202.830668,85.1360004 202.5,85.056 C202.169332,84.9759996 201.878668,84.8426676 201.628,84.656 C201.377332,84.4693324 201.180001,84.2293348 201.036,83.936 C200.891999,83.6426652 200.82,83.2880021 200.82,82.872 C200.82,82.4026643 200.899999,82.0186682 201.06,81.72 C201.220001,81.4213318 201.430665,81.1786676 201.692,80.992 C201.953335,80.8053324 202.251998,80.6640005 202.588,80.568 C202.924002,80.4719995 203.267998,80.3920003 203.62,80.328 C203.993335,80.253333 204.347998,80.1973335 204.684,80.16 C205.020002,80.1226665 205.315999,80.0693337 205.572,80 C205.828001,79.9306663 206.030666,79.829334 206.18,79.696 C206.329334,79.562666 206.404,79.3680013 206.404,79.112 C206.404,78.8133318 206.348001,78.5733342 206.236,78.392 C206.123999,78.2106658 205.980001,78.0720005 205.804,77.976 C205.627999,77.8799995 205.430668,77.8160002 205.212,77.784 C204.993332,77.7519998 204.777334,77.736 204.564,77.736 C203.987997,77.736 203.508002,77.8453322 203.124,78.064 C202.739998,78.2826678 202.532,78.695997 202.5,79.304 L201.14,79.304 C201.161333,78.7919974 201.267999,78.3600018 201.46,78.008 C201.652001,77.6559982 201.907998,77.3706678 202.228,77.152 C202.548002,76.9333322 202.913331,76.7760005 203.324,76.68 C203.734669,76.5839995 204.174664,76.536 204.644,76.536 C205.017335,76.536 205.387998,76.5626664 205.756,76.616 C206.124002,76.6693336 206.457332,76.7786658 206.756,76.944 C207.054668,77.1093342 207.294666,77.3413318 207.476,77.64 C207.657334,77.9386682 207.748,78.3279976 207.748,78.808 L207.748,83.064 C207.748,83.3840016 207.766666,83.6186659 207.804,83.768 C207.841334,83.9173341 207.966666,83.992 208.18,83.992 C208.276,83.992 208.414666,83.9653336 208.596,83.912 L208.596,84.968 C208.361332,85.1066674 208.036002,85.176 207.62,85.176 C207.267998,85.176 206.988001,85.0773343 206.78,84.88 C206.571999,84.6826657 206.468,84.3600022 206.468,83.912 C206.094665,84.3600022 205.660002,84.6826657 205.164,84.88 C204.667998,85.0773343 204.132003,85.176 203.556,85.176 Z M203.86,83.992 C204.308002,83.992 204.691998,83.9306673 205.012,83.808 C205.332002,83.6853327 205.593332,83.5306676 205.796,83.344 C205.998668,83.1573324 206.148,82.9546678 206.244,82.736 C206.34,82.5173322 206.388,82.312001 206.388,82.12 L206.388,80.728 C206.217332,80.8666674 205.993335,80.9626664 205.716,81.016 C205.438665,81.0693336 205.148002,81.1173331 204.844,81.16 C204.539998,81.2026669 204.233335,81.2453331 203.924,81.288 C203.614665,81.3306669 203.337335,81.4053328 203.092,81.512 C202.846665,81.6186672 202.646667,81.7706657 202.492,81.968 C202.337333,82.1653343 202.26,82.434665 202.26,82.776 C202.26,83.0000011 202.305333,83.1893326 202.396,83.344 C202.486667,83.4986674 202.603999,83.6239995 202.748,83.72 C202.892001,83.8160005 203.059999,83.8853331 203.252,83.928 C203.444001,83.9706669 203.646666,83.992 203.86,83.992 Z M209.896,85.096 C209.757333,85.096 209.613334,85.0826668 209.464,85.056 C209.314666,85.0293332 209.192,85.0053334 209.096,84.984 L209.096,83.784 C209.202667,83.8160002 209.301333,83.8373333 209.392,83.848 C209.482667,83.8586667 209.570666,83.864 209.656,83.864 C210.008002,83.864 210.277332,83.7253347 210.464,83.448 C210.650668,83.1706653 210.789333,82.7440029 210.88,82.168 C210.970667,81.5919971 211.026667,80.8533378 211.048,79.952 C211.069333,79.0506622 211.090667,77.9760062 211.112,76.728 L216.92,76.728 L216.92,85 L215.56,85 L215.56,77.928 L212.424,77.928 C212.392,78.8986715 212.357334,79.8186623 212.32,80.688 C212.282666,81.5573377 212.189334,82.3173301 212.04,82.968 C211.890666,83.6186699 211.650668,84.1359981 211.32,84.52 C210.989332,84.9040019 210.51467,85.096 209.896,85.096 Z M225.996,85.176 C225.40933,85.176 224.886669,85.0773343 224.428,84.88 C223.969331,84.6826657 223.574668,84.4106684 223.244,84.064 C222.913332,83.7173316 222.654668,83.306669 222.468,82.832 C222.281332,82.357331 222.172,81.8373362 222.14,81.272 L220.428,81.272 L220.428,85 L219.068,85 L219.068,76.728 L220.428,76.728 L220.428,80.104 L222.188,80.104 C222.252,79.5919974 222.382666,79.1173355 222.58,78.68 C222.777334,78.2426645 223.035998,77.8666682 223.356,77.552 C223.676002,77.2373318 224.057331,76.9893342 224.5,76.808 C224.942669,76.6266658 225.441331,76.536 225.996,76.536 C226.61467,76.536 227.161331,76.6479989 227.636,76.872 C228.110669,77.0960011 228.513332,77.4026647 228.844,77.792 C229.174668,78.1813353 229.425332,78.6399974 229.596,79.168 C229.766668,79.6960026 229.852,80.263997 229.852,80.872 C229.852,81.480003 229.766668,82.0453307 229.596,82.568 C229.425332,83.0906693 229.174668,83.5466647 228.844,83.936 C228.513332,84.3253353 228.110669,84.6293322 227.636,84.848 C227.161331,85.0666678 226.61467,85.176 225.996,85.176 Z M225.996,83.992 C226.326668,83.992 226.641332,83.9226674 226.94,83.784 C227.238668,83.6453326 227.494666,83.4453346 227.708,83.184 C227.921334,82.9226654 228.091999,82.5973353 228.22,82.208 C228.348001,81.8186647 228.412,81.3733358 228.412,80.872 C228.412,80.3706642 228.348001,79.9253353 228.22,79.536 C228.091999,79.1466647 227.921334,78.818668 227.708,78.552 C227.494666,78.285332 227.238668,78.0826674 226.94,77.944 C226.641332,77.8053326 226.326668,77.736 225.996,77.736 C225.654665,77.736 225.337335,77.8053326 225.044,77.944 C224.750665,78.0826674 224.497334,78.285332 224.284,78.552 C224.070666,78.818668 223.900001,79.1466647 223.772,79.536 C223.643999,79.9253353 223.58,80.3706642 223.58,80.872 C223.58,81.8746717 223.803998,82.6453306 224.252,83.184 C224.700002,83.7226694 225.28133,83.992 225.996,83.992 Z M233.552,77.928 L230.592,77.928 L230.592,76.728 L237.872,76.728 L237.872,77.928 L234.912,77.928 L234.912,85 L233.552,85 L233.552,77.928 Z M239.908,88.296 C239.747999,88.296 239.588001,88.2853334 239.428,88.264 C239.267999,88.2426666 239.113334,88.2053336 238.964,88.152 L238.964,86.904 C239.092001,86.9466669 239.222666,86.9893331 239.356,87.032 C239.489334,87.0746669 239.625333,87.096 239.764,87.096 C240.041335,87.096 240.265332,87.0320006 240.436,86.904 C240.606668,86.7759994 240.755999,86.5893346 240.884,86.344 L241.444,84.952 L238.164,76.728 L239.7,76.728 L242.116,83.496 L242.148,83.496 L244.468,76.728 L245.908,76.728 L242.308,86.088 C242.147999,86.4933354 241.990667,86.8346653 241.836,87.112 C241.681333,87.3893347 241.510668,87.6159991 241.324,87.792 C241.137332,87.9680009 240.929334,88.0959996 240.7,88.176 C240.470666,88.2560004 240.206668,88.296 239.908,88.296 Z M251.708,76.728 L253.068,76.728 L253.068,83.48 L256.972,76.728 L258.716,76.728 L258.716,85 L257.356,85 L257.356,78.248 L253.452,85 L251.708,85 L251.708,76.728 Z M265.412,76.728 L272.164,76.728 L272.164,85 L270.804,85 L270.804,77.928 L266.772,77.928 L266.772,85 L265.412,85 L265.412,76.728 Z M277.88,85.176 C277.218663,85.176 276.640003,85.0666678 276.144,84.848 C275.647998,84.6293322 275.229335,84.3253353 274.888,83.936 C274.546665,83.5466647 274.290668,83.0906693 274.12,82.568 C273.949333,82.0453307 273.864,81.480003 273.864,80.872 C273.864,80.263997 273.949333,79.6960026 274.12,79.168 C274.290668,78.6399974 274.546665,78.1813353 274.888,77.792 C275.229335,77.4026647 275.647998,77.0960011 276.144,76.872 C276.640003,76.6479989 277.218663,76.536 277.88,76.536 C278.53067,76.536 279.106664,76.6479989 279.608,76.872 C280.109336,77.0960011 280.530665,77.4026647 280.872,77.792 C281.213335,78.1813353 281.469333,78.6399974 281.64,79.168 C281.810668,79.6960026 281.896,80.263997 281.896,80.872 C281.896,81.480003 281.810668,82.0453307 281.64,82.568 C281.469333,83.0906693 281.213335,83.5466647 280.872,83.936 C280.530665,84.3253353 280.109336,84.6293322 279.608,84.848 C279.106664,85.0666678 278.53067,85.176 277.88,85.176 Z M277.88,83.992 C278.232002,83.992 278.565332,83.9226674 278.88,83.784 C279.194668,83.6453326 279.469332,83.4453346 279.704,83.184 C279.938668,82.9226654 280.122666,82.5973353 280.256,82.208 C280.389334,81.8186647 280.456,81.3733358 280.456,80.872 C280.456,80.3706642 280.389334,79.9253353 280.256,79.536 C280.122666,79.1466647 279.938668,78.818668 279.704,78.552 C279.469332,78.285332 279.194668,78.0826674 278.88,77.944 C278.565332,77.8053326 278.232002,77.736 277.88,77.736 C277.527998,77.736 277.194668,77.8053326 276.88,77.944 C276.565332,78.0826674 276.290668,78.285332 276.056,78.552 C275.821332,78.818668 275.637334,79.1466647 275.504,79.536 C275.370666,79.9253353 275.304,80.3706642 275.304,80.872 C275.304,81.3733358 275.370666,81.8186647 275.504,82.208 C275.637334,82.5973353 275.821332,82.9226654 276.056,83.184 C276.290668,83.4453346 276.565332,83.6453326 276.88,83.784 C277.194668,83.9226674 277.527998,83.992 277.88,83.992 Z M283.596,76.728 L285.548,76.728 L288.06,83.432 L288.092,83.432 L290.604,76.728 L292.556,76.728 L292.556,85 L291.196,85 L291.196,78.44 L288.7,85 L287.452,85 L284.956,78.44 L284.956,85 L283.596,85 L283.596,76.728 Z M298.272,85.176 C297.610663,85.176 297.032003,85.0666678 296.536,84.848 C296.039998,84.6293322 295.621335,84.3253353 295.28,83.936 C294.938665,83.5466647 294.682668,83.0906693 294.512,82.568 C294.341333,82.0453307 294.256,81.480003 294.256,80.872 C294.256,80.263997 294.341333,79.6960026 294.512,79.168 C294.682668,78.6399974 294.938665,78.1813353 295.28,77.792 C295.621335,77.4026647 296.039998,77.0960011 296.536,76.872 C297.032003,76.6479989 297.610663,76.536 298.272,76.536 C298.92267,76.536 299.498664,76.6479989 300,76.872 C300.501336,77.0960011 300.922665,77.4026647 301.264,77.792 C301.605335,78.1813353 301.861333,78.6399974 302.032,79.168 C302.202668,79.6960026 302.288,80.263997 302.288,80.872 C302.288,81.480003 302.202668,82.0453307 302.032,82.568 C301.861333,83.0906693 301.605335,83.5466647 301.264,83.936 C300.922665,84.3253353 300.501336,84.6293322 300,84.848 C299.498664,85.0666678 298.92267,85.176 298.272,85.176 Z M298.272,83.992 C298.624002,83.992 298.957332,83.9226674 299.272,83.784 C299.586668,83.6453326 299.861332,83.4453346 300.096,83.184 C300.330668,82.9226654 300.514666,82.5973353 300.648,82.208 C300.781334,81.8186647 300.848,81.3733358 300.848,80.872 C300.848,80.3706642 300.781334,79.9253353 300.648,79.536 C300.514666,79.1466647 300.330668,78.818668 300.096,78.552 C299.861332,78.285332 299.586668,78.0826674 299.272,77.944 C298.957332,77.8053326 298.624002,77.736 298.272,77.736 C297.919998,77.736 297.586668,77.8053326 297.272,77.944 C296.957332,78.0826674 296.682668,78.285332 296.448,78.552 C296.213332,78.818668 296.029334,79.1466647 295.896,79.536 C295.762666,79.9253353 295.696,80.3706642 295.696,80.872 C295.696,81.3733358 295.762666,81.8186647 295.896,82.208 C296.029334,82.5973353 296.213332,82.9226654 296.448,83.184 C296.682668,83.4453346 296.957332,83.6453326 297.272,83.784 C297.586668,83.9226674 297.919998,83.992 298.272,83.992 Z M304.02,76.728 L309.684,76.728 L309.684,77.928 L305.38,77.928 L305.38,85 L304.02,85 L304.02,76.728 Z M313.16,85.176 C312.786665,85.176 312.434668,85.1360004 312.104,85.056 C311.773332,84.9759996 311.482668,84.8426676 311.232,84.656 C310.981332,84.4693324 310.784001,84.2293348 310.64,83.936 C310.495999,83.6426652 310.424,83.2880021 310.424,82.872 C310.424,82.4026643 310.503999,82.0186682 310.664,81.72 C310.824001,81.4213318 311.034665,81.1786676 311.296,80.992 C311.557335,80.8053324 311.855998,80.6640005 312.192,80.568 C312.528002,80.4719995 312.871998,80.3920003 313.224,80.328 C313.597335,80.253333 313.951998,80.1973335 314.288,80.16 C314.624002,80.1226665 314.919999,80.0693337 315.176,80 C315.432001,79.9306663 315.634666,79.829334 315.784,79.696 C315.933334,79.562666 316.008,79.3680013 316.008,79.112 C316.008,78.8133318 315.952001,78.5733342 315.84,78.392 C315.727999,78.2106658 315.584001,78.0720005 315.408,77.976 C315.231999,77.8799995 315.034668,77.8160002 314.816,77.784 C314.597332,77.7519998 314.381334,77.736 314.168,77.736 C313.591997,77.736 313.112002,77.8453322 312.728,78.064 C312.343998,78.2826678 312.136,78.695997 312.104,79.304 L310.744,79.304 C310.765333,78.7919974 310.871999,78.3600018 311.064,78.008 C311.256001,77.6559982 311.511998,77.3706678 311.832,77.152 C312.152002,76.9333322 312.517331,76.7760005 312.928,76.68 C313.338669,76.5839995 313.778664,76.536 314.248,76.536 C314.621335,76.536 314.991998,76.5626664 315.36,76.616 C315.728002,76.6693336 316.061332,76.7786658 316.36,76.944 C316.658668,77.1093342 316.898666,77.3413318 317.08,77.64 C317.261334,77.9386682 317.352,78.3279976 317.352,78.808 L317.352,83.064 C317.352,83.3840016 317.370667,83.6186659 317.408,83.768 C317.445334,83.9173341 317.570666,83.992 317.784,83.992 C317.880001,83.992 318.018666,83.9653336 318.2,83.912 L318.2,84.968 C317.965332,85.1066674 317.640002,85.176 317.224,85.176 C316.871998,85.176 316.592001,85.0773343 316.384,84.88 C316.175999,84.6826657 316.072,84.3600022 316.072,83.912 C315.698665,84.3600022 315.264003,84.6826657 314.768,84.88 C314.271998,85.0773343 313.736003,85.176 313.16,85.176 Z M313.464,83.992 C313.912002,83.992 314.295998,83.9306673 314.616,83.808 C314.936002,83.6853327 315.197332,83.5306676 315.4,83.344 C315.602668,83.1573324 315.752,82.9546678 315.848,82.736 C315.944001,82.5173322 315.992,82.312001 315.992,82.12 L315.992,80.728 C315.821333,80.8666674 315.597335,80.9626664 315.32,81.016 C315.042665,81.0693336 314.752002,81.1173331 314.448,81.16 C314.143999,81.2026669 313.837335,81.2453331 313.528,81.288 C313.218665,81.3306669 312.941335,81.4053328 312.696,81.512 C312.450665,81.6186672 312.250667,81.7706657 312.096,81.968 C311.941333,82.1653343 311.864,82.434665 311.864,82.776 C311.864,83.0000011 311.909333,83.1893326 312,83.344 C312.090667,83.4986674 312.207999,83.6239995 312.352,83.72 C312.496001,83.8160005 312.663999,83.8853331 312.856,83.928 C313.048001,83.9706669 313.250666,83.992 313.464,83.992 Z M323.084,85.176 C322.422663,85.176 321.844003,85.0693344 321.348,84.856 C320.851998,84.6426656 320.438668,84.3440019 320.108,83.96 C319.777332,83.5759981 319.529334,83.117336 319.364,82.584 C319.198666,82.050664 319.116,81.4693365 319.116,80.84 C319.116,80.2213302 319.211999,79.6480026 319.404,79.12 C319.596001,78.5919974 319.865332,78.1360019 320.212,77.752 C320.558668,77.3679981 320.969331,77.0693344 321.444,76.856 C321.918669,76.6426656 322.438664,76.536 323.004,76.536 C323.740004,76.536 324.350664,76.6879985 324.836,76.992 C325.321336,77.2960015 325.710665,77.6826643 326.004,78.152 C326.297335,78.6213357 326.499999,79.1333306 326.612,79.688 C326.724001,80.2426694 326.769333,80.7706642 326.748,81.272 L320.556,81.272 C320.545333,81.6346685 320.588,81.978665 320.684,82.304 C320.780001,82.629335 320.934666,82.9173321 321.148,83.168 C321.361334,83.4186679 321.633332,83.6186659 321.964,83.768 C322.294668,83.9173341 322.683998,83.992 323.132,83.992 C323.708003,83.992 324.179998,83.858668 324.548,83.592 C324.916002,83.325332 325.158666,82.9200027 325.276,82.376 L326.62,82.376 C326.438666,83.3146714 326.03867,84.0159977 325.42,84.48 C324.80133,84.9440023 324.022671,85.176 323.084,85.176 Z M325.308,80.072 C325.286667,79.7519984 325.214667,79.4480014 325.092,79.16 C324.969333,78.8719986 324.804001,78.624001 324.596,78.416 C324.387999,78.207999 324.142668,78.0426673 323.86,77.92 C323.577332,77.7973327 323.265335,77.736 322.924,77.736 C322.571998,77.736 322.254668,77.7973327 321.972,77.92 C321.689332,78.0426673 321.446668,78.2106656 321.244,78.424 C321.041332,78.6373344 320.881334,78.8853319 320.764,79.168 C320.646666,79.4506681 320.577333,79.7519984 320.556,80.072 L325.308,80.072 Z M330.256,77.928 L327.296,77.928 L327.296,76.728 L334.576,76.728 L334.576,77.928 L331.616,77.928 L331.616,85 L330.256,85 L330.256,77.928 Z M164.448,105.176 C163.818664,105.176 163.261336,105.074668 162.776,104.872 C162.290664,104.669332 161.885335,104.381335 161.56,104.008 C161.234665,103.634665 160.989334,103.192003 160.824,102.68 C160.658666,102.167997 160.576,101.597336 160.576,100.968 C160.576,100.34933 160.655999,99.7706694 160.816,99.232 C160.976001,98.6933306 161.218665,98.224002 161.544,97.824 C161.869335,97.423998 162.274664,97.1093345 162.76,96.88 C163.245336,96.6506655 163.818663,96.536 164.48,96.536 C164.949336,96.536 165.389331,96.5919994 165.8,96.704 C166.210669,96.8160006 166.573332,96.9893322 166.888,97.224 C167.202668,97.4586678 167.461332,97.7546649 167.664,98.112 C167.866668,98.4693351 167.994666,98.8933309 168.048,99.384 L166.64,99.384 C166.533333,98.8613307 166.309335,98.4560014 165.968,98.168 C165.626665,97.8799986 165.168003,97.736 164.592,97.736 C164.101331,97.736 163.690668,97.8266658 163.36,98.008 C163.029332,98.1893342 162.765334,98.4293318 162.568,98.728 C162.370666,99.0266682 162.229334,99.3706647 162.144,99.76 C162.058666,100.149335 162.016,100.551998 162.016,100.968 C162.016,101.352002 162.061333,101.725332 162.152,102.088 C162.242667,102.450668 162.383999,102.773332 162.576,103.056 C162.768001,103.338668 163.015998,103.565332 163.32,103.736 C163.624002,103.906668 163.994664,103.992 164.432,103.992 C165.104003,103.992 165.629331,103.816002 166.008,103.464 C166.386669,103.111998 166.618666,102.616003 166.704,101.976 L168.096,101.976 C167.946666,103.010672 167.568003,103.802664 166.96,104.352 C166.351997,104.901336 165.514672,105.176 164.448,105.176 Z M173.284,105.176 C172.622663,105.176 172.044002,105.066668 171.548,104.848 C171.051998,104.629332 170.633335,104.325335 170.292,103.936 C169.950665,103.546665 169.694668,103.090669 169.524,102.568 C169.353332,102.045331 169.268,101.480003 169.268,100.872 C169.268,100.263997 169.353332,99.6960026 169.524,99.168 C169.694668,98.6399974 169.950665,98.1813353 170.292,97.792 C170.633335,97.4026647 171.051998,97.0960011 171.548,96.872 C172.044002,96.6479989 172.622663,96.536 173.284,96.536 C173.93467,96.536 174.510664,96.6479989 175.012,96.872 C175.513336,97.0960011 175.934665,97.4026647 176.276,97.792 C176.617335,98.1813353 176.873332,98.6399974 177.044,99.168 C177.214668,99.6960026 177.3,100.263997 177.3,100.872 C177.3,101.480003 177.214668,102.045331 177.044,102.568 C176.873332,103.090669 176.617335,103.546665 176.276,103.936 C175.934665,104.325335 175.513336,104.629332 175.012,104.848 C174.510664,105.066668 173.93467,105.176 173.284,105.176 Z M173.284,103.992 C173.636002,103.992 173.969332,103.922667 174.284,103.784 C174.598668,103.645333 174.873332,103.445335 175.108,103.184 C175.342668,102.922665 175.526666,102.597335 175.66,102.208 C175.793334,101.818665 175.86,101.373336 175.86,100.872 C175.86,100.370664 175.793334,99.9253353 175.66,99.536 C175.526666,99.1466647 175.342668,98.818668 175.108,98.552 C174.873332,98.285332 174.598668,98.0826674 174.284,97.944 C173.969332,97.8053326 173.636002,97.736 173.284,97.736 C172.931998,97.736 172.598668,97.8053326 172.284,97.944 C171.969332,98.0826674 171.694668,98.285332 171.46,98.552 C171.225332,98.818668 171.041334,99.1466647 170.908,99.536 C170.774666,99.9253353 170.708,100.370664 170.708,100.872 C170.708,101.373336 170.774666,101.818665 170.908,102.208 C171.041334,102.597335 171.225332,102.922665 171.46,103.184 C171.694668,103.445335 171.969332,103.645333 172.284,103.784 C172.598668,103.922667 172.931998,103.992 173.284,103.992 Z M182.04,105.176 C180.941328,105.176 180.08267,104.930669 179.464,104.44 C178.84533,103.949331 178.509334,103.250671 178.456,102.344 L179.832,102.344 C179.874667,102.952003 180.098665,103.389332 180.504,103.656 C180.909335,103.922668 181.415997,104.056 182.024,104.056 C182.67467,104.056 183.175998,103.917335 183.528,103.64 C183.880002,103.362665 184.056,103.010669 184.056,102.584 C184.056,102.167998 183.922668,101.842668 183.656,101.608 C183.389332,101.373332 182.936003,101.256 182.296,101.256 L181.192,101.256 L181.192,100.152 L182.072,100.152 C182.552002,100.152 182.962665,100.053334 183.304,99.856 C183.645335,99.6586657 183.816,99.3146691 183.816,98.824 C183.816,98.5146651 183.669335,98.2426678 183.376,98.008 C183.082665,97.7733322 182.648003,97.656 182.072,97.656 C181.826665,97.656 181.584001,97.6826664 181.344,97.736 C181.103999,97.7893336 180.888001,97.8746661 180.696,97.992 C180.503999,98.1093339 180.344001,98.263999 180.216,98.456 C180.087999,98.648001 180.008,98.8826653 179.976,99.16 L178.6,99.16 C178.632,98.6479974 178.754666,98.2240017 178.968,97.888 C179.181334,97.5519983 179.447998,97.2853343 179.768,97.088 C180.088002,96.8906657 180.450665,96.7493338 180.856,96.664 C181.261335,96.5786662 181.671998,96.536 182.088,96.536 C182.514669,96.536 182.914665,96.5786662 183.288,96.664 C183.661335,96.7493338 183.989332,96.8853324 184.272,97.072 C184.554668,97.2586676 184.778666,97.4906653 184.944,97.768 C185.109334,98.0453347 185.192,98.3759981 185.192,98.76 C185.192,99.2400024 185.056001,99.6293318 184.784,99.928 C184.511999,100.226668 184.205335,100.413333 183.864,100.488 L183.864,100.52 C184.056001,100.552 184.247999,100.616 184.44,100.712 C184.632001,100.808 184.802666,100.938666 184.952,101.104 C185.101334,101.269334 185.224,101.471999 185.32,101.712 C185.416,101.952001 185.464,102.231998 185.464,102.552 C185.464,103.000002 185.368001,103.389332 185.176,103.72 C184.983999,104.050668 184.728002,104.322666 184.408,104.536 C184.087998,104.749334 183.722669,104.909333 183.312,105.016 C182.901331,105.122667 182.477336,105.176 182.04,105.176 Z M186.22,103.8 L187.196,103.8 C187.313334,103.575999 187.433333,103.269335 187.556,102.88 C187.678667,102.490665 187.790666,102.058669 187.892,101.584 C187.993334,101.109331 188.076,100.605336 188.14,100.072 C188.204,99.538664 188.236,99.0160026 188.236,98.504 L188.236,96.728 L194.22,96.728 L194.22,103.8 L195.34,103.8 L195.34,107.512 L194.044,107.512 L194.044,105 L187.516,105 L187.516,107.512 L186.22,107.512 L186.22,103.8 Z M192.86,103.8 L192.86,97.928 L189.564,97.928 L189.564,98.632 C189.564,99.1546693 189.534667,99.6746641 189.476,100.192 C189.417333,100.709336 189.34,101.197331 189.244,101.656 C189.148,102.114669 189.044001,102.530665 188.932,102.904 C188.819999,103.277335 188.710667,103.575999 188.604,103.8 L192.86,103.8 Z M199.008,105.176 C198.634665,105.176 198.282668,105.136 197.952,105.056 C197.621332,104.976 197.330668,104.842668 197.08,104.656 C196.829332,104.469332 196.632001,104.229335 196.488,103.936 C196.343999,103.642665 196.272,103.288002 196.272,102.872 C196.272,102.402664 196.351999,102.018668 196.512,101.72 C196.672001,101.421332 196.882665,101.178668 197.144,100.992 C197.405335,100.805332 197.703998,100.664 198.04,100.568 C198.376002,100.472 198.719998,100.392 199.072,100.328 C199.445335,100.253333 199.799998,100.197334 200.136,100.16 C200.472002,100.122666 200.767999,100.069334 201.024,100 C201.280001,99.9306663 201.482666,99.829334 201.632,99.696 C201.781334,99.562666 201.856,99.3680013 201.856,99.112 C201.856,98.8133318 201.800001,98.5733342 201.688,98.392 C201.575999,98.2106658 201.432001,98.0720005 201.256,97.976 C201.079999,97.8799995 200.882668,97.8160002 200.664,97.784 C200.445332,97.7519998 200.229334,97.736 200.016,97.736 C199.439997,97.736 198.960002,97.8453322 198.576,98.064 C198.191998,98.2826678 197.984,98.695997 197.952,99.304 L196.592,99.304 C196.613333,98.7919974 196.719999,98.3600018 196.912,98.008 C197.104001,97.6559982 197.359998,97.3706678 197.68,97.152 C198.000002,96.9333322 198.365331,96.7760005 198.776,96.68 C199.186669,96.5839995 199.626664,96.536 200.096,96.536 C200.469335,96.536 200.839998,96.5626664 201.208,96.616 C201.576002,96.6693336 201.909332,96.7786658 202.208,96.944 C202.506668,97.1093342 202.746666,97.3413318 202.928,97.64 C203.109334,97.9386682 203.2,98.3279976 203.2,98.808 L203.2,103.064 C203.2,103.384002 203.218666,103.618666 203.256,103.768 C203.293334,103.917334 203.418666,103.992 203.632,103.992 C203.728,103.992 203.866666,103.965334 204.048,103.912 L204.048,104.968 C203.813332,105.106667 203.488002,105.176 203.072,105.176 C202.719998,105.176 202.440001,105.077334 202.232,104.88 C202.023999,104.682666 201.92,104.360002 201.92,103.912 C201.546665,104.360002 201.112002,104.682666 200.616,104.88 C200.119998,105.077334 199.584003,105.176 199.008,105.176 Z M199.312,103.992 C199.760002,103.992 200.143998,103.930667 200.464,103.808 C200.784002,103.685333 201.045332,103.530668 201.248,103.344 C201.450668,103.157332 201.6,102.954668 201.696,102.736 C201.792,102.517332 201.84,102.312001 201.84,102.12 L201.84,100.728 C201.669332,100.866667 201.445335,100.962666 201.168,101.016 C200.890665,101.069334 200.600002,101.117333 200.296,101.16 C199.991998,101.202667 199.685335,101.245333 199.376,101.288 C199.066665,101.330667 198.789335,101.405333 198.544,101.512 C198.298665,101.618667 198.098667,101.770666 197.944,101.968 C197.789333,102.165334 197.712,102.434665 197.712,102.776 C197.712,103.000001 197.757333,103.189333 197.848,103.344 C197.938667,103.498667 198.055999,103.624 198.2,103.72 C198.344001,103.816 198.511999,103.885333 198.704,103.928 C198.896001,103.970667 199.098666,103.992 199.312,103.992 Z M205.412,96.728 L209.236,96.728 C209.598668,96.728 209.947998,96.7546664 210.284,96.808 C210.620002,96.8613336 210.921332,96.9599993 211.188,97.104 C211.454668,97.2480007 211.667999,97.453332 211.828,97.72 C211.988001,97.986668 212.068,98.3279979 212.068,98.744 C212.068,99.1920022 211.961334,99.5546653 211.748,99.832 C211.534666,100.109335 211.236002,100.338666 210.852,100.52 L210.852,100.536 C211.332002,100.632 211.713332,100.855998 211.996,101.208 C212.278668,101.560002 212.42,102.013331 212.42,102.568 C212.42,102.920002 212.358667,103.245332 212.236,103.544 C212.113333,103.842668 211.940001,104.098666 211.716,104.312 C211.491999,104.525334 211.225335,104.693333 210.916,104.816 C210.606665,104.938667 210.270668,105 209.908,105 L205.412,105 L205.412,96.728 Z M209.652,103.848 C210.100002,103.848 210.438666,103.717335 210.668,103.456 C210.897334,103.194665 211.012,102.866669 211.012,102.472 C211.012,102.098665 210.889335,101.800001 210.644,101.576 C210.398665,101.351999 209.988003,101.24 209.412,101.24 L206.756,101.24 L206.756,103.848 L209.652,103.848 Z M209.092,100.12 C209.67867,100.12 210.086666,100.013334 210.316,99.8 C210.545334,99.5866656 210.66,99.3040018 210.66,98.952 C210.66,98.610665 210.548001,98.3466676 210.324,98.16 C210.099999,97.9733324 209.689336,97.88 209.092,97.88 L206.756,97.88 L206.756,100.12 L209.092,100.12 Z M216.44,105.176 C216.066665,105.176 215.714668,105.136 215.384,105.056 C215.053332,104.976 214.762668,104.842668 214.512,104.656 C214.261332,104.469332 214.064001,104.229335 213.92,103.936 C213.775999,103.642665 213.704,103.288002 213.704,102.872 C213.704,102.402664 213.783999,102.018668 213.944,101.72 C214.104001,101.421332 214.314665,101.178668 214.576,100.992 C214.837335,100.805332 215.135998,100.664 215.472,100.568 C215.808002,100.472 216.151998,100.392 216.504,100.328 C216.877335,100.253333 217.231998,100.197334 217.568,100.16 C217.904002,100.122666 218.199999,100.069334 218.456,100 C218.712001,99.9306663 218.914666,99.829334 219.064,99.696 C219.213334,99.562666 219.288,99.3680013 219.288,99.112 C219.288,98.8133318 219.232001,98.5733342 219.12,98.392 C219.007999,98.2106658 218.864001,98.0720005 218.688,97.976 C218.511999,97.8799995 218.314668,97.8160002 218.096,97.784 C217.877332,97.7519998 217.661334,97.736 217.448,97.736 C216.871997,97.736 216.392002,97.8453322 216.008,98.064 C215.623998,98.2826678 215.416,98.695997 215.384,99.304 L214.024,99.304 C214.045333,98.7919974 214.151999,98.3600018 214.344,98.008 C214.536001,97.6559982 214.791998,97.3706678 215.112,97.152 C215.432002,96.9333322 215.797331,96.7760005 216.208,96.68 C216.618669,96.5839995 217.058664,96.536 217.528,96.536 C217.901335,96.536 218.271998,96.5626664 218.64,96.616 C219.008002,96.6693336 219.341332,96.7786658 219.64,96.944 C219.938668,97.1093342 220.178666,97.3413318 220.36,97.64 C220.541334,97.9386682 220.632,98.3279976 220.632,98.808 L220.632,103.064 C220.632,103.384002 220.650666,103.618666 220.688,103.768 C220.725334,103.917334 220.850666,103.992 221.064,103.992 C221.16,103.992 221.298666,103.965334 221.48,103.912 L221.48,104.968 C221.245332,105.106667 220.920002,105.176 220.504,105.176 C220.151998,105.176 219.872001,105.077334 219.664,104.88 C219.455999,104.682666 219.352,104.360002 219.352,103.912 C218.978665,104.360002 218.544002,104.682666 218.048,104.88 C217.551998,105.077334 217.016003,105.176 216.44,105.176 Z M216.744,103.992 C217.192002,103.992 217.575998,103.930667 217.896,103.808 C218.216002,103.685333 218.477332,103.530668 218.68,103.344 C218.882668,103.157332 219.032,102.954668 219.128,102.736 C219.224,102.517332 219.272,102.312001 219.272,102.12 L219.272,100.728 C219.101332,100.866667 218.877335,100.962666 218.6,101.016 C218.322665,101.069334 218.032002,101.117333 217.728,101.16 C217.423998,101.202667 217.117335,101.245333 216.808,101.288 C216.498665,101.330667 216.221335,101.405333 215.976,101.512 C215.730665,101.618667 215.530667,101.770666 215.376,101.968 C215.221333,102.165334 215.144,102.434665 215.144,102.776 C215.144,103.000001 215.189333,103.189333 215.28,103.344 C215.370667,103.498667 215.487999,103.624 215.632,103.72 C215.776001,103.816 215.943999,103.885333 216.136,103.928 C216.328001,103.970667 216.530666,103.992 216.744,103.992 Z M224.844,97.928 L221.884,97.928 L221.884,96.728 L229.164,96.728 L229.164,97.928 L226.204,97.928 L226.204,105 L224.844,105 L224.844,97.928 Z M230.432,96.728 L231.792,96.728 L231.792,99.896 L234.736,99.896 C235.546671,99.896 236.197331,100.117331 236.688,100.56 C237.178669,101.002669 237.424,101.623996 237.424,102.424 C237.424,103.202671 237.189336,103.826664 236.72,104.296 C236.250664,104.765336 235.610671,105 234.8,105 L230.432,105 L230.432,96.728 Z M234.304,103.8 C235.445339,103.8 236.016,103.341338 236.016,102.424 C236.016,101.517329 235.445339,101.064 234.304,101.064 L231.792,101.064 L231.792,103.8 L234.304,103.8 Z M243.544,96.728 L244.904,96.728 L244.904,103.48 L248.808,96.728 L250.552,96.728 L250.552,105 L249.192,105 L249.192,98.248 L245.288,105 L243.544,105 L243.544,96.728 Z M252.7,96.728 L254.06,96.728 L254.06,100.024 L258.252,100.024 L258.252,96.728 L259.612,96.728 L259.612,105 L258.252,105 L258.252,101.192 L254.06,101.192 L254.06,105 L252.7,105 L252.7,96.728 Z M263.76,97.928 L260.8,97.928 L260.8,96.728 L268.08,96.728 L268.08,97.928 L265.12,97.928 L265.12,105 L263.76,105 L263.76,97.928 Z M272.788,105.176 C272.126663,105.176 271.548002,105.069334 271.052,104.856 C270.555998,104.642666 270.142668,104.344002 269.812,103.96 C269.481332,103.575998 269.233334,103.117336 269.068,102.584 C268.902666,102.050664 268.82,101.469336 268.82,100.84 C268.82,100.22133 268.915999,99.6480026 269.108,99.12 C269.300001,98.5919974 269.569332,98.1360019 269.916,97.752 C270.262668,97.3679981 270.673331,97.0693344 271.148,96.856 C271.622669,96.6426656 272.142664,96.536 272.708,96.536 C273.444004,96.536 274.054664,96.6879985 274.54,96.992 C275.025336,97.2960015 275.414665,97.6826643 275.708,98.152 C276.001335,98.6213357 276.203999,99.1333306 276.316,99.688 C276.428001,100.242669 276.473333,100.770664 276.452,101.272 L270.26,101.272 C270.249333,101.634668 270.292,101.978665 270.388,102.304 C270.484,102.629335 270.638666,102.917332 270.852,103.168 C271.065334,103.418668 271.337332,103.618666 271.668,103.768 C271.998668,103.917334 272.387998,103.992 272.836,103.992 C273.412003,103.992 273.883998,103.858668 274.252,103.592 C274.620002,103.325332 274.862666,102.920003 274.98,102.376 L276.324,102.376 C276.142666,103.314671 275.74267,104.015998 275.124,104.48 C274.50533,104.944002 273.726671,105.176 272.788,105.176 Z M275.012,100.072 C274.990667,99.7519984 274.918667,99.4480014 274.796,99.16 C274.673333,98.8719986 274.508001,98.624001 274.3,98.416 C274.091999,98.207999 273.846668,98.0426673 273.564,97.92 C273.281332,97.7973327 272.969335,97.736 272.628,97.736 C272.275998,97.736 271.958668,97.7973327 271.676,97.92 C271.393332,98.0426673 271.150668,98.2106656 270.948,98.424 C270.745332,98.6373344 270.585334,98.8853319 270.468,99.168 C270.350666,99.4506681 270.281333,99.7519984 270.26,100.072 L275.012,100.072 Z M278.008,96.728 L279.368,96.728 L279.368,97.848 L279.4,97.848 C279.624001,97.389331 279.975998,97.056001 280.456,96.848 C280.936002,96.639999 281.463997,96.536 282.04,96.536 C282.680003,96.536 283.237331,96.6533322 283.712,96.888 C284.186669,97.1226678 284.581332,97.439998 284.896,97.84 C285.210668,98.240002 285.447999,98.7013307 285.608,99.224 C285.768001,99.7466693 285.848,100.30133 285.848,100.888 C285.848,101.485336 285.770667,102.042664 285.616,102.56 C285.461333,103.077336 285.226668,103.530665 284.912,103.92 C284.597332,104.309335 284.202669,104.615999 283.728,104.84 C283.253331,105.064001 282.701337,105.176 282.072,105.176 C281.858666,105.176 281.629335,105.154667 281.384,105.112 C281.138665,105.069333 280.893335,105 280.648,104.904 C280.402665,104.808 280.170668,104.677334 279.952,104.512 C279.733332,104.346666 279.549334,104.141335 279.4,103.896 L279.368,103.896 L279.368,108.152 L278.008,108.152 L278.008,96.728 Z M281.928,103.992 C282.386669,103.992 282.775998,103.901334 283.096,103.72 C283.416002,103.538666 283.671999,103.298668 283.864,103 C284.056001,102.701332 284.194666,102.360002 284.28,101.976 C284.365334,101.591998 284.408,101.197335 284.408,100.792 C284.408,100.407998 284.357334,100.032002 284.256,99.664 C284.154666,99.2959982 284.000001,98.9680014 283.792,98.68 C283.583999,98.3919986 283.317335,98.1626675 282.992,97.992 C282.666665,97.8213325 282.285336,97.736 281.848,97.736 C281.389331,97.736 281.000002,97.8266658 280.68,98.008 C280.359998,98.1893342 280.098668,98.4266652 279.896,98.72 C279.693332,99.0133348 279.546667,99.3466648 279.456,99.72 C279.365333,100.093335 279.32,100.471998 279.32,100.856 C279.32,101.261335 279.368,101.653331 279.464,102.032 C279.560001,102.410669 279.711999,102.743999 279.92,103.032 C280.128001,103.320001 280.397332,103.551999 280.728,103.728 C281.058668,103.904001 281.458664,103.992 281.928,103.992 Z M287.548,96.728 L288.908,96.728 L288.908,100.024 L293.1,100.024 L293.1,96.728 L294.46,96.728 L294.46,105 L293.1,105 L293.1,101.192 L288.908,101.192 L288.908,105 L287.548,105 L287.548,96.728 Z M300.128,105.176 C299.466663,105.176 298.888003,105.069334 298.392,104.856 C297.895998,104.642666 297.482668,104.344002 297.152,103.96 C296.821332,103.575998 296.573334,103.117336 296.408,102.584 C296.242666,102.050664 296.16,101.469336 296.16,100.84 C296.16,100.22133 296.255999,99.6480026 296.448,99.12 C296.640001,98.5919974 296.909332,98.1360019 297.256,97.752 C297.602668,97.3679981 298.013331,97.0693344 298.488,96.856 C298.962669,96.6426656 299.482664,96.536 300.048,96.536 C300.784004,96.536 301.394664,96.6879985 301.88,96.992 C302.365336,97.2960015 302.754665,97.6826643 303.048,98.152 C303.341335,98.6213357 303.543999,99.1333306 303.656,99.688 C303.768001,100.242669 303.813333,100.770664 303.792,101.272 L297.6,101.272 C297.589333,101.634668 297.632,101.978665 297.728,102.304 C297.824001,102.629335 297.978666,102.917332 298.192,103.168 C298.405334,103.418668 298.677332,103.618666 299.008,103.768 C299.338668,103.917334 299.727998,103.992 300.176,103.992 C300.752003,103.992 301.223998,103.858668 301.592,103.592 C301.960002,103.325332 302.202666,102.920003 302.32,102.376 L303.664,102.376 C303.482666,103.314671 303.08267,104.015998 302.464,104.48 C301.84533,104.944002 301.066671,105.176 300.128,105.176 Z M302.352,100.072 C302.330667,99.7519984 302.258667,99.4480014 302.136,99.16 C302.013333,98.8719986 301.848001,98.624001 301.64,98.416 C301.431999,98.207999 301.186668,98.0426673 300.904,97.92 C300.621332,97.7973327 300.309335,97.736 299.968,97.736 C299.615998,97.736 299.298668,97.7973327 299.016,97.92 C298.733332,98.0426673 298.490668,98.2106656 298.288,98.424 C298.085332,98.6373344 297.925334,98.8853319 297.808,99.168 C297.690666,99.4506681 297.621333,99.7519984 297.6,100.072 L302.352,100.072 Z M307.3,97.928 L304.34,97.928 L304.34,96.728 L311.62,96.728 L311.62,97.928 L308.66,97.928 L308.66,105 L307.3,105 L307.3,97.928 Z M313.112,103.224 L313.112,105 L314.888,105 L314.888,103.224 L313.112,103.224 Z" id="Ваш-компьютер-майнит" fill="#303030"></path>
            <g id="cube" transform="translate(48.000000, 35.000000)">
                <circle id="Oval-2" fill="#DDDDF3" opacity="0.665364583" cx="40" cy="40" r="40"></circle>
                <polygon id="Shape" fill="#898DD6" fill-rule="nonzero" points="19 75 1 65.8103448 1 43.1896552 19 52.3793103"></polygon>
                <circle id="Oval-2" fill="#55589A" cx="3" cy="12" r="3"></circle>
                <circle id="Oval-2" fill="#55589A" cx="29.5" cy="86.5" r="1.5"></circle>
                <circle id="Oval-2" fill="#55589A" cx="80.5" cy="25.5" r="1.5"></circle>
                <polygon id="Shape" fill="#D8232A" fill-rule="nonzero" points="19 75 37 65.8103448 37 43.1896552 19 52.3793103"></polygon>
                <g id="pick-hammer-outline" transform="translate(57.047314, 34.828866) rotate(-68.000000) translate(-57.047314, -34.828866) translate(33.547314, 11.328866)" fill-rule="nonzero" fill="#55589A">
                    <path d="M4.69479604,45.7355799 C4.68273264,45.7459499 4.67186232,45.7563198 4.66152227,45.7669556 L4.41694013,46.0125106 C4.36643293,46.0315221 4.31711881,46.054921 4.2715165,46.0857649 C3.29040411,46.7348169 1.90457126,46.5952215 1.06768941,45.7563198 C0.219141864,44.9055857 0.0795510854,43.558025 0.736409875,42.5522736 C0.765706705,42.5069383 0.787182209,42.4593429 0.802162036,42.4085568 L30.5550151,12.5699788 L32.3650554,14.3851175 L34.1180929,16.1422909 C21.8547845,28.4834528 5.22863466,45.198736 4.69479604,45.7355799 Z" id="Shape"></path>
                    <path d="M45.9182197,30.0885337 L35.7054243,15.7264296 C35.682358,15.6943892 35.6565079,15.6643429 35.6286692,15.6364239 L31.0595568,11.053973 C31.0086519,11.0034528 30.9511188,10.9605106 30.8884156,10.9276724 L24.2084733,7.39378224 L22.8256894,5.39052212 L24.2962312,0.628724433 L26.0052571,0.971065474 L39.0929862,12.0972158 L46.2717701,29.9461464 L45.9182197,30.0885337 Z" id="Shape"></path>
                </g>
                <polygon id="Shape" fill="#55589A" fill-rule="nonzero" points="1 43.1896552 18.3076923 34 37 43.1896552 19 52.3793103"></polygon>
            </g>
        </g>
    </g>
</svg>