<?xml version="1.0" encoding="UTF-8"?>
<svg width="410px" height="170px" viewBox="0 0 410 170" version="1.1" xmlns="http://www.w3.org/2000/svg" xmlns:xlink="http://www.w3.org/1999/xlink">
    <!-- Generator: Sketch 47.1 (45422) - http://www.bohemiancoding.com/sketch -->
    <title>1 copy 3</title>
    <desc>Created with Sketch.</desc>
    <defs>
        <rect id="path-1" x="0" y="0" width="390" height="150" rx="8"></rect>
        <filter x="-4.0%" y="-9.7%" width="107.9%" height="120.7%" filterUnits="objectBoundingBox" id="filter-3">
            <feOffset dx="0" dy="1" in="SourceAlpha" result="shadowOffsetOuter1"></feOffset>
            <feGaussianBlur stdDeviation="5" in="shadowOffsetOuter1" result="shadowBlurOuter1"></feGaussianBlur>
            <feColorMatrix values="0 0 0 0 0   0 0 0 0 0   0 0 0 0 0  0 0 0 0.36 0" type="matrix" in="shadowBlurOuter1"></feColorMatrix>
        </filter>
    </defs>
    <g id="Page-1" stroke="none" stroke-width="1" fill="none" fill-rule="evenodd">
        <g id="1-copy-3" transform="translate(10.000000, 9.000000)">
            <g id="Group-4">
                <mask id="mask-2" fill="white">
                    <use xlink:href="#path-1"></use>
                </mask>
                <g id="Rectangle-24">
                    <use fill="black" fill-opacity="1" filter="url(#filter-3)" xlink:href="#path-1"></use>
                    <use fill="#FFFFFF" fill-rule="evenodd" xlink:href="#path-1"></use>
                </g>
                <path d="M346.979315,89.4976336 C346.979315,89.4976336 337.339076,102.365277 331.794216,115.929715 C326.305004,129.517208 324.306999,145.287308 324.306999,145.287308 C324.306999,145.287308 337.841227,154.763201 351.930603,160.113405 C366.018654,165.464889 382.579037,167.497634 382.579037,167.497634 C382.579037,167.497634 392.245774,154.562104 397.790634,140.996386 C403.281171,127.408892 405.306999,111.572187 405.306999,111.572187 C405.306999,111.572187 391.743623,102.16418 377.655572,96.8126953 C363.567521,91.4624917 346.979315,89.4976336 346.979315,89.4976336" id="Fill-33" fill="#55589A" mask="url(#mask-2)"></path>
            </g>
            <path d="M163.312,38.208 C163.034665,38.208 162.786668,38.170667 162.568,38.096 C162.349332,38.021333 162.186667,37.9520003 162.08,37.888 L162.08,35.856 C162.197334,35.9200003 162.338666,35.9759998 162.504,36.024 C162.669334,36.0720002 162.874665,36.096 163.12,36.096 C163.877337,36.096 164.335999,35.7813365 164.496,35.152 L159.92,26.576 L162.736,26.576 L165.84,32.528 L168.16,26.576 L170.784,26.576 L167.216,34.96 C166.959999,35.5466696 166.701335,36.0453313 166.44,36.456 C166.178665,36.8666687 165.890668,37.2026654 165.576,37.464 C165.261332,37.7253346 164.920002,37.9146661 164.552,38.032 C164.183998,38.1493339 163.770669,38.208 163.312,38.208 Z M175.236,38.208 C174.606664,38.208 174.036003,38.104001 173.524,37.896 C173.011997,37.687999 172.574668,37.3973352 172.212,37.024 C171.849332,36.6506648 171.566668,36.2053359 171.364,35.688 C171.161332,35.1706641 171.06,34.6026698 171.06,33.984 C171.06,33.3439968 171.153332,32.7493361 171.34,32.2 C171.526668,31.6506639 171.801332,31.176002 172.164,30.776 C172.526668,30.375998 172.969331,30.0640011 173.492,29.84 C174.014669,29.6159989 174.611997,29.504 175.284,29.504 C175.774669,29.504 176.246664,29.5679994 176.7,29.696 C177.153336,29.8240006 177.558665,30.0186654 177.916,30.28 C178.273335,30.5413346 178.563999,30.8693314 178.788,31.264 C179.012001,31.6586686 179.14,32.1173307 179.172,32.64 L176.948,32.64 C176.798666,31.6906619 176.238672,31.216 175.268,31.216 C174.905332,31.216 174.601335,31.2986658 174.356,31.464 C174.110665,31.6293342 173.910667,31.8426654 173.756,32.104 C173.601333,32.3653346 173.492,32.6559984 173.428,32.976 C173.364,33.2960016 173.332,33.6053318 173.332,33.904 C173.332,34.2026682 173.364,34.5066651 173.428,34.816 C173.492,35.1253349 173.595999,35.4053321 173.74,35.656 C173.884001,35.9066679 174.078665,36.1119992 174.324,36.272 C174.569335,36.4320008 174.867998,36.512 175.22,36.512 C175.764003,36.512 176.182665,36.3600015 176.476,36.056 C176.769335,35.7519985 176.953333,35.3440026 177.028,34.832 L179.22,34.832 C179.070666,35.9306722 178.644004,36.7679971 177.94,37.344 C177.235996,37.9200029 176.334672,38.208 175.236,38.208 Z M182.616,31.44 L179.896,31.44 L179.896,29.728 L187.608,29.728 L187.608,31.44 L184.888,31.44 L184.888,38 L182.616,38 L182.616,31.44 Z M191.196,38.208 C190.801331,38.208 190.433335,38.1600005 190.092,38.064 C189.750665,37.9679995 189.452001,37.8186677 189.196,37.616 C188.939999,37.4133323 188.740001,37.1573349 188.596,36.848 C188.451999,36.5386651 188.38,36.1706688 188.38,35.744 C188.38,35.2746643 188.462666,34.8880015 188.628,34.584 C188.793334,34.2799985 189.006665,34.0373342 189.268,33.856 C189.529335,33.6746658 189.827998,33.5386671 190.164,33.448 C190.500002,33.3573329 190.838665,33.2853336 191.18,33.232 C191.521335,33.1786664 191.857332,33.1360002 192.188,33.104 C192.518668,33.0719998 192.811999,33.0240003 193.068,32.96 C193.324001,32.8959997 193.526666,32.8026673 193.676,32.68 C193.825334,32.5573327 193.894667,32.3786678 193.884,32.144 C193.884,31.9093322 193.844,31.7173341 193.764,31.568 C193.684,31.4186659 193.577334,31.3040004 193.444,31.224 C193.310666,31.1439996 193.156001,31.0906668 192.98,31.064 C192.803999,31.0373332 192.614668,31.024 192.412,31.024 C191.963998,31.024 191.612001,31.119999 191.356,31.312 C191.099999,31.504001 190.950667,31.8239978 190.908,32.272 L188.636,32.272 C188.668,31.7493307 188.801332,31.3093351 189.036,30.952 C189.270668,30.5946649 189.569332,30.3093344 189.932,30.096 C190.294668,29.8826656 190.699998,29.7306671 191.148,29.64 C191.596002,29.5493329 192.054664,29.504 192.524,29.504 C192.940002,29.504 193.361331,29.533333 193.788,29.592 C194.214669,29.650667 194.603998,29.7653325 194.956,29.936 C195.308002,30.1066675 195.595999,30.3466651 195.82,30.656 C196.044001,30.9653349 196.156,31.3653309 196.156,31.856 L196.156,36.16 C196.156,36.5333352 196.177333,36.890665 196.22,37.232 C196.262667,37.573335 196.337333,37.8293325 196.444,38 L194.14,38 C194.097333,37.8719994 194.062667,37.741334 194.036,37.608 C194.009333,37.474666 193.990667,37.3386674 193.98,37.2 C193.617332,37.5733352 193.190669,37.8346659 192.7,37.984 C192.209331,38.1333341 191.708003,38.208 191.196,38.208 Z M192.044,36.704 C192.492002,36.704 192.838665,36.6293341 193.084,36.48 C193.329335,36.3306659 193.510666,36.152001 193.628,35.944 C193.745334,35.735999 193.817333,35.5253344 193.844,35.312 C193.870667,35.0986656 193.884,34.9280006 193.884,34.8 L193.884,33.952 C193.788,34.0373338 193.670667,34.1039998 193.532,34.152 C193.393333,34.2000002 193.238668,34.2399998 193.068,34.272 C192.897332,34.3040002 192.721334,34.3306666 192.54,34.352 C192.358666,34.3733334 192.177334,34.3999998 191.996,34.432 C191.814666,34.4640002 191.644001,34.5066664 191.484,34.56 C191.323999,34.6133336 191.182667,34.6853329 191.06,34.776 C190.937333,34.8666671 190.838667,34.9813326 190.764,35.12 C190.689333,35.2586674 190.652,35.4346656 190.652,35.648 C190.652,35.8613344 190.689333,36.034666 190.764,36.168 C190.838667,36.301334 190.939999,36.4079996 191.068,36.488 C191.196001,36.5680004 191.345332,36.6239998 191.516,36.656 C191.686668,36.6880002 191.862666,36.704 192.044,36.704 Z M198.016,29.728 L200.288,29.728 L200.288,32.736 L203.504,32.736 L203.504,29.728 L205.776,29.728 L205.776,38 L203.504,38 L203.504,34.528 L200.288,34.528 L200.288,38 L198.016,38 L198.016,29.728 Z M211.62,38.208 C210.96933,38.208 210.382669,38.1066677 209.86,37.904 C209.337331,37.7013323 208.889335,37.4106686 208.516,37.032 C208.142665,36.6533314 207.854668,36.197336 207.652,35.664 C207.449332,35.130664 207.348,34.5333366 207.348,33.872 C207.348,33.2106634 207.449332,32.6106694 207.652,32.072 C207.854668,31.5333306 208.142665,31.0746686 208.516,30.696 C208.889335,30.3173314 209.337331,30.024001 209.86,29.816 C210.382669,29.607999 210.96933,29.504 211.62,29.504 C212.27067,29.504 212.859997,29.607999 213.388,29.816 C213.916003,30.024001 214.366665,30.3173314 214.74,30.696 C215.113335,31.0746686 215.401332,31.5333306 215.604,32.072 C215.806668,32.6106694 215.908,33.2106634 215.908,33.872 C215.908,34.5333366 215.806668,35.130664 215.604,35.664 C215.401332,36.197336 215.113335,36.6533314 214.74,37.032 C214.366665,37.4106686 213.916003,37.7013323 213.388,37.904 C212.859997,38.1066677 212.27067,38.208 211.62,38.208 Z M211.62,36.512 C212.004002,36.512 212.326665,36.4373341 212.588,36.288 C212.849335,36.1386659 213.057333,35.9386679 213.212,35.688 C213.366667,35.4373321 213.476,35.1546682 213.54,34.84 C213.604,34.5253318 213.636,34.2026683 213.636,33.872 C213.636,33.5413317 213.604,33.2160016 213.54,32.896 C213.476,32.5759984 213.366667,32.2933346 213.212,32.048 C213.057333,31.8026654 212.849335,31.6026674 212.588,31.448 C212.326665,31.2933326 212.004002,31.216 211.62,31.216 C211.235998,31.216 210.916001,31.2933326 210.66,31.448 C210.403999,31.6026674 210.198667,31.8026654 210.044,32.048 C209.889333,32.2933346 209.78,32.5759984 209.716,32.896 C209.652,33.2160016 209.62,33.5413317 209.62,33.872 C209.62,34.2026683 209.652,34.5253318 209.716,34.84 C209.78,35.1546682 209.889333,35.4373321 210.044,35.688 C210.198667,35.9386679 210.403999,36.1386659 210.66,36.288 C210.916001,36.4373341 211.235998,36.512 211.62,36.512 Z M217.544,29.728 L222.296,29.728 C222.658668,29.728 222.999998,29.7679996 223.32,29.848 C223.640002,29.9280004 223.919999,30.0506658 224.16,30.216 C224.400001,30.3813342 224.589333,30.597332 224.728,30.864 C224.866667,31.130668 224.936,31.4453315 224.936,31.808 C224.936,32.2133354 224.834668,32.5626652 224.632,32.856 C224.429332,33.1493348 224.157335,33.3706659 223.816,33.52 C224.242669,33.6373339 224.599999,33.858665 224.888,34.184 C225.176001,34.509335 225.32,34.9599971 225.32,35.536 C225.32,35.9413354 225.248001,36.2959985 225.104,36.6 C224.959999,36.9040015 224.760001,37.159999 224.504,37.368 C224.247999,37.576001 223.949335,37.7333328 223.608,37.84 C223.266665,37.9466672 222.904002,38 222.52,38 L217.544,38 L217.544,29.728 Z M221.464,36.528 C221.656001,36.528 221.842666,36.5146668 222.024,36.488 C222.205334,36.4613332 222.365333,36.410667 222.504,36.336 C222.642667,36.261333 222.754666,36.1520007 222.84,36.008 C222.925334,35.8639993 222.968,35.6746678 222.968,35.44 C222.968,35.2053322 222.922667,35.0133341 222.832,34.864 C222.741333,34.7146659 222.621334,34.602667 222.472,34.528 C222.322666,34.453333 222.152001,34.4026668 221.96,34.376 C221.767999,34.3493332 221.570668,34.336 221.368,34.336 L219.784,34.336 L219.784,36.528 L221.464,36.528 Z M221.288,33.056 C221.458668,33.056 221.623999,33.0453334 221.784,33.024 C221.944001,33.0026666 222.087999,32.9573337 222.216,32.888 C222.344001,32.8186663 222.445333,32.7226673 222.52,32.6 C222.594667,32.4773327 222.632,32.3093344 222.632,32.096 C222.632,31.8933323 222.594667,31.7306673 222.52,31.608 C222.445333,31.4853327 222.346667,31.3920003 222.224,31.328 C222.101333,31.2639997 221.957334,31.2213334 221.792,31.2 C221.626666,31.1786666 221.458668,31.168 221.288,31.168 L219.784,31.168 L219.784,33.056 L221.288,33.056 Z M226.876,29.728 L229.148,29.728 L229.148,33.104 L232.188,29.728 L234.86,29.728 L231.404,33.376 L235.308,38 L232.556,38 L229.628,34.56 L229.148,35.088 L229.148,38 L226.876,38 L226.876,29.728 Z M238.624,38.208 C238.229331,38.208 237.861335,38.1600005 237.52,38.064 C237.178665,37.9679995 236.880001,37.8186677 236.624,37.616 C236.367999,37.4133323 236.168001,37.1573349 236.024,36.848 C235.879999,36.5386651 235.808,36.1706688 235.808,35.744 C235.808,35.2746643 235.890666,34.8880015 236.056,34.584 C236.221334,34.2799985 236.434665,34.0373342 236.696,33.856 C236.957335,33.6746658 237.255998,33.5386671 237.592,33.448 C237.928002,33.3573329 238.266665,33.2853336 238.608,33.232 C238.949335,33.1786664 239.285332,33.1360002 239.616,33.104 C239.946668,33.0719998 240.239999,33.0240003 240.496,32.96 C240.752001,32.8959997 240.954666,32.8026673 241.104,32.68 C241.253334,32.5573327 241.322667,32.3786678 241.312,32.144 C241.312,31.9093322 241.272,31.7173341 241.192,31.568 C241.112,31.4186659 241.005334,31.3040004 240.872,31.224 C240.738666,31.1439996 240.584001,31.0906668 240.408,31.064 C240.231999,31.0373332 240.042668,31.024 239.84,31.024 C239.391998,31.024 239.040001,31.119999 238.784,31.312 C238.527999,31.504001 238.378667,31.8239978 238.336,32.272 L236.064,32.272 C236.096,31.7493307 236.229332,31.3093351 236.464,30.952 C236.698668,30.5946649 236.997332,30.3093344 237.36,30.096 C237.722668,29.8826656 238.127998,29.7306671 238.576,29.64 C239.024002,29.5493329 239.482664,29.504 239.952,29.504 C240.368002,29.504 240.789331,29.533333 241.216,29.592 C241.642669,29.650667 242.031998,29.7653325 242.384,29.936 C242.736002,30.1066675 243.023999,30.3466651 243.248,30.656 C243.472001,30.9653349 243.584,31.3653309 243.584,31.856 L243.584,36.16 C243.584,36.5333352 243.605333,36.890665 243.648,37.232 C243.690667,37.573335 243.765333,37.8293325 243.872,38 L241.568,38 C241.525333,37.8719994 241.490667,37.741334 241.464,37.608 C241.437333,37.474666 241.418667,37.3386674 241.408,37.2 C241.045332,37.5733352 240.618669,37.8346659 240.128,37.984 C239.637331,38.1333341 239.136003,38.208 238.624,38.208 Z M239.472,36.704 C239.920002,36.704 240.266665,36.6293341 240.512,36.48 C240.757335,36.3306659 240.938666,36.152001 241.056,35.944 C241.173334,35.735999 241.245333,35.5253344 241.272,35.312 C241.298667,35.0986656 241.312,34.9280006 241.312,34.8 L241.312,33.952 C241.216,34.0373338 241.098667,34.1039998 240.96,34.152 C240.821333,34.2000002 240.666668,34.2399998 240.496,34.272 C240.325332,34.3040002 240.149334,34.3306666 239.968,34.352 C239.786666,34.3733334 239.605334,34.3999998 239.424,34.432 C239.242666,34.4640002 239.072001,34.5066664 238.912,34.56 C238.751999,34.6133336 238.610667,34.6853329 238.488,34.776 C238.365333,34.8666671 238.266667,34.9813326 238.192,35.12 C238.117333,35.2586674 238.08,35.4346656 238.08,35.648 C238.08,35.8613344 238.117333,36.034666 238.192,36.168 C238.266667,36.301334 238.367999,36.4079996 238.496,36.488 C238.624001,36.5680004 238.773332,36.6239998 238.944,36.656 C239.114668,36.6880002 239.290666,36.704 239.472,36.704 Z M251.944,34.208 L249.512,34.208 C249.501333,34.9120035 249.629332,35.5199974 249.896,36.032 C250.162668,36.5440026 250.522664,36.9653317 250.976,37.296 C251.429336,37.6266683 251.951997,37.8693326 252.544,38.024 C253.136003,38.1786674 253.746664,38.256 254.376,38.256 C255.154671,38.256 255.839997,38.1653342 256.432,37.984 C257.024003,37.8026658 257.519998,37.549335 257.92,37.224 C258.320002,36.898665 258.621332,36.5120022 258.824,36.064 C259.026668,35.6159978 259.128,35.1306693 259.128,34.608 C259.128,33.9679968 258.992001,33.4426687 258.72,33.032 C258.447999,32.6213313 258.125335,32.2933346 257.752,32.048 C257.378665,31.8026654 257.002669,31.6240006 256.624,31.512 C256.245331,31.3999994 255.949334,31.3226669 255.736,31.28 C255.02133,31.0986658 254.442669,30.9493339 254,30.832 C253.557331,30.7146661 253.210668,30.5973339 252.96,30.48 C252.709332,30.3626661 252.541334,30.2346674 252.456,30.096 C252.370666,29.9573326 252.328,29.7760011 252.328,29.552 C252.328,29.3066654 252.381333,29.1040008 252.488,28.944 C252.594667,28.7839992 252.730666,28.6506672 252.896,28.544 C253.061334,28.4373328 253.245332,28.3626669 253.448,28.32 C253.650668,28.2773331 253.853332,28.256 254.056,28.256 C254.365335,28.256 254.650665,28.2826664 254.912,28.336 C255.173335,28.3893336 255.405332,28.4799994 255.608,28.608 C255.810668,28.7360006 255.973333,28.9119989 256.096,29.136 C256.218667,29.3600011 256.290667,29.642665 256.312,29.984 L258.744,29.984 C258.744,29.3226634 258.618668,28.7600023 258.368,28.296 C258.117332,27.8319977 257.778669,27.4506682 257.352,27.152 C256.925331,26.8533318 256.437336,26.637334 255.888,26.504 C255.338664,26.370666 254.765336,26.304 254.168,26.304 C253.655997,26.304 253.144003,26.3733326 252.632,26.512 C252.119997,26.6506674 251.661335,26.8639986 251.256,27.152 C250.850665,27.4400014 250.522668,27.7999978 250.272,28.232 C250.021332,28.6640022 249.896,29.1733304 249.896,29.76 C249.896,30.2826693 249.994666,30.7279982 250.192,31.096 C250.389334,31.4640018 250.647998,31.7706654 250.968,32.016 C251.288002,32.2613346 251.650665,32.4613326 252.056,32.616 C252.461335,32.7706674 252.877331,32.9013328 253.304,33.008 C253.720002,33.1253339 254.130665,33.2319995 254.536,33.328 C254.941335,33.4240005 255.303998,33.5359994 255.624,33.664 C255.944002,33.7920006 256.202666,33.951999 256.4,34.144 C256.597334,34.336001 256.696,34.5866651 256.696,34.896 C256.696,35.1840014 256.621334,35.4213324 256.472,35.608 C256.322666,35.7946676 256.136001,35.9413328 255.912,36.048 C255.687999,36.1546672 255.448001,36.2266665 255.192,36.264 C254.935999,36.3013335 254.696001,36.32 254.472,36.32 C254.141332,36.32 253.821335,36.2800004 253.512,36.2 C253.202665,36.1199996 252.933334,35.9973342 252.704,35.832 C252.474666,35.6666658 252.290667,35.450668 252.152,35.184 C252.013333,34.917332 251.944,34.5920019 251.944,34.208 Z M262.812,28.448 L262.812,26.576 L260.54,26.576 L260.54,28.448 L262.812,28.448 Z M260.54,29.728 L260.54,38 L262.812,38 L262.812,29.728 L260.54,29.728 Z M268.56,36.048 C268.880002,36.048 269.162665,35.9840006 269.408,35.856 C269.653335,35.7279994 269.855999,35.5573344 270.016,35.344 C270.176001,35.1306656 270.296,34.8880014 270.376,34.616 C270.456,34.3439986 270.496,34.0586682 270.496,33.76 C270.496,33.418665 270.464,33.0960015 270.4,32.792 C270.336,32.4879985 270.229334,32.2186678 270.08,31.984 C269.930666,31.7493322 269.733335,31.5626674 269.488,31.424 C269.242665,31.2853326 268.933335,31.216 268.56,31.216 C268.239998,31.216 267.965334,31.2799994 267.736,31.408 C267.506666,31.5360006 267.314667,31.7093322 267.16,31.928 C267.005333,32.1466678 266.893334,32.3973319 266.824,32.68 C266.754666,32.9626681 266.72,33.2586651 266.72,33.568 C266.72,33.8666682 266.749333,34.1626652 266.808,34.456 C266.866667,34.7493348 266.967999,35.0133322 267.112,35.248 C267.256001,35.4826678 267.445332,35.6746659 267.68,35.824 C267.914668,35.9733341 268.207998,36.048 268.56,36.048 Z M272.656,37.472 C272.656,37.8026683 272.610667,38.1813312 272.52,38.608 C272.429333,39.0346688 272.234668,39.4319982 271.936,39.8 C271.637332,40.1680018 271.205336,40.4799987 270.64,40.736 C270.074664,40.9920013 269.317338,41.12 268.368,41.12 C267.962665,41.12 267.549335,41.0693338 267.128,40.968 C266.706665,40.8666662 266.322668,40.7093344 265.976,40.496 C265.629332,40.2826656 265.341334,40.0080017 265.112,39.672 C264.882666,39.3359983 264.752,38.9333357 264.72,38.464 L266.976,38.464 C267.082667,38.8906688 267.290665,39.1866658 267.6,39.352 C267.909335,39.5173342 268.266665,39.6 268.672,39.6 C269.312003,39.6 269.778665,39.4080019 270.072,39.024 C270.365335,38.6399981 270.506667,38.1546696 270.496,37.568 L270.496,36.48 L270.464,36.48 C270.218665,36.9173355 269.869336,37.239999 269.416,37.448 C268.962664,37.656001 268.485336,37.76 267.984,37.76 C267.36533,37.76 266.832002,37.6506678 266.384,37.432 C265.935998,37.2133322 265.568001,36.9146686 265.28,36.536 C264.991999,36.1573314 264.781334,35.7146692 264.648,35.208 C264.514666,34.7013308 264.448,34.1653362 264.448,33.6 C264.448,33.066664 264.525333,32.5520025 264.68,32.056 C264.834667,31.5599975 265.061332,31.1226686 265.36,30.744 C265.658668,30.3653314 266.029331,30.0640011 266.472,29.84 C266.914669,29.6159989 267.423997,29.504 268,29.504 C268.544003,29.504 269.021331,29.6053323 269.432,29.808 C269.842669,30.0106677 270.186665,30.3519976 270.464,30.832 L270.496,30.832 L270.496,29.728 L272.656,29.728 L272.656,37.472 Z M275.076,31.248 L275.076,38 L277.348,38 L277.348,31.248 L278.916,31.248 L278.916,29.728 L277.348,29.728 L277.348,29.232 C277.348,28.890665 277.414666,28.6480007 277.548,28.504 C277.681334,28.3599993 277.902665,28.288 278.212,28.288 C278.500001,28.288 278.777332,28.3039998 279.044,28.336 L279.044,26.64 C278.851999,26.6293333 278.654668,26.6160001 278.452,26.6 C278.249332,26.5839999 278.046668,26.576 277.844,26.576 C276.915995,26.576 276.222669,26.8106643 275.764,27.28 C275.305331,27.7493357 275.076,28.3519963 275.076,29.088 L275.076,29.728 L273.716,29.728 L273.716,31.248 L275.076,31.248 Z M280.008,29.728 L280.008,38 L282.28,38 L282.28,34.272 C282.28,33.8986648 282.317333,33.5520016 282.392,33.232 C282.466667,32.9119984 282.591999,32.6320012 282.768,32.392 C282.944001,32.1519988 283.175999,31.9626674 283.464,31.824 C283.752001,31.6853326 284.103998,31.616 284.52,31.616 C284.658667,31.616 284.802666,31.6239999 284.952,31.64 C285.101334,31.6560001 285.229333,31.6746666 285.336,31.696 L285.336,29.584 C285.154666,29.5306664 284.989334,29.504 284.84,29.504 C284.551999,29.504 284.274668,29.5466662 284.008,29.632 C283.741332,29.7173338 283.490668,29.8373326 283.256,29.992 C283.021332,30.1466674 282.813334,30.3333322 282.632,30.552 C282.450666,30.7706678 282.306667,31.0079987 282.2,31.264 L282.168,31.264 L282.168,29.728 L280.008,29.728 Z M291.612,32.976 C291.505333,32.3999971 291.316001,31.9626682 291.044,31.664 C290.771999,31.3653318 290.358669,31.216 289.804,31.216 C289.441332,31.216 289.140001,31.2773327 288.9,31.4 C288.659999,31.5226673 288.468001,31.6746658 288.324,31.856 C288.179999,32.0373342 288.078667,32.2293323 288.02,32.432 C287.961333,32.6346677 287.926667,32.8159992 287.916,32.976 L291.612,32.976 Z M287.916,34.416 C287.948,35.1520037 288.134665,35.6853317 288.476,36.016 C288.817335,36.3466683 289.307997,36.512 289.948,36.512 C290.406669,36.512 290.801332,36.3973345 291.132,36.168 C291.462668,35.9386655 291.665333,35.6960013 291.74,35.44 L293.74,35.44 C293.419998,36.432005 292.929337,37.1413312 292.268,37.568 C291.606663,37.9946688 290.806671,38.208 289.868,38.208 C289.21733,38.208 288.630669,38.104001 288.108,37.896 C287.585331,37.687999 287.142669,37.3920019 286.78,37.008 C286.417332,36.6239981 286.137334,36.165336 285.94,35.632 C285.742666,35.098664 285.644,34.5120032 285.644,33.872 C285.644,33.2533302 285.745332,32.677336 285.948,32.144 C286.150668,31.610664 286.438665,31.1493353 286.812,30.76 C287.185335,30.3706647 287.630664,30.0640011 288.148,29.84 C288.665336,29.6159989 289.238664,29.504 289.868,29.504 C290.572004,29.504 291.185331,29.6399986 291.708,29.912 C292.230669,30.1840014 292.659998,30.549331 292.996,31.008 C293.332002,31.466669 293.574666,31.9893304 293.724,32.576 C293.873334,33.1626696 293.926667,33.7759968 293.884,34.416 L287.916,34.416 Z M301.2,33.84 C301.2,33.498665 301.168,33.1706682 301.104,32.856 C301.04,32.5413318 300.930667,32.2640012 300.776,32.024 C300.621333,31.7839988 300.421335,31.5893341 300.176,31.44 C299.930665,31.2906659 299.621335,31.216 299.248,31.216 C298.874665,31.216 298.560001,31.2906659 298.304,31.44 C298.047999,31.5893341 297.842667,31.7866654 297.688,32.032 C297.533333,32.2773346 297.421334,32.5573318 297.352,32.872 C297.282666,33.1866682 297.248,33.514665 297.248,33.856 C297.248,34.1760016 297.285333,34.4959984 297.36,34.816 C297.434667,35.1360016 297.554666,35.4213321 297.72,35.672 C297.885334,35.9226679 298.093332,36.1253326 298.344,36.28 C298.594668,36.4346674 298.895998,36.512 299.248,36.512 C299.621335,36.512 299.933332,36.4373341 300.184,36.288 C300.434668,36.1386659 300.634666,35.9386679 300.784,35.688 C300.933334,35.4373321 301.04,35.1520016 301.104,34.832 C301.168,34.5119984 301.2,34.181335 301.2,33.84 Z M301.232,36.944 L301.2,36.944 C300.933332,37.3920022 300.584002,37.7146657 300.152,37.912 C299.719998,38.1093343 299.232003,38.208 298.688,38.208 C298.06933,38.208 297.525336,38.0880012 297.056,37.848 C296.586664,37.6079988 296.200002,37.2826687 295.896,36.872 C295.591999,36.4613313 295.362667,35.989336 295.208,35.456 C295.053333,34.922664 294.976,34.3680029 294.976,33.792 C294.976,33.2373306 295.053333,32.7013359 295.208,32.184 C295.362667,31.6666641 295.591999,31.2106686 295.896,30.816 C296.200002,30.4213314 296.581331,30.1040012 297.04,29.864 C297.498669,29.6239988 298.031997,29.504 298.64,29.504 C299.130669,29.504 299.597331,29.607999 300.04,29.816 C300.482669,30.024001 300.831999,30.3306646 301.088,30.736 L301.12,30.736 L301.12,26.576 L303.392,26.576 L303.392,38 L301.232,38 L301.232,36.944 Z" id="Установка-Sigfred" fill="#303030"></path>
            <path d="M357.135,118.4 L357.135,120.2 L364.535,120.2 L364.535,141 L367.055,141 L367.055,113 L365.015,113 C364.828332,114.280006 364.515002,115.27333 364.075,115.98 C363.634998,116.68667 363.088337,117.213332 362.435,117.56 C361.781663,117.906668 361.008338,118.126666 360.115,118.22 C359.221662,118.313334 358.228339,118.373333 357.135,118.4 Z" id="1" fill="#FFFFFF"></path>
            <path d="M161.248,53.576 L162.768,53.576 L162.768,58.488 L168.784,58.488 L168.784,53.576 L170.304,53.576 L170.304,65 L168.784,65 L168.784,59.768 L162.768,59.768 L162.768,65 L161.248,65 L161.248,53.576 Z M176.196,65.176 C175.534663,65.176 174.956002,65.0693344 174.46,64.856 C173.963998,64.6426656 173.550668,64.3440019 173.22,63.96 C172.889332,63.5759981 172.641334,63.117336 172.476,62.584 C172.310666,62.050664 172.228,61.4693365 172.228,60.84 C172.228,60.2213302 172.323999,59.6480026 172.516,59.12 C172.708001,58.5919974 172.977332,58.1360019 173.324,57.752 C173.670668,57.3679981 174.081331,57.0693344 174.556,56.856 C175.030669,56.6426656 175.550664,56.536 176.116,56.536 C176.852004,56.536 177.462664,56.6879985 177.948,56.992 C178.433336,57.2960015 178.822665,57.6826643 179.116,58.152 C179.409335,58.6213357 179.611999,59.1333306 179.724,59.688 C179.836001,60.2426694 179.881333,60.7706642 179.86,61.272 L173.668,61.272 C173.657333,61.6346685 173.7,61.978665 173.796,62.304 C173.892,62.629335 174.046666,62.9173321 174.26,63.168 C174.473334,63.4186679 174.745332,63.6186659 175.076,63.768 C175.406668,63.9173341 175.795998,63.992 176.244,63.992 C176.820003,63.992 177.291998,63.858668 177.66,63.592 C178.028002,63.325332 178.270666,62.9200027 178.388,62.376 L179.732,62.376 C179.550666,63.3146714 179.15067,64.0159977 178.532,64.48 C177.91333,64.9440023 177.134671,65.176 176.196,65.176 Z M178.42,60.072 C178.398667,59.7519984 178.326667,59.4480014 178.204,59.16 C178.081333,58.8719986 177.916001,58.624001 177.708,58.416 C177.499999,58.207999 177.254668,58.0426673 176.972,57.92 C176.689332,57.7973327 176.377335,57.736 176.036,57.736 C175.683998,57.736 175.366668,57.7973327 175.084,57.92 C174.801332,58.0426673 174.558668,58.2106656 174.356,58.424 C174.153332,58.6373344 173.993334,58.8853319 173.876,59.168 C173.758666,59.4506681 173.689333,59.7519984 173.668,60.072 L178.42,60.072 Z M184.936,65.176 C184.274663,65.176 183.696002,65.0666678 183.2,64.848 C182.703998,64.6293322 182.285335,64.3253353 181.944,63.936 C181.602665,63.5466647 181.346668,63.0906693 181.176,62.568 C181.005332,62.0453307 180.92,61.480003 180.92,60.872 C180.92,60.263997 181.005332,59.6960026 181.176,59.168 C181.346668,58.6399974 181.602665,58.1813353 181.944,57.792 C182.285335,57.4026647 182.703998,57.0960011 183.2,56.872 C183.696002,56.6479989 184.274663,56.536 184.936,56.536 C185.58667,56.536 186.162664,56.6479989 186.664,56.872 C187.165336,57.0960011 187.586665,57.4026647 187.928,57.792 C188.269335,58.1813353 188.525332,58.6399974 188.696,59.168 C188.866668,59.6960026 188.952,60.263997 188.952,60.872 C188.952,61.480003 188.866668,62.0453307 188.696,62.568 C188.525332,63.0906693 188.269335,63.5466647 187.928,63.936 C187.586665,64.3253353 187.165336,64.6293322 186.664,64.848 C186.162664,65.0666678 185.58667,65.176 184.936,65.176 Z M184.936,63.992 C185.288002,63.992 185.621332,63.9226674 185.936,63.784 C186.250668,63.6453326 186.525332,63.4453346 186.76,63.184 C186.994668,62.9226654 187.178666,62.5973353 187.312,62.208 C187.445334,61.8186647 187.512,61.3733358 187.512,60.872 C187.512,60.3706642 187.445334,59.9253353 187.312,59.536 C187.178666,59.1466647 186.994668,58.818668 186.76,58.552 C186.525332,58.285332 186.250668,58.0826674 185.936,57.944 C185.621332,57.8053326 185.288002,57.736 184.936,57.736 C184.583998,57.736 184.250668,57.8053326 183.936,57.944 C183.621332,58.0826674 183.346668,58.285332 183.112,58.552 C182.877332,58.818668 182.693334,59.1466647 182.56,59.536 C182.426666,59.9253353 182.36,60.3706642 182.36,60.872 C182.36,61.3733358 182.426666,61.8186647 182.56,62.208 C182.693334,62.5973353 182.877332,62.9226654 183.112,63.184 C183.346668,63.4453346 183.621332,63.6453326 183.936,63.784 C184.250668,63.9226674 184.583998,63.992 184.936,63.992 Z M194.348,65.176 C193.281328,65.176 192.420003,64.9040027 191.764,64.36 C191.107997,63.8159973 190.694668,62.973339 190.524,61.832 C190.46,61.3839978 190.428,60.8826694 190.428,60.328 C190.428,59.9333314 190.441333,59.5226688 190.468,59.096 C190.494667,58.6693312 190.542666,58.2480021 190.612,57.832 C190.681334,57.4159979 190.777333,57.0160019 190.9,56.632 C191.022667,56.2479981 191.185332,55.9013349 191.388,55.592 C191.750668,55.0266638 192.193331,54.6080014 192.716,54.336 C193.238669,54.0639986 193.894663,53.9013336 194.684,53.848 C195.206669,53.8053331 195.643998,53.7573336 195.996,53.704 C196.348002,53.6506664 196.545333,53.5173344 196.588,53.304 L197.948,53.304 C197.926667,53.7200021 197.836001,54.0399989 197.676,54.264 C197.515999,54.4880011 197.292001,54.6559994 197.004,54.768 C196.715999,54.8800006 196.364002,54.9546665 195.948,54.992 C195.531998,55.0293335 195.046669,55.0693331 194.492,55.112 C194.033331,55.1440002 193.633335,55.2506658 193.292,55.432 C192.950665,55.6133342 192.660001,55.8559985 192.42,56.16 C192.179999,56.4640015 191.985334,56.8213313 191.836,57.232 C191.686666,57.6426687 191.58,58.0933309 191.516,58.584 L191.564,58.584 C191.798668,58.0399973 192.163998,57.5920018 192.66,57.24 C193.156002,56.8879982 193.755996,56.712 194.46,56.712 C195.622672,56.712 196.539997,57.074663 197.212,57.8 C197.884003,58.525337 198.22,59.5706598 198.22,60.936 C198.22,61.6293368 198.126668,62.2399974 197.94,62.768 C197.753332,63.2960026 197.489335,63.7386649 197.148,64.096 C196.806665,64.4533351 196.398669,64.7226658 195.924,64.904 C195.449331,65.0853342 194.924003,65.176 194.348,65.176 Z M194.364,64.024 C194.684002,64.024 194.993332,63.957334 195.292,63.824 C195.590668,63.690666 195.851999,63.4960013 196.076,63.24 C196.300001,62.9839987 196.481333,62.6666686 196.62,62.288 C196.758667,61.9093314 196.828,61.4693358 196.828,60.968 C196.828,59.9973285 196.604002,59.2346694 196.156,58.68 C195.707998,58.1253306 195.100004,57.848 194.332,57.848 C193.563996,57.848 192.953336,58.1279972 192.5,58.688 C192.046664,59.2480028 191.82,60.0133285 191.82,60.984 C191.82,61.9226714 192.043998,62.6639973 192.492,63.208 C192.940002,63.7520027 193.563996,64.024 194.364,64.024 Z M202.144,60.648 L199.264,56.728 L201.008,56.728 L202.992,59.624 L205.056,56.728 L206.688,56.728 L203.84,60.536 L207.04,65 L205.296,65 L202.992,61.576 L200.688,65 L199.04,65 L202.144,60.648 Z M211.876,65.176 C211.214663,65.176 210.636002,65.0666678 210.14,64.848 C209.643998,64.6293322 209.225335,64.3253353 208.884,63.936 C208.542665,63.5466647 208.286668,63.0906693 208.116,62.568 C207.945332,62.0453307 207.86,61.480003 207.86,60.872 C207.86,60.263997 207.945332,59.6960026 208.116,59.168 C208.286668,58.6399974 208.542665,58.1813353 208.884,57.792 C209.225335,57.4026647 209.643998,57.0960011 210.14,56.872 C210.636002,56.6479989 211.214663,56.536 211.876,56.536 C212.52667,56.536 213.102664,56.6479989 213.604,56.872 C214.105336,57.0960011 214.526665,57.4026647 214.868,57.792 C215.209335,58.1813353 215.465332,58.6399974 215.636,59.168 C215.806668,59.6960026 215.892,60.263997 215.892,60.872 C215.892,61.480003 215.806668,62.0453307 215.636,62.568 C215.465332,63.0906693 215.209335,63.5466647 214.868,63.936 C214.526665,64.3253353 214.105336,64.6293322 213.604,64.848 C213.102664,65.0666678 212.52667,65.176 211.876,65.176 Z M211.876,63.992 C212.228002,63.992 212.561332,63.9226674 212.876,63.784 C213.190668,63.6453326 213.465332,63.4453346 213.7,63.184 C213.934668,62.9226654 214.118666,62.5973353 214.252,62.208 C214.385334,61.8186647 214.452,61.3733358 214.452,60.872 C214.452,60.3706642 214.385334,59.9253353 214.252,59.536 C214.118666,59.1466647 213.934668,58.818668 213.7,58.552 C213.465332,58.285332 213.190668,58.0826674 212.876,57.944 C212.561332,57.8053326 212.228002,57.736 211.876,57.736 C211.523998,57.736 211.190668,57.8053326 210.876,57.944 C210.561332,58.0826674 210.286668,58.285332 210.052,58.552 C209.817332,58.818668 209.633334,59.1466647 209.5,59.536 C209.366666,59.9253353 209.3,60.3706642 209.3,60.872 C209.3,61.3733358 209.366666,61.8186647 209.5,62.208 C209.633334,62.5973353 209.817332,62.9226654 210.052,63.184 C210.286668,63.4453346 210.561332,63.6453326 210.876,63.784 C211.190668,63.9226674 211.523998,63.992 211.876,63.992 Z M216.616,63.8 L217.592,63.8 C217.709334,63.5759989 217.829333,63.2693353 217.952,62.88 C218.074667,62.4906647 218.186666,62.058669 218.288,61.584 C218.389334,61.109331 218.472,60.605336 218.536,60.072 C218.6,59.538664 218.632,59.0160026 218.632,58.504 L218.632,56.728 L224.616,56.728 L224.616,63.8 L225.736,63.8 L225.736,67.512 L224.44,67.512 L224.44,65 L217.912,65 L217.912,67.512 L216.616,67.512 L216.616,63.8 Z M223.256,63.8 L223.256,57.928 L219.96,57.928 L219.96,58.632 C219.96,59.1546693 219.930667,59.6746641 219.872,60.192 C219.813333,60.7093359 219.736,61.197331 219.64,61.656 C219.544,62.114669 219.440001,62.5306648 219.328,62.904 C219.215999,63.2773352 219.106667,63.5759989 219,63.8 L223.256,63.8 Z M227.116,56.728 L228.476,56.728 L228.476,63.48 L232.38,56.728 L234.124,56.728 L234.124,65 L232.764,65 L232.764,58.248 L228.86,65 L227.116,65 L227.116,56.728 Z M236.272,56.728 L238.224,56.728 L240.736,63.432 L240.768,63.432 L243.28,56.728 L245.232,56.728 L245.232,65 L243.872,65 L243.872,58.44 L241.376,65 L240.128,65 L237.632,58.44 L237.632,65 L236.272,65 L236.272,56.728 Z M250.948,65.176 C250.286663,65.176 249.708002,65.0666678 249.212,64.848 C248.715998,64.6293322 248.297335,64.3253353 247.956,63.936 C247.614665,63.5466647 247.358668,63.0906693 247.188,62.568 C247.017332,62.0453307 246.932,61.480003 246.932,60.872 C246.932,60.263997 247.017332,59.6960026 247.188,59.168 C247.358668,58.6399974 247.614665,58.1813353 247.956,57.792 C248.297335,57.4026647 248.715998,57.0960011 249.212,56.872 C249.708002,56.6479989 250.286663,56.536 250.948,56.536 C251.59867,56.536 252.174664,56.6479989 252.676,56.872 C253.177336,57.0960011 253.598665,57.4026647 253.94,57.792 C254.281335,58.1813353 254.537332,58.6399974 254.708,59.168 C254.878668,59.6960026 254.964,60.263997 254.964,60.872 C254.964,61.480003 254.878668,62.0453307 254.708,62.568 C254.537332,63.0906693 254.281335,63.5466647 253.94,63.936 C253.598665,64.3253353 253.177336,64.6293322 252.676,64.848 C252.174664,65.0666678 251.59867,65.176 250.948,65.176 Z M250.948,63.992 C251.300002,63.992 251.633332,63.9226674 251.948,63.784 C252.262668,63.6453326 252.537332,63.4453346 252.772,63.184 C253.006668,62.9226654 253.190666,62.5973353 253.324,62.208 C253.457334,61.8186647 253.524,61.3733358 253.524,60.872 C253.524,60.3706642 253.457334,59.9253353 253.324,59.536 C253.190666,59.1466647 253.006668,58.818668 252.772,58.552 C252.537332,58.285332 252.262668,58.0826674 251.948,57.944 C251.633332,57.8053326 251.300002,57.736 250.948,57.736 C250.595998,57.736 250.262668,57.8053326 249.948,57.944 C249.633332,58.0826674 249.358668,58.285332 249.124,58.552 C248.889332,58.818668 248.705334,59.1466647 248.572,59.536 C248.438666,59.9253353 248.372,60.3706642 248.372,60.872 C248.372,61.3733358 248.438666,61.8186647 248.572,62.208 C248.705334,62.5973353 248.889332,62.9226654 249.124,63.184 C249.358668,63.4453346 249.633332,63.6453326 249.948,63.784 C250.262668,63.9226674 250.595998,63.992 250.948,63.992 Z M262.06,68.296 C261.899999,68.296 261.740001,68.2853334 261.58,68.264 C261.419999,68.2426666 261.265334,68.2053336 261.116,68.152 L261.116,66.904 C261.244001,66.9466669 261.374666,66.9893331 261.508,67.032 C261.641334,67.0746669 261.777333,67.096 261.916,67.096 C262.193335,67.096 262.417332,67.0320006 262.588,66.904 C262.758668,66.7759994 262.907999,66.5893346 263.036,66.344 L263.596,64.952 L260.316,56.728 L261.852,56.728 L264.268,63.496 L264.3,63.496 L266.62,56.728 L268.06,56.728 L264.46,66.088 C264.299999,66.4933354 264.142667,66.8346653 263.988,67.112 C263.833333,67.3893347 263.662668,67.6159991 263.476,67.792 C263.289332,67.9680009 263.081334,68.0959996 262.852,68.176 C262.622666,68.2560004 262.358668,68.296 262.06,68.296 Z M272.736,65.176 C272.106664,65.176 271.549336,65.0746677 271.064,64.872 C270.578664,64.6693323 270.173335,64.3813352 269.848,64.008 C269.522665,63.6346648 269.277334,63.1920026 269.112,62.68 C268.946666,62.1679974 268.864,61.5973365 268.864,60.968 C268.864,60.3493302 268.943999,59.7706694 269.104,59.232 C269.264001,58.6933306 269.506665,58.224002 269.832,57.824 C270.157335,57.423998 270.562664,57.1093345 271.048,56.88 C271.533336,56.6506655 272.106663,56.536 272.768,56.536 C273.237336,56.536 273.677331,56.5919994 274.088,56.704 C274.498669,56.8160006 274.861332,56.9893322 275.176,57.224 C275.490668,57.4586678 275.749332,57.7546649 275.952,58.112 C276.154668,58.4693351 276.282666,58.8933309 276.336,59.384 L274.928,59.384 C274.821333,58.8613307 274.597335,58.4560014 274.256,58.168 C273.914665,57.8799986 273.456003,57.736 272.88,57.736 C272.389331,57.736 271.978668,57.8266658 271.648,58.008 C271.317332,58.1893342 271.053334,58.4293318 270.856,58.728 C270.658666,59.0266682 270.517334,59.3706647 270.432,59.76 C270.346666,60.1493353 270.304,60.5519979 270.304,60.968 C270.304,61.3520019 270.349333,61.7253315 270.44,62.088 C270.530667,62.4506685 270.671999,62.7733319 270.864,63.056 C271.056001,63.3386681 271.303998,63.5653325 271.608,63.736 C271.912002,63.9066675 272.282664,63.992 272.72,63.992 C273.392003,63.992 273.917331,63.8160018 274.296,63.464 C274.674669,63.1119982 274.906666,62.6160032 274.992,61.976 L276.384,61.976 C276.234666,63.0106718 275.856003,63.8026639 275.248,64.352 C274.639997,64.9013361 273.802672,65.176 272.736,65.176 Z M280.004,57.928 L277.044,57.928 L277.044,56.728 L284.324,56.728 L284.324,57.928 L281.364,57.928 L281.364,65 L280.004,65 L280.004,57.928 Z M287.8,65.176 C287.426665,65.176 287.074668,65.1360004 286.744,65.056 C286.413332,64.9759996 286.122668,64.8426676 285.872,64.656 C285.621332,64.4693324 285.424001,64.2293348 285.28,63.936 C285.135999,63.6426652 285.064,63.2880021 285.064,62.872 C285.064,62.4026643 285.143999,62.0186682 285.304,61.72 C285.464001,61.4213318 285.674665,61.1786676 285.936,60.992 C286.197335,60.8053324 286.495998,60.6640005 286.832,60.568 C287.168002,60.4719995 287.511998,60.3920003 287.864,60.328 C288.237335,60.253333 288.591998,60.1973335 288.928,60.16 C289.264002,60.1226665 289.559999,60.0693337 289.816,60 C290.072001,59.9306663 290.274666,59.829334 290.424,59.696 C290.573334,59.562666 290.648,59.3680013 290.648,59.112 C290.648,58.8133318 290.592001,58.5733342 290.48,58.392 C290.367999,58.2106658 290.224001,58.0720005 290.048,57.976 C289.871999,57.8799995 289.674668,57.8160002 289.456,57.784 C289.237332,57.7519998 289.021334,57.736 288.808,57.736 C288.231997,57.736 287.752002,57.8453322 287.368,58.064 C286.983998,58.2826678 286.776,58.695997 286.744,59.304 L285.384,59.304 C285.405333,58.7919974 285.511999,58.3600018 285.704,58.008 C285.896001,57.6559982 286.151998,57.3706678 286.472,57.152 C286.792002,56.9333322 287.157331,56.7760005 287.568,56.68 C287.978669,56.5839995 288.418664,56.536 288.888,56.536 C289.261335,56.536 289.631998,56.5626664 290,56.616 C290.368002,56.6693336 290.701332,56.7786658 291,56.944 C291.298668,57.1093342 291.538666,57.3413318 291.72,57.64 C291.901334,57.9386682 291.992,58.3279976 291.992,58.808 L291.992,63.064 C291.992,63.3840016 292.010667,63.6186659 292.048,63.768 C292.085334,63.9173341 292.210666,63.992 292.424,63.992 C292.520001,63.992 292.658666,63.9653336 292.84,63.912 L292.84,64.968 C292.605332,65.1066674 292.280002,65.176 291.864,65.176 C291.511998,65.176 291.232001,65.0773343 291.024,64.88 C290.815999,64.6826657 290.712,64.3600022 290.712,63.912 C290.338665,64.3600022 289.904003,64.6826657 289.408,64.88 C288.911998,65.0773343 288.376003,65.176 287.8,65.176 Z M288.104,63.992 C288.552002,63.992 288.935998,63.9306673 289.256,63.808 C289.576002,63.6853327 289.837332,63.5306676 290.04,63.344 C290.242668,63.1573324 290.392,62.9546678 290.488,62.736 C290.584001,62.5173322 290.632,62.312001 290.632,62.12 L290.632,60.728 C290.461333,60.8666674 290.237335,60.9626664 289.96,61.016 C289.682665,61.0693336 289.392002,61.1173331 289.088,61.16 C288.783999,61.2026669 288.477335,61.2453331 288.168,61.288 C287.858665,61.3306669 287.581335,61.4053328 287.336,61.512 C287.090665,61.6186672 286.890667,61.7706657 286.736,61.968 C286.581333,62.1653343 286.504,62.434665 286.504,62.776 C286.504,63.0000011 286.549333,63.1893326 286.64,63.344 C286.730667,63.4986674 286.847999,63.6239995 286.992,63.72 C287.136001,63.8160005 287.303999,63.8853331 287.496,63.928 C287.688001,63.9706669 287.890666,63.992 288.104,63.992 Z M294.204,56.728 L295.564,56.728 L295.564,60.024 L299.756,60.024 L299.756,56.728 L301.116,56.728 L301.116,65 L299.756,65 L299.756,61.192 L295.564,61.192 L295.564,65 L294.204,65 L294.204,56.728 Z M306.832,65.176 C306.170663,65.176 305.592003,65.0666678 305.096,64.848 C304.599998,64.6293322 304.181335,64.3253353 303.84,63.936 C303.498665,63.5466647 303.242668,63.0906693 303.072,62.568 C302.901333,62.0453307 302.816,61.480003 302.816,60.872 C302.816,60.263997 302.901333,59.6960026 303.072,59.168 C303.242668,58.6399974 303.498665,58.1813353 303.84,57.792 C304.181335,57.4026647 304.599998,57.0960011 305.096,56.872 C305.592003,56.6479989 306.170663,56.536 306.832,56.536 C307.48267,56.536 308.058664,56.6479989 308.56,56.872 C309.061336,57.0960011 309.482665,57.4026647 309.824,57.792 C310.165335,58.1813353 310.421333,58.6399974 310.592,59.168 C310.762668,59.6960026 310.848,60.263997 310.848,60.872 C310.848,61.480003 310.762668,62.0453307 310.592,62.568 C310.421333,63.0906693 310.165335,63.5466647 309.824,63.936 C309.482665,64.3253353 309.061336,64.6293322 308.56,64.848 C308.058664,65.0666678 307.48267,65.176 306.832,65.176 Z M306.832,63.992 C307.184002,63.992 307.517332,63.9226674 307.832,63.784 C308.146668,63.6453326 308.421332,63.4453346 308.656,63.184 C308.890668,62.9226654 309.074666,62.5973353 309.208,62.208 C309.341334,61.8186647 309.408,61.3733358 309.408,60.872 C309.408,60.3706642 309.341334,59.9253353 309.208,59.536 C309.074666,59.1466647 308.890668,58.818668 308.656,58.552 C308.421332,58.285332 308.146668,58.0826674 307.832,57.944 C307.517332,57.8053326 307.184002,57.736 306.832,57.736 C306.479998,57.736 306.146668,57.8053326 305.832,57.944 C305.517332,58.0826674 305.242668,58.285332 305.008,58.552 C304.773332,58.818668 304.589334,59.1466647 304.456,59.536 C304.322666,59.9253353 304.256,60.3706642 304.256,60.872 C304.256,61.3733358 304.322666,61.8186647 304.456,62.208 C304.589334,62.5973353 304.773332,62.9226654 305.008,63.184 C305.242668,63.4453346 305.517332,63.6453326 305.832,63.784 C306.146668,63.9226674 306.479998,63.992 306.832,63.992 Z M312.548,56.728 L316.372,56.728 C316.734669,56.728 317.083998,56.7546664 317.42,56.808 C317.756002,56.8613336 318.057332,56.9599993 318.324,57.104 C318.590668,57.2480007 318.803999,57.453332 318.964,57.72 C319.124001,57.986668 319.204,58.3279979 319.204,58.744 C319.204,59.1920022 319.097334,59.5546653 318.884,59.832 C318.670666,60.1093347 318.372002,60.3386658 317.988,60.52 L317.988,60.536 C318.468002,60.6320005 318.849332,60.8559982 319.132,61.208 C319.414668,61.5600018 319.556,62.0133306 319.556,62.568 C319.556,62.9200018 319.494667,63.2453318 319.372,63.544 C319.249333,63.8426682 319.076001,64.0986656 318.852,64.312 C318.627999,64.5253344 318.361335,64.6933327 318.052,64.816 C317.742665,64.9386673 317.406669,65 317.044,65 L312.548,65 L312.548,56.728 Z M316.788,63.848 C317.236002,63.848 317.574666,63.7173346 317.804,63.456 C318.033335,63.1946654 318.148,62.8666686 318.148,62.472 C318.148,62.0986648 318.025335,61.8000011 317.78,61.576 C317.534665,61.3519989 317.124003,61.24 316.548,61.24 L313.892,61.24 L313.892,63.848 L316.788,63.848 Z M316.228,60.12 C316.81467,60.12 317.222666,60.0133344 317.452,59.8 C317.681335,59.5866656 317.796,59.3040018 317.796,58.952 C317.796,58.610665 317.684001,58.3466676 317.46,58.16 C317.235999,57.9733324 316.825336,57.88 316.228,57.88 L313.892,57.88 L313.892,60.12 L316.228,60.12 Z M321.288,56.728 L322.648,56.728 L322.648,63.48 L326.552,56.728 L328.296,56.728 L328.296,65 L326.936,65 L326.936,58.248 L323.032,65 L321.288,65 L321.288,56.728 Z M332.444,57.928 L329.484,57.928 L329.484,56.728 L336.764,56.728 L336.764,57.928 L333.804,57.928 L333.804,65 L332.444,65 L332.444,57.928 Z M338.032,56.728 L339.392,56.728 L339.392,59.896 L342.336,59.896 C343.146671,59.896 343.797331,60.1173311 344.288,60.56 C344.778669,61.0026689 345.024,61.623996 345.024,62.424 C345.024,63.2026706 344.789336,63.8266643 344.32,64.296 C343.850664,64.7653357 343.210671,65 342.4,65 L338.032,65 L338.032,56.728 Z M341.904,63.8 C343.045339,63.8 343.616,63.3413379 343.616,62.424 C343.616,61.5173288 343.045339,61.064 341.904,61.064 L339.392,61.064 L339.392,63.8 L341.904,63.8 Z M161.024,76.728 L162.384,76.728 L162.384,80.68 L166.176,76.728 L167.984,76.728 L164.32,80.312 L168.416,85 L166.672,85 L163.216,81.064 L162.384,81.88 L162.384,85 L161.024,85 L161.024,76.728 Z M169.588,76.728 L170.948,76.728 L170.948,77.848 L170.98,77.848 C171.204001,77.389331 171.555998,77.056001 172.036,76.848 C172.516002,76.639999 173.043997,76.536 173.62,76.536 C174.260003,76.536 174.817331,76.6533322 175.292,76.888 C175.766669,77.1226678 176.161332,77.439998 176.476,77.84 C176.790668,78.240002 177.027999,78.7013307 177.188,79.224 C177.348001,79.7466693 177.428,80.3013304 177.428,80.888 C177.428,81.4853363 177.350667,82.0426641 177.196,82.56 C177.041333,83.0773359 176.806668,83.5306647 176.492,83.92 C176.177332,84.3093353 175.782669,84.6159989 175.308,84.84 C174.833331,85.0640011 174.281336,85.176 173.652,85.176 C173.438666,85.176 173.209335,85.1546669 172.964,85.112 C172.718665,85.0693331 172.473335,85.0000005 172.228,84.904 C171.982665,84.8079995 171.750668,84.6773342 171.532,84.512 C171.313332,84.3466658 171.129334,84.1413346 170.98,83.896 L170.948,83.896 L170.948,88.152 L169.588,88.152 L169.588,76.728 Z M173.508,83.992 C173.966669,83.992 174.355998,83.9013342 174.676,83.72 C174.996002,83.5386658 175.251999,83.2986682 175.444,83 C175.636001,82.7013318 175.774666,82.3600019 175.86,81.976 C175.945334,81.5919981 175.988,81.1973354 175.988,80.792 C175.988,80.4079981 175.937334,80.0320018 175.836,79.664 C175.734666,79.2959982 175.580001,78.9680014 175.372,78.68 C175.163999,78.3919986 174.897335,78.1626675 174.572,77.992 C174.246665,77.8213325 173.865336,77.736 173.428,77.736 C172.969331,77.736 172.580002,77.8266658 172.26,78.008 C171.939998,78.1893342 171.678668,78.4266652 171.476,78.72 C171.273332,79.0133348 171.126667,79.3466648 171.036,79.72 C170.945333,80.0933352 170.9,80.4719981 170.9,80.856 C170.9,81.2613354 170.948,81.6533314 171.044,82.032 C171.14,82.4106686 171.291999,82.7439986 171.5,83.032 C171.708001,83.3200014 171.977332,83.5519991 172.308,83.728 C172.638668,83.9040009 173.038664,83.992 173.508,83.992 Z M182.696,85.176 C182.034663,85.176 181.456002,85.0666678 180.96,84.848 C180.463998,84.6293322 180.045335,84.3253353 179.704,83.936 C179.362665,83.5466647 179.106668,83.0906693 178.936,82.568 C178.765332,82.0453307 178.68,81.480003 178.68,80.872 C178.68,80.263997 178.765332,79.6960026 178.936,79.168 C179.106668,78.6399974 179.362665,78.1813353 179.704,77.792 C180.045335,77.4026647 180.463998,77.0960011 180.96,76.872 C181.456002,76.6479989 182.034663,76.536 182.696,76.536 C183.34667,76.536 183.922664,76.6479989 184.424,76.872 C184.925336,77.0960011 185.346665,77.4026647 185.688,77.792 C186.029335,78.1813353 186.285332,78.6399974 186.456,79.168 C186.626668,79.6960026 186.712,80.263997 186.712,80.872 C186.712,81.480003 186.626668,82.0453307 186.456,82.568 C186.285332,83.0906693 186.029335,83.5466647 185.688,83.936 C185.346665,84.3253353 184.925336,84.6293322 184.424,84.848 C183.922664,85.0666678 183.34667,85.176 182.696,85.176 Z M182.696,83.992 C183.048002,83.992 183.381332,83.9226674 183.696,83.784 C184.010668,83.6453326 184.285332,83.4453346 184.52,83.184 C184.754668,82.9226654 184.938666,82.5973353 185.072,82.208 C185.205334,81.8186647 185.272,81.3733358 185.272,80.872 C185.272,80.3706642 185.205334,79.9253353 185.072,79.536 C184.938666,79.1466647 184.754668,78.818668 184.52,78.552 C184.285332,78.285332 184.010668,78.0826674 183.696,77.944 C183.381332,77.8053326 183.048002,77.736 182.696,77.736 C182.343998,77.736 182.010668,77.8053326 181.696,77.944 C181.381332,78.0826674 181.106668,78.285332 180.872,78.552 C180.637332,78.818668 180.453334,79.1466647 180.32,79.536 C180.186666,79.9253353 180.12,80.3706642 180.12,80.872 C180.12,81.3733358 180.186666,81.8186647 180.32,82.208 C180.453334,82.5973353 180.637332,82.9226654 180.872,83.184 C181.106668,83.4453346 181.381332,83.6453326 181.696,83.784 C182.010668,83.9226674 182.343998,83.992 182.696,83.992 Z M191.836,85.176 C191.206664,85.176 190.649336,85.0746677 190.164,84.872 C189.678664,84.6693323 189.273335,84.3813352 188.948,84.008 C188.622665,83.6346648 188.377334,83.1920026 188.212,82.68 C188.046666,82.1679974 187.964,81.5973365 187.964,80.968 C187.964,80.3493302 188.043999,79.7706694 188.204,79.232 C188.364001,78.6933306 188.606665,78.224002 188.932,77.824 C189.257335,77.423998 189.662664,77.1093345 190.148,76.88 C190.633336,76.6506655 191.206663,76.536 191.868,76.536 C192.337336,76.536 192.777331,76.5919994 193.188,76.704 C193.598669,76.8160006 193.961332,76.9893322 194.276,77.224 C194.590668,77.4586678 194.849332,77.7546649 195.052,78.112 C195.254668,78.4693351 195.382666,78.8933309 195.436,79.384 L194.028,79.384 C193.921333,78.8613307 193.697335,78.4560014 193.356,78.168 C193.014665,77.8799986 192.556003,77.736 191.98,77.736 C191.489331,77.736 191.078668,77.8266658 190.748,78.008 C190.417332,78.1893342 190.153334,78.4293318 189.956,78.728 C189.758666,79.0266682 189.617334,79.3706647 189.532,79.76 C189.446666,80.1493353 189.404,80.5519979 189.404,80.968 C189.404,81.3520019 189.449333,81.7253315 189.54,82.088 C189.630667,82.4506685 189.771999,82.7733319 189.964,83.056 C190.156001,83.3386681 190.403998,83.5653325 190.708,83.736 C191.012002,83.9066675 191.382664,83.992 191.82,83.992 C192.492003,83.992 193.017331,83.8160018 193.396,83.464 C193.774669,83.1119982 194.006666,82.6160032 194.092,81.976 L195.484,81.976 C195.334666,83.0106718 194.956003,83.8026639 194.348,84.352 C193.739997,84.9013361 192.902672,85.176 191.836,85.176 Z M200.528,85.176 C199.898664,85.176 199.341336,85.0746677 198.856,84.872 C198.370664,84.6693323 197.965335,84.3813352 197.64,84.008 C197.314665,83.6346648 197.069334,83.1920026 196.904,82.68 C196.738666,82.1679974 196.656,81.5973365 196.656,80.968 C196.656,80.3493302 196.735999,79.7706694 196.896,79.232 C197.056001,78.6933306 197.298665,78.224002 197.624,77.824 C197.949335,77.423998 198.354664,77.1093345 198.84,76.88 C199.325336,76.6506655 199.898663,76.536 200.56,76.536 C201.029336,76.536 201.469331,76.5919994 201.88,76.704 C202.290669,76.8160006 202.653332,76.9893322 202.968,77.224 C203.282668,77.4586678 203.541332,77.7546649 203.744,78.112 C203.946668,78.4693351 204.074666,78.8933309 204.128,79.384 L202.72,79.384 C202.613333,78.8613307 202.389335,78.4560014 202.048,78.168 C201.706665,77.8799986 201.248003,77.736 200.672,77.736 C200.181331,77.736 199.770668,77.8266658 199.44,78.008 C199.109332,78.1893342 198.845334,78.4293318 198.648,78.728 C198.450666,79.0266682 198.309334,79.3706647 198.224,79.76 C198.138666,80.1493353 198.096,80.5519979 198.096,80.968 C198.096,81.3520019 198.141333,81.7253315 198.232,82.088 C198.322667,82.4506685 198.463999,82.7733319 198.656,83.056 C198.848001,83.3386681 199.095998,83.5653325 199.4,83.736 C199.704002,83.9066675 200.074664,83.992 200.512,83.992 C201.184003,83.992 201.709331,83.8160018 202.088,83.464 C202.466669,83.1119982 202.698666,82.6160032 202.784,81.976 L204.176,81.976 C204.026666,83.0106718 203.648003,83.8026639 203.04,84.352 C202.431997,84.9013361 201.594672,85.176 200.528,85.176 Z M205.572,79.912 L205.572,81.192 L210.196,81.192 L210.196,79.912 L205.572,79.912 Z M212.12,76.728 L218.872,76.728 L218.872,85 L217.512,85 L217.512,77.928 L213.48,77.928 L213.48,85 L212.12,85 L212.12,76.728 Z M220.956,85.096 C220.817333,85.096 220.673334,85.0826668 220.524,85.056 C220.374666,85.0293332 220.252,85.0053334 220.156,84.984 L220.156,83.784 C220.262667,83.8160002 220.361333,83.8373333 220.452,83.848 C220.542667,83.8586667 220.630666,83.864 220.716,83.864 C221.068002,83.864 221.337332,83.7253347 221.524,83.448 C221.710668,83.1706653 221.849333,82.7440029 221.94,82.168 C222.030667,81.5919971 222.086667,80.8533378 222.108,79.952 C222.129333,79.0506622 222.150667,77.9760062 222.172,76.728 L227.98,76.728 L227.98,85 L226.62,85 L226.62,77.928 L223.484,77.928 C223.452,78.8986715 223.417334,79.8186623 223.38,80.688 C223.342666,81.5573377 223.249334,82.3173301 223.1,82.968 C222.950666,83.6186699 222.710668,84.1359981 222.38,84.52 C222.049332,84.9040019 221.57467,85.096 220.956,85.096 Z M232.416,85.176 C232.042665,85.176 231.690668,85.1360004 231.36,85.056 C231.029332,84.9759996 230.738668,84.8426676 230.488,84.656 C230.237332,84.4693324 230.040001,84.2293348 229.896,83.936 C229.751999,83.6426652 229.68,83.2880021 229.68,82.872 C229.68,82.4026643 229.759999,82.0186682 229.92,81.72 C230.080001,81.4213318 230.290665,81.1786676 230.552,80.992 C230.813335,80.8053324 231.111998,80.6640005 231.448,80.568 C231.784002,80.4719995 232.127998,80.3920003 232.48,80.328 C232.853335,80.253333 233.207998,80.1973335 233.544,80.16 C233.880002,80.1226665 234.175999,80.0693337 234.432,80 C234.688001,79.9306663 234.890666,79.829334 235.04,79.696 C235.189334,79.562666 235.264,79.3680013 235.264,79.112 C235.264,78.8133318 235.208001,78.5733342 235.096,78.392 C234.983999,78.2106658 234.840001,78.0720005 234.664,77.976 C234.487999,77.8799995 234.290668,77.8160002 234.072,77.784 C233.853332,77.7519998 233.637334,77.736 233.424,77.736 C232.847997,77.736 232.368002,77.8453322 231.984,78.064 C231.599998,78.2826678 231.392,78.695997 231.36,79.304 L230,79.304 C230.021333,78.7919974 230.127999,78.3600018 230.32,78.008 C230.512001,77.6559982 230.767998,77.3706678 231.088,77.152 C231.408002,76.9333322 231.773331,76.7760005 232.184,76.68 C232.594669,76.5839995 233.034664,76.536 233.504,76.536 C233.877335,76.536 234.247998,76.5626664 234.616,76.616 C234.984002,76.6693336 235.317332,76.7786658 235.616,76.944 C235.914668,77.1093342 236.154666,77.3413318 236.336,77.64 C236.517334,77.9386682 236.608,78.3279976 236.608,78.808 L236.608,83.064 C236.608,83.3840016 236.626666,83.6186659 236.664,83.768 C236.701334,83.9173341 236.826666,83.992 237.04,83.992 C237.136,83.992 237.274666,83.9653336 237.456,83.912 L237.456,84.968 C237.221332,85.1066674 236.896002,85.176 236.48,85.176 C236.127998,85.176 235.848001,85.0773343 235.64,84.88 C235.431999,84.6826657 235.328,84.3600022 235.328,83.912 C234.954665,84.3600022 234.520002,84.6826657 234.024,84.88 C233.527998,85.0773343 232.992003,85.176 232.416,85.176 Z M232.72,83.992 C233.168002,83.992 233.551998,83.9306673 233.872,83.808 C234.192002,83.6853327 234.453332,83.5306676 234.656,83.344 C234.858668,83.1573324 235.008,82.9546678 235.104,82.736 C235.2,82.5173322 235.248,82.312001 235.248,82.12 L235.248,80.728 C235.077332,80.8666674 234.853335,80.9626664 234.576,81.016 C234.298665,81.0693336 234.008002,81.1173331 233.704,81.16 C233.399998,81.2026669 233.093335,81.2453331 232.784,81.288 C232.474665,81.3306669 232.197335,81.4053328 231.952,81.512 C231.706665,81.6186672 231.506667,81.7706657 231.352,81.968 C231.197333,82.1653343 231.12,82.434665 231.12,82.776 C231.12,83.0000011 231.165333,83.1893326 231.256,83.344 C231.346667,83.4986674 231.463999,83.6239995 231.608,83.72 C231.752001,83.8160005 231.919999,83.8853331 232.112,83.928 C232.304001,83.9706669 232.506666,83.992 232.72,83.992 Z M240.82,77.928 L237.86,77.928 L237.86,76.728 L245.14,76.728 L245.14,77.928 L242.18,77.928 L242.18,85 L240.82,85 L240.82,77.928 Z M251.032,84.376 C250.936,84.4720005 250.818667,84.5679995 250.68,84.664 C250.541333,84.7600005 250.394667,84.845333 250.24,84.92 C250.085333,84.994667 249.925334,85.0559998 249.76,85.104 C249.594666,85.1520002 249.432001,85.176 249.272,85.176 C248.65333,85.176 248.133335,85.0533346 247.712,84.808 C247.290665,84.5626654 246.949335,84.2346687 246.688,83.824 C246.426665,83.4133313 246.237334,82.941336 246.12,82.408 C246.002666,81.874664 245.944,81.3200029 245.944,80.744 C245.944,79.4213267 246.231997,78.389337 246.808,77.648 C247.384003,76.906663 248.167995,76.536 249.16,76.536 C249.330668,76.536 249.509332,76.5626664 249.696,76.616 C249.882668,76.6693336 250.058666,76.7386662 250.224,76.824 C250.389334,76.9093338 250.543999,77.0053328 250.688,77.112 C250.832001,77.2186672 250.946666,77.3253328 251.032,77.432 L251.032,73.576 L252.376,73.576 L252.376,77.432 C252.461334,77.3253328 252.573333,77.2186672 252.712,77.112 C252.850667,77.0053328 253.005332,76.9093338 253.176,76.824 C253.346668,76.7386662 253.522666,76.6693336 253.704,76.616 C253.885334,76.5626664 254.066666,76.536 254.248,76.536 C255.240005,76.536 256.023997,76.906663 256.6,77.648 C257.176003,78.389337 257.464,79.4213267 257.464,80.744 C257.464,81.3200029 257.405334,81.874664 257.288,82.408 C257.170666,82.941336 256.981335,83.4133313 256.72,83.824 C256.458665,84.2346687 256.117335,84.5626654 255.696,84.808 C255.274665,85.0533346 254.75467,85.176 254.136,85.176 C253.826665,85.176 253.498668,85.0933342 253.152,84.928 C252.805332,84.7626658 252.546668,84.5786677 252.376,84.376 L252.376,88.152 L251.032,88.152 L251.032,84.376 Z M249.432,84.056 C249.848002,84.056 250.205332,83.952001 250.504,83.744 C250.802668,83.535999 250.978666,83.2826682 251.032,82.984 L251.032,78.824 C250.968,78.5999989 250.872001,78.4160007 250.744,78.272 C250.615999,78.1279993 250.474667,78.0106671 250.32,77.92 C250.165333,77.8293329 250.002668,77.7653335 249.832,77.728 C249.661332,77.6906665 249.501334,77.672 249.352,77.672 C248.999998,77.672 248.698668,77.7493326 248.448,77.904 C248.197332,78.0586674 247.989334,78.2719986 247.824,78.544 C247.658666,78.8160014 247.538667,79.1439981 247.464,79.528 C247.389333,79.9120019 247.352,80.3279978 247.352,80.776 C247.352,81.1600019 247.384,81.5466647 247.448,81.936 C247.512,82.3253353 247.621333,82.6773318 247.776,82.992 C247.930667,83.3066682 248.141332,83.5626657 248.408,83.76 C248.674668,83.9573343 249.015998,84.056 249.432,84.056 Z M253.976,84.056 C254.392002,84.056 254.733332,83.9573343 255,83.76 C255.266668,83.5626657 255.477333,83.3066682 255.632,82.992 C255.786667,82.6773318 255.896,82.3253353 255.96,81.936 C256.024,81.5466647 256.056,81.1600019 256.056,80.776 C256.056,80.3279978 256.018667,79.9120019 255.944,79.528 C255.869333,79.1439981 255.749334,78.8160014 255.584,78.544 C255.418666,78.2719986 255.210668,78.0586674 254.96,77.904 C254.709332,77.7493326 254.408002,77.672 254.056,77.672 C253.906666,77.672 253.746668,77.6906665 253.576,77.728 C253.405332,77.7653335 253.242667,77.8293329 253.088,77.92 C252.933333,78.0106671 252.792001,78.1279993 252.664,78.272 C252.535999,78.4160007 252.44,78.5999989 252.376,78.824 L252.376,82.984 C252.429334,83.2826682 252.605332,83.535999 252.904,83.744 C253.202668,83.952001 253.559998,84.056 253.976,84.056 Z M262.796,85.176 C262.134663,85.176 261.556002,85.0666678 261.06,84.848 C260.563998,84.6293322 260.145335,84.3253353 259.804,83.936 C259.462665,83.5466647 259.206668,83.0906693 259.036,82.568 C258.865332,82.0453307 258.78,81.480003 258.78,80.872 C258.78,80.263997 258.865332,79.6960026 259.036,79.168 C259.206668,78.6399974 259.462665,78.1813353 259.804,77.792 C260.145335,77.4026647 260.563998,77.0960011 261.06,76.872 C261.556002,76.6479989 262.134663,76.536 262.796,76.536 C263.44667,76.536 264.022664,76.6479989 264.524,76.872 C265.025336,77.0960011 265.446665,77.4026647 265.788,77.792 C266.129335,78.1813353 266.385332,78.6399974 266.556,79.168 C266.726668,79.6960026 266.812,80.263997 266.812,80.872 C266.812,81.480003 266.726668,82.0453307 266.556,82.568 C266.385332,83.0906693 266.129335,83.5466647 265.788,83.936 C265.446665,84.3253353 265.025336,84.6293322 264.524,84.848 C264.022664,85.0666678 263.44667,85.176 262.796,85.176 Z M262.796,83.992 C263.148002,83.992 263.481332,83.9226674 263.796,83.784 C264.110668,83.6453326 264.385332,83.4453346 264.62,83.184 C264.854668,82.9226654 265.038666,82.5973353 265.172,82.208 C265.305334,81.8186647 265.372,81.3733358 265.372,80.872 C265.372,80.3706642 265.305334,79.9253353 265.172,79.536 C265.038666,79.1466647 264.854668,78.818668 264.62,78.552 C264.385332,78.285332 264.110668,78.0826674 263.796,77.944 C263.481332,77.8053326 263.148002,77.736 262.796,77.736 C262.443998,77.736 262.110668,77.8053326 261.796,77.944 C261.481332,78.0826674 261.206668,78.285332 260.972,78.552 C260.737332,78.818668 260.553334,79.1466647 260.42,79.536 C260.286666,79.9253353 260.22,80.3706642 260.22,80.872 C260.22,81.3733358 260.286666,81.8186647 260.42,82.208 C260.553334,82.5973353 260.737332,82.9226654 260.972,83.184 C261.206668,83.4453346 261.481332,83.6453326 261.796,83.784 C262.110668,83.9226674 262.443998,83.992 262.796,83.992 Z M268.56,76.728 L269.92,76.728 L269.92,77.848 L269.952,77.848 C270.176001,77.389331 270.527998,77.056001 271.008,76.848 C271.488002,76.639999 272.015997,76.536 272.592,76.536 C273.232003,76.536 273.789331,76.6533322 274.264,76.888 C274.738669,77.1226678 275.133332,77.439998 275.448,77.84 C275.762668,78.240002 275.999999,78.7013307 276.16,79.224 C276.320001,79.7466693 276.4,80.3013304 276.4,80.888 C276.4,81.4853363 276.322667,82.0426641 276.168,82.56 C276.013333,83.0773359 275.778668,83.5306647 275.464,83.92 C275.149332,84.3093353 274.754669,84.6159989 274.28,84.84 C273.805331,85.0640011 273.253336,85.176 272.624,85.176 C272.410666,85.176 272.181335,85.1546669 271.936,85.112 C271.690665,85.0693331 271.445335,85.0000005 271.2,84.904 C270.954665,84.8079995 270.722668,84.6773342 270.504,84.512 C270.285332,84.3466658 270.101334,84.1413346 269.952,83.896 L269.92,83.896 L269.92,88.152 L268.56,88.152 L268.56,76.728 Z M272.48,83.992 C272.938669,83.992 273.327998,83.9013342 273.648,83.72 C273.968002,83.5386658 274.223999,83.2986682 274.416,83 C274.608001,82.7013318 274.746666,82.3600019 274.832,81.976 C274.917334,81.5919981 274.96,81.1973354 274.96,80.792 C274.96,80.4079981 274.909334,80.0320018 274.808,79.664 C274.706666,79.2959982 274.552001,78.9680014 274.344,78.68 C274.135999,78.3919986 273.869335,78.1626675 273.544,77.992 C273.218665,77.8213325 272.837336,77.736 272.4,77.736 C271.941331,77.736 271.552002,77.8266658 271.232,78.008 C270.911998,78.1893342 270.650668,78.4266652 270.448,78.72 C270.245332,79.0133348 270.098667,79.3466648 270.008,79.72 C269.917333,80.0933352 269.872,80.4719981 269.872,80.856 C269.872,81.2613354 269.92,81.6533314 270.016,82.032 C270.112,82.4106686 270.263999,82.7439986 270.472,83.032 C270.680001,83.3200014 270.949332,83.5519991 271.28,83.728 C271.610668,83.9040009 272.010664,83.992 272.48,83.992 Z M278.1,76.728 L280.052,76.728 L282.564,83.432 L282.596,83.432 L285.108,76.728 L287.06,76.728 L287.06,85 L285.7,85 L285.7,78.44 L283.204,85 L281.956,85 L279.46,78.44 L279.46,85 L278.1,85 L278.1,76.728 Z M292.728,85.176 C292.066663,85.176 291.488003,85.0693344 290.992,84.856 C290.495998,84.6426656 290.082668,84.3440019 289.752,83.96 C289.421332,83.5759981 289.173334,83.117336 289.008,82.584 C288.842666,82.050664 288.76,81.4693365 288.76,80.84 C288.76,80.2213302 288.855999,79.6480026 289.048,79.12 C289.240001,78.5919974 289.509332,78.1360019 289.856,77.752 C290.202668,77.3679981 290.613331,77.0693344 291.088,76.856 C291.562669,76.6426656 292.082664,76.536 292.648,76.536 C293.384004,76.536 293.994664,76.6879985 294.48,76.992 C294.965336,77.2960015 295.354665,77.6826643 295.648,78.152 C295.941335,78.6213357 296.143999,79.1333306 296.256,79.688 C296.368001,80.2426694 296.413333,80.7706642 296.392,81.272 L290.2,81.272 C290.189333,81.6346685 290.232,81.978665 290.328,82.304 C290.424001,82.629335 290.578666,82.9173321 290.792,83.168 C291.005334,83.4186679 291.277332,83.6186659 291.608,83.768 C291.938668,83.9173341 292.327998,83.992 292.776,83.992 C293.352003,83.992 293.823998,83.858668 294.192,83.592 C294.560002,83.325332 294.802666,82.9200027 294.92,82.376 L296.264,82.376 C296.082666,83.3146714 295.68267,84.0159977 295.064,84.48 C294.44533,84.9440023 293.666671,85.176 292.728,85.176 Z M294.952,80.072 C294.930667,79.7519984 294.858667,79.4480014 294.736,79.16 C294.613333,78.8719986 294.448001,78.624001 294.24,78.416 C294.031999,78.207999 293.786668,78.0426673 293.504,77.92 C293.221332,77.7973327 292.909335,77.736 292.568,77.736 C292.215998,77.736 291.898668,77.7973327 291.616,77.92 C291.333332,78.0426673 291.090668,78.2106656 290.888,78.424 C290.685332,78.6373344 290.525334,78.8853319 290.408,79.168 C290.290666,79.4506681 290.221333,79.7519984 290.2,80.072 L294.952,80.072 Z M297.9,76.728 L299.26,76.728 L299.26,80.024 L303.452,80.024 L303.452,76.728 L304.812,76.728 L304.812,85 L303.452,85 L303.452,81.192 L299.26,81.192 L299.26,85 L297.9,85 L297.9,76.728 Z M306.96,76.728 L308.32,76.728 L308.32,80.024 L312.512,80.024 L312.512,76.728 L313.872,76.728 L313.872,85 L312.512,85 L312.512,81.192 L308.32,81.192 L308.32,85 L306.96,85 L306.96,76.728 Z M319.588,85.176 C318.926663,85.176 318.348003,85.0666678 317.852,84.848 C317.355998,84.6293322 316.937335,84.3253353 316.596,83.936 C316.254665,83.5466647 315.998668,83.0906693 315.828,82.568 C315.657333,82.0453307 315.572,81.480003 315.572,80.872 C315.572,80.263997 315.657333,79.6960026 315.828,79.168 C315.998668,78.6399974 316.254665,78.1813353 316.596,77.792 C316.937335,77.4026647 317.355998,77.0960011 317.852,76.872 C318.348003,76.6479989 318.926663,76.536 319.588,76.536 C320.23867,76.536 320.814664,76.6479989 321.316,76.872 C321.817336,77.0960011 322.238665,77.4026647 322.58,77.792 C322.921335,78.1813353 323.177333,78.6399974 323.348,79.168 C323.518668,79.6960026 323.604,80.263997 323.604,80.872 C323.604,81.480003 323.518668,82.0453307 323.348,82.568 C323.177333,83.0906693 322.921335,83.5466647 322.58,83.936 C322.238665,84.3253353 321.817336,84.6293322 321.316,84.848 C320.814664,85.0666678 320.23867,85.176 319.588,85.176 Z M319.588,83.992 C319.940002,83.992 320.273332,83.9226674 320.588,83.784 C320.902668,83.6453326 321.177332,83.4453346 321.412,83.184 C321.646668,82.9226654 321.830666,82.5973353 321.964,82.208 C322.097334,81.8186647 322.164,81.3733358 322.164,80.872 C322.164,80.3706642 322.097334,79.9253353 321.964,79.536 C321.830666,79.1466647 321.646668,78.818668 321.412,78.552 C321.177332,78.285332 320.902668,78.0826674 320.588,77.944 C320.273332,77.8053326 319.940002,77.736 319.588,77.736 C319.235998,77.736 318.902668,77.8053326 318.588,77.944 C318.273332,78.0826674 317.998668,78.285332 317.764,78.552 C317.529332,78.818668 317.345334,79.1466647 317.212,79.536 C317.078666,79.9253353 317.012,80.3706642 317.012,80.872 C317.012,81.3733358 317.078666,81.8186647 317.212,82.208 C317.345334,82.5973353 317.529332,82.9226654 317.764,83.184 C317.998668,83.4453346 318.273332,83.6453326 318.588,83.784 C318.902668,83.9226674 319.235998,83.992 319.588,83.992 Z M328.824,85.176 C328.162663,85.176 327.584003,85.0693344 327.088,84.856 C326.591998,84.6426656 326.178668,84.3440019 325.848,83.96 C325.517332,83.5759981 325.269334,83.117336 325.104,82.584 C324.938666,82.050664 324.856,81.4693365 324.856,80.84 C324.856,80.2213302 324.951999,79.6480026 325.144,79.12 C325.336001,78.5919974 325.605332,78.1360019 325.952,77.752 C326.298668,77.3679981 326.709331,77.0693344 327.184,76.856 C327.658669,76.6426656 328.178664,76.536 328.744,76.536 C329.480004,76.536 330.090664,76.6879985 330.576,76.992 C331.061336,77.2960015 331.450665,77.6826643 331.744,78.152 C332.037335,78.6213357 332.239999,79.1333306 332.352,79.688 C332.464001,80.2426694 332.509333,80.7706642 332.488,81.272 L326.296,81.272 C326.285333,81.6346685 326.328,81.978665 326.424,82.304 C326.520001,82.629335 326.674666,82.9173321 326.888,83.168 C327.101334,83.4186679 327.373332,83.6186659 327.704,83.768 C328.034668,83.9173341 328.423998,83.992 328.872,83.992 C329.448003,83.992 329.919998,83.858668 330.288,83.592 C330.656002,83.325332 330.898666,82.9200027 331.016,82.376 L332.36,82.376 C332.178666,83.3146714 331.77867,84.0159977 331.16,84.48 C330.54133,84.9440023 329.762671,85.176 328.824,85.176 Z M331.048,80.072 C331.026667,79.7519984 330.954667,79.4480014 330.832,79.16 C330.709333,78.8719986 330.544001,78.624001 330.336,78.416 C330.127999,78.207999 329.882668,78.0426673 329.6,77.92 C329.317332,77.7973327 329.005335,77.736 328.664,77.736 C328.311998,77.736 327.994668,77.7973327 327.712,77.92 C327.429332,78.0426673 327.186668,78.2106656 326.984,78.424 C326.781332,78.6373344 326.621334,78.8853319 326.504,79.168 C326.386666,79.4506681 326.317333,79.7519984 326.296,80.072 L331.048,80.072 Z M161.024,96.728 L167.776,96.728 L167.776,105 L166.416,105 L166.416,97.928 L162.384,97.928 L162.384,105 L161.024,105 L161.024,96.728 Z M169.972,96.728 L171.332,96.728 L171.332,97.848 L171.364,97.848 C171.588001,97.389331 171.939998,97.056001 172.42,96.848 C172.900002,96.639999 173.427997,96.536 174.004,96.536 C174.644003,96.536 175.201331,96.6533322 175.676,96.888 C176.150669,97.1226678 176.545332,97.439998 176.86,97.84 C177.174668,98.240002 177.411999,98.7013307 177.572,99.224 C177.732001,99.7466693 177.812,100.30133 177.812,100.888 C177.812,101.485336 177.734667,102.042664 177.58,102.56 C177.425333,103.077336 177.190668,103.530665 176.876,103.92 C176.561332,104.309335 176.166669,104.615999 175.692,104.84 C175.217331,105.064001 174.665336,105.176 174.036,105.176 C173.822666,105.176 173.593335,105.154667 173.348,105.112 C173.102665,105.069333 172.857335,105 172.612,104.904 C172.366665,104.808 172.134668,104.677334 171.916,104.512 C171.697332,104.346666 171.513334,104.141335 171.364,103.896 L171.332,103.896 L171.332,108.152 L169.972,108.152 L169.972,96.728 Z M173.892,103.992 C174.350669,103.992 174.739998,103.901334 175.06,103.72 C175.380002,103.538666 175.635999,103.298668 175.828,103 C176.020001,102.701332 176.158666,102.360002 176.244,101.976 C176.329334,101.591998 176.372,101.197335 176.372,100.792 C176.372,100.407998 176.321334,100.032002 176.22,99.664 C176.118666,99.2959982 175.964001,98.9680014 175.756,98.68 C175.547999,98.3919986 175.281335,98.1626675 174.956,97.992 C174.630665,97.8213325 174.249336,97.736 173.812,97.736 C173.353331,97.736 172.964002,97.8266658 172.644,98.008 C172.323998,98.1893342 172.062668,98.4266652 171.86,98.72 C171.657332,99.0133348 171.510667,99.3466648 171.42,99.72 C171.329333,100.093335 171.284,100.471998 171.284,100.856 C171.284,101.261335 171.332,101.653331 171.428,102.032 C171.524,102.410669 171.675999,102.743999 171.884,103.032 C172.092001,103.320001 172.361332,103.551999 172.692,103.728 C173.022668,103.904001 173.422664,103.992 173.892,103.992 Z M179.512,96.728 L180.872,96.728 L180.872,103.48 L184.776,96.728 L186.52,96.728 L186.52,105 L185.16,105 L185.16,98.248 L181.256,105 L179.512,105 L179.512,96.728 Z M188.604,105.096 C188.465333,105.096 188.321334,105.082667 188.172,105.056 C188.022666,105.029333 187.9,105.005333 187.804,104.984 L187.804,103.784 C187.910667,103.816 188.009333,103.837333 188.1,103.848 C188.190667,103.858667 188.278666,103.864 188.364,103.864 C188.716002,103.864 188.985332,103.725335 189.172,103.448 C189.358668,103.170665 189.497333,102.744003 189.588,102.168 C189.678667,101.591997 189.734667,100.853338 189.756,99.952 C189.777333,99.0506622 189.798667,97.9760062 189.82,96.728 L195.628,96.728 L195.628,105 L194.268,105 L194.268,97.928 L191.132,97.928 C191.1,98.8986715 191.065334,99.8186623 191.028,100.688 C190.990666,101.557338 190.897334,102.31733 190.748,102.968 C190.598666,103.61867 190.358668,104.135998 190.028,104.52 C189.697332,104.904002 189.22267,105.096 188.604,105.096 Z M201.344,105.176 C200.682663,105.176 200.104002,105.066668 199.608,104.848 C199.111998,104.629332 198.693335,104.325335 198.352,103.936 C198.010665,103.546665 197.754668,103.090669 197.584,102.568 C197.413332,102.045331 197.328,101.480003 197.328,100.872 C197.328,100.263997 197.413332,99.6960026 197.584,99.168 C197.754668,98.6399974 198.010665,98.1813353 198.352,97.792 C198.693335,97.4026647 199.111998,97.0960011 199.608,96.872 C200.104002,96.6479989 200.682663,96.536 201.344,96.536 C201.99467,96.536 202.570664,96.6479989 203.072,96.872 C203.573336,97.0960011 203.994665,97.4026647 204.336,97.792 C204.677335,98.1813353 204.933332,98.6399974 205.104,99.168 C205.274668,99.6960026 205.36,100.263997 205.36,100.872 C205.36,101.480003 205.274668,102.045331 205.104,102.568 C204.933332,103.090669 204.677335,103.546665 204.336,103.936 C203.994665,104.325335 203.573336,104.629332 203.072,104.848 C202.570664,105.066668 201.99467,105.176 201.344,105.176 Z M201.344,103.992 C201.696002,103.992 202.029332,103.922667 202.344,103.784 C202.658668,103.645333 202.933332,103.445335 203.168,103.184 C203.402668,102.922665 203.586666,102.597335 203.72,102.208 C203.853334,101.818665 203.92,101.373336 203.92,100.872 C203.92,100.370664 203.853334,99.9253353 203.72,99.536 C203.586666,99.1466647 203.402668,98.818668 203.168,98.552 C202.933332,98.285332 202.658668,98.0826674 202.344,97.944 C202.029332,97.8053326 201.696002,97.736 201.344,97.736 C200.991998,97.736 200.658668,97.8053326 200.344,97.944 C200.029332,98.0826674 199.754668,98.285332 199.52,98.552 C199.285332,98.818668 199.101334,99.1466647 198.968,99.536 C198.834666,99.9253353 198.768,100.370664 198.768,100.872 C198.768,101.373336 198.834666,101.818665 198.968,102.208 C199.101334,102.597335 199.285332,102.922665 199.52,103.184 C199.754668,103.445335 200.029332,103.645333 200.344,103.784 C200.658668,103.922667 200.991998,103.992 201.344,103.992 Z M210.036,100.568 L206.5,96.728 L208.18,96.728 L211.62,100.568 L211.62,96.728 L212.98,96.728 L212.98,100.568 L216.42,96.728 L218.1,96.728 L214.548,100.568 L218.564,105 L216.884,105 L213.444,101.304 L212.98,101.72 L212.98,105 L211.62,105 L211.62,101.72 L211.092,101.24 L207.716,105 L206.036,105 L210.036,100.568 Z M223.208,105.176 C222.546663,105.176 221.968002,105.069334 221.472,104.856 C220.975998,104.642666 220.562668,104.344002 220.232,103.96 C219.901332,103.575998 219.653334,103.117336 219.488,102.584 C219.322666,102.050664 219.24,101.469336 219.24,100.84 C219.24,100.22133 219.335999,99.6480026 219.528,99.12 C219.720001,98.5919974 219.989332,98.1360019 220.336,97.752 C220.682668,97.3679981 221.093331,97.0693344 221.568,96.856 C222.042669,96.6426656 222.562664,96.536 223.128,96.536 C223.864004,96.536 224.474664,96.6879985 224.96,96.992 C225.445336,97.2960015 225.834665,97.6826643 226.128,98.152 C226.421335,98.6213357 226.623999,99.1333306 226.736,99.688 C226.848001,100.242669 226.893333,100.770664 226.872,101.272 L220.68,101.272 C220.669333,101.634668 220.712,101.978665 220.808,102.304 C220.904,102.629335 221.058666,102.917332 221.272,103.168 C221.485334,103.418668 221.757332,103.618666 222.088,103.768 C222.418668,103.917334 222.807998,103.992 223.256,103.992 C223.832003,103.992 224.303998,103.858668 224.672,103.592 C225.040002,103.325332 225.282666,102.920003 225.4,102.376 L226.744,102.376 C226.562666,103.314671 226.16267,104.015998 225.544,104.48 C224.92533,104.944002 224.146671,105.176 223.208,105.176 Z M225.432,100.072 C225.410667,99.7519984 225.338667,99.4480014 225.216,99.16 C225.093333,98.8719986 224.928001,98.624001 224.72,98.416 C224.511999,98.207999 224.266668,98.0426673 223.984,97.92 C223.701332,97.7973327 223.389335,97.736 223.048,97.736 C222.695998,97.736 222.378668,97.7973327 222.096,97.92 C221.813332,98.0426673 221.570668,98.2106656 221.368,98.424 C221.165332,98.6373344 221.005334,98.8853319 220.888,99.168 C220.770666,99.4506681 220.701333,99.7519984 220.68,100.072 L225.432,100.072 Z M228.38,96.728 L229.74,96.728 L229.74,100.024 L233.932,100.024 L233.932,96.728 L235.292,96.728 L235.292,105 L233.932,105 L233.932,101.192 L229.74,101.192 L229.74,105 L228.38,105 L228.38,96.728 Z M237.44,96.728 L238.8,96.728 L238.8,103.48 L242.704,96.728 L244.448,96.728 L244.448,105 L243.088,105 L243.088,98.248 L239.184,105 L237.44,105 L237.44,96.728 Z M248.34,101.768 C247.75333,101.682666 247.273335,101.416002 246.9,100.968 C246.526665,100.519998 246.34,99.9546701 246.34,99.272 C246.34,98.4933294 246.571998,97.874669 247.036,97.416 C247.500002,96.957331 248.131996,96.728 248.932,96.728 L253.124,96.728 L253.124,105 L251.764,105 L251.764,101.816 L249.956,101.816 L247.428,105 L245.62,105 L248.34,101.768 Z M251.764,100.648 L251.764,97.928 L249.364,97.928 C248.787997,97.928 248.372001,98.0506654 248.116,98.296 C247.859999,98.5413346 247.732,98.8719979 247.732,99.288 C247.732,99.7146688 247.859999,100.047999 248.116,100.288 C248.372001,100.528001 248.787997,100.648 249.364,100.648 L251.764,100.648 Z M258.844,103.8 L259.82,103.8 C259.937334,103.575999 260.057333,103.269335 260.18,102.88 C260.302667,102.490665 260.414666,102.058669 260.516,101.584 C260.617334,101.109331 260.7,100.605336 260.764,100.072 C260.828,99.538664 260.86,99.0160026 260.86,98.504 L260.86,96.728 L266.844,96.728 L266.844,103.8 L267.964,103.8 L267.964,107.512 L266.668,107.512 L266.668,105 L260.14,105 L260.14,107.512 L258.844,107.512 L258.844,103.8 Z M265.484,103.8 L265.484,97.928 L262.188,97.928 L262.188,98.632 C262.188,99.1546693 262.158667,99.6746641 262.1,100.192 C262.041333,100.709336 261.964,101.197331 261.868,101.656 C261.772,102.114669 261.668001,102.530665 261.556,102.904 C261.443999,103.277335 261.334667,103.575999 261.228,103.8 L265.484,103.8 Z M269.28,105.096 C269.141333,105.096 268.997334,105.082667 268.848,105.056 C268.698666,105.029333 268.576,105.005333 268.48,104.984 L268.48,103.784 C268.586667,103.816 268.685333,103.837333 268.776,103.848 C268.866667,103.858667 268.954666,103.864 269.04,103.864 C269.392002,103.864 269.661332,103.725335 269.848,103.448 C270.034668,103.170665 270.173333,102.744003 270.264,102.168 C270.354667,101.591997 270.410667,100.853338 270.432,99.952 C270.453333,99.0506622 270.474667,97.9760062 270.496,96.728 L276.304,96.728 L276.304,105 L274.944,105 L274.944,97.928 L271.808,97.928 C271.776,98.8986715 271.741334,99.8186623 271.704,100.688 C271.666666,101.557338 271.573334,102.31733 271.424,102.968 C271.274666,103.61867 271.034668,104.135998 270.704,104.52 C270.373332,104.904002 269.89867,105.096 269.28,105.096 Z M280.196,101.768 C279.60933,101.682666 279.129335,101.416002 278.756,100.968 C278.382665,100.519998 278.196,99.9546701 278.196,99.272 C278.196,98.4933294 278.427998,97.874669 278.892,97.416 C279.356002,96.957331 279.987996,96.728 280.788,96.728 L284.98,96.728 L284.98,105 L283.62,105 L283.62,101.816 L281.812,101.816 L279.284,105 L277.476,105 L280.196,101.768 Z M283.62,100.648 L283.62,97.928 L281.22,97.928 C280.643997,97.928 280.228001,98.0506654 279.972,98.296 C279.715999,98.5413346 279.588,98.8719979 279.588,99.288 C279.588,99.7146688 279.715999,100.047999 279.972,100.288 C280.228001,100.528001 280.643997,100.648 281.22,100.648 L283.62,100.648 Z M161.024,116.728 L162.976,116.728 L165.488,123.432 L165.52,123.432 L168.032,116.728 L169.984,116.728 L169.984,125 L168.624,125 L168.624,118.44 L166.128,125 L164.88,125 L162.384,118.44 L162.384,125 L161.024,125 L161.024,116.728 Z M174.42,125.176 C174.046665,125.176 173.694668,125.136 173.364,125.056 C173.033332,124.976 172.742668,124.842668 172.492,124.656 C172.241332,124.469332 172.044001,124.229335 171.9,123.936 C171.755999,123.642665 171.684,123.288002 171.684,122.872 C171.684,122.402664 171.763999,122.018668 171.924,121.72 C172.084001,121.421332 172.294665,121.178668 172.556,120.992 C172.817335,120.805332 173.115998,120.664 173.452,120.568 C173.788002,120.472 174.131998,120.392 174.484,120.328 C174.857335,120.253333 175.211998,120.197334 175.548,120.16 C175.884002,120.122666 176.179999,120.069334 176.436,120 C176.692001,119.930666 176.894666,119.829334 177.044,119.696 C177.193334,119.562666 177.268,119.368001 177.268,119.112 C177.268,118.813332 177.212001,118.573334 177.1,118.392 C176.987999,118.210666 176.844001,118.072 176.668,117.976 C176.491999,117.88 176.294668,117.816 176.076,117.784 C175.857332,117.752 175.641334,117.736 175.428,117.736 C174.851997,117.736 174.372002,117.845332 173.988,118.064 C173.603998,118.282668 173.396,118.695997 173.364,119.304 L172.004,119.304 C172.025333,118.791997 172.131999,118.360002 172.324,118.008 C172.516001,117.655998 172.771998,117.370668 173.092,117.152 C173.412002,116.933332 173.777331,116.776 174.188,116.68 C174.598669,116.584 175.038664,116.536 175.508,116.536 C175.881335,116.536 176.251998,116.562666 176.62,116.616 C176.988002,116.669334 177.321332,116.778666 177.62,116.944 C177.918668,117.109334 178.158666,117.341332 178.34,117.64 C178.521334,117.938668 178.612,118.327998 178.612,118.808 L178.612,123.064 C178.612,123.384002 178.630666,123.618666 178.668,123.768 C178.705334,123.917334 178.830666,123.992 179.044,123.992 C179.14,123.992 179.278666,123.965334 179.46,123.912 L179.46,124.968 C179.225332,125.106667 178.900002,125.176 178.484,125.176 C178.131998,125.176 177.852001,125.077334 177.644,124.88 C177.435999,124.682666 177.332,124.360002 177.332,123.912 C176.958665,124.360002 176.524002,124.682666 176.028,124.88 C175.531998,125.077334 174.996003,125.176 174.42,125.176 Z M174.724,123.992 C175.172002,123.992 175.555998,123.930667 175.876,123.808 C176.196002,123.685333 176.457332,123.530668 176.66,123.344 C176.862668,123.157332 177.012,122.954668 177.108,122.736 C177.204,122.517332 177.252,122.312001 177.252,122.12 L177.252,120.728 C177.081332,120.866667 176.857335,120.962666 176.58,121.016 C176.302665,121.069334 176.012002,121.117333 175.708,121.16 C175.403998,121.202667 175.097335,121.245333 174.788,121.288 C174.478665,121.330667 174.201335,121.405333 173.956,121.512 C173.710665,121.618667 173.510667,121.770666 173.356,121.968 C173.201333,122.165334 173.124,122.434665 173.124,122.776 C173.124,123.000001 173.169333,123.189333 173.26,123.344 C173.350667,123.498667 173.467999,123.624 173.612,123.72 C173.756001,123.816 173.923999,123.885333 174.116,123.928 C174.308001,123.970667 174.510666,123.992 174.724,123.992 Z M180.824,116.728 L182.184,116.728 L182.184,123.48 L186.088,116.728 L187.832,116.728 L187.832,125 L186.472,125 L186.472,118.248 L182.568,125 L180.824,125 L180.824,116.728 Z M184.328,115.512 C184.007998,115.512 183.709335,115.464 183.432,115.368 C183.154665,115.272 182.912001,115.133334 182.704,114.952 C182.495999,114.770666 182.330667,114.549335 182.208,114.288 C182.085333,114.026665 182.024,113.725335 182.024,113.384 L183.16,113.384 C183.181333,114.173337 183.56533,114.568 184.312,114.568 C184.685335,114.568 184.970666,114.464001 185.168,114.256 C185.365334,114.047999 185.464,113.757335 185.464,113.384 L186.6,113.384 C186.6,113.704002 186.541334,113.997332 186.424,114.264 C186.306666,114.530668 186.146668,114.754666 185.944,114.936 C185.741332,115.117334 185.501335,115.258666 185.224,115.36 C184.946665,115.461334 184.648002,115.512 184.328,115.512 Z M189.98,116.728 L191.34,116.728 L191.34,120.024 L195.532,120.024 L195.532,116.728 L196.892,116.728 L196.892,125 L195.532,125 L195.532,121.192 L191.34,121.192 L191.34,125 L189.98,125 L189.98,116.728 Z M199.04,116.728 L200.4,116.728 L200.4,123.48 L204.304,116.728 L206.048,116.728 L206.048,125 L204.688,125 L204.688,118.248 L200.784,125 L199.04,125 L199.04,116.728 Z M208.196,116.728 L209.556,116.728 L209.556,120.024 L213.748,120.024 L213.748,116.728 L215.108,116.728 L215.108,125 L213.748,125 L213.748,121.192 L209.556,121.192 L209.556,125 L208.196,125 L208.196,116.728 Z M217.288,116.728 L222.952,116.728 L222.952,117.928 L218.648,117.928 L218.648,125 L217.288,125 L217.288,116.728 Z M226.428,125.176 C226.054665,125.176 225.702668,125.136 225.372,125.056 C225.041332,124.976 224.750668,124.842668 224.5,124.656 C224.249332,124.469332 224.052001,124.229335 223.908,123.936 C223.763999,123.642665 223.692,123.288002 223.692,122.872 C223.692,122.402664 223.771999,122.018668 223.932,121.72 C224.092001,121.421332 224.302665,121.178668 224.564,120.992 C224.825335,120.805332 225.123998,120.664 225.46,120.568 C225.796002,120.472 226.139998,120.392 226.492,120.328 C226.865335,120.253333 227.219998,120.197334 227.556,120.16 C227.892002,120.122666 228.187999,120.069334 228.444,120 C228.700001,119.930666 228.902666,119.829334 229.052,119.696 C229.201334,119.562666 229.276,119.368001 229.276,119.112 C229.276,118.813332 229.220001,118.573334 229.108,118.392 C228.995999,118.210666 228.852001,118.072 228.676,117.976 C228.499999,117.88 228.302668,117.816 228.084,117.784 C227.865332,117.752 227.649334,117.736 227.436,117.736 C226.859997,117.736 226.380002,117.845332 225.996,118.064 C225.611998,118.282668 225.404,118.695997 225.372,119.304 L224.012,119.304 C224.033333,118.791997 224.139999,118.360002 224.332,118.008 C224.524001,117.655998 224.779998,117.370668 225.1,117.152 C225.420002,116.933332 225.785331,116.776 226.196,116.68 C226.606669,116.584 227.046664,116.536 227.516,116.536 C227.889335,116.536 228.259998,116.562666 228.628,116.616 C228.996002,116.669334 229.329332,116.778666 229.628,116.944 C229.926668,117.109334 230.166666,117.341332 230.348,117.64 C230.529334,117.938668 230.62,118.327998 230.62,118.808 L230.62,123.064 C230.62,123.384002 230.638666,123.618666 230.676,123.768 C230.713334,123.917334 230.838666,123.992 231.052,123.992 C231.148,123.992 231.286666,123.965334 231.468,123.912 L231.468,124.968 C231.233332,125.106667 230.908002,125.176 230.492,125.176 C230.139998,125.176 229.860001,125.077334 229.652,124.88 C229.443999,124.682666 229.34,124.360002 229.34,123.912 C228.966665,124.360002 228.532002,124.682666 228.036,124.88 C227.539998,125.077334 227.004003,125.176 226.428,125.176 Z M226.732,123.992 C227.180002,123.992 227.563998,123.930667 227.884,123.808 C228.204002,123.685333 228.465332,123.530668 228.668,123.344 C228.870668,123.157332 229.02,122.954668 229.116,122.736 C229.212,122.517332 229.26,122.312001 229.26,122.12 L229.26,120.728 C229.089332,120.866667 228.865335,120.962666 228.588,121.016 C228.310665,121.069334 228.020002,121.117333 227.716,121.16 C227.411998,121.202667 227.105335,121.245333 226.796,121.288 C226.486665,121.330667 226.209335,121.405333 225.964,121.512 C225.718665,121.618667 225.518667,121.770666 225.364,121.968 C225.209333,122.165334 225.132,122.434665 225.132,122.776 C225.132,123.000001 225.177333,123.189333 225.268,123.344 C225.358667,123.498667 225.475999,123.624 225.62,123.72 C225.764001,123.816 225.931999,123.885333 226.124,123.928 C226.316001,123.970667 226.518666,123.992 226.732,123.992 Z M233.136,123.224 L233.136,125 L234.912,125 L234.912,123.224 L233.136,123.224 Z" id="Необходимо-установит" fill="#303030"></path>
            <g id="pc" transform="translate(38.000000, 35.000000)">
                <path d="M28.3333542,54 L33.6666458,54 C34.4030093,54 35,54.7462383 35,55.6666927 L35,62.3333073 C35,63.2537617 34.4030093,64 33.6666458,64 L28.3333542,64 C27.5969907,64 27,63.2537617 27,62.3333073 L27,55.6666927 C27,54.7462383 27.5969907,54 28.3333542,54 Z" id="Shape" fill="#55589A" fill-rule="nonzero"></path>
                <circle id="Oval-2" fill="#DDDDF3" opacity="0.665364583" cx="50" cy="40" r="40"></circle>
                <circle id="Oval-2" fill="#55589A" cx="91" cy="14" r="3"></circle>
                <circle id="Oval-2" fill="#55589A" cx="9.5" cy="70.5" r="1.5"></circle>
                <circle id="Oval-2" fill="#55589A" cx="9.5" cy="5.5" r="1.5"></circle>
                <g id="Group" transform="translate(0.000000, 10.000000)" fill="#55589A">
                    <path d="M17.432,53 L44.568,53 L44.568,53 C44.806587,53 45,53.193413 45,53.432 L45,55 L17,55 L17,53.432 L17,53.432 C17,53.193413 17.193413,53 17.432,53 Z" id="Rectangle-3"></path>
                    <rect id="Rectangle-2" x="0" y="0" width="63" height="48.0460653" rx="2"></rect>
                </g>
                <path d="M31.5717567,52.671785 L31.5535714,52.671785 C31.0506167,52.671785 30.6428571,53.080849 30.6428571,53.5854127 C30.6428571,54.0899763 31.0506167,54.4990403 31.5535714,54.4990403 C32.0565261,54.4990403 32.4642003,54.0899763 32.4642003,53.5854127 C32.4642003,53.080849 32.0564408,52.671785 31.5534861,52.671785 L31.5717567,52.671785 Z" id="Shape" fill="#FFFFFF" fill-rule="nonzero"></path>
                <rect id="Rectangle-16" fill="#FFFFFF" x="3" y="13" width="57" height="36"></rect>
                <g id="windows-logo-silhouette" transform="translate(22.000000, 22.000000)" fill-rule="nonzero" fill="#D8232A">
                    <polygon id="Shape" points="0 14.989304 7 16 7 9 0 9"></polygon>
                    <polygon id="Shape" points="0 8 7 8 7 1 0 1.99842677"></polygon>
                    <polygon id="Shape" points="8 15.7278885 17 17 17 9.00010695 17 9 8 9"></polygon>
                    <polygon id="Shape" points="8 1.25943571 8 8 17 8 17 0"></polygon>
                </g>
            </g>
            <g id="mac" transform="translate(76.000000, 73.000000)">
                <path d="M0.3456,31 L62.6544,31 L62.6544,31 C62.8452696,31 63,31.1547304 63,31.3456 L63,33 L0,33 L0,31.3456 L-5.55111512e-17,31.3456 C-7.88859369e-17,31.1547304 0.15473039,31 0.3456,31 Z" id="Rectangle-3" fill="#55589A"></path>
                <rect id="Rectangle-2" fill="#55589A" x="6" y="0" width="50" height="30" rx="2.592"></rect>
                <rect id="Rectangle-16" fill="#FFFFFF" x="8" y="2" width="46" height="25"></rect>
                <g id="apple" transform="translate(24.000000, 6.000000)" fill-rule="nonzero" fill="#D8232A">
                    <path d="M0.761287215,6.24925574 C-0.667580949,8.74323934 0.240776892,12.5279967 1.82087179,14.8228295 C2.60958928,15.9701344 3.40811518,17 4.5018352,17 C4.52244947,17 4.54311916,16.9996098 4.56428758,16.9987738 C5.07814813,16.9781508 5.44948207,16.8190197 5.80851394,16.6652393 C6.21160051,16.4924525 6.62848533,16.3138131 7.28237885,16.3138131 C7.90446432,16.3138131 8.30145527,16.4866557 8.68536834,16.6537574 C9.06373995,16.8184066 9.45347157,16.988741 10.0293412,16.9778721 C11.2613209,16.9547967 12.0177316,15.8434984 12.6850909,14.8631279 C13.3814875,13.8395049 13.7308218,12.8456459 13.8486889,12.4658492 L13.8534545,12.4507443 C13.8758975,12.3832459 13.8442003,12.3095607 13.7798638,12.2798525 C13.7780905,12.2790164 13.7715516,12.2762852 13.7697229,12.2755049 C13.5527744,12.1862689 11.6497226,11.3371049 11.6297179,9.02265246 C11.6111539,7.14228525 13.0573669,6.14653115 13.3474075,5.96605246 L13.3609286,5.95758033 C13.3923488,5.93723607 13.4142376,5.90496393 13.4216632,5.86806557 C13.4290887,5.83122295 13.4213307,5.79287541 13.4002731,5.76188525 C12.4020326,4.29252787 10.8720326,4.07108197 10.2560427,4.04443934 C10.1666588,4.03546557 10.0743933,4.03095082 9.98173995,4.03095082 C9.25824556,4.03095082 8.56517385,4.30579344 8.0083669,4.52662623 C7.6240105,4.67906885 7.29202101,4.81072131 7.06304745,4.81072131 C6.80575697,4.81072131 6.47188338,4.67745246 6.08525498,4.52317049 C5.56823578,4.31677377 4.98222528,4.08289836 4.36185766,4.08289836 C4.34706193,4.08289836 4.33248787,4.08306557 4.31813546,4.08334426 C2.87569069,4.1046918 1.51271061,4.9347377 0.761287215,6.24925574 Z" id="XMLID_229_"></path>
                    <path d="M10.2573173,0.00011147541 C9.38381528,0.035895082 8.33597863,0.576718033 7.70968164,1.31457377 C7.1774234,1.93476721 6.65746722,2.96881311 6.79445237,4.0111082 C6.80304165,4.07632131 6.85579645,4.12665246 6.92101956,4.13172459 C6.9799808,4.13635082 7.04016117,4.1386918 7.10011988,4.13874754 C7.95422673,4.13874754 8.87560703,3.66347213 9.504841,2.89819344 C10.1671021,2.0901082 10.5019732,1.05305246 10.4006751,0.124127869 C10.3926954,0.0513344262 10.3290239,-0.00273114754 10.2573173,0.00011147541 Z" id="XMLID_230_"></path>
                </g>
            </g>
        </g>
    </g>
</svg>