<?xml version="1.0" encoding="UTF-8"?>
<svg width="427px" height="345px" viewBox="0 0 427 345" version="1.1" xmlns="http://www.w3.org/2000/svg" xmlns:xlink="http://www.w3.org/1999/xlink">
    <!-- Generator: Sketch 47.1 (45422) - http://www.bohemiancoding.com/sketch -->
    <title>img</title>
    <desc>Created with Sketch.</desc>
    <defs>
        <rect id="path-1" x="0" y="0" width="64.08" height="80.64" rx="4.608"></rect>
        <rect id="path-2" x="0" y="0" width="64.08" height="66.96" rx="4.608"></rect>
        <path d="M291.712685,247.68 L124.56,247.68 L124.56,19.7103829 C124.56,9.07164728 133.190172,0.447575032 143.835856,0.447575032 L307.366035,0.447575032 C307.366035,0.447575032 324.337708,-0.55946879 323.994875,0.447575032 C312.087911,0.680191215 312.698096,33.6817485 312.698096,33.6817485 L312.698096,226.709421 C312.698096,238.291288 303.302744,247.68 291.712685,247.68" id="path-3"></path>
        <filter x="-6.3%" y="-4.6%" width="112.5%" height="110.1%" filterUnits="objectBoundingBox" id="filter-4">
            <feOffset dx="0" dy="1" in="SourceAlpha" result="shadowOffsetOuter1"></feOffset>
            <feGaussianBlur stdDeviation="4" in="shadowOffsetOuter1" result="shadowBlurOuter1"></feGaussianBlur>
            <feColorMatrix values="0 0 0 0 0.282352941   0 0 0 0 0.282352941   0 0 0 0 0.415686275  0 0 0 0.5 0" type="matrix" in="shadowBlurOuter1"></feColorMatrix>
        </filter>
    </defs>
    <g id="Page-1" stroke="none" stroke-width="1" fill="none" fill-rule="evenodd">
        <g id="Main-New" transform="translate(-500.000000, -6114.000000)">
            <g id="smartcontracts" transform="translate(219.000000, 5618.000000)">
                <g id="img" transform="translate(281.000000, 503.000000)">
                    <path d="M30.9592071,91.44 L393.842857,91.44" id="Line-3" stroke="#55589A" stroke-width="1.44" stroke-linecap="square"></path>
                    <path d="M394.505795,91.4346639 L394.505795,271.384454" id="Line-3-Copy" stroke="#55589A" stroke-width="1.44" stroke-linecap="square"></path>
                    <path d="M30.9057954,91.4399933 L30.9057954,309.602179" id="Line-3-Copy-2" stroke="#55589A" stroke-width="1.44" stroke-linecap="square"></path>
                    <path d="M30.9593195,309.6 L411.84,309.6" id="Line-3" stroke="#55589A" stroke-width="1.44" stroke-linecap="square"></path>
                    <g id="Group-5" transform="translate(362.880000, 257.040000)">
                        <g id="Rectangle-20-Copy">
                            <use fill="#55589A" fill-rule="evenodd" xlink:href="#path-1"></use>
                            <rect stroke="#55589A" stroke-width="1.44" x="0.72" y="0.72" width="62.64" height="79.2" rx="4.608"></rect>
                        </g>
                        <text id="1" font-family="HelveticaNeue-Medium, Helvetica Neue" font-size="12.96" font-weight="400" letter-spacing="0.0809999965" fill="#FFFFFF">
                            <tspan x="13.27662" y="20.92">1</tspan>
                        </text>
                        <text id="0" font-family="HelveticaNeue-Medium, Helvetica Neue" font-size="12.96" font-weight="400" letter-spacing="0.0809999965" fill="#FFFFFF">
                            <tspan x="28.39662" y="20.92">0</tspan>
                        </text>
                        <text id="1-copy-2" font-family="HelveticaNeue-Medium, Helvetica Neue" font-size="12.96" font-weight="400" letter-spacing="0.0809999965" fill="#FFFFFF">
                            <tspan x="43.51662" y="20.92">1</tspan>
                        </text>
                        <text id="0" font-family="HelveticaNeue-Medium, Helvetica Neue" font-size="12.96" font-weight="400" letter-spacing="0.0809999965" fill="#FFFFFF">
                            <tspan x="13.27662" y="43.96">0</tspan>
                        </text>
                        <text id="1-copy" font-family="HelveticaNeue-Medium, Helvetica Neue" font-size="12.96" font-weight="400" letter-spacing="0.0809999965" fill="#FFFFFF">
                            <tspan x="28.39662" y="43.96">1</tspan>
                        </text>
                        <text id="0" font-family="HelveticaNeue-Medium, Helvetica Neue" font-size="12.96" font-weight="400" letter-spacing="0.0809999965" fill="#FFFFFF">
                            <tspan x="43.51662" y="43.96">0</tspan>
                        </text>
                        <text id="1" font-family="HelveticaNeue-Medium, Helvetica Neue" font-size="12.96" font-weight="400" letter-spacing="0.0809999965" fill="#FFFFFF">
                            <tspan x="13.27662" y="67">1</tspan>
                        </text>
                        <text id="0" font-family="HelveticaNeue-Medium, Helvetica Neue" font-size="12.96" font-weight="400" letter-spacing="0.0809999965" fill="#FFFFFF">
                            <tspan x="28.39662" y="67">0</tspan>
                        </text>
                        <text id="1-copy-2" font-family="HelveticaNeue-Medium, Helvetica Neue" font-size="12.96" font-weight="400" letter-spacing="0.0809999965" fill="#FFFFFF">
                            <tspan x="43.51662" y="67">1</tspan>
                        </text>
                    </g>
                    <g id="Group-5-Copy" transform="translate(0.000000, 149.040000)">
                        <g id="Rectangle-20-Copy">
                            <use fill="#55589A" fill-rule="evenodd" xlink:href="#path-2"></use>
                            <rect stroke="#55589A" stroke-width="1.44" x="0.72" y="0.72" width="62.64" height="65.52" rx="4.608"></rect>
                        </g>
                        <text id="$" font-family="HelveticaNeue-Medium, Helvetica Neue" font-size="36" font-weight="400" letter-spacing="0.225" fill="#FFFFFF">
                            <tspan x="21.9195" y="45.08">$</tspan>
                        </text>
                    </g>
                    <path d="M233.891611,252 L130.191855,252 C120.197327,252 114.08021,252 114.08021,252 L113.942347,251.83417 C106.019218,242.337131 106.019218,228.542295 113.942347,219.045256 L114.08021,218.88 L124.214899,218.88 L124.214899,247.25062 L239.76,247.25062 C237.837953,248.87047 235.877994,250.456466 233.891611,252" id="Fill-7"></path>
                    <g id="Fill-11">
                        <use fill="black" fill-opacity="1" filter="url(#filter-4)" xlink:href="#path-3"></use>
                        <use fill="#FFFFFF" fill-rule="evenodd" xlink:href="#path-3"></use>
                    </g>
                    <path d="M291.170455,247.68 C283.724554,247.68 108.330688,247.68 108.330688,247.68 L108.192577,247.51417 C100.255808,238.017131 100.255808,224.222295 108.192577,214.725256 L108.330688,214.56 L291.170455,214.56 L290.266404,215.530304 C281.78237,224.634287 280.341414,240.166603 291.170455,247.68 C291.170455,247.68 298.616931,247.68 291.170455,247.68" id="Fill-12" fill="#EAEAF8"></path>
                    <polygon id="Fill-15" fill="#55589A" points="149.04 45.36 294.48 45.36 294.48 41.76 149.04 41.76"></polygon>
                    <polygon id="Fill-16" fill="#55589A" points="149.04 64.08 294.48 64.08 294.48 60.48 149.04 60.48"></polygon>
                    <polygon id="Fill-17" fill="#55589A" points="149.04 83.52 294.48 83.52 294.48 79.92 149.04 79.92"></polygon>
                    <polygon id="Fill-18" fill="#55589A" points="149.04 102.24 294.48 102.24 294.48 98.64 149.04 98.64"></polygon>
                    <polygon id="Fill-19" fill="#55589A" points="149.04 121.68 294.48 121.68 294.48 118.08 149.04 118.08"></polygon>
                    <polygon id="Fill-20" fill="#55589A" points="149.04 159.84 294.48 159.84 294.48 156.24 149.04 156.24"></polygon>
                    <g id="dislike" transform="translate(151.920000, 177.120000)">
                        <circle id="Oval-9" fill="#55589A" cx="10.8" cy="10.8" r="10.8"></circle>
                        <path d="M8.2460931,15.3360284 L5.6086287,11.8490116 C5.2656063,11.395327 5.3549043,10.7495284 5.8078887,10.4060876 C6.2616111,10.0623514 6.9061803,10.1523494 7.2492027,10.6055906 L8.9837979,12.8986929 L13.3467063,5.88534967 C13.6470723,5.40299575 14.2813095,5.25521575 14.7642567,5.55550471 C15.2464659,5.85608923 15.3937707,6.49154323 15.0934047,6.97434049 L9.9398031,15.2588873 C9.7607643,15.5469105 9.4516899,15.7280888 9.1132431,15.7434579 C9.0974499,15.7441968 9.0818043,15.7444924 9.0663063,15.7444924 C8.7451287,15.7444924 8.4413679,15.5940523 8.2460931,15.3360284 Z" id="Fill-73" fill="#FFFFFF"></path>
                    </g>
                    <g id="dislike" transform="translate(272.880000, 177.120000)">
                        <circle id="Oval-9" fill="#55589A" cx="10.8" cy="10.8" r="10.8"></circle>
                        <path d="M8.2460931,15.3360284 L5.6086287,11.8490116 C5.2656063,11.395327 5.3549043,10.7495284 5.8078887,10.4060876 C6.2616111,10.0623514 6.9061803,10.1523494 7.2492027,10.6055906 L8.9837979,12.8986929 L13.3467063,5.88534967 C13.6470723,5.40299575 14.2813095,5.25521575 14.7642567,5.55550471 C15.2464659,5.85608923 15.3937707,6.49154323 15.0934047,6.97434049 L9.9398031,15.2588873 C9.7607643,15.5469105 9.4516899,15.7280888 9.1132431,15.7434579 C9.0974499,15.7441968 9.0818043,15.7444924 9.0663063,15.7444924 C8.7451287,15.7444924 8.4413679,15.5940523 8.2460931,15.3360284 Z" id="Fill-73" fill="#FFFFFF"></path>
                    </g>
                    <g id="locked-padlock" transform="translate(383.000000, 71.000000)" fill-rule="nonzero" fill="#D8232A">
                        <path d="M20.4393247,12.1152459 L19.8816004,12.1152459 L19.8816004,9.37937226 C19.8816004,4.31916472 16.0502745,0.0920833393 11.2615729,0.00184906304 C11.1307277,-0.000616354346 10.8692723,-0.000616354346 10.7384859,0.00184906304 C5.94966667,0.0920833393 2.1183996,4.31916472 2.1183996,9.37937226 L2.1183996,12.1152459 L1.56061651,12.1152459 C0.701095411,12.1152459 0,13.0448316 0,14.1929148 L0,27.9149349 C0,29.0617238 0.701095411,30 1.56067532,30 L20.4393247,30 C21.2988458,30 22,29.0617238 22,27.9149349 L22,14.1929148 C22,13.0448932 21.2989046,12.1152459 20.4393247,12.1152459 Z M16.2055834,12.1152459 L11.2615729,12.1152459 L10.7384859,12.1152459 L5.79447536,12.1152459 L5.79447536,9.37937226 C5.79447536,6.36509133 8.13169529,3.87273926 11,3.87273926 C13.8683047,3.87273926 16.2056423,6.36509133 16.2056423,9.37937226 L16.2056423,12.1152459 L16.2055834,12.1152459 Z" id="Shape"></path>
                    </g>
                    <g id="locked-padlock" transform="translate(140.000000, 288.000000)" fill-rule="nonzero" fill="#D8232A">
                        <path d="M20.4393247,12.1152459 L19.8816004,12.1152459 L19.8816004,9.37937226 C19.8816004,4.31916472 16.0502745,0.0920833393 11.2615729,0.00184906304 C11.1307277,-0.000616354346 10.8692723,-0.000616354346 10.7384859,0.00184906304 C5.94966667,0.0920833393 2.1183996,4.31916472 2.1183996,9.37937226 L2.1183996,12.1152459 L1.56061651,12.1152459 C0.701095411,12.1152459 0,13.0448316 0,14.1929148 L0,27.9149349 C0,29.0617238 0.701095411,30 1.56067532,30 L20.4393247,30 C21.2988458,30 22,29.0617238 22,27.9149349 L22,14.1929148 C22,13.0448932 21.2989046,12.1152459 20.4393247,12.1152459 Z M16.2055834,12.1152459 L11.2615729,12.1152459 L10.7384859,12.1152459 L5.79447536,12.1152459 L5.79447536,9.37937226 C5.79447536,6.36509133 8.13169529,3.87273926 11,3.87273926 C13.8683047,3.87273926 16.2056423,6.36509133 16.2056423,9.37937226 L16.2056423,12.1152459 L16.2055834,12.1152459 Z" id="Shape"></path>
                    </g>
                    <g id="locked-padlock" transform="translate(20.000000, 70.000000)" fill-rule="nonzero" fill="#D8232A">
                        <path d="M20.4393247,12.1152459 L19.8816004,12.1152459 L19.8816004,9.37937226 C19.8816004,4.31916472 16.0502745,0.0920833393 11.2615729,0.00184906304 C11.1307277,-0.000616354346 10.8692723,-0.000616354346 10.7384859,0.00184906304 C5.94966667,0.0920833393 2.1183996,4.31916472 2.1183996,9.37937226 L2.1183996,12.1152459 L1.56061651,12.1152459 C0.701095411,12.1152459 0,13.0448316 0,14.1929148 L0,27.9149349 C0,29.0617238 0.701095411,30 1.56067532,30 L20.4393247,30 C21.2988458,30 22,29.0617238 22,27.9149349 L22,14.1929148 C22,13.0448932 21.2989046,12.1152459 20.4393247,12.1152459 Z M16.2055834,12.1152459 L11.2615729,12.1152459 L10.7384859,12.1152459 L5.79447536,12.1152459 L5.79447536,9.37937226 C5.79447536,6.36509133 8.13169529,3.87273926 11,3.87273926 C13.8683047,3.87273926 16.2056423,6.36509133 16.2056423,9.37937226 L16.2056423,12.1152459 L16.2055834,12.1152459 Z" id="Shape"></path>
                    </g>
                </g>
            </g>
        </g>
    </g>
</svg>