<?xml version="1.0" encoding="UTF-8"?>
<svg width="95px" height="31px" viewBox="0 0 95 31" version="1.1" xmlns="http://www.w3.org/2000/svg" xmlns:xlink="http://www.w3.org/1999/xlink">
    <!-- Generator: Sketch 47.1 (45422) - http://www.bohemiancoding.com/sketch -->
    <title>logo</title>
    <desc>Created with Sketch.</desc>
    <defs></defs>
    <g id="Page-1" stroke="none" stroke-width="1" fill="none" fill-rule="evenodd">
        <g id="Main" transform="translate(-155.000000, -10.000000)">
            <g id="cover" transform="translate(-26.000000, 0.000000)">
                <g id="header" transform="translate(181.000000, 8.000000)">
                    <g id="logo" transform="translate(0.000000, 2.000000)">
                        <g id="Group">
                            <path d="M6.2095555,1.74487127 C6.2095555,1.74487127 3.55871834,7.17519888 2.44170198,12.6065002 C1.34569687,18.0421832 1.66282006,24.0727971 1.66282006,24.0727971 C1.66282006,24.0727971 7.20490209,26.758263 12.6761323,27.8643868 C18.1473624,28.9700237 24.2963274,28.676453 24.2963274,28.676453 C24.2963274,28.676453 26.9525395,23.2188618 28.0695558,17.7875605 C29.165561,12.3518775 28.8543014,6.29399994 28.8543014,6.29399994 C28.8543014,6.29399994 23.3063557,3.63579761 17.8351256,2.53016071 C12.364384,1.42403696 6.2095555,1.74487127 6.2095555,1.74487127" id="Fill-31" fill="#292D78"></path>
                            <path d="M8.36149777,0.384124842 C8.36149777,0.384124842 4.80619986,5.27502238 2.76126834,10.4307665 C0.736859434,15.5952738 0,21.589374 0,21.589374 C0,21.589374 4.99139199,25.1910921 10.1875214,27.2246656 C15.3831623,29.2587259 21.4905934,30.0313572 21.4905934,30.0313572 C21.4905934,30.0313572 25.0556639,25.1146566 27.1005955,19.9584257 C29.125493,14.7939183 29.8726137,8.77450193 29.8726137,8.77450193 C29.8726137,8.77450193 24.8704718,5.19858689 19.674831,3.16452658 C14.4791902,1.13095311 8.36149777,0.384124842 8.36149777,0.384124842" id="Fill-33" fill="#D8232A"></path>
                            <path d="M1.43804862,19.3274678 L3.04467582,17.4233965 C4.0835108,18.2505551 5.2068794,18.6643778 6.41527023,18.6643778 C6.79591579,18.6643778 7.08665277,18.6006004 7.28894707,18.4730456 C7.49075274,18.3454909 7.59189989,18.1619483 7.59189989,17.9209574 C7.59189989,17.6999274 7.47267329,17.5197928 7.23470874,17.3800668 C6.99674419,17.2408277 6.53547409,17.0918515 5.85236435,16.9331383 C5.50103681,16.8513475 5.19564083,16.7758857 4.93666503,16.7057792 C4.6772006,16.6366465 4.40258853,16.5485266 4.11185155,16.4423933 C3.82111457,16.3367468 3.57386598,16.2262317 3.37059441,16.1113351 C3.16732285,15.9954647 2.96844898,15.8562256 2.77495008,15.6926439 C2.58096255,15.5290622 2.42606571,15.3528224 2.30977092,15.162464 C2.19347613,14.9730792 2.10014711,14.7505887 2.02978388,14.4954791 C1.95990928,14.2408565 1.92472766,13.9618913 1.92472766,13.6585836 C1.92472766,12.6834225 2.28875968,11.8874224 3.01731234,11.2720437 C3.74537637,10.6561781 4.72410942,10.3489756 5.9535115,10.3489756 C7.65786542,10.3489756 9.08174366,10.8056411 10.2261235,11.7189722 L8.78221128,13.7452429 C7.81276226,13.0675474 6.84575642,12.7286996 5.88119373,12.7286996 C5.54403657,12.7286996 5.2870153,12.792477 5.10866405,12.9200317 C4.93080143,13.0475865 4.84187012,13.2140893 4.84187012,13.4210006 C4.84187012,13.6615047 4.96060807,13.8474815 5.19857263,13.9799047 C5.43702581,14.112328 5.91490945,14.2603305 6.63222354,14.4234253 C7.26695856,14.5631513 7.8073873,14.7155354 8.25204385,14.8810645 C8.69767767,15.0470805 9.09786857,15.2554524 9.45310518,15.5047197 C9.80883043,15.7549607 10.0736698,16.0592421 10.2476234,16.4175639 C10.4220656,16.7758857 10.5090423,17.1950637 10.5090423,17.6755849 C10.5090423,18.7193918 10.1274195,19.541195 9.36417387,20.1424551 C8.60092822,20.7432283 7.58212722,21.0436149 6.30728221,21.0436149 C5.36959438,21.0436149 4.48028127,20.8985335 3.63983152,20.6078839 C2.79938176,20.3167475 2.0649655,19.8897798 1.43804862,19.3274678" id="Fill-35" fill="#FFFFFF"></path>
                            <polygon id="Fill-36" fill="#FFFFFF" points="11.9422046 20.8634803 14.8153701 20.8634803 14.8153701 10.5218074 11.9422046 10.5218074"></polygon>
                            <path d="M16.3721566,15.6809595 C16.3721566,14.9370523 16.5133717,14.2355011 16.7953133,13.5763059 C17.0777435,12.9161369 17.4652299,12.3479827 17.957284,11.8708695 C18.449338,11.3932694 19.0420505,11.0154736 19.7344443,10.7374821 C20.4263494,10.4590038 21.1685838,10.3197646 21.9601702,10.3197646 C22.835313,10.3197646 23.6102858,10.4487799 24.2836229,10.7063237 C24.9574486,10.9638675 25.5824109,11.3436107 26.1599758,11.8440927 L24.4751672,13.8611133 C24.0896354,13.5388184 23.6992171,13.2983144 23.3044012,13.1396012 C22.9090966,12.980888 22.465906,12.9020183 21.9743406,12.9020183 C21.2262426,12.9020183 20.5968825,13.1741676 20.0852832,13.7194398 C19.5736838,14.2642253 19.3181285,14.9321838 19.3181285,15.7233154 C19.3181285,16.5670269 19.5824792,17.2637096 20.1102035,17.8123898 C20.638905,18.3610701 21.3132194,18.6351667 22.1336351,18.6351667 C22.804529,18.6351667 23.3596168,18.4861906 23.7984097,18.1872645 L23.7984097,16.8898086 L21.7353988,16.8898086 L21.7353988,14.8197214 L26.5127693,14.8197214 L26.5127693,19.4905626 C25.2139812,20.5455671 23.715342,21.0728259 22.017829,21.0728259 C20.9511419,21.0728259 19.9885337,20.84498 19.1300045,20.389775 C18.2709867,19.93457 17.5961837,19.2948488 17.1070615,18.4706114 C16.6169621,17.6468608 16.3721566,16.7169768 16.3721566,15.6809595" id="Fill-37" fill="#FFFFFF"></path>
                        </g>
                        <text id="Sigfred" font-family="ArialMT, Arial" font-size="19.1102976" font-weight="normal" fill="#FFFFFF">
                            <tspan x="35.66592" y="23.63552">Sigfred</tspan>
                        </text>
                    </g>
                </g>
            </g>
        </g>
    </g>
</svg>